<?xml version="1.0" standalone="no"?>
<!DOCTYPE svg PUBLIC "-//W3C//DTD SVG 1.1//EN" "http://www.w3.org/Graphics/SVG/1.1/DTD/svg11.dtd" >
<svg xmlns="http://www.w3.org/2000/svg" xmlns:xlink="http://www.w3.org/1999/xlink" version="1.1">
<metadata>
Created by FontForge 20170731 at Sat Nov 18 18:13:13 2017
 By Aleksey,,,
Copyright (c) 2017 by Matt Bailey. All rights reserved.
</metadata>
<defs>
<font id="SpartanMB-Black" horiz-adv-x="678" >
  <font-face 
    font-family="Spartan MB"
    font-weight="900"
    font-stretch="normal"
    units-per-em="1000"
    panose-1="0 11 5 3 8 0 0 2 0 3"
    ascent="800"
    descent="-200"
    x-height="512"
    cap-height="825"
    bbox="-176 -423 1448 1216"
    underline-thickness="50"
    underline-position="-200"
    unicode-range="U+000D-FB04"
  />
<missing-glyph horiz-adv-x="342" 
 />
    <glyph glyph-name="ff" unicode="ff" horiz-adv-x="806" 
d="M29 512h80v89q0 122 58 198t161 76q44 0 84.5 -13t59.5 -26l18 -13l-72 -146q-24 14 -53 14q-30 0 -39 -21t-9 -76v-82h179v89q0 122 58 198t161 76q44 0 84 -12.5t58 -25.5l18 -13l-72 -145q-22 12 -51 12q-30 0 -39 -21t-9 -76v-82h114v-158h-114v-354h-208v354h-179
v-354h-208v354h-80v158z" />
    <glyph glyph-name="fi" unicode="fi" horiz-adv-x="717" 
d="M5 512h80v89q0 121 58.5 197.5t161.5 76.5q46 0 90 -9t75 -21.5t55 -25.5t36 -22l12 -9l-69 -148q-70 53 -135 53q-44 0 -60 -23t-16 -76v-82h376v-512h-208v354h-168v-354h-208v354h-80v158z" />
    <glyph glyph-name="fl" unicode="fl" horiz-adv-x="714" 
d="M5 512h80v89q0 122 58 198t161 76q33 0 63.5 -6.5t44.5 -13.5l13 -7l-30 -171q-25 14 -54 14q-30 0 -39 -21t-9 -76v-82h114v-158h-114v-354h-208v354h-80v158zM456 860h208v-860h-208v860z" />
    <glyph glyph-name="ffi" unicode="ffi" horiz-adv-x="1128" 
d="M29 512h80v89q0 122 58 198t161 76q44 0 84.5 -13t59.5 -26l18 -13l-72 -146q-24 14 -53 14q-30 0 -39 -21t-9 -76v-82h180v89q0 121 58.5 197.5t161.5 76.5q46 0 90 -9t75 -21.5t55 -25.5t36 -22l12 -9l-69 -148q-70 53 -135 53q-44 0 -60 -23t-16 -76v-82h376v-512
h-208v354h-168v-354h-208v354h-180v-354h-208v354h-80v158z" />
    <glyph glyph-name="ffl" unicode="ffl" horiz-adv-x="1124" 
d="M317 354v-354h-208v354h-80v158h80v89q0 122 58 198t161 76q44 0 84.5 -13t59.5 -26l18 -13l-72 -146q-24 14 -53 14q-30 0 -39 -21t-9 -76v-82h179v89q0 122 58 198t161 76q33 0 63.5 -6.5t43.5 -13.5l14 -7l-30 -171q-25 14 -54 14q-30 0 -39 -21t-9 -76v-82h114v-158
h-114v-354h-208v354h-179zM867 860h208v-860h-208v860z" />
    <glyph glyph-name="ft" unicode="ft" horiz-adv-x="786" 
d="M5 512h80v89q0 122 58 198t161 76q44 0 84 -12.5t58 -25.5l18 -13l-72 -145q-22 12 -51 12q-30 0 -39 -21t-9 -76v-82h163v192h208v-192h102v-158h-102v-119q0 -65 34 -65q9 0 19 4t15 8l6 4l52 -167q-64 -35 -143 -35q-55 0 -94 18.5t-59 50.5t-29 66.5t-9 74.5v160
h-163v-354h-208v354h-80v158z" />
    <glyph glyph-name="fj" unicode="fj" horiz-adv-x="717" 
d="M5 512h80v89q0 121 58.5 197.5t161.5 76.5q46 0 90 -9t75 -21.5t55 -25.5t36 -22l12 -9l-69 -148q-70 53 -135 53q-44 0 -60 -23t-16 -76v-82h376v-581q0 -36 -10 -70t-31 -65.5t-62 -51t-96 -19.5q-45 0 -83.5 8.5t-54.5 16.5l-16 9l64 167q23 -14 41 -14q40 0 40 60
v382h-168v-354h-208v354h-80v158z" />
    <glyph glyph-name="fft" unicode="fft" horiz-adv-x="1197" 
d="M29 512h80v89q0 122 58 198t161 76q44 0 84.5 -13t59.5 -26l18 -13l-72 -146q-24 14 -53 14q-30 0 -39 -21t-9 -76v-82h179v89q0 122 58 198t161 76q44 0 84 -12.5t58 -25.5l18 -13l-72 -145q-22 12 -51 12q-30 0 -39 -21t-9 -76v-82h163v192h208v-192h102v-158h-102
v-119q0 -65 34 -65q9 0 19 4t16 8l5 4l52 -167q-64 -35 -143 -35q-55 0 -94 18.5t-59 50.5t-29 66.5t-9 74.5v160h-163v-354h-208v354h-179v-354h-208v354h-80v158z" />
    <glyph glyph-name="ffj" unicode="ffj" horiz-adv-x="1128" 
d="M29 512h80v89q0 122 58 198t161 76q44 0 84.5 -13t59.5 -26l18 -13l-72 -146q-24 14 -53 14q-30 0 -39 -21t-9 -76v-82h180v89q0 121 58.5 197.5t161.5 76.5q46 0 90 -9t75 -21.5t55 -25.5t36 -22l12 -9l-69 -148q-70 53 -135 53q-44 0 -60 -23t-16 -76v-82h376v-581
q0 -36 -10 -70t-31 -65.5t-62 -51t-96 -19.5q-45 0 -83.5 8.5t-54.5 16.5l-16 9l64 167q23 -14 41 -14q40 0 40 60v382h-168v-354h-208v354h-180v-354h-208v354h-80v158z" />
    <glyph glyph-name=".notdef" horiz-adv-x="342" 
 />
    <glyph glyph-name=".null" horiz-adv-x="0" 
 />
    <glyph glyph-name="nonmarkingreturn" horiz-adv-x="333" 
 />
    <glyph glyph-name="NULL" horiz-adv-x="0" 
 />
    <glyph glyph-name="NULL" horiz-adv-x="0" 
 />
    <glyph glyph-name="CR" unicode="&#xd;" horiz-adv-x="278" 
 />
    <glyph glyph-name="space" unicode=" " horiz-adv-x="278" 
 />
    <glyph glyph-name="exclam" unicode="!" horiz-adv-x="364" 
d="M79 860h208l-29 -570h-150zM182 250q56 0 94.5 -39t38.5 -94t-38.5 -94t-94.5 -39t-94.5 39t-38.5 94t38.5 94t94.5 39z" />
    <glyph glyph-name="quotedbl" unicode="&#x22;" horiz-adv-x="578" 
d="M64 843h196l-37 -410h-122zM318 843h196l-37 -410h-122z" />
    <glyph glyph-name="numbersign" unicode="#" horiz-adv-x="879" 
d="M68 633h151l26 220h142l-27 -220h163l26 220h142l-27 -220h105v-142h-121l-15 -128h136v-142h-154l-25 -221h-141l25 221h-163l-25 -221h-141l25 221h-102v142h119l15 128h-134v142zM344 491l-15 -128h162l16 128h-163z" />
    <glyph glyph-name="dollar" unicode="$" 
d="M91 579q0 95 61.5 163.5t150.5 89.5v131h125v-126q56 -6 109 -23t77 -31l25 -14l-87 -177q-81 48 -165 48q-80 0 -80 -53q0 -32 93 -67q49 -18 87 -37.5t80.5 -51t66.5 -75.5t24 -97q0 -119 -63 -183.5t-167 -83.5v-130h-125v123q-84 4 -156.5 27.5t-102.5 45.5l-30 21
l109 187q12 -9 33.5 -22t78 -34.5t103.5 -21.5q78 0 78 58q0 24 -23.5 46t-52 36.5t-94.5 44.5q-71 32 -113 87.5t-42 118.5z" />
    <glyph glyph-name="percent" unicode="%" horiz-adv-x="975" 
d="M16 643q0 86 65 141.5t163 55.5t163 -55.5t65 -141.5t-65 -141.5t-163 -55.5t-163 55.5t-65 141.5zM167 643q0 -32 23 -53.5t54 -21.5t54 21.5t23 53.5t-23 53.5t-54 21.5t-54 -21.5t-23 -53.5zM503 182q0 86 65 141.5t163 55.5t163 -55.5t65 -141.5t-65 -141.5
t-163 -55.5t-163 55.5t-65 141.5zM654 182q0 -32 23 -53.5t54 -21.5t54 21.5t23 53.5t-23 53.5t-54 21.5t-54 -21.5t-23 -53.5zM181 0l480 825h137l-480 -825h-137z" />
    <glyph glyph-name="ampersand" unicode="&#x26;" horiz-adv-x="853" 
d="M20 220q0 74 56.5 128.5t145.5 87.5q-75 102 -75 179q0 105 73 165.5t208 60.5q124 0 192 -68.5t68 -157.5q0 -59 -48.5 -113.5t-111.5 -88.5l81 -81q67 43 125 101l135 -134q-73 -71 -122 -107l186 -192h-278l-74 75q-5 -4 -13 -10t-35.5 -21.5t-56.5 -27.5t-72 -22
t-86 -10q-136 0 -217 58.5t-81 177.5zM372 624q0 -45 47 -92q76 48 76 91q0 30 -19 47t-48 17q-24 0 -40 -16t-16 -47zM271 243q0 -25 20 -37t50 -12q22 0 46 7.5t37 14.5l12 8l-103 95q0 2 -15.5 -4.5t-31 -25.5t-15.5 -46z" />
    <glyph glyph-name="quotesingle" unicode="'" horiz-adv-x="324" 
d="M64 843h196l-37 -410h-122z" />
    <glyph glyph-name="parenleft" unicode="(" horiz-adv-x="423" 
d="M237 307q0 -99 12 -188t29 -145.5t34.5 -98.5t29.5 -60l12 -18l-134 -57q-7 9 -18.5 25.5t-41 72.5t-52.5 117.5t-41.5 157t-18.5 194.5t17.5 193.5t43 159.5t51 115.5t42.5 74.5l18 25l134 -57q-5 -6 -13 -19t-28 -59t-35.5 -100t-28 -144t-12.5 -189z" />
    <glyph glyph-name="parenright" unicode=")" horiz-adv-x="423" 
d="M186 307q0 99 -12 188t-29 145.5t-34.5 98.5t-29.5 61l-12 18l134 57q7 -9 18.5 -25.5t41 -73t52.5 -118t41.5 -157t18.5 -194.5t-17.5 -193.5t-43 -159t-51 -115t-43.5 -75.5l-17 -24l-134 57q5 6 13 19t28 59t35.5 99.5t28 143.5t12.5 189z" />
    <glyph glyph-name="asterisk" unicode="*" horiz-adv-x="548" 
d="M222 860h104v-125l122 38l30 -94l-121 -44l70 -106l-78 -53l-75 97l-75 -97l-78 53l70 106l-121 44l30 94l122 -38v125z" />
    <glyph glyph-name="plus" unicode="+" horiz-adv-x="636" 
d="M228 672h180v-167h167v-180h-167v-167h-180v167h-167v180h167v167z" />
    <glyph glyph-name="comma" unicode="," horiz-adv-x="387" 
d="M193 250q55 0 94 -39t39 -94q0 -163 -194 -324l-60 49q70 70 87 154q-43 11 -70.5 43.5t-27.5 77.5q0 55 38.5 94t93.5 39z" />
    <glyph glyph-name="hyphen" unicode="-" horiz-adv-x="438" 
d="M58 379h322v-179h-322v179z" />
    <glyph glyph-name="period" unicode="." horiz-adv-x="388" 
d="M194 250q56 0 94.5 -39t38.5 -94t-38.5 -94t-94.5 -39t-94.5 39t-38.5 94t38.5 94t94.5 39z" />
    <glyph glyph-name="slash" unicode="/" horiz-adv-x="647" 
d="M28 -120l412 980h179l-412 -980h-179z" />
    <glyph glyph-name="zero" unicode="0" horiz-adv-x="704" 
d="M688 412q0 -204 -97 -316t-239 -112t-239 112t-97 316t97 316t239 112t239 -112t97 -316zM352 177q55 0 84.5 62t29.5 173t-29.5 173t-84.5 62t-84.5 -62t-29.5 -173t29.5 -173t84.5 -62z" />
    <glyph glyph-name="one" unicode="1" horiz-adv-x="432" 
d="M10 825h373v-825h-220v609h-153v216z" />
    <glyph glyph-name="two" unicode="2" horiz-adv-x="756" 
d="M50 605q2 5 5 13.5t15 33t27 47t41.5 49.5t56.5 46.5t74 33t93 13.5q64 0 116 -11.5t85.5 -30t58.5 -45.5t38.5 -52t21 -56.5t9.5 -53.5t2 -47q0 -55 -26.5 -112t-63.5 -98t-74.5 -74.5t-64.5 -50.5l-26 -17h270v-193h-660v115q17 12 44.5 32t97.5 78t124 110t98 114
t44 104q0 54 -23.5 79t-70.5 25q-21 0 -42.5 -14.5t-36.5 -35.5t-27 -42.5t-18 -36.5l-6 -14z" />
    <glyph glyph-name="three" unicode="3" horiz-adv-x="673" 
d="M47 664q1 4 3.5 10t12.5 24.5t23 35t36.5 37t51.5 35t69.5 24.5t88.5 10q124 0 203.5 -69.5t79.5 -177.5q0 -85 -57 -144q94 -69 94 -184q0 -123 -91.5 -202t-228.5 -79q-72 0 -131.5 20.5t-93.5 50t-57.5 59t-31.5 50.5l-9 20l203 102q0 -5 1.5 -12.5t8.5 -27
t18.5 -34.5t35.5 -27.5t55 -12.5q44 0 73 24t29 69q0 47 -29.5 76t-73.5 29q-9 0 -18.5 -2t-14.5 -4l-5 -1v142h45q30 0 54.5 25t24.5 61q0 31 -26 52t-60 21q-26 0 -47 -9t-32.5 -21.5t-19 -25t-9.5 -21.5l-3 -9z" />
    <glyph glyph-name="four" unicode="4" horiz-adv-x="691" 
d="M-31 146v62l398 617h218v-486h96v-193h-96v-146h-206v146h-410zM271 339h108v193z" />
    <glyph glyph-name="five" unicode="5" horiz-adv-x="628" 
d="M141 825h421v-193h-232l-13 -86q298 -2 298 -290q0 -118 -88.5 -194.5t-220.5 -76.5q-123 0 -195.5 52t-100.5 127l174 84q21 -79 122 -79q36 0 62 27t26 67q0 121 -203 121q-29 0 -59.5 -4t-46.5 -8l-16 -5z" />
    <glyph glyph-name="six" unicode="6" horiz-adv-x="688" 
d="M19 266q0 115 30 187t112 169l171 203h271l-239 -277q16 7 46 7q41 0 84.5 -18t83.5 -52t65.5 -91.5t25.5 -127.5q0 -73 -27.5 -129t-73.5 -88.5t-99.5 -48.5t-110.5 -16q-142 0 -240.5 82t-98.5 200zM248 265q0 -43 28 -71t71 -28q44 0 72.5 28t28.5 71q0 44 -29 73
t-72 29q-42 0 -70.5 -28.5t-28.5 -73.5z" />
    <glyph glyph-name="seven" unicode="7" horiz-adv-x="721" 
d="M85 825h666v-63l-436 -762h-260l370 632h-340v193z" />
    <glyph glyph-name="eight" unicode="8" horiz-adv-x="700" 
d="M64 632q0 89 88 148.5t198 59.5t198 -59.5t88 -148.5q0 -121 -105 -185q141 -68 141 -224q0 -103 -97 -171t-225 -68t-225 68t-97 171q0 156 141 224q-105 64 -105 185zM269 259q0 -38 22 -61.5t59 -23.5t59 23.5t22 61.5q0 37 -23 61t-58 24t-58 -24t-23 -61zM276 600
q0 -33 21.5 -53.5t52.5 -20.5t52.5 20.5t21.5 53.5q0 31 -21 52.5t-53 21.5t-53 -21.5t-21 -52.5z" />
    <glyph glyph-name="nine" unicode="9" horiz-adv-x="688" 
d="M19 558q0 73 27.5 129t73.5 88.5t99.5 48.5t110.5 16q142 0 240.5 -82t98.5 -200q0 -115 -30 -187t-112 -169l-171 -202h-271l239 276q-16 -7 -46 -7q-41 0 -84.5 18t-83.5 52t-65.5 91.5t-25.5 127.5zM240 559q0 -44 29 -73t72 -29q42 0 70.5 28.5t28.5 73.5
q0 43 -28 71t-71 28q-44 0 -72.5 -28t-28.5 -71z" />
    <glyph glyph-name="colon" unicode=":" horiz-adv-x="388" 
d="M194 250q56 0 94.5 -39t38.5 -94t-38.5 -94t-94.5 -39t-94.5 39t-38.5 94t38.5 94t94.5 39zM194 584q56 0 94.5 -39t38.5 -94t-38.5 -94t-94.5 -39t-94.5 39t-38.5 94t38.5 94t94.5 39z" />
    <glyph glyph-name="semicolon" unicode=";" horiz-adv-x="388" 
d="M194 584q56 0 94.5 -39t38.5 -94t-38.5 -94t-94.5 -39t-94.5 39t-38.5 94t38.5 94t94.5 39zM193 250q55 0 94 -39t39 -94q0 -163 -194 -324l-60 49q70 70 87 154q-43 11 -70.5 43.5t-27.5 77.5q0 55 38.5 94t93.5 39z" />
    <glyph glyph-name="less" unicode="&#x3c;" horiz-adv-x="673" 
d="M71 485l546 212v-165l-325 -116l325 -116v-165l-546 212v138z" />
    <glyph glyph-name="equal" unicode="=" horiz-adv-x="636" 
d="M61 632h514v-180h-514v180zM61 379h514v-180h-514v180z" />
    <glyph glyph-name="greater" unicode="&#x3e;" horiz-adv-x="673" 
d="M56 697l546 -212v-138l-546 -212v165l325 116l-325 116v165z" />
    <glyph glyph-name="question" unicode="?" horiz-adv-x="600" 
d="M299 249q55 0 94 -38.5t39 -94.5q0 -55 -39 -93.5t-94 -38.5t-93.5 38.5t-38.5 93.5t38.5 94t93.5 39zM20 640q9 35 28 67t51 63.5t83.5 50.5t115.5 19q75 0 133 -26t89 -66t46 -80.5t15 -78.5q0 -41 -16.5 -85t-60.5 -89t-108 -64v-64h-193v246q36 -9 98 -9q34 0 55 15
t25.5 28t4.5 22q0 10 -4.5 23t-26 29t-57.5 16q-19 0 -34.5 -3t-25 -7t-19 -11.5t-13 -11t-9.5 -12.5t-7 -10z" />
    <glyph glyph-name="at" unicode="@" horiz-adv-x="909" 
d="M13 413q0 188 133 307.5t323 119.5q180 0 304.5 -109.5t124.5 -282.5q0 -59 -20.5 -103.5t-54 -69.5t-71 -37t-77.5 -12q-89 0 -147 41q-49 -51 -116 -51q-76 0 -125.5 54.5t-49.5 132.5q0 79 49.5 134t125.5 55q61 0 106 -28v18h137v-172q0 -21 12.5 -32t33.5 -11
q32 0 46 18t14 63q0 106 -82.5 173t-208.5 67q-121 0 -204.5 -80.5t-83.5 -194.5q0 -111 85 -187.5t203 -76.5q48 0 88.5 12.5t56.5 24.5l16 12l134 -90q-3 -5 -10 -13.5t-32.5 -30t-56.5 -37.5t-84 -29.5t-113 -13.5q-187 0 -321.5 121t-134.5 308zM396 405q0 -26 16.5 -41
t43.5 -15q26 0 43.5 15.5t17.5 40.5q0 26 -18 42.5t-43 16.5t-42.5 -16.5t-17.5 -42.5z" />
    <glyph glyph-name="A" unicode="A" horiz-adv-x="808" 
d="M302 825h204l336 -825h-237l-50 137h-302l-50 -137h-237zM327 330h154l-77 196z" />
    <glyph glyph-name="B" unicode="B" horiz-adv-x="671" 
d="M49 825h279q254 0 254 -210q0 -121 -98 -175q171 -31 171 -207q0 -104 -73 -168.5t-200 -64.5h-333v825zM269 656v-140h-5q54 0 79.5 16.5t25.5 59.5q0 34 -25.5 49t-79.5 15h5zM269 327v-158h34q61 0 90.5 16.5t29.5 55.5q0 49 -29 67.5t-91 18.5h-34z" />
    <glyph glyph-name="C" unicode="C" horiz-adv-x="738" 
d="M13 412q0 115 64.5 214.5t168.5 156.5t218 57q50 0 97 -7.5t77 -18t53.5 -21.5t34.5 -19l10 -7l-93 -188q-7 5 -19 12.5t-49.5 20t-76.5 12.5q-64 0 -114 -20.5t-77.5 -53t-41.5 -68t-14 -70.5t14 -70.5t41.5 -68t77.5 -53t114 -20.5q39 0 75 11t53 23l17 11l93 -188
q-4 -3 -11 -8t-32.5 -17.5t-55 -22t-76.5 -17.5t-97 -8q-114 0 -218 57t-168.5 156.5t-64.5 214.5z" />
    <glyph glyph-name="D" unicode="D" horiz-adv-x="732" 
d="M49 825h254q172 0 294 -118t122 -295q0 -178 -121.5 -295t-294.5 -117h-254v825zM269 628v-431h8q91 0 147 61t57 154q0 92 -56 154t-148 62h-8z" />
    <glyph glyph-name="E" unicode="E" horiz-adv-x="580" 
d="M49 825h488v-193h-268v-122h256v-193h-256v-124h268v-193h-488v825z" />
    <glyph glyph-name="F" unicode="F" horiz-adv-x="580" 
d="M49 825h494v-193h-274v-122h252v-193h-252v-317h-220v825z" />
    <glyph glyph-name="G" unicode="G" horiz-adv-x="806" 
d="M13 412q0 180 115 304t287 124q211 0 318 -141l-135 -148q-19 42 -65 66t-105 24q-72 0 -124.5 -67t-52.5 -162q0 -93 52 -159t125 -66q55 0 99.5 32t44.5 88h-157v169h381v-160q0 -54 -25 -111.5t-71 -107t-121 -81.5t-164 -32q-166 0 -284 125.5t-118 302.5z" />
    <glyph glyph-name="H" unicode="H" horiz-adv-x="750" 
d="M49 825h220v-315h212v315h220v-825h-220v317h-212v-317h-220v825z" />
    <glyph glyph-name="I" unicode="I" horiz-adv-x="318" 
d="M49 825h220v-825h-220v825z" />
    <glyph glyph-name="J" unicode="J" horiz-adv-x="454" 
d="M196 825h220v-593q0 -121 -66.5 -184.5t-190.5 -63.5q-52 0 -100.5 20t-70.5 40l-22 19l70 182q55 -50 92 -50q29 0 48.5 22t19.5 70v538z" />
    <glyph glyph-name="K" unicode="K" horiz-adv-x="819" 
d="M49 825h220v-321l257 321h267l-320 -389l375 -436h-303l-276 331v-331h-220v825z" />
    <glyph glyph-name="L" unicode="L" horiz-adv-x="568" 
d="M49 825h220v-632h266v-193h-486v825z" />
    <glyph glyph-name="M" unicode="M" horiz-adv-x="946" 
d="M73 825h234l166 -428l166 428h234l65 -825h-220l-24 433l-156 -433h-130l-156 433l-24 -433h-220z" />
    <glyph glyph-name="N" unicode="N" horiz-adv-x="834" 
d="M49 825h220l296 -460v460h220v-825h-220l-296 460v-460h-220v825z" />
    <glyph glyph-name="O" unicode="O" horiz-adv-x="858" 
d="M13 412q0 179 122 303.5t294 124.5t294 -124.5t122 -303.5t-122 -303.5t-294 -124.5t-294 124.5t-122 303.5zM250 412q0 -88 44 -152t135 -64t135 64t44 152t-44 152t-135 64t-135 -64t-44 -152z" />
    <glyph glyph-name="P" unicode="P" horiz-adv-x="675" 
d="M49 825h326q127 0 207 -66t80 -194t-81 -199.5t-206 -71.5h-106v-294h-220v825zM269 650v-182h34q127 0 127 90q0 92 -127 92h-34z" />
    <glyph glyph-name="Q" unicode="Q" horiz-adv-x="858" 
d="M13 412q0 179 122 303.5t294 124.5t294 -124.5t122 -303.5q0 -113 -53 -210q52 -20 105 -33l-97 -196q-77 29 -151 75q-100 -64 -220 -64q-172 0 -294 124.5t-122 303.5zM250 412q0 -88 44 -152t135 -64l30 2q-53 52 -93 109l93 117q61 -66 131 -114q18 48 18 102
q0 88 -44 152t-135 64t-135 -64t-44 -152z" />
    <glyph glyph-name="R" unicode="R" horiz-adv-x="749" 
d="M49 825h326q127 0 207 -66t80 -194q0 -93 -42.5 -157t-116.5 -95l267 -313h-279l-222 286v-286h-220v825zM269 650v-182h34q127 0 127 90q0 92 -127 92h-34z" />
    <glyph glyph-name="S" unicode="S" 
d="M91 579q0 115 86 188t194 73q71 0 138 -18t99 -36l31 -17l-87 -177q-81 48 -165 48q-80 0 -80 -53q0 -32 93 -67q49 -18 87 -37.5t80.5 -51t66.5 -75.5t24 -97q0 -76 -27 -131t-74 -85.5t-102.5 -44.5t-120.5 -14q-59 0 -113 10t-90 23.5t-64 27.5t-41 24l-12 10l109 187
q12 -9 33.5 -22t78 -34.5t103.5 -21.5q78 0 78 58q0 24 -23.5 46t-52 36.5t-94.5 44.5q-71 32 -113 87.5t-42 118.5z" />
    <glyph glyph-name="T" unicode="T" horiz-adv-x="600" 
d="M10 825h580v-193h-180v-632h-220v632h-180v193z" />
    <glyph glyph-name="U" unicode="U" horiz-adv-x="742" 
d="M484 825h220v-534q0 -152 -84.5 -229.5t-248.5 -77.5t-248.5 77.5t-84.5 229.5v534h220v-468q0 -92 25.5 -124.5t87.5 -32.5t87.5 32.5t25.5 124.5v468z" />
    <glyph glyph-name="V" unicode="V" horiz-adv-x="824" 
d="M-20 825h248l184 -494l184 494h248l-346 -825h-172z" />
    <glyph glyph-name="W" unicode="W" horiz-adv-x="1120" 
d="M895 825h245l-233 -825h-244l-103 402l-103 -402h-244l-233 825h245l122 -520l131 520h164l131 -520z" />
    <glyph glyph-name="X" unicode="X" horiz-adv-x="852" 
d="M558 825h262l-259 -381l311 -444h-272l-174 253l-174 -253h-272l311 444l-259 381h262l132 -199z" />
    <glyph glyph-name="Y" unicode="Y" horiz-adv-x="800" 
d="M-20 825h265l155 -229l155 229h265l-310 -451v-374h-220v374z" />
    <glyph glyph-name="Z" unicode="Z" horiz-adv-x="773" 
d="M68 825h695l-371 -633h345v-192h-728l371 633h-312v192z" />
    <glyph glyph-name="bracketleft" unicode="[" horiz-adv-x="478" 
d="M49 860h354v-135h-176v-850h176v-135h-354v1120z" />
    <glyph glyph-name="backslash" unicode="\" horiz-adv-x="647" 
d="M28 860h179l412 -860h-179z" />
    <glyph glyph-name="bracketright" unicode="]" horiz-adv-x="478" 
d="M76 860h354v-1120h-354v135h176v850h-176v135z" />
    <glyph glyph-name="asciicircum" unicode="^" horiz-adv-x="510" 
d="M201 841h108l207 -236h-188l-73 87l-73 -87h-188z" />
    <glyph glyph-name="underscore" unicode="_" horiz-adv-x="513" 
d="M0 -3h513v-98h-513v98z" />
    <glyph glyph-name="grave" unicode="`" horiz-adv-x="416" 
d="M45 708l105 132l221 -194l-64 -88z" />
    <glyph glyph-name="a" unicode="a" 
d="M14 256q0 114 71 193t182 79q92 0 156 -49v33h208v-512h-208v40q-72 -56 -156 -56q-111 0 -182 79t-71 193zM234 256q0 -42 26.5 -69t70.5 -27q42 0 69 27.5t27 68.5t-28 68.5t-68 27.5q-41 0 -69 -27t-28 -69z" />
    <glyph glyph-name="b" unicode="b" 
d="M664 256q0 -114 -71 -193t-182 -79q-84 0 -156 56v-40h-208v860h208v-381q64 49 156 49q111 0 182 -79t71 -193zM444 256q0 42 -28 69t-69 27q-40 0 -68 -27.5t-28 -68.5t27 -68.5t69 -27.5q44 0 70.5 27t26.5 69z" />
    <glyph glyph-name="c" unicode="c" horiz-adv-x="470" 
d="M14 256q0 110 87 191t199 81q50 0 93 -11.5t61 -22.5l17 -12l-68 -140q-27 17 -72 17q-39 0 -68 -31t-29 -72t29 -72t68 -31q45 0 72 17l68 -140q-7 -5 -19.5 -12.5t-57 -20.5t-94.5 -13q-112 0 -199 81t-87 191z" />
    <glyph glyph-name="d" unicode="d" 
d="M14 256q0 114 71 193t182 79q92 0 156 -49v381h208v-860h-208v40q-72 -56 -156 -56q-111 0 -182 79t-71 193zM234 256q0 -42 26.5 -69t70.5 -27q42 0 69 27.5t27 68.5t-28 68.5t-68 27.5q-41 0 -69 -27t-28 -69z" />
    <glyph glyph-name="e" unicode="e" horiz-adv-x="592" 
d="M14 257q0 112 84 191.5t202 79.5q123 0 200.5 -69.5t77.5 -196.5q0 -11 -2 -35h-347q0 -43 28 -61t56 -18q38 0 57 8t51 38l149 -74q-81 -136 -272 -136q-116 0 -200 81t-84 192zM235 335h140q-10 55 -69 55q-69 0 -71 -55z" />
    <glyph glyph-name="f" unicode="f" horiz-adv-x="419" 
d="M5 512h80v89q0 122 58 198t161 76q44 0 84 -12.5t58 -25.5l18 -13l-72 -145q-22 12 -51 12q-30 0 -39 -21t-9 -76v-82h114v-158h-114v-354h-208v354h-80v158z" />
    <glyph glyph-name="g" unicode="g" 
d="M14 256q0 114 71 193t182 79q92 0 156 -49v33h208v-526q0 -126 -86 -193.5t-223 -67.5q-44 0 -80.5 5t-79 19t-76 46t-54.5 79l168 83q42 -52 121 -52q13 0 28 4t33 13.5t29.5 31t11.5 50.5v36q-72 -56 -156 -56q-111 0 -182 79t-71 193zM234 256q0 -42 26.5 -69
t70.5 -27q42 0 69 27.5t27 68.5t-28 68.5t-68 27.5q-41 0 -69 -27t-28 -69z" />
    <glyph glyph-name="h" unicode="h" horiz-adv-x="673" 
d="M49 860h208v-396q64 64 146 64q35 0 71.5 -9t74 -28.5t61 -58t23.5 -90.5v-342h-208v286q0 35 -21 58t-55 23q-38 0 -65 -27t-27 -62v-278h-208v860z" />
    <glyph glyph-name="i" unicode="i" horiz-adv-x="306" 
d="M49 512h208v-512h-208v512zM152 865q50 0 86 -36t36 -86t-36 -86t-86 -36t-86 36t-36 86t36 86t86 36z" />
    <glyph glyph-name="j" unicode="j" horiz-adv-x="306" 
d="M49 512h208v-581q0 -36 -10 -70t-31 -65.5t-62 -51t-96 -19.5q-45 0 -83.5 8.5t-54.5 16.5l-16 9l64 167q23 -14 41 -14q40 0 40 60v540zM152 865q50 0 86 -36t36 -86t-36 -86t-86 -36t-86 36t-36 86t36 86t86 36z" />
    <glyph glyph-name="k" unicode="k" horiz-adv-x="691" 
d="M49 860h208v-520l179 172h269l-262 -258l273 -254h-267l-192 175v-175h-208v860z" />
    <glyph glyph-name="l" unicode="l" horiz-adv-x="306" 
d="M49 860h208v-860h-208v860z" />
    <glyph glyph-name="m" unicode="m" horiz-adv-x="990" 
d="M49 512h208v-48q79 64 145 64q53 0 102.5 -21.5t76.5 -68.5q80 90 168 90q35 0 67.5 -9t64 -28.5t50.5 -58t19 -90.5v-342h-208v286q0 31 -18 54t-55 23q-66 0 -66 -69v-294h-208v286q0 31 -18 54t-55 23q-65 0 -65 -76v-287h-208v512z" />
    <glyph glyph-name="n" unicode="n" horiz-adv-x="673" 
d="M49 512h208v-48q64 64 146 64q35 0 71.5 -9t74 -28.5t61 -58t23.5 -90.5v-342h-208v286q0 35 -21 58t-55 23q-38 0 -65 -27t-27 -62v-278h-208v512z" />
    <glyph glyph-name="o" unicode="o" horiz-adv-x="652" 
d="M14 256q0 119 89.5 195.5t222.5 76.5t222.5 -76.5t89.5 -195.5t-89.5 -195.5t-222.5 -76.5t-222.5 76.5t-89.5 195.5zM232 256q0 -42 27.5 -69t66.5 -27t66.5 27t27.5 69t-27.5 69t-66.5 27t-66.5 -27t-27.5 -69z" />
    <glyph glyph-name="p" unicode="p" 
d="M664 256q0 -114 -71 -193t-182 -79q-84 0 -156 56v-300h-208v772h208v-33q64 49 156 49q111 0 182 -79t71 -193zM444 256q0 42 -28 69t-69 27q-40 0 -68 -27.5t-28 -68.5t27 -68.5t69 -27.5q44 0 70.5 27t26.5 69z" />
    <glyph glyph-name="q" unicode="q" 
d="M14 256q0 114 71 193t182 79q92 0 156 -49v33h208v-772h-208v300q-72 -56 -156 -56q-111 0 -182 79t-71 193zM234 256q0 -42 26.5 -69t70.5 -27q42 0 69 27.5t27 68.5t-28 68.5t-68 27.5q-41 0 -69 -27t-28 -69z" />
    <glyph glyph-name="r" unicode="r" horiz-adv-x="525" 
d="M49 512h208v-72q2 4 7 9.5t21 21t33.5 27t44.5 21t55 9.5q32 0 62 -9t44 -18l13 -9l-87 -175q-30 31 -96 31q-26 0 -45.5 -10t-28.5 -22.5t-15 -28t-7 -23.5t-1 -13v-251h-208v512z" />
    <glyph glyph-name="s" unicode="s" horiz-adv-x="496" 
d="M290 528q47 0 92 -8t66 -16l22 -7l-65 -137q-61 24 -115 24q-25 0 -33.5 -4t-8.5 -13q0 -4 1.5 -7.5t5.5 -6.5t7.5 -5t11 -4.5t13 -4t15.5 -4.5t17 -5q156 -48 156 -169q0 -46 -17 -79.5t-42 -51.5t-62 -29t-68 -14t-69 -3q-59 0 -109.5 14t-71.5 28l-21 13l82 144
q67 -47 121 -47q38 0 38 17q0 12 -14 19.5t-44 18t-51 22.5q-46 26 -71.5 58t-25.5 84q0 83 65 128t175 45z" />
    <glyph glyph-name="t" unicode="t" horiz-adv-x="415" 
d="M5 512h80v192h208v-192h102v-158h-102v-119q0 -65 34 -65q9 0 19 4t16 8l5 4l52 -167q-64 -35 -143 -35q-55 0 -94 18.5t-59 50.5t-29 66.5t-9 74.5v160h-80v158z" />
    <glyph glyph-name="u" unicode="u" horiz-adv-x="672" 
d="M424 512h208v-285q0 -129 -70.5 -186t-225.5 -57t-225.5 57t-70.5 186v285h208v-233q0 -68 19 -97.5t69 -29.5t69 29.5t19 97.5v233z" />
    <glyph glyph-name="v" unicode="v" horiz-adv-x="656" 
d="M-25 512h246l107 -242l107 242h246l-283 -512h-140z" />
    <glyph glyph-name="w" unicode="w" horiz-adv-x="1008" 
d="M-25 512h238l108 -240l112 240h142l112 -240l108 240h238l-283 -512h-140l-106 226l-106 -226h-140z" />
    <glyph glyph-name="x" unicode="x" horiz-adv-x="660" 
d="M17 512h242l71 -97l71 97h242l-188 -242l220 -270h-250l-95 124l-95 -124h-250l220 270z" />
    <glyph glyph-name="y" unicode="y" horiz-adv-x="660" 
d="M-24 512h239l126 -216l104 216h239l-418 -772h-239l192 359z" />
    <glyph glyph-name="z" unicode="z" horiz-adv-x="560" 
d="M42 512h519l-218 -356h196v-156h-540l218 356h-175v156z" />
    <glyph glyph-name="braceleft" unicode="{" horiz-adv-x="483" 
d="M55 354q78 0 78 69v256q0 34 7 63.5t24 57.5t49.5 44t78.5 16h113v-148h-45q-18 0 -33.5 -15t-15.5 -36v-240q0 -85 -71 -121q71 -36 71 -121v-240q0 -21 15.5 -36t33.5 -15h45v-148h-113q-46 0 -78.5 16t-49.5 44t-24 57.5t-7 63.5v256q0 69 -78 69v108z" />
    <glyph glyph-name="bar" unicode="|" horiz-adv-x="276" 
d="M49 860h178v-860h-178v860z" />
    <glyph glyph-name="braceright" unicode="}" horiz-adv-x="483" 
d="M78 860h113q46 0 78.5 -16t49.5 -44t24 -57.5t7 -63.5v-256q0 -69 78 -69v-108q-78 0 -78 -69v-256q0 -34 -7 -63.5t-24 -57.5t-49.5 -44t-78.5 -16h-113v148h45q19 0 34 15t15 36v240q0 85 71 121q-71 36 -71 121v240q0 21 -15 36t-34 15h-45v148z" />
    <glyph glyph-name="asciitilde" unicode="~" horiz-adv-x="707" 
d="M653 435q-5 -10 -16 -27.5t-34.5 -48t-59.5 -51t-75 -20.5q-15 0 -28.5 1.5t-27 5.5t-22 6.5t-22.5 10t-19 10t-20 11.5t-18 11q-4 3 -15.5 10t-18 10.5t-16.5 7t-19 3.5q-24 0 -43.5 -19.5t-26.5 -39.5l-8 -19l-107 95q5 11 15.5 28t34 47.5t59.5 51t76 20.5
q15 0 28.5 -1.5t27 -5.5t22 -6.5t22.5 -10t19 -10t20 -11.5t18 -11q4 -3 15.5 -10t18 -10.5t16.5 -7t19 -3.5q24 0 43 19t27 39l7 19z" />
    <glyph glyph-name="exclamdown" unicode="&#xa1;" horiz-adv-x="364" 
d="M287 -261h-208l29 570h150zM182 349q-56 0 -94.5 38.5t-38.5 94.5t38.5 94.5t94.5 38.5t94.5 -38.5t38.5 -94.5t-38.5 -94.5t-94.5 -38.5z" />
    <glyph glyph-name="cent" unicode="&#xa2;" horiz-adv-x="470" 
d="M232 -129v122q-92 23 -155 96.5t-63 166.5q0 84 52.5 153t133.5 100v127h125v-109q43 -3 79.5 -14t51.5 -21l15 -10l-68 -140q-27 17 -72 17q-39 0 -68 -31t-29 -72t29 -72t68 -31q45 0 72 17l68 -140q-40 -30 -114 -42v-117h-125z" />
    <glyph glyph-name="sterling" unicode="&#xa3;" horiz-adv-x="747" 
d="M51 395h92q-46 74 -46 159q0 125 73.5 206t211.5 81q66 0 118 -19t80 -46.5t46.5 -54.5t23.5 -46l6 -19l-185 -91q0 4 -1.5 10.5t-7.5 23.5t-14.5 30t-26 23.5t-39.5 10.5q-67 0 -67 -109q0 -26 5 -52t7.5 -35t15.5 -40t13 -32h152v-113h-111q0 -75 -31 -108
q67 -21 133 -21q21 0 34 14.5t15 28.5l2 15l160 -79q-1 -6 -3 -16t-14.5 -35t-30.5 -44.5t-54.5 -35.5t-83.5 -16q-64 0 -168.5 25.5t-148.5 25.5q-29 0 -29 -36h-134q-1 30 16 74.5t53 82t79 36.5q14 14 14 45q0 11 -2 22t-4 16l-3 6h-146v113z" />
    <glyph glyph-name="yen" unicode="&#xa5;" horiz-adv-x="798" 
d="M-21 825h265l155 -229l155 229h265l-259 -376h165v-155h-216v-43h216v-155h-216v-96h-220v96h-217v155h217v43h-217v155h165z" />
    <glyph glyph-name="brokenbar" unicode="&#xa6;" horiz-adv-x="276" 
d="M49 860h178v-332h-178v332zM49 332h178v-332h-178v332z" />
    <glyph glyph-name="section" unicode="&#xa7;" horiz-adv-x="640" 
d="M4 263q4 59 40.5 109t102.5 81q-46 33 -67.5 74.5t-21.5 103.5q0 88 66.5 148.5t201.5 60.5q64 0 113.5 -19.5t74 -48t40 -56.5t18.5 -48l4 -19l-188 -38q0 23 -15 40t-47 17q-39 0 -39 -29q0 -31 145 -97q84 -39 136.5 -100.5t52.5 -144.5q-4 -60 -40 -110t-103 -80
q45 -34 66.5 -74.5t21.5 -100.5q0 -33 -12.5 -65.5t-41.5 -66t-89 -54.5t-143 -21q-49 0 -90 10.5t-67.5 27.5t-47.5 38t-32 41.5t-18 37.5t-9 28l-2 10l188 39q2 -7 6 -17t24 -26.5t48 -16.5q55 0 55 27q0 8 -6 15.5t-21 16.5t-28 15.5t-38.5 19t-41.5 20.5
q-96 50 -146 108t-50 144zM196 298q0 -14 12 -29t24 -24t35 -25q36 -20 72 -35q89 21 89 76q0 8 -3.5 16t-11.5 16.5t-15 14.5t-20.5 14.5t-20.5 12.5t-22 13t-19 11q-13 8 -31 15q-89 -25 -89 -76z" />
    <glyph glyph-name="dieresis" unicode="&#xa8;" horiz-adv-x="586" 
d="M175 805q44 0 75 -31t31 -75t-31 -75t-75 -31t-75 31t-31 75t31 75t75 31zM411 805q44 0 75 -31t31 -75t-31 -75t-75 -31t-75 31t-31 75t31 75t75 31z" />
    <glyph glyph-name="copyright" unicode="&#xa9;" horiz-adv-x="885" 
d="M13 412q0 176 125.5 302t303.5 126t304 -126t126 -302q0 -115 -58 -213.5t-157 -156t-215 -57.5q-175 0 -302 126t-127 301zM144 412q0 -120 88.5 -207.5t209.5 -87.5q123 0 211.5 87t88.5 208q0 122 -88 209.5t-212 87.5q-123 0 -210.5 -87.5t-87.5 -209.5zM258 413
q0 80 63.5 139.5t143.5 59.5q77 0 122 -30l-48 -103q3 -3 -2 -1q-32 10 -47 10q-27 0 -47.5 -21.5t-20.5 -50.5q0 -30 20.5 -51.5t47.5 -21.5q15 0 27.5 3t17 4.5t3.5 0.5q9 -21 26 -55.5t23 -48.5q2 2 -1 0q-1 0 -3 -1q-59 -26 -118 -26q-80 0 -143.5 57.5t-63.5 135.5z
" />
    <glyph glyph-name="ordfeminine" unicode="&#xaa;" horiz-adv-x="526" 
d="M76 672q0 70 44 119t112 49q57 0 96 -30v20h129v-316h-129v25q-44 -35 -96 -35q-68 0 -112 49t-44 119zM211 672q0 -26 16.5 -42.5t43.5 -16.5q26 0 43 16.5t17 42.5t-17.5 42.5t-42.5 16.5t-42.5 -16.5t-17.5 -42.5z" />
    <glyph glyph-name="guillemotleft" unicode="&#xab;" horiz-adv-x="650" 
d="M233 528l107 -84l-130 -166l130 -166l-107 -84l-195 250zM483 528l107 -84l-130 -166l130 -166l-107 -84l-195 250z" />
    <glyph glyph-name="registered" unicode="&#xae;" horiz-adv-x="489" 
d="M20 615q0 93 65.5 159t157.5 66q94 0 159.5 -66t65.5 -159q0 -92 -65.5 -157.5t-159.5 -65.5q-92 0 -157.5 65.5t-65.5 157.5zM90 615q0 -63 45 -108.5t108 -45.5q66 0 111 45t45 109q0 65 -45 110.5t-111 45.5q-62 0 -107.5 -46t-45.5 -110zM175 712h83q30 0 48.5 -15
t18.5 -46q0 -40 -34 -58l60 -71h-70l-50 65v-65h-56v190zM231 668v-36h9q26 0 26 18t-26 18h-9z" />
    <glyph glyph-name="macron" unicode="&#xaf;" horiz-adv-x="548" 
d="M70 764h408v-140h-408v140z" />
    <glyph glyph-name="degree" unicode="&#xb0;" horiz-adv-x="393" 
d="M78 772q0 45 34 74t85 29t85 -29t34 -74t-34 -74t-85 -29t-85 29t-34 74zM161 772q0 -16 10.5 -27t25.5 -11t25.5 11t10.5 27t-10.5 27t-25.5 11t-25.5 -11t-10.5 -27z" />
    <glyph glyph-name="plusminus" unicode="&#xb1;" horiz-adv-x="626" 
d="M223 671h180v-137h167v-179h-167v-137h-180v137h-167v179h167v137zM56 180h514v-180h-514v180z" />
    <glyph glyph-name="twosuperior" unicode="&#xb2;" horiz-adv-x="265" 
d="M33 749q1 4 3.5 10t12.5 22t22.5 28t35 22t48.5 10q129 0 129 -115q0 -35 -25 -69.5t-49 -51.5l-25 -17h105v-75h-257v45q6 5 17 12.5t38.5 30t48.5 43t38 44.5t17 41q0 40 -37 40q-13 0 -26 -14t-19 -28l-6 -14z" />
    <glyph glyph-name="threesuperior" unicode="&#xb3;" horiz-adv-x="255" 
d="M21 773q1 3 3 7.5t10 16t19 20.5t31.5 16t45.5 7q47 0 77.5 -26.5t30.5 -67.5q0 -33 -22 -55q36 -28 36 -71q0 -47 -35 -77t-87 -30q-27 0 -50 8t-36 19t-22 22t-12 19l-4 8l78 39q0 -5 2 -12t13.5 -19t30.5 -12q17 0 28 9t11 26q0 18 -11.5 29t-28.5 11l-14 -2v54h17
q11 0 20.5 9.5t9.5 23.5q0 12 -10 20t-23 8q-16 0 -26.5 -8.5t-12.5 -16.5l-3 -8z" />
    <glyph glyph-name="acute" unicode="&#xb4;" horiz-adv-x="629" 
d="M152 646l221 194l105 -132l-262 -150z" />
    <glyph glyph-name="mu" unicode="&#xb5;" horiz-adv-x="706" 
d="M72 206v306h208v-286q0 -35 21 -58t55 -23q38 0 65 27t27 62v278h208v-512h-208v48q-64 -64 -146 -64l-23 1v-145h-240q0 41 16.5 155.5t16.5 210.5z" />
    <glyph glyph-name="paragraph" unicode="&#xb6;" horiz-adv-x="725" 
d="M13 565q0 110 72.5 185t190.5 75h400v-825h-118v705h-68v-705h-118v294h-96q-117 0 -190 80.5t-73 190.5z" />
    <glyph glyph-name="periodcentered" unicode="&#xb7;" horiz-adv-x="388" 
d="M194 403q56 0 94.5 -38.5t38.5 -94.5t-38.5 -94.5t-94.5 -38.5t-94.5 38.5t-38.5 94.5t38.5 94.5t94.5 38.5z" />
    <glyph glyph-name="cedilla" unicode="&#xb8;" horiz-adv-x="458" 
d="M152 -119l48 146l79 -25l-20 -60q48 0 87 -27.5t39 -74.5q0 -56 -38 -95t-120 -39q-41 0 -81 21.5t-59 42.5l-19 21l82 62q35 -44 77 -44q41 0 41 31q0 18 -18.5 27.5t-40.5 9.5q-15 0 -26.5 -1.5t-14.5 -3.5l-4 -1z" />
    <glyph glyph-name="onesuperior" unicode="&#xb9;" horiz-adv-x="146" 
d="M3 825h141v-312h-83v230h-58v82z" />
    <glyph glyph-name="ordmasculine" unicode="&#xba;" horiz-adv-x="537" 
d="M81 671q0 74 54 121.5t135 47.5t135 -47.5t54 -121.5t-54 -121.5t-135 -47.5t-135 47.5t-54 121.5zM217 671q0 -27 15 -44t38 -17t38 17t15 44t-15 44t-38 17t-38 -17t-15 -44z" />
    <glyph glyph-name="guillemotright" unicode="&#xbb;" horiz-adv-x="650" 
d="M310 444l107 84l195 -250l-195 -250l-107 84l130 166zM60 444l107 84l195 -250l-195 -250l-107 84l130 166z" />
    <glyph glyph-name="onequarter" unicode="&#xbc;" horiz-adv-x="916" 
d="M114 0l480 825h137l-480 -825h-137zM57 825h217v-480h-128v354h-89v126zM470 85v36l231 359h127v-283h56v-112h-56v-85h-120v85h-238zM646 197h62v113z" />
    <glyph glyph-name="onehalf" unicode="&#xbd;" horiz-adv-x="956" 
d="M114 0l480 825h137l-480 -825h-137zM57 825h217v-480h-128v354h-89v126zM552 347q2 5 5.5 14.5t18 32.5t32.5 41t51 32.5t71 14.5q190 0 190 -170q0 -32 -15 -64t-36.5 -55.5t-43 -43t-36.5 -29.5l-15 -9h154v-111h-378v66q10 7 25.5 18.5t56 44.5t71 63t56 65.5
t25.5 59.5q0 60 -54 60q-19 0 -37.5 -20.5t-27.5 -40.5l-9 -21z" />
    <glyph glyph-name="threequarters" unicode="&#xbe;" horiz-adv-x="999" 
d="M197 0l480 825h137l-480 -825h-137zM57 728q1 4 4 11t15 24t28.5 30t46.5 24t67 11q70 0 115.5 -39.5t45.5 -100.5q0 -48 -32 -82q53 -40 53 -105q0 -69 -52 -114t-130 -45q-41 0 -74.5 11.5t-53 28t-32.5 33.5t-18 29l-5 11l115 58q0 -3 1 -7t5 -15t10.5 -19.5t20 -15.5
t31.5 -7q25 0 41.5 13.5t16.5 38.5q0 27 -17 43.5t-42 16.5l-21 -4v81h25q17 0 31 14t14 35q0 17 -15 29t-34 12q-23 0 -39 -12t-20 -24l-4 -13zM553 85v36l231 359h127v-283h56v-112h-56v-85h-120v85h-238zM729 197h62v113z" />
    <glyph glyph-name="questiondown" unicode="&#xbf;" horiz-adv-x="600" 
d="M299 316q-55 0 -94 39t-39 94t39 93.5t94 38.5t93.5 -38.5t38.5 -93.5t-38.5 -94t-93.5 -39zM578 -75q-9 -35 -28 -67t-51 -63.5t-83.5 -50.5t-115.5 -19q-75 0 -133 26t-89 66t-46 80.5t-15 78.5q0 41 16.5 85t60.5 89t108 64v64h193v-246q-36 9 -98 9q-34 0 -55 -15
t-25.5 -28t-4.5 -22q0 -10 4.5 -23t26 -29t57.5 -16q19 0 34.5 3t25 7t19 11.5t13 11t9.5 12.5t7 10z" />
    <glyph glyph-name="Agrave" unicode="&#xc0;" horiz-adv-x="808" 
d="M302 825h204l336 -825h-237l-50 137h-302l-50 -137h-237zM327 330h154l-77 196zM142 1049l105 132l221 -194l-64 -88z" />
    <glyph glyph-name="Aacute" unicode="&#xc1;" horiz-adv-x="808" 
d="M302 825h204l336 -825h-237l-50 137h-302l-50 -137h-237zM327 330h154l-77 196zM340 987l221 194l105 -132l-262 -150z" />
    <glyph glyph-name="Acircumflex" unicode="&#xc2;" horiz-adv-x="808" 
d="M302 825h204l336 -825h-237l-50 137h-302l-50 -137h-237zM327 330h154l-77 196zM173 1004l231 170l231 -170l-78 -105l-153 112l-153 -112z" />
    <glyph glyph-name="Atilde" unicode="&#xc3;" horiz-adv-x="808" 
d="M302 825h204l336 -825h-237l-50 137h-302l-50 -137h-237zM327 330h154l-77 196zM594 1141l108 -95q-1 -4 -8.5 -18t-24.5 -36.5t-37.5 -43t-51.5 -35t-63 -14.5q-33 0 -65 10t-48 19t-44 27q-3 2 -12.5 8t-14 9t-13 7t-15.5 5.5t-14 1.5q-26 0 -45 -19.5t-26 -38.5
l-6 -20l-108 95q1 4 8.5 17.5t24.5 36.5t37.5 43t51.5 35t63 15q33 0 65 -10t48 -19t44 -27q3 -2 12.5 -8t14 -9t13 -7t15.5 -5.5t14 -1.5q26 0 45 19.5t26 39.5z" />
    <glyph glyph-name="Adieresis" unicode="&#xc4;" horiz-adv-x="808" 
d="M302 825h204l336 -825h-237l-50 137h-302l-50 -137h-237zM327 330h154l-77 196zM286 1117q44 0 75 -31t31 -75t-31 -75t-75 -31t-75 31t-31 75t31 75t75 31zM522 1117q44 0 75 -31t31 -75t-31 -75t-75 -31t-75 31t-31 75t31 75t75 31z" />
    <glyph glyph-name="Aring" unicode="&#xc5;" horiz-adv-x="807" 
d="M604 0l-49 137h-302l-50 -137h-237l336 825h203l336 -825h-237zM327 330h153l-76 196zM230 1045q0 67 50 110t124 43t123.5 -43t49.5 -110q0 -68 -48.5 -111t-124.5 -43q-78 0 -126 43t-48 111zM345 1045q0 -27 16.5 -46t42.5 -19q24 0 41 19t17 46q0 26 -17 44t-41 18
t-41.5 -18.5t-17.5 -43.5z" />
    <glyph glyph-name="AE" unicode="&#xc6;" horiz-adv-x="980" 
d="M346 825h591v-193h-268v-122h256v-193h-256v-124h268v-193h-488v137h-194l-61 -137h-236zM332 330h117v270z" />
    <glyph glyph-name="Ccedilla" unicode="&#xc7;" horiz-adv-x="740" 
d="M270 -119l43 131q-129 47 -213.5 156.5t-84.5 243.5q0 115 64.5 214.5t168.5 156.5t218 57q50 0 97 -7.5t77 -18t53.5 -21.5t34.5 -19l10 -7l-93 -188q-7 5 -19 12.5t-49.5 20t-76.5 12.5q-64 0 -114 -20.5t-77.5 -53t-41.5 -68t-14 -70.5t14 -70.5t41.5 -68t77.5 -53
t114 -20.5q39 0 75 11t53 23l17 11l93 -188q-4 -3 -11 -8t-32.5 -17.5t-55 -22t-76.5 -17.5t-97 -8q-37 0 -73 6l-16 -48q48 0 87 -27.5t39 -74.5q0 -56 -38 -95t-120 -39q-41 0 -81 21.5t-59 42.5l-19 21l82 62q35 -44 77 -44q41 0 41 31q0 18 -18.5 27.5t-40.5 9.5
q-15 0 -26.5 -1.5t-14.5 -3.5l-4 -1z" />
    <glyph glyph-name="Egrave" unicode="&#xc8;" horiz-adv-x="580" 
d="M49 825h488v-193h-268v-122h256v-193h-256v-124h268v-193h-488v825zM100 1049l105 132l221 -194l-64 -88z" />
    <glyph glyph-name="Eacute" unicode="&#xc9;" horiz-adv-x="580" 
d="M49 825h488v-193h-268v-122h256v-193h-256v-124h268v-193h-488v825zM160 987l221 194l105 -132l-262 -150z" />
    <glyph glyph-name="Ecircumflex" unicode="&#xca;" horiz-adv-x="580" 
d="M49 825h488v-193h-268v-122h256v-193h-256v-124h268v-193h-488v825zM62 1004l231 170l231 -170l-78 -105l-153 112l-153 -112z" />
    <glyph glyph-name="Edieresis" unicode="&#xcb;" horiz-adv-x="580" 
d="M49 825h488v-193h-268v-122h256v-193h-256v-124h268v-193h-488v825zM175 1117q44 0 75 -31t31 -75t-31 -75t-75 -31t-75 31t-31 75t31 75t75 31zM411 1117q44 0 75 -31t31 -75t-31 -75t-75 -31t-75 31t-31 75t31 75t75 31z" />
    <glyph glyph-name="Igrave" unicode="&#xcc;" horiz-adv-x="318" 
d="M49 825h220v-825h-220v825zM-103 1049l105 132l221 -194l-64 -88z" />
    <glyph glyph-name="Iacute" unicode="&#xcd;" horiz-adv-x="318" 
d="M49 825h220v-825h-220v825zM95 987l221 194l105 -132l-262 -150z" />
    <glyph glyph-name="Icircumflex" unicode="&#xce;" horiz-adv-x="318" 
d="M49 825h220v-825h-220v825zM-72 1004l231 170l231 -170l-78 -105l-153 112l-153 -112z" />
    <glyph glyph-name="Idieresis" unicode="&#xcf;" horiz-adv-x="318" 
d="M49 825h220v-825h-220v825zM41 1117q44 0 75 -31t31 -75t-31 -75t-75 -31t-75 31t-31 75t31 75t75 31zM277 1117q44 0 75 -31t31 -75t-31 -75t-75 -31t-75 31t-31 75t31 75t75 31z" />
    <glyph glyph-name="Eth" unicode="&#xd0;" horiz-adv-x="732" 
d="M-33 323v179h82v323h254q172 0 294 -118t122 -295q0 -178 -121.5 -295t-294.5 -117h-254v323h-82zM269 628v-126h77v-179h-77v-126h8q91 0 147 61t57 154q0 92 -56 154t-148 62h-8z" />
    <glyph glyph-name="Ntilde" unicode="&#xd1;" horiz-adv-x="834" 
d="M49 825h220l296 -460v460h220v-825h-220l-296 460v-460h-220v825zM607 1146l108 -95q-1 -4 -8.5 -18t-24.5 -36.5t-37.5 -43t-51.5 -35t-63 -14.5q-33 0 -65 10t-48 19t-44 27q-3 2 -12.5 8t-14 9t-13 7t-15.5 5.5t-14 1.5q-26 0 -45 -19.5t-25 -39.5l-7 -19l-108 95
q1 4 8.5 17.5t24.5 36.5t37.5 43t51.5 35t63 15q33 0 65 -10t48 -19t44 -27q3 -2 12.5 -8t14 -9t13 -7t15.5 -5.5t14 -1.5q26 0 45 19.5t25 38.5z" />
    <glyph glyph-name="Ograve" unicode="&#xd2;" horiz-adv-x="858" 
d="M13 412q0 179 122 303.5t294 124.5t294 -124.5t122 -303.5t-122 -303.5t-294 -124.5t-294 124.5t-122 303.5zM250 412q0 -88 44 -152t135 -64t135 64t44 152t-44 152t-135 64t-135 -64t-44 -152zM236 1049l105 132l221 -194l-64 -88z" />
    <glyph glyph-name="Oacute" unicode="&#xd3;" horiz-adv-x="858" 
d="M13 412q0 179 122 303.5t294 124.5t294 -124.5t122 -303.5t-122 -303.5t-294 -124.5t-294 124.5t-122 303.5zM250 412q0 -88 44 -152t135 -64t135 64t44 152t-44 152t-135 64t-135 -64t-44 -152zM296 987l221 194l105 -132l-262 -150z" />
    <glyph glyph-name="Ocircumflex" unicode="&#xd4;" horiz-adv-x="858" 
d="M13 412q0 179 122 303.5t294 124.5t294 -124.5t122 -303.5t-122 -303.5t-294 -124.5t-294 124.5t-122 303.5zM250 412q0 -88 44 -152t135 -64t135 64t44 152t-44 152t-135 64t-135 -64t-44 -152zM198 1004l231 170l231 -170l-78 -105l-153 112l-153 -112z" />
    <glyph glyph-name="Otilde" unicode="&#xd5;" horiz-adv-x="858" 
d="M13 412q0 179 122 303.5t294 124.5t294 -124.5t122 -303.5t-122 -303.5t-294 -124.5t-294 124.5t-122 303.5zM250 412q0 -88 44 -152t135 -64t135 64t44 152t-44 152t-135 64t-135 -64t-44 -152zM619 1128l108 -95q-1 -4 -8.5 -18t-24.5 -36.5t-37.5 -43t-51.5 -35
t-63 -14.5q-33 0 -65 10t-48 19t-44 27q-3 2 -12.5 8t-14 9t-13 7t-15.5 5.5t-14 1.5q-26 0 -45 -19.5t-25 -39.5l-7 -19l-108 95q1 4 8.5 17.5t24.5 36.5t37.5 43t51.5 35t63 15q33 0 65 -10t48 -19t44 -27q3 -2 12.5 -8t14 -9t13 -7t15.5 -5.5t14 -1.5q26 0 45 19.5
t25 38.5z" />
    <glyph glyph-name="Odieresis" unicode="&#xd6;" horiz-adv-x="858" 
d="M13 412q0 179 122 303.5t294 124.5t294 -124.5t122 -303.5t-122 -303.5t-294 -124.5t-294 124.5t-122 303.5zM250 412q0 -88 44 -152t135 -64t135 64t44 152t-44 152t-135 64t-135 -64t-44 -152zM311 1117q44 0 75 -31t31 -75t-31 -75t-75 -31t-75 31t-31 75t31 75t75 31
zM547 1117q44 0 75 -31t31 -75t-31 -75t-75 -31t-75 31t-31 75t31 75t75 31z" />
    <glyph glyph-name="multiply" unicode="&#xd7;" horiz-adv-x="650" 
d="M56 559l126 125l143 -142l143 142l126 -125l-143 -144l143 -144l-126 -125l-143 142l-143 -142l-126 125l143 144z" />
    <glyph glyph-name="Oslash" unicode="&#xd8;" horiz-adv-x="859" 
d="M14 412q0 179 122 303.5t294 124.5q103 0 195 -50l55 69l130 -100l-59 -74q95 -119 95 -273q0 -179 -122 -303.5t-294 -124.5q-107 0 -198 51l-54 -68l-130 100l59 74q-93 117 -93 271zM609 412q0 45 -11 81l-229 -287q30 -10 61 -10q91 0 135 64t44 152zM251 412
q0 -42 10 -78l227 285q-31 9 -58 9q-91 0 -135 -64t-44 -152z" />
    <glyph glyph-name="Ugrave" unicode="&#xd9;" horiz-adv-x="742" 
d="M484 825h220v-534q0 -152 -84.5 -229.5t-248.5 -77.5t-248.5 77.5t-84.5 229.5v534h220v-468q0 -92 25.5 -124.5t87.5 -32.5t87.5 32.5t25.5 124.5v468zM178 1049l105 132l221 -194l-64 -88z" />
    <glyph glyph-name="Uacute" unicode="&#xda;" horiz-adv-x="742" 
d="M484 825h220v-534q0 -152 -84.5 -229.5t-248.5 -77.5t-248.5 77.5t-84.5 229.5v534h220v-468q0 -92 25.5 -124.5t87.5 -32.5t87.5 32.5t25.5 124.5v468zM238 987l221 194l105 -132l-262 -150z" />
    <glyph glyph-name="Ucircumflex" unicode="&#xdb;" horiz-adv-x="742" 
d="M484 825h220v-534q0 -152 -84.5 -229.5t-248.5 -77.5t-248.5 77.5t-84.5 229.5v534h220v-468q0 -92 25.5 -124.5t87.5 -32.5t87.5 32.5t25.5 124.5v468zM140 1004l231 170l231 -170l-78 -105l-153 112l-153 -112z" />
    <glyph glyph-name="Udieresis" unicode="&#xdc;" horiz-adv-x="742" 
d="M484 825h220v-534q0 -152 -84.5 -229.5t-248.5 -77.5t-248.5 77.5t-84.5 229.5v534h220v-468q0 -92 25.5 -124.5t87.5 -32.5t87.5 32.5t25.5 124.5v468zM253 1117q44 0 75 -31t31 -75t-31 -75t-75 -31t-75 31t-31 75t31 75t75 31zM489 1117q44 0 75 -31t31 -75t-31 -75
t-75 -31t-75 31t-31 75t31 75t75 31z" />
    <glyph glyph-name="Yacute" unicode="&#xdd;" horiz-adv-x="800" 
d="M-20 825h265l155 -229l155 229h265l-310 -451v-374h-220v374zM257 987l221 194l105 -132l-262 -150z" />
    <glyph glyph-name="Thorn" unicode="&#xde;" horiz-adv-x="604" 
d="M49 825h220v-146h106q127 0 207 -66t80 -194t-81 -199.5t-206 -71.5h-106v-148h-220v825zM269 504v-182h34q121 0 121 90q0 92 -121 92h-34z" />
    <glyph glyph-name="germandbls" unicode="&#xdf;" horiz-adv-x="660" 
d="M85 614q0 114 77 187.5t183 73.5q119 0 193 -71.5t74 -179.5q0 -107 -93 -164q126 -62 126 -200q0 -119 -82.5 -196t-215.5 -80v189q35 0 56.5 28.5t21.5 69.5q0 46 -19 76.5t-59 30.5v156q34 0 52 26t18 64q0 35 -20.5 56.5t-51.5 21.5q-24 0 -38.5 -20.5t-14.5 -59.5
v-622h-207v314h-66v157h66v143z" />
    <glyph glyph-name="agrave" unicode="&#xe0;" 
d="M14 256q0 114 71 193t182 79q92 0 156 -49v33h208v-512h-208v40q-72 -56 -156 -56q-111 0 -182 79t-71 193zM234 256q0 -42 26.5 -69t70.5 -27q42 0 69 27.5t27 68.5t-28 68.5t-68 27.5q-41 0 -69 -27t-28 -69zM139 738l105 132l221 -194l-64 -88z" />
    <glyph glyph-name="aacute" unicode="&#xe1;" 
d="M14 256q0 114 71 193t182 79q92 0 156 -49v33h208v-512h-208v40q-72 -56 -156 -56q-111 0 -182 79t-71 193zM234 256q0 -42 26.5 -69t70.5 -27q42 0 69 27.5t27 68.5t-28 68.5t-68 27.5q-41 0 -69 -27t-28 -69zM179 675l221 194l105 -132l-262 -150z" />
    <glyph glyph-name="acircumflex" unicode="&#xe2;" 
d="M14 256q0 114 71 193t182 79q92 0 156 -49v33h208v-512h-208v40q-72 -56 -156 -56q-111 0 -182 79t-71 193zM234 256q0 -42 26.5 -69t70.5 -27q42 0 69 27.5t27 68.5t-28 68.5t-68 27.5q-41 0 -69 -27t-28 -69zM91 692l231 170l231 -170l-78 -105l-153 112l-153 -112z
" />
    <glyph glyph-name="atilde" unicode="&#xe3;" 
d="M14 256q0 114 71 193t182 79q92 0 156 -49v33h208v-512h-208v40q-72 -56 -156 -56q-111 0 -182 79t-71 193zM234 256q0 -42 26.5 -69t70.5 -27q42 0 69 27.5t27 68.5t-28 68.5t-68 27.5q-41 0 -69 -27t-28 -69zM512 846l108 -95q-1 -4 -8.5 -18t-24.5 -36.5t-37.5 -43
t-51.5 -35t-63 -14.5q-33 0 -65 10t-48 19t-44 27q-3 2 -12.5 8t-14 9t-13 7t-15.5 5.5t-14 1.5q-26 0 -45 -19.5t-26 -39.5l-6 -19l-108 95q1 4 8.5 17.5t24.5 36.5t37.5 43t51.5 35t63 15q33 0 65 -10t48 -19t44 -27q3 -2 12.5 -8t14 -9t13 -7t15.5 -5.5t14 -1.5
q26 0 45 19.5t26 38.5z" />
    <glyph glyph-name="adieresis" unicode="&#xe4;" 
d="M14 256q0 114 71 193t182 79q92 0 156 -49v33h208v-512h-208v40q-72 -56 -156 -56q-111 0 -182 79t-71 193zM234 256q0 -42 26.5 -69t70.5 -27q42 0 69 27.5t27 68.5t-28 68.5t-68 27.5q-41 0 -69 -27t-28 -69zM204 805q44 0 75 -31t31 -75t-31 -75t-75 -31t-75 31
t-31 75t31 75t75 31zM440 805q44 0 75 -31t31 -75t-31 -75t-75 -31t-75 31t-31 75t31 75t75 31z" />
    <glyph glyph-name="aring" unicode="&#xe5;" 
d="M14 256q0 114 71 193t182 79q92 0 156 -49v33h208v-512h-208v40q-72 -56 -156 -56q-111 0 -182 79t-71 193zM234 256q0 -42 26.5 -69t70.5 -27q42 0 69 27.5t27 68.5t-28 68.5t-68 27.5q-41 0 -69 -27t-28 -69zM148 733q0 67 50 110t124 43t124 -43t50 -110t-50 -110
t-124 -43t-124 43t-50 110zM263 733q0 -25 18 -43.5t41 -18.5t41 18.5t18 43.5t-18 43.5t-41 18.5t-41 -18.5t-18 -43.5z" />
    <glyph glyph-name="ae" unicode="&#xe6;" horiz-adv-x="945" 
d="M40 133q0 71 47.5 118t131.5 47t153 -31v30q0 29 -32.5 48t-65.5 19q-36 0 -70 -5.5t-50 -10.5l-17 -6l-63 142q8 5 24 12.5t68 19.5t108 12q131 0 210 -44q79 44 169 44q123 0 200.5 -69.5t77.5 -196.5q0 -11 -2 -35h-347q0 -43 28 -61t56 -18q38 0 57 8t51 38l149 -74
q-81 -136 -272 -136q-102 0 -187 63l-54 -21q-107 -42 -183 -42q-81 0 -134 40.5t-53 108.5zM246 151q0 -19 19.5 -31.5t47.5 -12.5q27 0 46.5 12t19.5 29t-19.5 29.5t-46.5 12.5q-29 0 -48 -10t-19 -29zM588 335h140q-10 55 -69 55q-69 0 -71 -55z" />
    <glyph glyph-name="ccedilla" unicode="&#xe7;" horiz-adv-x="471" 
d="M161 -119l40 121q-81 31 -133.5 100.5t-52.5 153.5q0 110 87 191t199 81q50 0 93 -11.5t60 -22.5l18 -12l-68 -140q-27 17 -72 17q-39 0 -68 -31t-29 -72t29 -72t68 -31q45 0 72 17l68 -140q-7 -5 -19.5 -12.5t-57 -20.5t-94.5 -13q-13 0 -19 1l-14 -43q48 0 87 -27.5
t39 -74.5q0 -56 -38 -95t-120 -39q-41 0 -81 21.5t-59 42.5l-19 21l82 62q35 -44 77 -44q41 0 41 31q0 18 -18.5 27.5t-40.5 9.5q-15 0 -26.5 -1.5t-15.5 -3.5l-3 -1z" />
    <glyph glyph-name="egrave" unicode="&#xe8;" horiz-adv-x="592" 
d="M14 257q0 112 84 191.5t202 79.5q123 0 200.5 -69.5t77.5 -196.5q0 -11 -2 -35h-347q0 -43 28 -61t56 -18q38 0 57 8t51 38l149 -74q-81 -136 -272 -136q-116 0 -200 81t-84 192zM235 335h140q-10 55 -69 55q-69 0 -71 -55zM117 737l105 132l221 -194l-64 -88z" />
    <glyph glyph-name="eacute" unicode="&#xe9;" horiz-adv-x="592" 
d="M14 257q0 112 84 191.5t202 79.5q123 0 200.5 -69.5t77.5 -196.5q0 -11 -2 -35h-347q0 -43 28 -61t56 -18q38 0 57 8t51 38l149 -74q-81 -136 -272 -136q-116 0 -200 81t-84 192zM235 335h140q-10 55 -69 55q-69 0 -71 -55zM157 675l221 194l105 -132l-262 -150z" />
    <glyph glyph-name="ecircumflex" unicode="&#xea;" horiz-adv-x="592" 
d="M14 257q0 112 84 191.5t202 79.5q123 0 200.5 -69.5t77.5 -196.5q0 -11 -2 -35h-347q0 -43 28 -61t56 -18q38 0 57 8t51 38l149 -74q-81 -136 -272 -136q-116 0 -200 81t-84 192zM235 335h140q-10 55 -69 55q-69 0 -71 -55zM69 692l231 170l231 -170l-78 -105l-153 112
l-153 -112z" />
    <glyph glyph-name="edieresis" unicode="&#xeb;" horiz-adv-x="592" 
d="M14 257q0 112 84 191.5t202 79.5q123 0 200.5 -69.5t77.5 -196.5q0 -11 -2 -35h-347q0 -43 28 -61t56 -18q38 0 57 8t51 38l149 -74q-81 -136 -272 -136q-116 0 -200 81t-84 192zM235 335h140q-10 55 -69 55q-69 0 -71 -55zM182 819q44 0 75 -31t31 -75t-31 -75t-75 -31
t-75 31t-31 75t31 75t75 31zM418 819q44 0 75 -31t31 -75t-31 -75t-75 -31t-75 31t-31 75t31 75t75 31z" />
    <glyph glyph-name="igrave" unicode="&#xec;" horiz-adv-x="306" 
d="M49 512h208v-512h-208v512zM-109 737l105 132l221 -194l-64 -88z" />
    <glyph glyph-name="iacute" unicode="&#xed;" horiz-adv-x="306" 
d="M49 512h208v-512h-208v512zM89 675l221 194l105 -132l-262 -150z" />
    <glyph glyph-name="icircumflex" unicode="&#xee;" horiz-adv-x="306" 
d="M49 512h208v-512h-208v512zM-78 692l231 170l231 -170l-78 -105l-153 112l-153 -112z" />
    <glyph glyph-name="idieresis" unicode="&#xef;" horiz-adv-x="306" 
d="M49 512h208v-512h-208v512zM35 818q44 0 75 -31t31 -75t-31 -75t-75 -31t-75 31t-31 75t31 75t75 31zM271 818q44 0 75 -31t31 -75t-31 -75t-75 -31t-75 31t-31 75t31 75t75 31z" />
    <glyph glyph-name="eth" unicode="&#xf0;" horiz-adv-x="681" 
d="M35 256q0 69 29 124.5t74.5 88.5t96.5 50t100 17l16 -1q-21 14 -58 37.5t-44 27.5l-84 -83l-89 89l60 59q-25 12 -51.5 21t-40.5 12l-14 3l48 174q101 -22 197 -71l72 71l87 -90l-47 -47q277 -187 277 -482q0 -119 -88.5 -195.5t-224.5 -76.5q-142 0 -229 76t-87 196z
M256 256q0 -42 26 -68.5t68 -26.5q40 0 66.5 27t26.5 68q0 42 -27.5 69t-65.5 27q-39 0 -66.5 -27t-27.5 -69z" />
    <glyph glyph-name="ntilde" unicode="&#xf1;" horiz-adv-x="673" 
d="M49 512h208v-48q64 64 146 64q35 0 71.5 -9t74 -28.5t61 -58t23.5 -90.5v-342h-208v286q0 35 -21 58t-55 23q-38 0 -65 -27t-27 -62v-278h-208v512zM531 837l108 -95q-1 -4 -8.5 -18t-24.5 -36.5t-37.5 -43t-51.5 -35t-63 -14.5q-33 0 -65 10t-48 19t-44 27q-3 2 -12.5 8
t-14 9t-13 7t-15.5 5.5t-14 1.5q-26 0 -45 -19.5t-25 -38.5l-7 -20l-108 95q1 4 8.5 17.5t24.5 36.5t37.5 43t51.5 35t63 15q33 0 65 -10t48 -19t44 -27q3 -2 12.5 -8t14 -9t13 -7t15.5 -5.5t14 -1.5q26 0 45 19.5t25 39.5z" />
    <glyph glyph-name="ograve" unicode="&#xf2;" horiz-adv-x="652" 
d="M14 256q0 119 89.5 195.5t222.5 76.5t222.5 -76.5t89.5 -195.5t-89.5 -195.5t-222.5 -76.5t-222.5 76.5t-89.5 195.5zM232 256q0 -42 27.5 -69t66.5 -27t66.5 27t27.5 69t-27.5 69t-66.5 27t-66.5 -27t-27.5 -69zM143 737l105 132l221 -194l-64 -88z" />
    <glyph glyph-name="oacute" unicode="&#xf3;" horiz-adv-x="652" 
d="M14 256q0 119 89.5 195.5t222.5 76.5t222.5 -76.5t89.5 -195.5t-89.5 -195.5t-222.5 -76.5t-222.5 76.5t-89.5 195.5zM232 256q0 -42 27.5 -69t66.5 -27t66.5 27t27.5 69t-27.5 69t-66.5 27t-66.5 -27t-27.5 -69zM183 675l221 194l105 -132l-262 -150z" />
    <glyph glyph-name="ocircumflex" unicode="&#xf4;" horiz-adv-x="652" 
d="M14 256q0 119 89.5 195.5t222.5 76.5t222.5 -76.5t89.5 -195.5t-89.5 -195.5t-222.5 -76.5t-222.5 76.5t-89.5 195.5zM232 256q0 -42 27.5 -69t66.5 -27t66.5 27t27.5 69t-27.5 69t-66.5 27t-66.5 -27t-27.5 -69zM95 692l231 170l231 -170l-78 -105l-153 112l-153 -112z
" />
    <glyph glyph-name="otilde" unicode="&#xf5;" horiz-adv-x="652" 
d="M14 256q0 119 89.5 195.5t222.5 76.5t222.5 -76.5t89.5 -195.5t-89.5 -195.5t-222.5 -76.5t-222.5 76.5t-89.5 195.5zM232 256q0 -42 27.5 -69t66.5 -27t66.5 27t27.5 69t-27.5 69t-66.5 27t-66.5 -27t-27.5 -69zM516 807l108 -95q-1 -4 -8.5 -18t-24.5 -36.5t-37.5 -43
t-51.5 -35t-63 -14.5q-33 0 -65 10t-48 19t-44 27q-3 2 -12.5 8t-14 9t-13 7t-15.5 5.5t-14 1.5q-26 0 -45 -19.5t-26 -38.5l-6 -20l-108 95q1 4 8.5 17.5t24.5 36.5t37.5 43t51.5 35t63 15q33 0 65 -10t48 -19t44 -27q3 -2 12.5 -8t14 -9t13 -7t15.5 -5.5t14 -1.5
q26 0 45 19.5t26 39.5z" />
    <glyph glyph-name="odieresis" unicode="&#xf6;" horiz-adv-x="652" 
d="M14 256q0 119 89.5 195.5t222.5 76.5t222.5 -76.5t89.5 -195.5t-89.5 -195.5t-222.5 -76.5t-222.5 76.5t-89.5 195.5zM232 256q0 -42 27.5 -69t66.5 -27t66.5 27t27.5 69t-27.5 69t-66.5 27t-66.5 -27t-27.5 -69zM208 805q44 0 75 -31t31 -75t-31 -75t-75 -31t-75 31
t-31 75t31 75t75 31zM444 805q44 0 75 -31t31 -75t-31 -75t-75 -31t-75 31t-31 75t31 75t75 31z" />
    <glyph glyph-name="divide" unicode="&#xf7;" horiz-adv-x="626" 
d="M56 505h514v-180h-514v180zM313 726q38 0 64.5 -27t26.5 -67t-26.5 -67t-64.5 -27t-64.5 27t-26.5 67t26.5 67t64.5 27zM313 291q38 0 64.5 -27t26.5 -67t-26.5 -67t-64.5 -27t-64.5 27t-26.5 67t26.5 67t64.5 27z" />
    <glyph glyph-name="oslash" unicode="&#xf8;" horiz-adv-x="653" 
d="M15 256q0 119 89.5 195.5t222.5 76.5q117 0 199 -59l89 72l50 -60l-81 -66q55 -70 55 -159q0 -119 -89.5 -195.5t-222.5 -76.5q-116 0 -201 60l-90 -73l-51 60l83 67q-53 71 -53 158zM421 256q0 13 -3 25l-136 -110q22 -11 45 -11q39 0 66.5 27t27.5 69zM233 256
q0 -9 2 -23l134 109q-22 10 -42 10q-39 0 -66.5 -27t-27.5 -69z" />
    <glyph glyph-name="ugrave" unicode="&#xf9;" horiz-adv-x="672" 
d="M424 512h208v-285q0 -129 -70.5 -186t-225.5 -57t-225.5 57t-70.5 186v285h208v-233q0 -68 19 -97.5t69 -29.5t69 29.5t19 97.5v233zM153 737l105 132l221 -194l-64 -88z" />
    <glyph glyph-name="uacute" unicode="&#xfa;" horiz-adv-x="672" 
d="M424 512h208v-285q0 -129 -70.5 -186t-225.5 -57t-225.5 57t-70.5 186v285h208v-233q0 -68 19 -97.5t69 -29.5t69 29.5t19 97.5v233zM193 675l221 194l105 -132l-262 -150z" />
    <glyph glyph-name="ucircumflex" unicode="&#xfb;" horiz-adv-x="672" 
d="M424 512h208v-285q0 -129 -70.5 -186t-225.5 -57t-225.5 57t-70.5 186v285h208v-233q0 -68 19 -97.5t69 -29.5t69 29.5t19 97.5v233zM105 692l231 170l231 -170l-78 -105l-153 112l-153 -112z" />
    <glyph glyph-name="udieresis" unicode="&#xfc;" horiz-adv-x="672" 
d="M424 512h208v-285q0 -129 -70.5 -186t-225.5 -57t-225.5 57t-70.5 186v285h208v-233q0 -68 19 -97.5t69 -29.5t69 29.5t19 97.5v233zM218 819q44 0 75 -31t31 -75t-31 -75t-75 -31t-75 31t-31 75t31 75t75 31zM454 819q44 0 75 -31t31 -75t-31 -75t-75 -31t-75 31t-31 75
t31 75t75 31z" />
    <glyph glyph-name="yacute" unicode="&#xfd;" horiz-adv-x="660" 
d="M-24 512h239l126 -216l104 216h239l-418 -772h-239l192 359zM188 675l221 194l105 -132l-262 -150z" />
    <glyph glyph-name="thorn" unicode="&#xfe;" horiz-adv-x="681" 
d="M664 256q0 -114 -71 -193t-182 -79q-84 0 -156 56v-300h-208v1120h208v-381q64 49 156 49q111 0 182 -79t71 -193zM444 256q0 42 -28 69t-69 27q-40 0 -68 -27.5t-28 -68.5t27 -68.5t69 -27.5q44 0 70.5 27t26.5 69z" />
    <glyph glyph-name="ydieresis" unicode="&#xff;" horiz-adv-x="660" 
d="M-24 512h239l126 -216l104 216h239l-418 -772h-239l192 359zM223 819q44 0 75 -31t31 -75t-31 -75t-75 -31t-75 31t-31 75t31 75t75 31zM459 819q44 0 75 -31t31 -75t-31 -75t-75 -31t-75 31t-31 75t31 75t75 31z" />
    <glyph glyph-name="Amacron" unicode="&#x100;" horiz-adv-x="808" 
d="M302 825h204l336 -825h-237l-50 137h-302l-50 -137h-237zM327 330h154l-77 196zM200 1086h408v-140h-408v140z" />
    <glyph glyph-name="amacron" unicode="&#x101;" 
d="M14 256q0 114 71 193t182 79q92 0 156 -49v33h208v-512h-208v40q-72 -56 -156 -56q-111 0 -182 79t-71 193zM234 256q0 -42 26.5 -69t70.5 -27q42 0 69 27.5t27 68.5t-28 68.5t-68 27.5q-41 0 -69 -27t-28 -69zM118 774h408v-140h-408v140z" />
    <glyph glyph-name="Abreve" unicode="&#x102;" horiz-adv-x="808" 
d="M302 825h204l336 -825h-237l-50 137h-302l-50 -137h-237zM327 330h154l-77 196zM496 1163l146 -36q-8 -83 -73 -135t-165 -52t-165 52t-73 135l146 36q0 -4 0.5 -10.5t5.5 -23t14 -29.5t28 -23.5t44 -10.5q40 0 63 24t26 48z" />
    <glyph glyph-name="abreve" unicode="&#x103;" 
d="M14 256q0 114 71 193t182 79q92 0 156 -49v33h208v-512h-208v40q-72 -56 -156 -56q-111 0 -182 79t-71 193zM234 256q0 -42 26.5 -69t70.5 -27q42 0 69 27.5t27 68.5t-28 68.5t-68 27.5q-41 0 -69 -27t-28 -69zM414 859l146 -36q-8 -83 -73 -135t-165 -52t-165 52
t-73 135l146 36q0 -4 0.5 -10.5t5.5 -23t14 -29.5t28 -23.5t44 -10.5q40 0 63 24t26 48z" />
    <glyph glyph-name="Aogonek" unicode="&#x104;" horiz-adv-x="808" 
d="M547 -158q0 62 80 158h-22l-50 137h-302l-50 -137h-237l336 825h204l336 -825h-134l9 -4q-6 -7 -14.5 -19.5t-23 -47.5t-14.5 -65q0 -12 7.5 -20.5t17.5 -8.5q11 0 20.5 6t13.5 12l3 6l83 -62q-2 -3 -5.5 -8t-16 -17t-27.5 -21.5t-38.5 -17.5t-49.5 -8q-45 0 -85.5 28
t-40.5 89zM327 330h154l-77 196z" />
    <glyph glyph-name="aogonek" unicode="&#x105;" 
d="M345 -158q0 58 78 158v40q-72 -56 -156 -56q-111 0 -182 79t-71 193t71 193t182 79q92 0 156 -49v33h208v-512h-112q-56 -64 -56 -136q0 -12 7.5 -20.5t17.5 -8.5q11 0 20.5 6t13.5 12l3 6l83 -62q-2 -3 -5.5 -8t-16 -17t-27.5 -21.5t-38.5 -17.5t-49.5 -8
q-45 0 -85.5 28t-40.5 89zM234 256q0 -42 26.5 -69t70.5 -27q42 0 69 27.5t27 68.5t-28 68.5t-68 27.5q-41 0 -69 -27t-28 -69z" />
    <glyph glyph-name="Cacute" unicode="&#x106;" horiz-adv-x="738" 
d="M13 412q0 115 64.5 214.5t168.5 156.5t218 57q50 0 97 -7.5t77 -18t53.5 -21.5t34.5 -19l10 -7l-93 -188q-7 5 -19 12.5t-49.5 20t-76.5 12.5q-64 0 -114 -20.5t-77.5 -53t-41.5 -68t-14 -70.5t14 -70.5t41.5 -68t77.5 -53t114 -20.5q39 0 75 11t53 23l17 11l93 -188
q-4 -3 -11 -8t-32.5 -17.5t-55 -22t-76.5 -17.5t-97 -8q-114 0 -218 57t-168.5 156.5t-64.5 214.5zM241 988l221 194l105 -132l-262 -150z" />
    <glyph glyph-name="cacute" unicode="&#x107;" horiz-adv-x="470" 
d="M14 256q0 110 87 191t199 81q50 0 93 -11.5t61 -22.5l17 -12l-68 -140q-27 17 -72 17q-39 0 -68 -31t-29 -72t29 -72t68 -31q45 0 72 17l68 -140q-7 -5 -19.5 -12.5t-57 -20.5t-94.5 -13q-112 0 -199 81t-87 191zM99 675l221 194l105 -132l-262 -150z" />
    <glyph glyph-name="Ccaron" unicode="&#x10c;" horiz-adv-x="738" 
d="M13 412q0 115 64.5 214.5t168.5 156.5t218 57q50 0 97 -7.5t77 -18t53.5 -21.5t34.5 -19l10 -7l-93 -188q-7 5 -19 12.5t-49.5 20t-76.5 12.5q-64 0 -114 -20.5t-77.5 -53t-41.5 -68t-14 -70.5t14 -70.5t41.5 -68t77.5 -53t114 -20.5q39 0 75 11t53 23l17 11l93 -188
q-4 -3 -11 -8t-32.5 -17.5t-55 -22t-76.5 -17.5t-97 -8q-114 0 -218 57t-168.5 156.5t-64.5 214.5zM434 899l-231 170l78 105l153 -112l153 112l78 -105z" />
    <glyph glyph-name="ccaron" unicode="&#x10d;" horiz-adv-x="470" 
d="M14 256q0 110 87 191t199 81q50 0 93 -11.5t61 -22.5l17 -12l-68 -140q-27 17 -72 17q-39 0 -68 -31t-29 -72t29 -72t68 -31q45 0 72 17l68 -140q-7 -5 -19.5 -12.5t-57 -20.5t-94.5 -13q-112 0 -199 81t-87 191zM270 587l-231 170l78 105l153 -112l153 112l78 -105z" />
    <glyph glyph-name="Dcaron" unicode="&#x10e;" horiz-adv-x="732" 
d="M49 825h254q172 0 294 -118t122 -295q0 -178 -121.5 -295t-294.5 -117h-254v825zM269 628v-431h8q91 0 147 61t57 154q0 92 -56 154t-148 62h-8zM361 899l-231 170l78 105l153 -112l153 112l78 -105z" />
    <glyph glyph-name="dcaron" unicode="&#x10f;" 
d="M14 256q0 114 71 193t182 79q92 0 156 -49v381h208v-860h-208v40q-72 -56 -156 -56q-111 0 -182 79t-71 193zM234 256q0 -42 26.5 -69t70.5 -27q42 0 69 27.5t27 68.5t-28 68.5t-68 27.5q-41 0 -69 -27t-28 -69zM767 824q43 0 73.5 -30t30.5 -73q0 -123 -149 -245l-47 36
q6 5 15 14.5t27.5 40.5t24.5 63q-33 8 -54 32.5t-21 58.5q0 43 29.5 73t70.5 30z" />
    <glyph glyph-name="Dcroat" unicode="&#x110;" horiz-adv-x="732" 
d="M-33 323v179h82v323h254q172 0 294 -118t122 -295q0 -178 -121.5 -295t-294.5 -117h-254v323h-82zM277 628h-8v-126h77v-179h-77v-126h8q91 0 147 61t57 154q0 92 -56 154t-148 62z" />
    <glyph glyph-name="dcroat" unicode="&#x111;" 
d="M14 256q0 114 71 193t182 79q92 0 156 -49v140h-103v132h103v109h208v-109h51v-132h-51v-619h-208v40q-72 -56 -156 -56q-111 0 -182 79t-71 193zM234 256q0 -42 26.5 -69t70.5 -27q42 0 69 27.5t27 68.5t-28 68.5t-68 27.5q-41 0 -69 -27t-28 -69z" />
    <glyph glyph-name="Emacron" unicode="&#x112;" horiz-adv-x="580" 
d="M49 825h488v-193h-268v-122h256v-193h-256v-124h268v-193h-488v825zM89 1086h408v-140h-408v140z" />
    <glyph glyph-name="emacron" unicode="&#x113;" horiz-adv-x="592" 
d="M14 257q0 112 84 191.5t202 79.5q123 0 200.5 -69.5t77.5 -196.5q0 -11 -2 -35h-347q0 -43 28 -61t56 -18q38 0 57 8t51 38l149 -74q-81 -136 -272 -136q-116 0 -200 81t-84 192zM235 335h140q-10 55 -69 55q-69 0 -71 -55zM96 774h408v-140h-408v140z" />
    <glyph glyph-name="Edotaccent" unicode="&#x116;" horiz-adv-x="580" 
d="M49 825h488v-193h-268v-122h256v-193h-256v-124h268v-193h-488v825zM293 1131q44 0 75 -31t31 -75t-31 -75t-75 -31t-75 31t-31 75t31 75t75 31z" />
    <glyph glyph-name="edotaccent" unicode="&#x117;" horiz-adv-x="592" 
d="M14 257q0 112 84 191.5t202 79.5q123 0 200.5 -69.5t77.5 -196.5q0 -11 -2 -35h-347q0 -43 28 -61t56 -18q38 0 57 8t51 38l149 -74q-81 -136 -272 -136q-116 0 -200 81t-84 192zM235 335h140q-10 55 -69 55q-69 0 -71 -55zM300 819q44 0 75 -31t31 -75t-31 -75t-75 -31
t-75 31t-31 75t31 75t75 31z" />
    <glyph glyph-name="Eogonek" unicode="&#x118;" horiz-adv-x="580" 
d="M272 -158q0 62 80 158h-303v825h488v-193h-268v-122h256v-193h-256v-124h268v-193h-104l9 -4q-6 -7 -14.5 -19.5t-23 -47.5t-14.5 -65q0 -12 7.5 -20.5t17.5 -8.5q11 0 20.5 6t12.5 12l4 6l83 -62q-2 -3 -5.5 -8t-16 -17t-27.5 -21.5t-38.5 -17.5t-49.5 -8
q-45 0 -85.5 28t-40.5 89z" />
    <glyph glyph-name="eogonek" unicode="&#x119;" horiz-adv-x="592" 
d="M251 -158q0 58 67 143q-8 -1 -20 -1q-116 0 -200 81t-84 192q0 112 84 191.5t202 79.5q123 0 200.5 -69.5t77.5 -196.5q0 -11 -2 -35h-347q0 -43 28 -61t56 -18q38 0 57 8t51 38l149 -74q-56 -93 -156 -121q-45 -67 -45 -135q0 -12 7.5 -20.5t17.5 -8.5q11 0 20.5 6
t13.5 12l3 6l83 -62q-2 -3 -5.5 -8t-16 -17t-27.5 -21.5t-38.5 -17.5t-49.5 -8q-45 0 -85.5 28t-40.5 89zM235 335h140q-10 55 -69 55q-69 0 -71 -55z" />
    <glyph glyph-name="Ecaron" unicode="&#x11a;" horiz-adv-x="580" 
d="M49 825h488v-193h-268v-122h256v-193h-256v-124h268v-193h-488v825zM293 899l-231 170l78 105l153 -112l153 112l78 -105z" />
    <glyph glyph-name="ecaron" unicode="&#x11b;" horiz-adv-x="592" 
d="M14 257q0 112 84 191.5t202 79.5q123 0 200.5 -69.5t77.5 -196.5q0 -11 -2 -35h-347q0 -43 28 -61t56 -18q38 0 57 8t51 38l149 -74q-81 -136 -272 -136q-116 0 -200 81t-84 192zM235 335h140q-10 55 -69 55q-69 0 -71 -55zM300 587l-231 170l78 105l153 -112l153 112
l78 -105z" />
    <glyph glyph-name="Gcommaaccent" unicode="&#x122;" horiz-adv-x="806" 
d="M13 412q0 180 115 304t287 124q211 0 318 -141l-135 -148q-19 42 -65 66t-105 24q-72 0 -124.5 -67t-52.5 -162q0 -93 52 -159t125 -66q55 0 99.5 32t44.5 88h-157v169h381v-160q0 -54 -25 -111.5t-71 -107t-121 -81.5t-164 -32q-166 0 -284 125.5t-118 302.5zM413 -40
q43 0 73.5 -30t30.5 -73q0 -123 -149 -245l-47 36q6 5 15 14.5t27.5 40.5t24.5 63q-33 8 -54 32.5t-21 58.5q0 43 29.5 73t70.5 30z" />
    <glyph glyph-name="gcommaaccent" unicode="&#x123;" 
d="M14 256q0 114 71 193t182 79q92 0 156 -49v33h208v-526q0 -126 -86 -193.5t-223 -67.5q-44 0 -80.5 5t-79 19t-76 46t-54.5 79l168 83q42 -52 121 -52q13 0 28 4t33 13.5t29.5 31t11.5 50.5v36q-72 -56 -156 -56q-111 0 -182 79t-71 193zM234 256q0 -42 26.5 -69
t70.5 -27q42 0 69 27.5t27 68.5t-28 68.5t-68 27.5q-41 0 -69 -27t-28 -69zM324 607q-43 0 -73.5 30t-30.5 73q0 123 149 245l47 -36q-6 -5 -15 -14.5t-27.5 -40.5t-24.5 -63q33 -8 54 -32.5t21 -58.5q0 -43 -29.5 -73t-70.5 -30z" />
    <glyph glyph-name="Imacron" unicode="&#x12a;" horiz-adv-x="318" 
d="M49 825h220v-825h-220v825zM-45 1086h408v-140h-408v140z" />
    <glyph glyph-name="imacron" unicode="&#x12b;" horiz-adv-x="306" 
d="M49 512h208v-512h-208v512zM-51 774h408v-140h-408v140z" />
    <glyph glyph-name="Iogonek" unicode="&#x12e;" horiz-adv-x="318" 
d="M32 -158q0 62 80 158h-63v825h220v-825h-65q-54 -72 -54 -136q0 -12 7.5 -20.5t17.5 -8.5q11 0 20.5 6t12.5 12l4 6l83 -62q-2 -3 -5.5 -8t-16 -17t-27.5 -21.5t-38.5 -17.5t-49.5 -8q-45 0 -85.5 28t-40.5 89z" />
    <glyph glyph-name="iogonek" unicode="&#x12f;" horiz-adv-x="306" 
d="M26 -158q0 62 80 158h-57v512h208v-512h-58q-55 -69 -55 -136q0 -12 7.5 -20.5t17.5 -8.5q11 0 20.5 6t12.5 12l4 6l83 -62q-2 -3 -5.5 -8t-16 -17t-27.5 -21.5t-38.5 -17.5t-49.5 -8q-45 0 -85.5 28t-40.5 89zM152 865q50 0 86 -36t36 -86t-36 -86t-86 -36t-86 36
t-36 86t36 86t86 36z" />
    <glyph glyph-name="dotlessi" unicode="&#x131;" horiz-adv-x="306" 
d="M49 512h208v-512h-208v512z" />
    <glyph glyph-name="Kcommaaccent" unicode="&#x136;" horiz-adv-x="819" 
d="M49 825h220v-321l257 321h267l-320 -389l375 -436h-303l-276 331v-331h-220v825zM403 -40q43 0 73.5 -30t30.5 -73q0 -123 -149 -245l-47 36q6 5 15 14.5t27.5 40.5t24.5 63q-33 8 -54 32.5t-21 58.5q0 43 29.5 73t70.5 30z" />
    <glyph glyph-name="kcommaaccent" unicode="&#x137;" horiz-adv-x="691" 
d="M49 860h208v-520l179 172h269l-262 -258l273 -254h-267l-192 175v-175h-208v860zM328 -40q43 0 73.5 -30t30.5 -73q0 -123 -149 -245l-47 36q6 5 15 14.5t27.5 40.5t24.5 63q-33 8 -54 32.5t-21 58.5q0 43 29.5 73t70.5 30z" />
    <glyph glyph-name="Lacute" unicode="&#x139;" horiz-adv-x="568" 
d="M49 825h220v-632h266v-193h-486v825zM95 987l221 194l105 -132l-262 -150z" />
    <glyph glyph-name="lacute" unicode="&#x13a;" horiz-adv-x="306" 
d="M49 860h208v-860h-208v860zM89 1022l221 194l105 -132l-262 -150z" />
    <glyph glyph-name="Lcommaaccent" unicode="&#x13b;" horiz-adv-x="568" 
d="M49 825h220v-632h266v-193h-486v825zM272 -40q43 0 73.5 -30t30.5 -73q0 -123 -149 -245l-47 36q6 5 15 14.5t27.5 40.5t24.5 63q-33 8 -54 32.5t-21 58.5q0 43 29.5 73t70.5 30z" />
    <glyph glyph-name="lcommaaccent" unicode="&#x13c;" horiz-adv-x="306" 
d="M49 860h208v-860h-208v860zM151 -40q43 0 73.5 -30t30.5 -73q0 -123 -149 -245l-47 36q6 5 15 14.5t27.5 40.5t24.5 63q-33 8 -54 32.5t-21 58.5q0 43 29.5 73t70.5 30z" />
    <glyph glyph-name="Lcaron" unicode="&#x13d;" horiz-adv-x="568" 
d="M49 825h220v-632h266v-193h-486v825zM411 825q43 0 73.5 -30t30.5 -73q0 -123 -149 -245l-47 36q6 5 15 14.5t27.5 40.5t24.5 63q-33 8 -54 32.5t-21 58.5q0 43 29.5 73t70.5 30z" />
    <glyph glyph-name="lcaron" unicode="&#x13e;" horiz-adv-x="306" 
d="M49 860h208v-860h-208v860zM392 824q43 0 73.5 -30t30.5 -73q0 -123 -149 -245l-47 36q6 5 15 14.5t27.5 40.5t24.5 63q-33 8 -54 32.5t-21 58.5q0 43 29.5 73t70.5 30z" />
    <glyph glyph-name="Lslash" unicode="&#x141;" horiz-adv-x="568" 
d="M49 825h220v-176l104 82v-179l-104 -82v-277h266v-193h-486v297l-74 -58v179l74 58v349z" />
    <glyph glyph-name="lslash" unicode="&#x142;" horiz-adv-x="306" 
d="M49 860h208v-235l72 57v-179l-72 -57v-446h-208v283l-72 -56v179l72 56v398z" />
    <glyph glyph-name="Nacute" unicode="&#x143;" horiz-adv-x="834" 
d="M49 825h220l296 -460v460h220v-825h-220l-296 460v-460h-220v825zM254 987l221 194l105 -132l-262 -150z" />
    <glyph glyph-name="nacute" unicode="&#x144;" horiz-adv-x="673" 
d="M49 512h208v-48q64 64 146 64q35 0 71.5 -9t74 -28.5t61 -58t23.5 -90.5v-342h-208v286q0 35 -21 58t-55 23q-38 0 -65 -27t-27 -62v-278h-208v512zM240 675l221 194l105 -132l-262 -150z" />
    <glyph glyph-name="Ncommaaccent" unicode="&#x145;" horiz-adv-x="834" 
d="M49 825h220l296 -460v460h220v-825h-220l-296 460v-460h-220v825zM415 -40q43 0 73.5 -30t30.5 -73q0 -123 -149 -245l-47 36q6 5 15 14.5t27.5 40.5t24.5 63q-33 8 -54 32.5t-21 58.5q0 43 29.5 73t70.5 30z" />
    <glyph glyph-name="ncommaaccent" unicode="&#x146;" horiz-adv-x="673" 
d="M49 512h208v-48q64 64 146 64q35 0 71.5 -9t74 -28.5t61 -58t23.5 -90.5v-342h-208v286q0 35 -21 58t-55 23q-38 0 -65 -27t-27 -62v-278h-208v512zM339 -40q43 0 73.5 -30t30.5 -73q0 -123 -149 -245l-47 36q6 5 15 14.5t27.5 40.5t24.5 63q-33 8 -54 32.5t-21 58.5
q0 43 29.5 73t70.5 30z" />
    <glyph glyph-name="Ncaron" unicode="&#x147;" horiz-adv-x="834" 
d="M49 825h220l296 -460v460h220v-825h-220l-296 460v-460h-220v825zM417 899l-231 170l78 105l153 -112l153 112l78 -105z" />
    <glyph glyph-name="ncaron" unicode="&#x148;" horiz-adv-x="673" 
d="M49 512h208v-48q64 64 146 64q35 0 71.5 -9t74 -28.5t61 -58t23.5 -90.5v-342h-208v286q0 35 -21 58t-55 23q-38 0 -65 -27t-27 -62v-278h-208v512zM341 587l-231 170l78 105l153 -112l153 112l78 -105z" />
    <glyph glyph-name="Omacron" unicode="&#x14c;" horiz-adv-x="858" 
d="M13 412q0 179 122 303.5t294 124.5t294 -124.5t122 -303.5t-122 -303.5t-294 -124.5t-294 124.5t-122 303.5zM250 412q0 -88 44 -152t135 -64t135 64t44 152t-44 152t-135 64t-135 -64t-44 -152zM225 1086h408v-140h-408v140z" />
    <glyph glyph-name="omacron" unicode="&#x14d;" horiz-adv-x="652" 
d="M14 256q0 119 89.5 195.5t222.5 76.5t222.5 -76.5t89.5 -195.5t-89.5 -195.5t-222.5 -76.5t-222.5 76.5t-89.5 195.5zM232 256q0 -42 27.5 -69t66.5 -27t66.5 27t27.5 69t-27.5 69t-66.5 27t-66.5 -27t-27.5 -69zM122 774h408v-140h-408v140z" />
    <glyph glyph-name="Ohungarumlaut" unicode="&#x150;" horiz-adv-x="858" 
d="M13 412q0 179 122 303.5t294 124.5t294 -124.5t122 -303.5t-122 -303.5t-294 -124.5t-294 124.5t-122 303.5zM250 412q0 -88 44 -152t135 -64t135 64t44 152t-44 152t-135 64t-135 -64t-44 -152zM145 1012l221 194l105 -132l-261 -150zM447 1012l221 194l105 -132
l-262 -150z" />
    <glyph glyph-name="ohungarumlaut" unicode="&#x151;" horiz-adv-x="652" 
d="M14 256q0 119 89.5 195.5t222.5 76.5t222.5 -76.5t89.5 -195.5t-89.5 -195.5t-222.5 -76.5t-222.5 76.5t-89.5 195.5zM232 256q0 -42 27.5 -69t66.5 -27t66.5 27t27.5 69t-27.5 69t-66.5 27t-66.5 -27t-27.5 -69zM32 675l221 194l105 -132l-261 -150zM334 675l221 194
l105 -132l-262 -150z" />
    <glyph glyph-name="OE" unicode="&#x152;" horiz-adv-x="1015" 
d="M6 412q0 92 28.5 164t76.5 118t115.5 76t141.5 42.5t159 12.5h445v-193h-268v-122h256v-193h-256v-124h268v-193h-550q-112 0 -206.5 51.5t-152 147t-57.5 213.5zM243 412q0 -106 65 -161t176 -55v433q-112 0 -176.5 -55.5t-64.5 -161.5z" />
    <glyph glyph-name="oe" unicode="&#x153;" horiz-adv-x="991" 
d="M15 256q0 120 85 196t217 76q121 0 191 -70q83 70 191 70q123 0 200.5 -69.5t77.5 -196.5q0 -11 -2 -35h-347q0 -43 28 -61t56 -18q38 0 57 8t51 38l149 -74q-81 -136 -272 -136q-108 0 -189 70q-67 -70 -191 -70q-132 0 -217 76t-85 196zM233 256q0 -42 27.5 -69
t66.5 -27t66.5 27t27.5 69t-27.5 69t-66.5 27t-66.5 -27t-27.5 -69zM634 335h140q-10 55 -69 55q-69 0 -71 -55z" />
    <glyph glyph-name="Racute" unicode="&#x154;" horiz-adv-x="749" 
d="M49 825h326q127 0 207 -66t80 -194q0 -93 -42.5 -157t-116.5 -95l267 -313h-279l-222 286v-286h-220v825zM269 650v-182h34q127 0 127 90q0 92 -127 92h-34zM208 989l221 194l105 -132l-262 -150z" />
    <glyph glyph-name="racute" unicode="&#x155;" horiz-adv-x="525" 
d="M49 512h208v-72q2 4 7 9.5t21 21t33.5 27t44.5 21t55 9.5q32 0 62 -9t44 -18l13 -9l-87 -175q-30 31 -96 31q-26 0 -45.5 -10t-28.5 -22.5t-15 -28t-7 -23.5t-1 -13v-251h-208v512zM130 675l221 194l105 -132l-262 -150z" />
    <glyph glyph-name="Rcommaaccent" unicode="&#x156;" horiz-adv-x="749" 
d="M49 825h326q127 0 207 -66t80 -194q0 -93 -42.5 -157t-116.5 -95l267 -313h-279l-222 286v-286h-220v825zM269 650v-182h34q127 0 127 90q0 92 -127 92h-34zM357 -40q43 0 73.5 -30t30.5 -73q0 -123 -149 -245l-47 36q6 5 15 14.5t27.5 40.5t24.5 63q-33 8 -54 32.5
t-21 58.5q0 43 29.5 73t70.5 30z" />
    <glyph glyph-name="rcommaaccent" unicode="&#x157;" horiz-adv-x="525" 
d="M151 -40q43 0 73.5 -30t30.5 -73q0 -123 -149 -245l-47 36q6 5 15 14.5t27.5 40.5t24.5 63q-33 8 -54 32.5t-21 58.5q0 43 29.5 73t70.5 30zM49 512h208v-72q2 4 7 9.5t21 21t33.5 27t44.5 21t55 9.5q32 0 62 -9t44 -18l13 -9l-87 -175q-30 31 -96 31q-26 0 -45.5 -10
t-28.5 -22.5t-15 -28t-7 -23.5t-1 -13v-251h-208v512z" />
    <glyph glyph-name="Rcaron" unicode="&#x158;" horiz-adv-x="749" 
d="M49 825h326q127 0 207 -66t80 -194q0 -93 -42.5 -157t-116.5 -95l267 -313h-279l-222 286v-286h-220v825zM269 650v-182h34q127 0 127 90q0 92 -127 92h-34zM330 899l-231 170l78 105l153 -112l153 112l78 -105z" />
    <glyph glyph-name="rcaron" unicode="&#x159;" horiz-adv-x="525" 
d="M49 512h208v-72q2 4 7 9.5t21 21t33.5 27t44.5 21t55 9.5q32 0 62 -9t44 -18l13 -9l-87 -175q-30 31 -96 31q-26 0 -45.5 -10t-28.5 -22.5t-15 -28t-7 -23.5t-1 -13v-251h-208v512zM292 587l-231 170l78 105l153 -112l153 112l78 -105z" />
    <glyph glyph-name="Sacute" unicode="&#x15a;" 
d="M91 579q0 115 86 188t194 73q71 0 138 -18t99 -36l31 -17l-87 -177q-81 48 -165 48q-80 0 -80 -53q0 -32 93 -67q49 -18 87 -37.5t80.5 -51t66.5 -75.5t24 -97q0 -76 -27 -131t-74 -85.5t-102.5 -44.5t-120.5 -14q-59 0 -113 10t-90 23.5t-64 27.5t-41 24l-12 10l109 187
q12 -9 33.5 -22t78 -34.5t103.5 -21.5q78 0 78 58q0 24 -23.5 46t-52 36.5t-94.5 44.5q-71 32 -113 87.5t-42 118.5zM227 987l221 194l105 -132l-262 -150z" />
    <glyph glyph-name="sacute" unicode="&#x15b;" horiz-adv-x="496" 
d="M290 528q47 0 92 -8t66 -16l22 -7l-65 -137q-61 24 -115 24q-25 0 -33.5 -4t-8.5 -13q0 -4 1.5 -7.5t5.5 -6.5t7.5 -5t11 -4.5t13 -4t15.5 -4.5t17 -5q156 -48 156 -169q0 -46 -17 -79.5t-42 -51.5t-62 -29t-68 -14t-69 -3q-59 0 -109.5 14t-71.5 28l-21 13l82 144
q67 -47 121 -47q38 0 38 17q0 12 -14 19.5t-44 18t-51 22.5q-46 26 -71.5 58t-25.5 84q0 83 65 128t175 45zM138 675l221 194l105 -132l-262 -150z" />
    <glyph glyph-name="Scedilla" unicode="&#x15e;" 
d="M265 -119l34 104q-52 3 -101 13.5t-81 24t-56.5 26.5t-35.5 21l-11 9l109 187q12 -9 33.5 -22t78 -34.5t103.5 -21.5q78 0 78 58q0 24 -23.5 46t-52 36.5t-94.5 44.5q-71 32 -113 87.5t-42 118.5q0 115 86 188t194 73q71 0 138 -18t99 -36l31 -17l-87 -177
q-81 48 -165 48q-80 0 -80 -53q0 -32 93 -67q49 -18 87 -37.5t80.5 -51t66.5 -75.5t24 -97q0 -131 -75.5 -196t-195.5 -76l-15 -45q48 0 87 -27.5t39 -74.5q0 -56 -38 -95t-120 -39q-41 0 -81 21.5t-59 42.5l-19 21l82 62q35 -44 77 -44q41 0 41 31q0 18 -18.5 27.5
t-40.5 9.5q-15 0 -26.5 -1.5t-15.5 -3.5l-3 -1z" />
    <glyph glyph-name="scedilla" unicode="&#x15f;" horiz-adv-x="496" 
d="M174 -119l34 103q-56 1 -104.5 15t-68.5 27l-20 13l82 144q67 -47 121 -47q38 0 38 17q0 12 -14 19.5t-44 18t-51 22.5q-46 26 -71.5 58t-25.5 84q0 83 65 128t175 45q47 0 92 -8t66 -16l22 -7l-65 -137q-61 24 -115 24q-25 0 -33.5 -4t-8.5 -13q0 -4 1.5 -7.5t5.5 -6.5
t7.5 -5t11 -4.5t13 -4t15.5 -4.5t17 -5q156 -48 156 -169q0 -150 -179 -172l-15 -47q48 0 87 -27.5t39 -74.5q0 -56 -38 -95t-120 -39q-41 0 -81 21.5t-59 42.5l-19 21l82 62q35 -44 77 -44q41 0 41 31q0 18 -18.5 27.5t-40.5 9.5q-15 0 -26.5 -1.5t-14.5 -3.5l-4 -1z" />
    <glyph glyph-name="Scaron" unicode="&#x160;" 
d="M91 579q0 115 86 188t194 73q71 0 138 -18t99 -36l31 -17l-87 -177q-81 48 -165 48q-80 0 -80 -53q0 -32 93 -67q49 -18 87 -37.5t80.5 -51t66.5 -75.5t24 -97q0 -76 -27 -131t-74 -85.5t-102.5 -44.5t-120.5 -14q-59 0 -113 10t-90 23.5t-64 27.5t-41 24l-12 10l109 187
q12 -9 33.5 -22t78 -34.5t103.5 -21.5q78 0 78 58q0 24 -23.5 46t-52 36.5t-94.5 44.5q-71 32 -113 87.5t-42 118.5zM371 899l-231 170l78 105l153 -112l153 112l78 -105z" />
    <glyph glyph-name="scaron" unicode="&#x161;" horiz-adv-x="496" 
d="M290 528q47 0 92 -8t66 -16l22 -7l-65 -137q-61 24 -115 24q-25 0 -33.5 -4t-8.5 -13q0 -4 1.5 -7.5t5.5 -6.5t7.5 -5t11 -4.5t13 -4t15.5 -4.5t17 -5q156 -48 156 -169q0 -46 -17 -79.5t-42 -51.5t-62 -29t-68 -14t-69 -3q-59 0 -109.5 14t-71.5 28l-21 13l82 144
q67 -47 121 -47q38 0 38 17q0 12 -14 19.5t-44 18t-51 22.5q-46 26 -71.5 58t-25.5 84q0 83 65 128t175 45zM291 587l-231 170l78 105l153 -112l153 112l78 -105z" />
    <glyph glyph-name="Tcommaaccent" unicode="&#x162;" horiz-adv-x="600" 
d="M10 825h580v-193h-180v-632h-220v632h-180v193zM298 -75q43 0 73.5 -30t30.5 -73q0 -123 -149 -245l-47 36q6 5 15 14.5t27.5 40.5t24.5 63q-33 8 -54 32.5t-21 58.5q0 43 29.5 73t70.5 30z" />
    <glyph glyph-name="tcommaaccent" unicode="&#x163;" horiz-adv-x="415" 
d="M5 512h80v192h208v-192h102v-158h-102v-119q0 -65 34 -65q9 0 19 4t16 8l5 4l52 -167q-64 -35 -143 -35q-55 0 -94 18.5t-59 50.5t-29 66.5t-9 74.5v160h-80v158zM239 -40q43 0 73.5 -30t30.5 -73q0 -123 -149 -245l-47 36q6 5 15 14.5t27.5 40.5t24.5 63q-33 8 -54 32.5
t-21 58.5q0 43 29.5 73t70.5 30z" />
    <glyph glyph-name="Tcaron" unicode="&#x164;" horiz-adv-x="600" 
d="M10 825h580v-193h-180v-632h-220v632h-180v193zM300 899l-231 170l78 105l153 -112l153 112l78 -105z" />
    <glyph glyph-name="tcaron" unicode="&#x165;" horiz-adv-x="415" 
d="M5 512h80v192h208v-192h102v-158h-102v-119q0 -65 34 -65q9 0 19 4t16 8l5 4l52 -167q-64 -35 -143 -35q-55 0 -94 18.5t-59 50.5t-29 66.5t-9 74.5v160h-80v158zM521 824q43 0 73.5 -30t30.5 -73q0 -123 -149 -245l-47 36q6 5 15 14.5t27.5 40.5t24.5 63q-33 8 -54 32.5
t-21 58.5q0 43 29.5 73t70.5 30z" />
    <glyph glyph-name="Umacron" unicode="&#x16a;" horiz-adv-x="742" 
d="M484 825h220v-534q0 -152 -84.5 -229.5t-248.5 -77.5t-248.5 77.5t-84.5 229.5v534h220v-468q0 -92 25.5 -124.5t87.5 -32.5t87.5 32.5t25.5 124.5v468zM167 1086h408v-140h-408v140z" />
    <glyph glyph-name="umacron" unicode="&#x16b;" horiz-adv-x="672" 
d="M424 512h208v-285q0 -129 -70.5 -186t-225.5 -57t-225.5 57t-70.5 186v285h208v-233q0 -68 19 -97.5t69 -29.5t69 29.5t19 97.5v233zM132 774h408v-140h-408v140z" />
    <glyph glyph-name="Uring" unicode="&#x16e;" horiz-adv-x="742" 
d="M484 825h220v-534q0 -152 -84.5 -229.5t-248.5 -77.5t-248.5 77.5t-84.5 229.5v534h220v-468q0 -92 25.5 -124.5t87.5 -32.5t87.5 32.5t25.5 124.5v468zM197 1055q0 67 50 110t124 43t124 -43t50 -110t-50 -110t-124 -43t-124 43t-50 110zM312 1055q0 -25 18 -43.5
t41 -18.5t41 18.5t18 43.5t-18 43.5t-41 18.5t-41 -18.5t-18 -43.5z" />
    <glyph glyph-name="uring" unicode="&#x16f;" horiz-adv-x="672" 
d="M424 512h208v-285q0 -129 -70.5 -186t-225.5 -57t-225.5 57t-70.5 186v285h208v-233q0 -68 19 -97.5t69 -29.5t69 29.5t19 97.5v233zM162 733q0 67 50 110t124 43t124 -43t50 -110t-50 -110t-124 -43t-124 43t-50 110zM277 733q0 -25 18 -43.5t41 -18.5t41 18.5t18 43.5
t-18 43.5t-41 18.5t-41 -18.5t-18 -43.5z" />
    <glyph glyph-name="Uhungarumlaut" unicode="&#x170;" horiz-adv-x="742" 
d="M484 825h220v-534q0 -152 -84.5 -229.5t-248.5 -77.5t-248.5 77.5t-84.5 229.5v534h220v-468q0 -92 25.5 -124.5t87.5 -32.5t87.5 32.5t25.5 124.5v468zM87 1011l221 194l105 -132l-261 -150zM389 1011l221 194l105 -132l-262 -150z" />
    <glyph glyph-name="uhungarumlaut" unicode="&#x171;" horiz-adv-x="672" 
d="M424 512h208v-285q0 -129 -70.5 -186t-225.5 -57t-225.5 57t-70.5 186v285h208v-233q0 -68 19 -97.5t69 -29.5t69 29.5t19 97.5v233zM42 675l221 194l105 -132l-261 -150zM344 675l221 194l105 -132l-262 -150z" />
    <glyph glyph-name="Uogonek" unicode="&#x172;" horiz-adv-x="744" 
d="M265 -158q0 57 68 143q-145 9 -219.5 86t-74.5 220v534h220v-468q0 -92 25.5 -124.5t87.5 -32.5t87.5 32.5t25.5 124.5v468h220v-534q0 -139 -70.5 -215.5t-206.5 -88.5q-45 -61 -45 -123q0 -12 7.5 -20.5t17.5 -8.5q11 0 20.5 6t13.5 12l3 6l83 -62q-2 -3 -5.5 -8
t-16 -17t-27.5 -21.5t-38.5 -17.5t-49.5 -8q-45 0 -85.5 28t-40.5 89z" />
    <glyph glyph-name="uogonek" unicode="&#x173;" horiz-adv-x="672" 
d="M229 -158q0 57 68 143q-135 7 -196 64t-61 178v285h208v-233q0 -68 19 -97.5t69 -29.5t69 29.5t19 97.5v233h208v-285q0 -117 -57.5 -174t-183.5 -67q-44 -63 -44 -122q0 -12 7.5 -20.5t17.5 -8.5q11 0 20.5 6t13.5 12l3 6l83 -62q-2 -3 -5.5 -8t-16 -17t-27.5 -21.5
t-38.5 -17.5t-49.5 -8q-45 0 -85.5 28t-40.5 89z" />
    <glyph glyph-name="Ydieresis" unicode="&#x178;" horiz-adv-x="800" 
d="M-20 825h265l155 -229l155 229h265l-310 -451v-374h-220v374zM282 1117q44 0 75 -31t31 -75t-31 -75t-75 -31t-75 31t-31 75t31 75t75 31zM518 1117q44 0 75 -31t31 -75t-31 -75t-75 -31t-75 31t-31 75t31 75t75 31z" />
    <glyph glyph-name="Zacute" unicode="&#x179;" horiz-adv-x="773" 
d="M68 825h695l-371 -633h345v-192h-728l371 633h-312v192zM287 987l221 194l105 -132l-262 -150z" />
    <glyph glyph-name="zacute" unicode="&#x17a;" horiz-adv-x="560" 
d="M42 512h519l-218 -356h196v-156h-540l218 356h-175v156zM158 675l221 194l105 -132l-262 -150z" />
    <glyph glyph-name="Zdotaccent" unicode="&#x17b;" horiz-adv-x="773" 
d="M68 825h695l-371 -633h345v-192h-728l371 633h-312v192zM416 1131q44 0 75 -31t31 -75t-31 -75t-75 -31t-75 31t-31 75t31 75t75 31z" />
    <glyph glyph-name="zdotaccent" unicode="&#x17c;" horiz-adv-x="560" 
d="M42 512h519l-218 -356h196v-156h-540l218 356h-175v156zM301 805q44 0 75 -31t31 -75t-31 -75t-75 -31t-75 31t-31 75t31 75t75 31z" />
    <glyph glyph-name="Zcaron" unicode="&#x17d;" horiz-adv-x="773" 
d="M68 825h695l-371 -633h345v-192h-728l371 633h-312v192zM415 899l-231 170l78 105l153 -112l153 112l78 -105z" />
    <glyph glyph-name="zcaron" unicode="&#x17e;" horiz-adv-x="560" 
d="M42 512h519l-218 -356h196v-156h-540l218 356h-175v156zM301 587l-231 170l78 105l153 -112l153 112l78 -105z" />
    <glyph glyph-name="Scommaaccent" unicode="&#x218;" 
d="M91 579q0 115 86 188t194 73q71 0 138 -18t99 -36l31 -17l-87 -177q-81 48 -165 48q-80 0 -80 -53q0 -32 93 -67q49 -18 87 -37.5t80.5 -51t66.5 -75.5t24 -97q0 -76 -27 -131t-74 -85.5t-102.5 -44.5t-120.5 -14q-59 0 -113 10t-90 23.5t-64 27.5t-41 24l-12 10l109 187
q12 -9 33.5 -22t78 -34.5t103.5 -21.5q78 0 78 58q0 24 -23.5 46t-52 36.5t-94.5 44.5q-71 32 -113 87.5t-42 118.5zM334 -40q43 0 73.5 -30t30.5 -73q0 -123 -149 -245l-47 36q6 5 15 14.5t27.5 40.5t24.5 63q-33 8 -54 32.5t-21 58.5q0 43 29.5 73t70.5 30z" />
    <glyph glyph-name="scommaaccent" unicode="&#x219;" horiz-adv-x="496" 
d="M290 528q47 0 92 -8t66 -16l22 -7l-65 -137q-61 24 -115 24q-25 0 -33.5 -4t-8.5 -13q0 -4 1.5 -7.5t5.5 -6.5t7.5 -5t11 -4.5t13 -4t15.5 -4.5t17 -5q156 -48 156 -169q0 -46 -17 -79.5t-42 -51.5t-62 -29t-68 -14t-69 -3q-59 0 -109.5 14t-71.5 28l-21 13l82 144
q67 -47 121 -47q38 0 38 17q0 12 -14 19.5t-44 18t-51 22.5q-46 26 -71.5 58t-25.5 84q0 83 65 128t175 45zM243 -40q43 0 73.5 -30t30.5 -73q0 -123 -149 -245l-47 36q6 5 15 14.5t27.5 40.5t24.5 63q-33 8 -54 32.5t-21 58.5q0 43 29.5 73t70.5 30z" />
    <glyph glyph-name="circumflex" unicode="&#x2c6;" horiz-adv-x="598" 
d="M68 670l231 170l231 -170l-78 -105l-153 112l-153 -112z" />
    <glyph glyph-name="caron" unicode="&#x2c7;" horiz-adv-x="600" 
d="M300 565l-231 170l78 105l153 -112l153 112l78 -105z" />
    <glyph glyph-name="breve" unicode="&#x2d8;" horiz-adv-x="614" 
d="M399 840l146 -36q-8 -83 -73 -135t-165 -52t-165 52t-73 135l146 36q0 -4 0.5 -10.5t5.5 -23t14 -29.5t28 -23.5t44 -10.5q40 0 63 24.5t26 48.5z" />
    <glyph glyph-name="dotaccent" unicode="&#x2d9;" horiz-adv-x="357" 
d="M178 805q44 0 75 -31t31 -75t-31 -75t-75 -31t-75 31t-31 75t31 75t75 31z" />
    <glyph glyph-name="ring" unicode="&#x2da;" horiz-adv-x="486" 
d="M69 733q0 67 50 110t124 43t124 -43t50 -110t-50 -110t-124 -43t-124 43t-50 110zM184 733q0 -25 18 -43.5t41 -18.5t41 18.5t18 43.5t-18 43.5t-41 18.5t-41 -18.5t-18 -43.5z" />
    <glyph glyph-name="ogonek" unicode="&#x2db;" horiz-adv-x="413" 
d="M66 -158q0 35 26 81t52 75l26 28h92l-8.5 -8.5t-19 -23t-23.5 -36t-18.5 -44.5t-8.5 -50q0 -12 7.5 -20.5t17.5 -8.5q11 0 20.5 6t12.5 12l4 6l83 -62q-2 -3 -5.5 -8t-16 -17t-27.5 -21.5t-38.5 -17.5t-49.5 -8q-45 0 -85.5 28t-40.5 89z" />
    <glyph glyph-name="tilde" unicode="&#x2dc;" horiz-adv-x="609" 
d="M495 782l108 -95q-1 -4 -8.5 -18t-24.5 -36.5t-37.5 -43t-51.5 -35t-63 -14.5q-33 0 -65 10t-48 19t-44 27q-3 2 -12.5 8t-14 9t-13 7t-15.5 5.5t-14 1.5q-26 0 -45 -19.5t-25 -39.5l-7 -19l-108 95q1 4 8.5 17.5t24.5 36.5t37.5 43t51.5 35t63 15q33 0 65 -10t48 -19
t44 -27q3 -2 12.5 -8t14 -9t13 -7t15.5 -5.5t14 -1.5q26 0 45 19.5t25 38.5z" />
    <glyph glyph-name="hungarumlaut" unicode="&#x2dd;" horiz-adv-x="844" 
d="M107 646l221 194l105 -132l-261 -150zM409 646l221 194l105 -132l-262 -150z" />
    <glyph glyph-name="endash" unicode="&#x2013;" horiz-adv-x="528" 
d="M-22 379h570v-179h-570v179z" />
    <glyph glyph-name="emdash" unicode="&#x2014;" horiz-adv-x="1103" 
d="M-22 379h1146v-179h-1146v179z" />
    <glyph glyph-name="quoteleft" unicode="&#x2018;" horiz-adv-x="320" 
d="M137 428q-50 0 -85 35t-35 85q0 146 175 292l54 -45q-63 -63 -78 -138q39 -10 63.5 -39.5t24.5 -69.5q0 -50 -34.5 -85t-84.5 -35z" />
    <glyph glyph-name="quoteright" unicode="&#x2019;" horiz-adv-x="320" 
d="M183 840q50 0 85 -35t35 -85q0 -146 -175 -292l-54 45q63 63 78 138q-39 10 -63.5 39.5t-24.5 69.5q0 50 34.5 85t84.5 35z" />
    <glyph glyph-name="quotesinglbase" unicode="&#x201a;" horiz-adv-x="317" 
d="M180 238q50 0 85 -35t35 -85q0 -146 -175 -292l-54 45q63 63 78 138q-39 10 -63.5 39.5t-24.5 69.5q0 50 34.5 85t84.5 35z" />
    <glyph glyph-name="quotedblleft" unicode="&#x201c;" horiz-adv-x="608" 
d="M425 428q-50 0 -85 35t-35 85q0 146 175 292l54 -45q-63 -63 -78 -138q39 -10 63.5 -39.5t24.5 -69.5q0 -50 -34.5 -85t-84.5 -35zM137 428q-50 0 -85 35t-35 85q0 146 175 292l54 -45q-63 -63 -78 -138q39 -10 63.5 -39.5t24.5 -69.5q0 -50 -34.5 -85t-84.5 -35z" />
    <glyph glyph-name="quotedblright" unicode="&#x201d;" horiz-adv-x="608" 
d="M184 840q50 0 85 -35t35 -85q0 -146 -175 -292l-54 45q63 63 78 138q-39 10 -63.5 39.5t-24.5 69.5q0 50 34.5 85t84.5 35zM470 840q50 0 85 -35t35 -85q0 -146 -175 -292l-54 45q63 63 78 138q-39 10 -63.5 39.5t-24.5 69.5q0 50 34.5 85t84.5 35z" />
    <glyph glyph-name="quotedblbase" unicode="&#x201e;" horiz-adv-x="609" 
d="M472 238q50 0 85 -35t35 -85q0 -146 -175 -292l-54 45q63 63 78 138q-39 10 -63.5 39.5t-24.5 69.5q0 50 34.5 85t84.5 35zM181 238q50 0 85 -35t35 -85q0 -146 -175 -292l-54 45q63 63 78 138q-39 10 -63.5 39.5t-24.5 69.5q0 50 34.5 85t84.5 35z" />
    <glyph glyph-name="dagger" unicode="&#x2020;" horiz-adv-x="580" 
d="M89 661h112v199h178v-199h112v-158h-112v-503h-178v503h-112v158z" />
    <glyph glyph-name="daggerdbl" unicode="&#x2021;" horiz-adv-x="580" 
d="M89 637h112v223h178v-223h112v-158h-112v-102h112v-158h-112v-219h-178v219h-112v158h112v102h-112v158z" />
    <glyph glyph-name="bullet" unicode="&#x2022;" horiz-adv-x="825" 
d="M411 586q96 0 162.5 -66.5t66.5 -162.5t-66.5 -162.5t-162.5 -66.5t-162.5 66.5t-66.5 162.5t66.5 162.5t162.5 66.5z" />
    <glyph glyph-name="ellipsis" unicode="&#x2026;" horiz-adv-x="1183" 
d="M989 250q55 0 94 -39t39 -94t-39 -94t-94 -39t-94 39t-39 94t39 94t94 39zM193 250q55 0 94 -39t39 -94t-39 -94t-94 -39t-94 39t-39 94t39 94t94 39zM591 250q55 0 94 -39t39 -94t-39 -94t-94 -39t-94 39t-39 94t39 94t94 39z" />
    <glyph glyph-name="perthousand" unicode="&#x2030;" horiz-adv-x="1464" 
d="M16 643q0 86 65 141.5t163 55.5t163 -55.5t65 -141.5t-65 -141.5t-163 -55.5t-163 55.5t-65 141.5zM167 643q0 -32 23 -53.5t54 -21.5t54 21.5t23 53.5t-23 53.5t-54 21.5t-54 -21.5t-23 -53.5zM503 182q0 86 65 141.5t163 55.5t163 -55.5t65 -141.5t-65 -141.5
t-163 -55.5t-163 55.5t-65 141.5zM654 182q0 -32 23 -53.5t54 -21.5t54 21.5t23 53.5t-23 53.5t-54 21.5t-54 -21.5t-23 -53.5zM181 0l480 825h137l-480 -825h-137zM992 182q0 86 65 141.5t163 55.5t163 -55.5t65 -141.5t-65 -141.5t-163 -55.5t-163 55.5t-65 141.5z
M1143 182q0 -32 23 -53.5t54 -21.5t54 21.5t23 53.5t-23 53.5t-54 21.5t-54 -21.5t-23 -53.5z" />
    <glyph glyph-name="guilsinglleft" unicode="&#x2039;" horiz-adv-x="400" 
d="M38 279l195 250l107 -84l-130 -166l130 -166l-107 -84z" />
    <glyph glyph-name="guilsinglright" unicode="&#x203a;" horiz-adv-x="400" 
d="M60 445l107 84l195 -250l-195 -250l-107 84l130 166z" />
    <glyph glyph-name="fraction" unicode="&#x2044;" horiz-adv-x="265" 
d="M-176 0l480 825h137l-480 -825h-137z" />
    <glyph glyph-name="Euro" unicode="&#x20ac;" horiz-adv-x="832" 
d="M27 559h99q51 124 168.5 202.5t254.5 78.5q51 0 98 -7.5t77.5 -18t53 -21.5t32.5 -19l11 -7l-92 -188q-6 5 -17.5 12.5t-49.5 20t-78 12.5q-117 0 -195 -65h261v-125h-312q-2 -10 -2 -22l2 -23h312v-125h-261q77 -64 195 -64q40 0 76 11t52 23l17 11l92 -188
q-4 -3 -11 -8t-32.5 -17.5t-54.5 -22t-76 -17.5t-98 -8q-134 0 -252.5 78.5t-170.5 201.5h-99v125h71q-2 9 -2 23l2 22h-71v125z" />
    <glyph glyph-name="trademark" unicode="&#x2122;" horiz-adv-x="517" 
d="M17 825h182v-60h-56v-198h-69v198h-57v60zM232 825h73l51 -134l52 134h73l20 -258h-68l-8 135l-48 -135h-41l-48 135l-8 -135h-69z" />
    <glyph glyph-name="minus" unicode="&#x2212;" horiz-adv-x="636" 
d="M61 505h514v-180h-514v180z" />
    <glyph glyph-name="notequal" unicode="&#x2260;" horiz-adv-x="638" 
d="M62 632h294l81 140h137l-81 -140h83v-180h-188l-42 -73h230v-180h-335l-84 -146h-137l84 146h-42v180h147l42 73h-189v180z" />
    <glyph glyph-name="lessequal" unicode="&#x2264;" horiz-adv-x="681" 
d="M71 180h548v-180h-548v180zM71 625l548 212v-166l-326 -117l326 -114v-165l-548 212v138z" />
    <glyph glyph-name="greaterequal" unicode="&#x2265;" horiz-adv-x="681" 
d="M62 180h548v-180h-548v180zM62 837l548 -212v-138l-548 -212v165l326 114l-326 117v166z" />
    <glyph glyph-name="M.1" horiz-adv-x="970" 
d="M49 825h252l184 -428l184 428h252v-825h-220v365l-152 -365h-128l-152 365v-365h-220v825z" />
    <glyph glyph-name="Q.1" horiz-adv-x="858" 
d="M13 412q0 179 122 303.5t294 124.5t294 -124.5t122 -303.5q0 -148 -86.5 -261.5t-219.5 -150.5q18 -2 68 -11t74 -9q38 0 69 13.5t43 26.5l12 14l69 -148q-2 -5 -6.5 -13t-22 -29t-37.5 -37.5t-54.5 -29.5t-73.5 -13q-63 0 -154.5 43.5t-152.5 43.5q-31 0 -58 -8.5
t-39 -17.5l-11 -9l-52 79q3 4 8 10.5t21.5 23.5t33 29.5t40 22.5t45.5 9q-149 24 -248.5 142.5t-99.5 279.5zM250 412q0 -88 44 -152t135 -64t135 64t44 152t-44 152t-135 64t-135 -64t-44 -152z" />
    <glyph glyph-name="R.1" horiz-adv-x="742" 
d="M49 825h326q127 0 207 -66t80 -194q0 -93 -42.5 -157t-116.5 -95l80 -90q37 -41 70 -41q8 0 16 2t13.5 4t9.5 4.5t6 3.5l2 1l63 -158q-6 -6 -17.5 -15t-51 -24t-84.5 -15q-33 0 -64 10t-52 24.5t-37 29.5t-23 25l-8 10l-164 210h7v-294h-220v825zM269 650v-182h34
q127 0 127 90q0 92 -127 92h-34z" />
    <glyph glyph-name="a.1" horiz-adv-x="632" 
d="M40 133q0 71 47.5 118t131.5 47t153 -31v30q0 29 -32.5 48t-65.5 19q-36 0 -70 -5.5t-50 -10.5l-17 -6l-63 142q8 5 24 12.5t68 19.5t108 12q40 0 80 -6.5t82 -24t74 -43.5t52.5 -68.5t20.5 -96.5v-289h-211v13q-74 -29 -145 -29q-81 0 -134 40.5t-53 108.5zM246 151
q0 -19 19.5 -31.5t47.5 -12.5q27 0 46.5 12t19.5 29t-19.5 29.5t-46.5 12.5q-29 0 -48 -10t-19 -29z" />
    <glyph glyph-name="j.1" horiz-adv-x="306" 
d="M49 512h208v-772h-208v772zM152 865q50 0 86 -36t36 -86t-36 -86t-86 -36t-86 36t-36 86t36 86t86 36z" />
    <glyph glyph-name="t.1" horiz-adv-x="297" 
d="M49 704h208v-192h106v-158h-106v-354h-208v354h-76v158h76v192z" />
    <glyph glyph-name="u.1" horiz-adv-x="673" 
d="M623 0h-208v48q-64 -64 -146 -64q-35 0 -71.5 9t-74 28.5t-61 58t-23.5 90.5v342h208v-286q0 -35 21 -58t55 -23q38 0 65 27t27 62v278h208v-512z" />
    </font>
</defs>
</svg>
