<?xml version="1.0" standalone="no"?>
<!DOCTYPE svg PUBLIC "-//W3C//DTD SVG 1.1//EN" "http://www.w3.org/Graphics/SVG/1.1/DTD/svg11.dtd" >
<svg xmlns="http://www.w3.org/2000/svg" xmlns:xlink="http://www.w3.org/1999/xlink" version="1.1">
<metadata>
Created by FontForge 20170731 at Thu Nov 30 14:49:34 2017
 By Aleksey,,,
Copyright (c) 2017 by Matt Bailey. All rights reserved.
</metadata>
<defs>
<font id="SpartanMB-Light" horiz-adv-x="697" >
  <font-face 
    font-family="Spartan MB"
    font-weight="300"
    font-stretch="normal"
    units-per-em="1000"
    panose-1="0 11 5 3 8 0 0 2 0 3"
    ascent="800"
    descent="-200"
    x-height="512"
    cap-height="825"
    bbox="-130 -294 1436 1141"
    underline-thickness="50"
    underline-position="-200"
    unicode-range="U+000D-FB04"
  />
<missing-glyph horiz-adv-x="342" 
 />
    <glyph glyph-name="ff" unicode="ff" horiz-adv-x="527" 
d="M62 512h49v194q0 86 35.5 127.5t97.5 41.5q40 0 79 -21l-22 -41q-22 11 -49 11q-42 0 -62.5 -27t-20.5 -88v-197h168v194q0 86 35.5 127.5t97.5 41.5q55 0 89 -28l-20 -41q-22 18 -61 18q-42 0 -62.5 -27t-20.5 -88v-197h132v-44h-132v-468h-58v468h-168v-468h-58v468
h-49v44z" />
    <glyph glyph-name="fi" unicode="fi" horiz-adv-x="492" 
d="M58 512h49v194q0 86 35.5 127.5t97.5 41.5q44 0 77.5 -19.5t48.5 -46.5l-30 -32q-11 20 -35 33.5t-53 13.5q-42 0 -62.5 -27t-20.5 -88v-197h218v-512h-58v468h-160v-468h-58v468h-49v44z" />
    <glyph glyph-name="fl" unicode="fl" horiz-adv-x="506" 
d="M58 512h49v194q0 86 35 127.5t97 41.5q43 0 75 -18l-17 -44q-24 11 -50 11q-42 0 -62.5 -27t-20.5 -88v-197h132v-44h-132v-468h-57v468h-49v44zM347 860h58v-860h-58v860z" />
    <glyph glyph-name="ffi" unicode="ffi" horiz-adv-x="721" 
d="M62 512h49v194q0 86 35.5 127.5t97.5 41.5q40 0 79 -21l-22 -41q-22 11 -49 11q-42 0 -62.5 -27t-20.5 -88v-197h168v194q0 86 35.5 127.5t97.5 41.5q44 0 77.5 -19.5t48.5 -46.5l-30 -32q-11 20 -35 33.5t-53 13.5q-42 0 -62.5 -27t-20.5 -88v-197h218v-512h-58v468
h-160v-468h-58v468h-168v-468h-58v468h-49v44z" />
    <glyph glyph-name="ffl" unicode="ffl" horiz-adv-x="737" 
d="M62 512h49v194q0 86 35.5 127.5t97.5 41.5q40 0 79 -21l-22 -41q-22 11 -49 11q-42 0 -62.5 -27t-20.5 -88v-197h170v194q0 86 35 127.5t97 41.5q43 0 75 -18l-17 -44q-24 11 -50 11q-42 0 -62.5 -27t-20.5 -88v-197h132v-44h-132v-468h-57v468h-170v-468h-58v468h-49v44
zM579 860h58v-860h-58v860z" />
    <glyph glyph-name="ft" unicode="ft" horiz-adv-x="556" 
d="M58 512h49v194q0 86 35.5 127.5t97.5 41.5q44 0 79 -21l-22 -41q-22 11 -49 11q-42 0 -62.5 -27t-20.5 -88v-197h184v191h58v-191h130v-44h-130v-336q0 -50 13 -71.5t49 -21.5q14 0 28.5 4.5t21.5 9.5l7 5l15 -52q-28 -22 -80 -22q-65 0 -88.5 39t-23.5 102v343h-184
v-468h-58v468h-49v44z" />
    <glyph glyph-name="fj" unicode="fj" horiz-adv-x="491" 
d="M58 512h49v194q0 86 35.5 127.5t97.5 41.5q44 0 77.5 -19.5t48.5 -46.5l-30 -32q-11 20 -35 33.5t-53 13.5q-42 0 -62.5 -27t-20.5 -88v-197h218v-629q0 -158 -130 -158q-55 0 -88 25l17 46q22 -20 61 -20q82 0 82 109v583h-160v-468h-58v468h-49v44z" />
    <glyph glyph-name="fft" unicode="fft" horiz-adv-x="786" 
d="M62 512h49v194q0 86 35.5 127.5t97.5 41.5q40 0 79 -21l-22 -41q-22 11 -49 11q-42 0 -62.5 -27t-20.5 -88v-197h168v194q0 86 35.5 127.5t97.5 41.5q44 0 79 -21l-22 -41q-22 11 -49 11q-42 0 -62.5 -27t-20.5 -88v-197h184v191h58v-191h130v-44h-130v-336
q0 -50 13 -71.5t49 -21.5q14 0 28.5 4.5t21.5 9.5l7 5l15 -52q-28 -22 -80 -22q-65 0 -88.5 39t-23.5 102v343h-184v-468h-58v468h-168v-468h-58v468h-49v44z" />
    <glyph glyph-name="ffj" unicode="ffj" horiz-adv-x="721" 
d="M62 512h49v194q0 86 35.5 127.5t97.5 41.5q40 0 79 -21l-22 -41q-22 11 -49 11q-42 0 -62.5 -27t-20.5 -88v-197h168v194q0 86 35.5 127.5t97.5 41.5q44 0 77.5 -19.5t48.5 -46.5l-30 -32q-11 20 -35 33.5t-53 13.5q-42 0 -62.5 -27t-20.5 -88v-197h218v-629
q0 -158 -130 -158q-55 0 -88 25l17 46q22 -20 61 -20q82 0 82 109v583h-160v-468h-58v468h-168v-468h-58v468h-49v44z" />
    <glyph glyph-name=".notdef" horiz-adv-x="342" 
 />
    <glyph glyph-name=".null" horiz-adv-x="0" 
 />
    <glyph glyph-name="nonmarkingreturn" horiz-adv-x="333" 
 />
    <glyph glyph-name="NULL" horiz-adv-x="0" 
 />
    <glyph glyph-name="NULL" horiz-adv-x="0" 
 />
    <glyph glyph-name="CR" unicode="&#xd;" horiz-adv-x="255" 
 />
    <glyph glyph-name="space" unicode=" " horiz-adv-x="255" 
 />
    <glyph glyph-name="exclam" unicode="!" horiz-adv-x="294" 
d="M147 68q17 0 29.5 -12.5t12.5 -29.5t-12.5 -29.5t-29.5 -12.5t-29.5 12.5t-12.5 29.5t12.5 29.5t29.5 12.5zM119 860h56l-5 -672h-46z" />
    <glyph glyph-name="quotedbl" unicode="&#x22;" horiz-adv-x="255" 
d="M46 828h64l-11 -186h-42zM145 828h64l-11 -186h-42z" />
    <glyph glyph-name="numbersign" unicode="#" horiz-adv-x="651" 
d="M69 502h131l28 210h40l-29 -210h205l28 210h40l-29 -210h92v-40h-97l-30 -213h127v-40h-132l-28 -209h-39l28 209h-205l-28 -209h-39l28 209h-91v40h96l30 213h-126v40zM234 462l-30 -213h205l30 213h-205z" />
    <glyph glyph-name="dollar" unicode="$" horiz-adv-x="647" 
d="M112 621q0 91 60.5 152.5t149.5 66.5v123h40v-124q78 -7 126 -44.5t66 -86.5l-46 -20q-13 41 -58 69t-112 28q-78 0 -123.5 -49.5t-45.5 -113.5q0 -60 44.5 -96t124.5 -62q121 -40 180.5 -98.5t59.5 -151.5q0 -100 -58.5 -160t-157.5 -68v-124h-40v122q-66 1 -116 20
t-77 48.5t-40.5 55t-18.5 50.5l51 22q3 -17 15 -38t34.5 -45.5t63.5 -40.5t92 -16q84 0 137 44t53 128q0 71 -51 116.5t-166 83.5q-187 63 -187 209z" />
    <glyph glyph-name="percent" unicode="%" horiz-adv-x="1006" 
d="M242 0l480 825h43l-480 -825h-43zM51 643q0 86 58 141.5t145 55.5t145 -55.5t58 -141.5q0 -87 -57.5 -142t-145.5 -55t-145.5 55t-57.5 142zM92 643q0 -71 45.5 -114t116.5 -43t116.5 43t45.5 114t-45.5 114t-116.5 43t-116.5 -43t-45.5 -114zM550 181q0 86 58 141.5
t145 55.5t145 -55.5t58 -141.5q0 -87 -57.5 -142t-145.5 -55t-145.5 55t-57.5 142zM591 181q0 -71 45.5 -114t116.5 -43t116.5 43t45.5 114t-45.5 114t-116.5 43t-116.5 -43t-45.5 -114z" />
    <glyph glyph-name="ampersand" unicode="&#x26;" horiz-adv-x="754" 
d="M65 206q0 161 197 260q-38 37 -58 59.5t-39 61t-19 76.5q0 73 51 125t139 52q87 0 137 -53.5t50 -123.5q0 -39 -15.5 -72.5t-44 -59t-54.5 -42t-61 -33.5l237 -258q50 58 88 138l40 -30q-31 -79 -88 -149l142 -157h-74l-105 116q-134 -132 -281 -132q-103 0 -172.5 60
t-69.5 162zM204 663q0 -14 3.5 -28.5t7 -25.5t13.5 -25t14.5 -21t18.5 -21.5t17.5 -17.5t19.5 -18l16 -15q85 41 121 76.5t36 95.5q0 52 -36 91.5t-99 39.5q-62 0 -97 -39.5t-35 -91.5zM127 209q0 -76 52 -123t132 -47q124 0 238 120l-253 272q-169 -82 -169 -222z" />
    <glyph glyph-name="quotesingle" unicode="'" horiz-adv-x="156" 
d="M46 828h64l-11 -186h-42z" />
    <glyph glyph-name="parenleft" unicode="(" horiz-adv-x="324" 
d="M142 307q0 -90 17 -180t41.5 -154t49 -115t41.5 -76l17 -26l-38 -16q-8 9 -20.5 26t-44.5 73.5t-56.5 118t-44.5 157t-20 192.5t19 191.5t46.5 159.5t55 116.5t46.5 75.5l19 25l38 -16q-7 -9 -18 -26.5t-39.5 -74.5t-50.5 -117.5t-40 -152t-18 -181.5z" />
    <glyph glyph-name="parenright" unicode=")" horiz-adv-x="324" 
d="M182 307q0 90 -17 180.5t-41.5 154.5t-49 115t-41.5 77l-17 25l38 16q8 -9 20.5 -26t44.5 -73.5t56.5 -118.5t44.5 -157.5t20 -192.5t-19 -191.5t-46.5 -159.5t-55 -116t-46.5 -76l-19 -24l-38 16q7 9 18 26.5t39.5 74t50.5 117t40 152t18 181.5z" />
    <glyph glyph-name="asterisk" unicode="*" horiz-adv-x="254" 
d="M113 860h28v-87l83 27l8 -26l-83 -27l50 -71l-21 -16l-52 70l-50 -70l-22 16l50 71l-82 27l8 26l83 -27v87z" />
    <glyph glyph-name="plus" unicode="+" horiz-adv-x="630" 
d="M290 671h50v-231h231v-50h-231v-231h-50v231h-231v50h231v231z" />
    <glyph glyph-name="comma" unicode="," horiz-adv-x="198" 
d="M99 68q17 0 29.5 -12.5t12.5 -29.5q0 -83 -63 -138l-14 12q26 43 29 86q-15 2 -25.5 13t-10.5 27q0 17 12.5 29.5t29.5 12.5z" />
    <glyph glyph-name="hyphen" unicode="-" horiz-adv-x="460" 
d="M69 314h322v-49h-322v49z" />
    <glyph glyph-name="period" unicode="." horiz-adv-x="198" 
d="M99 68q17 0 29.5 -12.5t12.5 -29.5t-12.5 -29.5t-29.5 -12.5t-29.5 12.5t-12.5 29.5t12.5 29.5t29.5 12.5z" />
    <glyph glyph-name="slash" unicode="/" horiz-adv-x="468" 
d="M5 -120l412 980h46l-412 -980h-46z" />
    <glyph glyph-name="zero" unicode="0" horiz-adv-x="826" 
d="M78 412q0 104 27.5 187.5t74 135t106 78.5t127.5 27t127.5 -27t106 -78.5t74 -135t27.5 -187.5t-27.5 -187.5t-74 -135t-106 -78.5t-127.5 -27t-127.5 27t-106 78.5t-74 135t-27.5 187.5zM136 412q0 -178 79 -276t198 -98t197.5 97.5t78.5 276.5t-78.5 276.5t-197.5 97.5
t-198 -98t-79 -276z" />
    <glyph glyph-name="one" unicode="1" horiz-adv-x="270" 
d="M35 825h130v-825h-60v766h-70v59z" />
    <glyph glyph-name="two" unicode="2" horiz-adv-x="743" 
d="M96 590q8 107 81.5 178.5t191.5 71.5q124 0 200 -80.5t76 -189.5q0 -37 -13 -75t-29.5 -69.5t-54.5 -74t-63.5 -69t-83 -75t-88 -73t-100.5 -80.5h447v-54h-577v27q18 15 86 67t98.5 77.5t89.5 75.5t89.5 84t66 78.5t51 84t15.5 76.5q0 85 -59.5 149.5t-150.5 64.5
q-94 0 -149.5 -57.5t-61.5 -142.5z" />
    <glyph glyph-name="three" unicode="3" horiz-adv-x="635" 
d="M95 634q5 83 65.5 144.5t159.5 61.5q94 0 159.5 -63.5t65.5 -154.5q0 -68 -38 -122.5t-98 -76.5q67 -18 107 -76.5t40 -132.5q0 -100 -66 -165t-182 -65q-63 0 -112 18.5t-79 50.5t-46.5 68.5t-20.5 77.5l55 11q8 -70 60.5 -119.5t142.5 -49.5q88 0 136.5 48.5
t48.5 124.5q0 78 -54.5 132t-129.5 54l-29 -3v47h26q75 0 128 51.5t53 126.5q0 68 -49.5 117t-118.5 49q-70 0 -117.5 -47t-54.5 -117z" />
    <glyph glyph-name="four" unicode="4" horiz-adv-x="564" 
d="M-1 285v31l387 509h60v-487h96v-53h-96v-285h-58v285h-389zM76 338h312v404z" />
    <glyph glyph-name="five" unicode="5" horiz-adv-x="693" 
d="M157 825h421v-53h-373l-42 -273q67 47 170 47q128 0 213 -76.5t85 -214.5q0 -121 -79 -196t-218 -75q-111 0 -184 53.5t-100 125.5l49 24q21 -61 83 -106.5t153 -45.5q113 0 175.5 61t62.5 161q0 113 -74 177.5t-184 64.5q-129 0 -225 -104z" />
    <glyph glyph-name="six" unicode="6" horiz-adv-x="696" 
d="M60 263q0 118 83 221l287 341h74l-258 -307q54 31 111 31q115 0 197 -80.5t82 -205.5q0 -123 -83 -201t-205 -78q-124 0 -206 79.5t-82 199.5zM120 263q0 -99 63.5 -163t162.5 -64q100 0 165 64.5t65 162.5q0 101 -66 167t-164 66q-93 0 -159.5 -69t-66.5 -164z" />
    <glyph glyph-name="seven" unicode="7" horiz-adv-x="558" 
d="M61 825h502v-21l-436 -804h-71l419 772h-414v53z" />
    <glyph glyph-name="eight" unicode="8" horiz-adv-x="634" 
d="M98 630q0 93 63.5 151.5t155.5 58.5t155.5 -58.5t63.5 -151.5q0 -67 -32 -117.5t-88 -74.5q69 -25 110 -83t41 -137q0 -102 -71 -168t-179 -66t-179 66t-71 168q0 79 41 137t110 83q-56 24 -88 74.5t-32 117.5zM124 223q0 -81 55 -134t138 -53t138 53t55 134t-56 134
t-137 53t-137 -53t-56 -134zM147 627q0 -73 48.5 -120.5t121.5 -47.5t121.5 47.5t48.5 120.5q0 78 -48.5 123t-121.5 45t-121.5 -45t-48.5 -123z" />
    <glyph glyph-name="nine" unicode="9" horiz-adv-x="696" 
d="M636 561q0 -118 -83 -221l-287 -340h-74l258 306q-54 -31 -111 -31q-115 0 -197 80.5t-82 205.5q0 123 83 201t205 78q124 0 206 -79.5t82 -199.5zM576 561q0 99 -63.5 163t-162.5 64q-100 0 -165 -64.5t-65 -162.5q0 -101 66 -167t164 -66q93 0 159.5 69t66.5 164z" />
    <glyph glyph-name="colon" unicode=":" horiz-adv-x="198" 
d="M99 68q17 0 29.5 -12.5t12.5 -29.5t-12.5 -29.5t-29.5 -12.5t-29.5 12.5t-12.5 29.5t12.5 29.5t29.5 12.5zM99 554q17 0 29.5 -12.5t12.5 -29.5t-12.5 -29.5t-29.5 -12.5t-29.5 12.5t-12.5 29.5t12.5 29.5t29.5 12.5z" />
    <glyph glyph-name="semicolon" unicode=";" horiz-adv-x="198" 
d="M99 68q17 0 29.5 -12.5t12.5 -29.5q0 -83 -63 -138l-14 12q26 43 29 86q-15 2 -25.5 13t-10.5 27q0 17 12.5 29.5t29.5 12.5zM99 554q17 0 29.5 -12.5t12.5 -29.5t-12.5 -29.5t-29.5 -12.5t-29.5 12.5t-12.5 29.5t12.5 29.5t29.5 12.5z" />
    <glyph glyph-name="less" unicode="&#x3c;" horiz-adv-x="612" 
d="M16 435l547 262v-50l-485 -231l485 -231v-50l-547 262v38z" />
    <glyph glyph-name="equal" unicode="=" horiz-adv-x="612" 
d="M50 537h512v-50h-512v50zM50 342h512v-50h-512v50z" />
    <glyph glyph-name="greater" unicode="&#x3e;" horiz-adv-x="612" 
d="M596 435v-38l-547 -262v50l486 231l-486 231v50z" />
    <glyph glyph-name="question" unicode="?" horiz-adv-x="579" 
d="M33 600q3 106 69.5 173t178.5 67t181.5 -73t69.5 -172q0 -98 -64.5 -171t-179.5 -78v-144h-54v197q14 -3 37 -3q97 0 151 56t54 143q0 85 -53 138t-142 53q-90 0 -142 -52.5t-54 -139.5zM261 68q17 0 29.5 -12.5t12.5 -29.5t-12.5 -29.5t-29.5 -12.5t-29.5 12.5
t-12.5 29.5t12.5 29.5t29.5 12.5z" />
    <glyph glyph-name="at" unicode="@" horiz-adv-x="968" 
d="M64 412q0 182 124 305t299 123q174 0 296 -121.5t122 -300.5q0 -96 -31.5 -152.5t-91.5 -56.5q-78 0 -111 67q-30 -61 -85 -96t-125 -35q-104 0 -173.5 73t-69.5 185q0 113 69.5 186t173.5 73q69 0 124 -34t85 -93v112h46v-308q0 -40 18 -62.5t52 -22.5q36 0 53.5 36.5
t17.5 127.5q0 158 -107.5 266t-262.5 108q-153 0 -261.5 -110.5t-108.5 -269.5q0 -161 105 -269.5t265 -108.5q94 0 169 40t119 104l44 -26q-49 -72 -135 -120t-197 -48q-182 0 -302.5 122.5t-120.5 305.5zM270 403q0 -93 57 -152.5t144 -59.5q88 0 144.5 59.5t56.5 152.5
q0 94 -57 154t-144 60t-144 -60t-57 -154z" />
    <glyph glyph-name="A" unicode="A" horiz-adv-x="692" 
d="M318 825h56l324 -825h-65l-106 277h-362l-106 -277h-65zM185 330h322l-161 417z" />
    <glyph glyph-name="B" unicode="B" horiz-adv-x="646" 
d="M105 825h163q120 0 187 -53.5t67 -155.5q0 -137 -121 -187q93 -12 143.5 -66t50.5 -145q0 -101 -68 -159.5t-189 -58.5h-233v825zM165 777v-330h92q100 1 154 42.5t54 122.5q0 80 -54 122t-154 43h-92zM165 394v-344h160q100 0 155 44t55 125q0 84 -55 129.5t-155 45.5
h-160z" />
    <glyph glyph-name="C" unicode="C" horiz-adv-x="811" 
d="M64 412q0 181 123.5 304.5t308.5 123.5q154 0 267 -86l-30 -50q-95 77 -232 77q-164 0 -268 -107t-104 -262t104 -262t268 -107q137 0 232 77l30 -50q-113 -86 -267 -86q-185 0 -308.5 123.5t-123.5 304.5z" />
    <glyph glyph-name="D" unicode="D" horiz-adv-x="763" 
d="M105 825h178q172 0 294 -117.5t122 -294.5q0 -178 -121.5 -295.5t-294.5 -117.5h-178v825zM165 771v-717h114q149 0 253.5 102.5t104.5 256.5q0 153 -105 255.5t-253 102.5h-114z" />
    <glyph glyph-name="E" unicode="E" horiz-adv-x="582" 
d="M105 825h408v-53h-348v-332h336v-53h-336v-334h348v-53h-408v825z" />
    <glyph glyph-name="F" unicode="F" horiz-adv-x="582" 
d="M105 825h409v-53h-349v-332h326v-53h-326v-387h-60v825z" />
    <glyph glyph-name="G" unicode="G" horiz-adv-x="907" 
d="M64 411q0 180 115 304.5t287 124.5q202 0 319 -141l-40 -43q-102 130 -277 130q-146 0 -246 -109t-100 -266q0 -153 102.5 -262.5t243.5 -109.5q128 0 223 79t95 203v31h-320v50h382v-63q0 -160 -111 -257.5t-271 -97.5q-167 0 -284.5 125t-117.5 302z" />
    <glyph glyph-name="H" unicode="H" horiz-adv-x="806" 
d="M105 825h60v-385h476v385h60v-825h-60v387h-476v-387h-60v825z" />
    <glyph glyph-name="I" unicode="I" horiz-adv-x="270" 
d="M105 825h60v-825h-60v825z" />
    <glyph glyph-name="J" unicode="J" horiz-adv-x="526" 
d="M370 825h60v-593q0 -121 -66.5 -184.5t-191.5 -63.5q-52 0 -100.5 20t-70.5 40l-22 19l22 57q8 -9 23 -22t58.5 -35t84.5 -22q203 0 203 210v574z" />
    <glyph glyph-name="K" unicode="K" horiz-adv-x="658" 
d="M105 825h60v-401l387 401h73l-384 -398l422 -427h-83l-380 384l-35 -36v-348h-60v825z" />
    <glyph glyph-name="L" unicode="L" horiz-adv-x="552" 
d="M105 825h60v-772h354v-53h-414v825z" />
    <glyph glyph-name="M" unicode="M" horiz-adv-x="950" 
d="M160 825h64l251 -670l251 670h64l112 -825h-60l-99 711l-244 -656h-48l-244 656l-99 -711h-60z" />
    <glyph glyph-name="N" unicode="N" horiz-adv-x="790" 
d="M105 825h60l460 -722v722h60v-825h-60l-460 721v-721h-60v825z" />
    <glyph glyph-name="O" unicode="O" horiz-adv-x="960" 
d="M64 412q0 180 122 304t294 124t294 -124t122 -304t-122 -304t-294 -124t-294 124t-122 304zM128 412q0 -154 102.5 -262t249.5 -108t249.5 108t102.5 262t-102.5 262t-249.5 108t-249.5 -108t-102.5 -262z" />
    <glyph glyph-name="P" unicode="P" horiz-adv-x="631" 
d="M105 825h202q121 0 190.5 -61.5t69.5 -168.5t-70.5 -173t-189.5 -66h-142v-356h-60v825zM165 776v-369h130q97 0 154.5 51.5t57.5 135.5t-57 133t-155 49h-130z" />
    <glyph glyph-name="Q" unicode="Q" horiz-adv-x="960" 
d="M64 412q0 180 122 304t294 124t294 -124t122 -304q0 -92 -35 -173t-96 -140q73 -45 152 -72l-27 -54q-80 32 -168 90q-108 -79 -242 -79q-116 0 -212 58t-150 156t-54 214zM128 412q0 -157 98 -263.5t254 -106.5q105 0 190 58q-80 59 -155 139l27 31q75 -75 169 -138
q57 51 89 124t32 156q0 154 -102 262t-250 108t-250 -108t-102 -262z" />
    <glyph glyph-name="R" unicode="R" horiz-adv-x="639" 
d="M105 825h202q121 0 190.5 -61.5t69.5 -168.5q0 -99 -61 -163.5t-168 -72.5l275 -359h-76l-269 356h-103v-356h-60v825zM165 776v-369h130q97 0 154.5 51.5t57.5 135.5t-57 133t-155 49h-130z" />
    <glyph glyph-name="S" unicode="S" horiz-adv-x="647" 
d="M112 621q0 95 65 157t158 62q88 0 144 -39t75 -93l-46 -20q-13 41 -58 69t-112 28q-78 0 -123.5 -49.5t-45.5 -113.5q0 -60 44.5 -96t124.5 -62q121 -40 180.5 -98.5t59.5 -151.5q0 -108 -68.5 -169t-180.5 -61q-58 0 -105 16.5t-77 43.5t-48.5 55t-28.5 59l51 22
q15 -52 69 -96t136 -44q84 0 137 44t53 128q0 71 -51 116.5t-166 83.5q-187 63 -187 209z" />
    <glyph glyph-name="T" unicode="T" horiz-adv-x="582" 
d="M1 825h580v-53h-260v-772h-60v772h-260v53z" />
    <glyph glyph-name="U" unicode="U" horiz-adv-x="754" 
d="M96 825h60v-518q0 -264 221 -264t221 264v518h60v-529q0 -153 -72.5 -232.5t-208.5 -79.5t-208.5 79.5t-72.5 232.5v529z" />
    <glyph glyph-name="V" unicode="V" horiz-adv-x="726" 
d="M664 825h68l-346 -825h-46l-346 825h68l301 -735z" />
    <glyph glyph-name="W" unicode="W" horiz-adv-x="1108" 
d="M1047 825h67l-247 -825h-68l-245 706l-245 -706h-68l-247 825h67l215 -749l255 749h46l255 -749z" />
    <glyph glyph-name="X" unicode="X" horiz-adv-x="694" 
d="M579 825h73l-268 -379l316 -446h-75l-278 393l-278 -393h-75l316 446l-268 379h73l232 -328z" />
    <glyph glyph-name="Y" unicode="Y" horiz-adv-x="610" 
d="M543 825h73l-281 -469v-356h-60v356l-281 469h73l238 -404z" />
    <glyph glyph-name="Z" unicode="Z" horiz-adv-x="755" 
d="M100 825h611l-557 -770h530v-55h-641l558 770h-501v55z" />
    <glyph glyph-name="bracketleft" unicode="[" horiz-adv-x="296" 
d="M105 860h194v-46h-141v-1028h141v-46h-194v1120z" />
    <glyph glyph-name="backslash" unicode="\" horiz-adv-x="468" 
d="M5 860h46l412 -860h-46z" />
    <glyph glyph-name="bracketright" unicode="]" horiz-adv-x="296" 
d="M-2 860h194v-1120h-194v46h141v1028h-141v46z" />
    <glyph glyph-name="asciicircum" unicode="^" horiz-adv-x="442" 
d="M-1 605l207 235h30l207 -235h-52l-170 196l-171 -196h-51z" />
    <glyph glyph-name="underscore" unicode="_" horiz-adv-x="513" 
d="M0 -67h513v-33h-513v33z" />
    <glyph glyph-name="grave" unicode="`" horiz-adv-x="277" 
d="M56 792l35 48l131 -103l-23 -32z" />
    <glyph glyph-name="a" unicode="a" 
d="M66 256q0 118 72.5 195t182.5 77q71 0 128.5 -35t88.5 -96v115h58v-512h-58v116q-31 -61 -88.5 -96.5t-128.5 -35.5q-110 0 -182.5 77t-72.5 195zM125 256q0 -97 58.5 -159t149.5 -62t149.5 62t58.5 159t-59 159t-149 62t-149 -62t-59 -159z" />
    <glyph glyph-name="b" unicode="b" 
d="M631 256q0 -118 -72.5 -195t-182.5 -77q-71 0 -128.5 35.5t-88.5 96.5v-116h-58v860h58v-463q31 61 88.5 96t128.5 35q110 0 182.5 -77t72.5 -195zM572 256q0 97 -59 159t-149 62t-149 -62t-59 -159t58.5 -159t149.5 -62t149.5 62t58.5 159z" />
    <glyph glyph-name="c" unicode="c" horiz-adv-x="574" 
d="M60 256q0 117 79.5 194.5t195.5 77.5q107 0 176 -58l-28 -41q-56 49 -143 49q-96 0 -159 -63t-63 -159t63 -159t159 -63q87 0 143 49l28 -41q-69 -58 -176 -58q-116 0 -195.5 77.5t-79.5 194.5z" />
    <glyph glyph-name="d" unicode="d" 
d="M66 256q0 118 72.5 195t182.5 77q71 0 128.5 -35t88.5 -96v463h58v-860h-58v116q-31 -61 -88.5 -96.5t-128.5 -35.5q-110 0 -182.5 77t-72.5 195zM125 256q0 -97 58.5 -159t149.5 -62t149.5 62t58.5 159t-59 159t-149 62t-149 -62t-59 -159z" />
    <glyph glyph-name="e" unicode="e" horiz-adv-x="652" 
d="M60 256q0 113 78.5 192.5t188.5 79.5q111 0 188 -77.5t77 -193.5v-6h-475q0 -96 63 -156t157 -60q128 0 193 97l43 -24q-37 -60 -99 -92t-139 -32q-117 0 -196 77t-79 195zM119 291h416q-8 82 -66.5 134t-140.5 52q-84 0 -143 -52.5t-66 -133.5z" />
    <glyph glyph-name="f" unicode="f" horiz-adv-x="297" 
d="M58 512h49v194q0 86 35.5 127.5t97.5 41.5q55 0 89 -28l-20 -41q-24 18 -61 18q-42 0 -62.5 -27t-20.5 -88v-197h132v-44h-132v-468h-58v468h-49v44z" />
    <glyph glyph-name="g" unicode="g" horiz-adv-x="702" 
d="M71 256q0 118 72.5 195t182.5 77q71 0 128.5 -35t88.5 -96v115h58v-526q0 -124 -71.5 -192.5t-203.5 -68.5q-192 0 -260 149l50 22q24 -53 79.5 -87.5t130.5 -34.5q100 0 158.5 57t58.5 150v135q-31 -61 -88.5 -96.5t-128.5 -35.5q-110 0 -182.5 77t-72.5 195zM130 256
q0 -97 58.5 -159t149.5 -62t149.5 62t58.5 159t-59 159t-149 62t-149 -62t-59 -159z" />
    <glyph glyph-name="h" unicode="h" horiz-adv-x="613" 
d="M100 860h58v-420q21 43 67.5 65.5t93.5 22.5q98 0 149.5 -54.5t51.5 -149.5v-324h-57v307q0 83 -38.5 128t-114.5 45q-67 0 -109.5 -43.5t-42.5 -97.5v-339h-58v860z" />
    <glyph glyph-name="i" unicode="i" horiz-adv-x="267" 
d="M108 512h58v-512h-58v512zM137 697q17 0 29.5 -12.5t12.5 -29.5t-12.5 -29.5t-29.5 -12.5t-29.5 12.5t-12.5 29.5t12.5 29.5t29.5 12.5z" />
    <glyph glyph-name="j" unicode="j" horiz-adv-x="252" 
d="M101 512h58v-629q0 -158 -130 -158q-55 0 -88 25l17 46q22 -20 61 -20q82 0 82 109v627zM130 697q17 0 29.5 -12.5t12.5 -29.5t-12.5 -29.5t-29.5 -12.5t-29.5 12.5t-12.5 29.5t12.5 29.5t29.5 12.5z" />
    <glyph glyph-name="k" unicode="k" horiz-adv-x="467" 
d="M101 860h58v-554l176 206h73l-168 -194l248 -318h-72l-213 275l-44 -50v-225h-58v860z" />
    <glyph glyph-name="l" unicode="l" horiz-adv-x="260" 
d="M101 860h58v-860h-58v860z" />
    <glyph glyph-name="m" unicode="m" horiz-adv-x="969" 
d="M101 512h58v-72q25 41 70.5 64.5t90.5 23.5q141 0 182 -110q27 48 74 79t103 31q99 0 148 -54t49 -150v-324h-58v307q0 81 -38.5 127t-113.5 46q-61 0 -105 -43t-44 -82v-355h-58v307q0 81 -38.5 127t-113.5 46q-61 0 -104.5 -43.5t-43.5 -82.5v-354h-58v512z" />
    <glyph glyph-name="n" unicode="n" horiz-adv-x="614" 
d="M101 512h58v-72q21 43 67.5 65.5t93.5 22.5q98 0 149.5 -54.5t51.5 -149.5v-324h-57v307q0 83 -38.5 128t-114.5 45q-67 0 -109.5 -43.5t-42.5 -97.5v-339h-58v512z" />
    <glyph glyph-name="o" unicode="o" horiz-adv-x="680" 
d="M118 256q0 -96 63 -158.5t159 -62.5t159 62.5t63 158.5t-63 158.5t-159 62.5t-159 -62.5t-63 -158.5zM620 256q0 -119 -80 -195.5t-200 -76.5t-200 76.5t-80 195.5t80 195.5t200 76.5t200 -76.5t80 -195.5z" />
    <glyph glyph-name="p" unicode="p" 
d="M631 256q0 -118 -72.5 -195t-182.5 -77q-71 0 -128.5 35.5t-88.5 96.5v-376h-58v772h58v-115q31 61 88.5 96t128.5 35q110 0 182.5 -77t72.5 -195zM572 256q0 97 -59 159t-149 62t-149 -62t-59 -159t58.5 -159t149.5 -62t149.5 62t58.5 159z" />
    <glyph glyph-name="q" unicode="q" 
d="M66 256q0 118 72.5 195t182.5 77q71 0 128.5 -35t88.5 -96v115h58v-772h-58v376q-31 -61 -88.5 -96.5t-128.5 -35.5q-110 0 -182.5 77t-72.5 195zM125 256q0 -97 58.5 -159t149.5 -62t149.5 62t58.5 159t-59 159t-149 62t-149 -62t-59 -159z" />
    <glyph glyph-name="r" unicode="r" horiz-adv-x="391" 
d="M101 512h58v-76q19 42 59 67t88 25q55 0 87 -16l-24 -49q-26 14 -73 14q-63 0 -100 -45t-37 -84v-348h-58v512z" />
    <glyph glyph-name="s" unicode="s" horiz-adv-x="474" 
d="M256 528q49 0 88 -27.5t51 -60.5l-44 -19q-13 26 -38 42.5t-57 16.5q-53 0 -80.5 -25t-27.5 -57q0 -34 27.5 -56t86.5 -41q158 -47 158 -160q0 -76 -52.5 -116.5t-130.5 -40.5q-68 0 -118 34.5t-69 88.5l46 28q18 -45 55.5 -71.5t85.5 -26.5q60 0 94.5 28.5t34.5 74.5
q0 80 -139 121q-132 39 -132 135q0 57 43 94.5t118 37.5z" />
    <glyph glyph-name="t" unicode="t" horiz-adv-x="315" 
d="M58 512h50v191h58v-191h130v-44h-130v-336q0 -50 13 -71.5t49 -21.5q14 0 28.5 4.5t21.5 9.5l7 5l15 -52q-28 -22 -80 -22q-65 0 -88.5 39t-23.5 102v343h-50v44z" />
    <glyph glyph-name="u" unicode="u" horiz-adv-x="602" 
d="M93 512h58v-293q0 -107 37 -146t113 -39t113 39t37 146v293h58v-302q0 -123 -50.5 -174.5t-157.5 -51.5t-157.5 51.5t-50.5 174.5v302z" />
    <glyph glyph-name="v" unicode="v" horiz-adv-x="528" 
d="M0 512h68l196 -426l196 426h68l-245 -512h-38z" />
    <glyph glyph-name="w" unicode="w" horiz-adv-x="898" 
d="M0 512h66l197 -426l167 426h38l167 -426l197 426h66l-245 -512h-38l-166 418l-166 -418h-38z" />
    <glyph glyph-name="x" unicode="x" horiz-adv-x="538" 
d="M44 512h66l159 -209l159 209h66l-187 -249l216 -263h-68l-186 228l-186 -228h-68l216 263z" />
    <glyph glyph-name="y" unicode="y" horiz-adv-x="535" 
d="M0 512h66l211 -448l192 448h66l-345 -772h-65l119 263z" />
    <glyph glyph-name="z" unicode="z" horiz-adv-x="564" 
d="M67 512h468l-397 -463h387v-49h-496l396 463h-358v49z" />
    <glyph glyph-name="braceleft" unicode="{" horiz-adv-x="297" 
d="M78 319q41 0 41 47v313q0 34 7 63.5t24 57.5t49.5 44t78.5 16h31v-48h-20q-117 0 -117 -136v-324q0 -39 -24 -52q24 -13 24 -52v-324q0 -136 117 -136h20v-48h-31q-46 0 -78.5 16t-49.5 44t-24 57.5t-7 63.5v313q0 47 -41 47v38z" />
    <glyph glyph-name="bar" unicode="|" horiz-adv-x="263" 
d="M105 860h53v-860h-53v860z" />
    <glyph glyph-name="braceright" unicode="}" horiz-adv-x="297" 
d="M-12 860h31q46 0 78.5 -16t49.5 -44t24 -57.5t7 -63.5v-313q0 -47 41 -47v-38q-41 0 -41 -47v-313q0 -34 -7 -63.5t-24 -57.5t-49.5 -44t-78.5 -16h-31v48h20q117 0 117 136v324q0 39 24 52q-24 13 -24 52v324q0 136 -117 136h-20v48z" />
    <glyph glyph-name="asciitilde" unicode="~" horiz-adv-x="636" 
d="M304 396q-45 36 -92 36q-62 0 -108 -78l-33 30q21 36 58.5 66t86.5 30q58 0 116 -45q45 -36 92 -36q62 0 108 78l33 -30q-21 -36 -58.5 -66t-86.5 -30q-58 0 -116 45z" />
    <glyph glyph-name="exclamdown" unicode="&#xa1;" horiz-adv-x="294" 
d="M147 615q17 0 29.5 -12.5t12.5 -29.5t-12.5 -29.5t-29.5 -12.5t-29.5 12.5t-12.5 29.5t12.5 29.5t29.5 12.5zM124 411h46l5 -671h-56z" />
    <glyph glyph-name="cent" unicode="&#xa2;" horiz-adv-x="573" 
d="M60 256q0 105 64.5 179t164.5 89v112h39v-108h7q107 0 176 -58l-28 -41q-56 49 -143 49q-96 0 -159 -63t-63 -159t63 -159t159 -63q87 0 143 49l28 -41q-60 -51 -158 -57v-114h-41v114q-108 8 -180 84t-72 187z" />
    <glyph glyph-name="sterling" unicode="&#xa3;" horiz-adv-x="759" 
d="M70 353h144q-26 38 -40 62.5t-26 67t-12 91.5q0 114 74.5 190t190.5 76q65 0 117 -20.5t83.5 -54t49.5 -67t25 -67.5l-52 -19q-6 31 -20.5 59.5t-40 57t-67.5 46t-95 17.5q-92 0 -149.5 -62.5t-57.5 -155.5q0 -32 4 -59t14.5 -52.5t16 -37.5t22.5 -39.5t20 -32.5h256v-38
h-238q19 -43 19 -86q0 -58 -24 -115q34 0 75.5 -20t87.5 -39.5t91 -19.5q56 0 91 41t39 86l49 -24q-8 -55 -56.5 -104t-118.5 -49q-55 0 -106 22t-96 44t-85 22q-48 0 -78.5 -22t-40.5 -51h-38q8 40 47 76.5t94 39.5q22 52 22 111q0 45 -26 88h-165v38z" />
    <glyph glyph-name="yen" unicode="&#xa5;" horiz-adv-x="629" 
d="M4 825h72l238 -404l238 404h73l-263 -441h178v-45h-195v-128h195v-45h-195v-166h-61v166h-195v45h195v128h-195v45h178z" />
    <glyph glyph-name="brokenbar" unicode="&#xa6;" horiz-adv-x="263" 
d="M105 860h53v-332h-53v332zM105 332h53v-332h-53v332z" />
    <glyph glyph-name="section" unicode="&#xa7;" horiz-adv-x="640" 
d="M100 328q1 49 28.5 87.5t66.5 54.5q-89 59 -89 159q0 91 62 151t159 60q85 0 136 -40.5t70 -92.5l-46 -18q-13 42 -55.5 71.5t-104.5 29.5q-74 0 -118 -48t-44 -111q0 -61 47 -99.5t133 -67.5q121 -40 177 -88.5t56 -118.5q0 -44 -30 -83t-69 -55q93 -66 93 -175
q0 -96 -68 -157.5t-185 -61.5q-69 0 -122.5 21.5t-81 53.5t-41 58.5t-16.5 47.5l50 16q4 -20 17 -43t37 -47.5t65 -40.5t92 -16q85 0 139 44.5t54 122.5q0 70 -52 116t-165 83q-100 33 -147.5 78.5t-47.5 108.5zM150 334q1 -50 44 -81.5t124 -58.5q75 -23 122 -52
q34 10 60.5 41t26.5 67q-1 54 -52 92t-161 73q-43 14 -80 32q-33 -10 -58 -41.5t-26 -71.5z" />
    <glyph glyph-name="dieresis" unicode="&#xa8;" horiz-adv-x="456" 
d="M111 737q16 0 27 -11t11 -27t-11 -27t-27 -11t-27 11t-11 27t11 27t27 11zM345 737q16 0 27 -11t11 -27t-11 -27t-27 -11t-27 11t-11 27t11 27t27 11z" />
    <glyph glyph-name="copyright" unicode="&#xa9;" horiz-adv-x="964" 
d="M64 412q0 180 122.5 304t295.5 124q174 0 296 -124t122 -304q0 -181 -120 -304.5t-298 -123.5q-180 0 -299 123.5t-119 304.5zM111 412q0 -162 105.5 -272.5t265.5 -110.5q158 0 264.5 110.5t106.5 272.5q0 161 -108.5 272t-262.5 111q-153 0 -262 -111.5t-109 -271.5z
M222 411q0 112 76 186t187 74q103 0 168 -56l-26 -39q-54 47 -137 47q-92 0 -152 -60.5t-60 -151.5t60 -151.5t152 -60.5q81 0 137 47l26 -39q-64 -55 -168 -55q-111 0 -187 73.5t-76 185.5z" />
    <glyph glyph-name="ordfeminine" unicode="&#xaa;" horiz-adv-x="456" 
d="M60 672q0 73 44.5 120.5t112.5 47.5q44 0 79.5 -21.5t54.5 -59.5v71h36v-316h-36v72q-19 -38 -54.5 -60t-79.5 -22q-68 0 -112.5 47.5t-44.5 120.5zM96 672q0 -60 36 -98t92 -38t92.5 38t36.5 98t-36.5 98.5t-92.5 38.5t-92 -38.5t-36 -98.5z" />
    <glyph glyph-name="guillemotleft" unicode="&#xab;" horiz-adv-x="525" 
d="M210 528l37 -29l-173 -221l173 -221l-37 -29l-195 250zM460 528l37 -29l-173 -221l173 -221l-37 -29l-195 250z" />
    <glyph glyph-name="registered" unicode="&#xae;" horiz-adv-x="515" 
d="M33 615q0 93 65.5 159t157.5 66q94 0 159.5 -66t65.5 -159q0 -92 -65.5 -157.5t-159.5 -65.5q-92 0 -157.5 65.5t-65.5 157.5zM57 615q0 -82 58.5 -141t140.5 -59q84 0 143 58.5t59 141.5t-59 142.5t-143 59.5q-82 0 -140.5 -59.5t-58.5 -142.5zM178 764h72q43 0 68 -22
t25 -60q0 -36 -21.5 -58.5t-60.5 -25.5l98 -128h-27l-96 127h-36v-127h-22v294zM200 747v-132h46q34 0 55 18.5t21 48.5t-20.5 47.5t-55.5 17.5h-46z" />
    <glyph glyph-name="macron" unicode="&#xaf;" horiz-adv-x="548" 
d="M70 716h408v-43h-408v43z" />
    <glyph glyph-name="degree" unicode="&#xb0;" horiz-adv-x="286" 
d="M39 772q0 45 30 74t74 29t74 -29t30 -74t-30 -74t-74 -29t-74 29t-30 74zM73 772q0 -31 20 -51.5t50 -20.5t50 20.5t20 51.5t-20 51.5t-50 20.5t-50 -20.5t-20 -51.5z" />
    <glyph glyph-name="plusminus" unicode="&#xb1;" horiz-adv-x="662" 
d="M306 671h50v-227h231v-50h-231v-227h-50v227h-231v50h231v227zM75 50h512v-50h-512v50z" />
    <glyph glyph-name="twosuperior" unicode="&#xb2;" horiz-adv-x="276" 
d="M35 743q3 41 32 69t75 28q48 0 78 -31t30 -74q0 -24 -11 -47.5t-40.5 -52.5t-50 -46t-67.5 -55h174v-21h-225v11q7 6 33.5 26t38.5 30t35 29.5t35 32.5t26 30.5t20 33t6 29.5q0 33 -23.5 58t-58.5 25q-37 0 -58.5 -22t-23.5 -56z" />
    <glyph glyph-name="threesuperior" unicode="&#xb3;" horiz-adv-x="245" 
d="M43 761q2 32 25 55.5t61 23.5q36 0 61 -24t25 -59q0 -26 -14.5 -47t-37.5 -29q25 -7 40.5 -29.5t15.5 -50.5q0 -39 -25 -63.5t-70 -24.5q-46 0 -70.5 24.5t-27.5 57.5l21 4q3 -27 23 -45.5t54 -18.5t52.5 18t18.5 48t-21 50.5t-49 20.5l-11 -1v18h10q28 0 48.5 19.5
t20.5 48.5q0 26 -19 44.5t-45 18.5q-27 0 -45 -17.5t-21 -45.5z" />
    <glyph glyph-name="acute" unicode="&#xb4;" horiz-adv-x="312" 
d="M204 840l35 -48l-143 -87l-23 32z" />
    <glyph glyph-name="mu" unicode="&#xb5;" horiz-adv-x="632" 
d="M111 512h57v-307q0 -83 38.5 -128t114.5 -45q67 0 109.5 43.5t42.5 97.5v339h58v-512h-58v72q-21 -43 -67.5 -65.5t-93.5 -22.5q-101 0 -144 66v-210h-76q0 85 9.5 197t9.5 183v292z" />
    <glyph glyph-name="paragraph" unicode="&#xb6;" horiz-adv-x="639" 
d="M64 595q0 104 68 167t187 63h215v-825h-43v785h-32v-785h-43v356h-97q-118 0 -186.5 67.5t-68.5 171.5z" />
    <glyph glyph-name="periodcentered" unicode="&#xb7;" horiz-adv-x="198" 
d="M99 311q17 0 29.5 -12.5t12.5 -29.5t-12.5 -29.5t-29.5 -12.5t-29.5 12.5t-12.5 29.5t12.5 29.5t29.5 12.5z" />
    <glyph glyph-name="cedilla" unicode="&#xb8;" horiz-adv-x="400" 
d="M146 -127l49 150l34 -11l-31 -94q24 4 39 4q45 -2 74.5 -31t29.5 -75q0 -48 -35 -79t-92 -31q-47 0 -82.5 22t-51.5 53l32 20q13 -24 40 -40t62 -16t60.5 18.5t25.5 52.5q0 33 -21.5 53.5t-54.5 20.5q-43 0 -74 -20z" />
    <glyph glyph-name="onesuperior" unicode="&#xb9;" horiz-adv-x="117" 
d="M29 825h49v-312h-23v290h-26v22z" />
    <glyph glyph-name="ordmasculine" unicode="&#xba;" horiz-adv-x="459" 
d="M39 671q0 73 55.5 121t136.5 48t136.5 -48t55.5 -121t-55.5 -121t-136.5 -48t-136.5 48t-55.5 121zM84 671q0 -55 42 -92t105 -37t105 37t42 92t-42 92t-105 37t-105 -37t-42 -92z" />
    <glyph glyph-name="guillemotright" unicode="&#xbb;" horiz-adv-x="525" 
d="M278 499l37 29l195 -250l-195 -250l-37 29l173 221zM28 499l37 29l195 -250l-195 -250l-37 29l173 221z" />
    <glyph glyph-name="onequarter" unicode="&#xbc;" horiz-adv-x="717" 
d="M67 825h75v-479h-34v445h-41v34zM359 166v18l226 296h35v-283h55v-31h-55v-166h-34v166h-227zM404 197h182v235zM47 0l480 825h43l-480 -825h-43z" />
    <glyph glyph-name="onehalf" unicode="&#xbd;" horiz-adv-x="903" 
d="M67 825h75v-479h-34v445h-41v34zM473 339q5 61 47.5 102t109.5 41q71 0 114.5 -46t43.5 -109q0 -36 -17 -71t-58 -76t-74 -69t-99 -80h257v-31h-331v15q12 10 49 39t56 44.5t52 43.5t51 48t38 45t29 48t9 44q0 49 -34 86t-86 37q-54 0 -86 -33t-35 -82zM48 0l480 825h43
l-480 -825h-43z" />
    <glyph glyph-name="threequarters" unicode="&#xbe;" horiz-adv-x="889" 
d="M531 166v18l226 296h35v-283h55v-31h-55v-166h-34v166h-227zM576 197h182v235zM62 711q2 47 37 82t91 35q53 0 90 -36t37 -88q0 -39 -21.5 -69.5t-55.5 -42.5q38 -10 60.5 -43.5t22.5 -75.5q0 -57 -37 -93.5t-103 -36.5q-69 0 -105 35.5t-42 86.5l32 6q4 -40 34 -68
t81 -28q49 0 77 27.5t28 70.5q0 44 -31 75t-74 31l-16 -2v27h15q42 0 72 29t30 71q0 39 -28 66.5t-67 27.5q-40 0 -67 -26t-31 -66zM219 0l480 825h43l-480 -825h-43z" />
    <glyph glyph-name="questiondown" unicode="&#xbf;" horiz-adv-x="579" 
d="M494 -29l52 -6q-3 -106 -69.5 -173t-178.5 -67t-181.5 73t-69.5 172q0 98 64.5 171t179.5 78v144h54v-197q-13 3 -37 3q-97 0 -151 -56t-54 -143q0 -85 53 -138t142 -53q90 0 142 52.5t54 139.5zM318 497q-17 0 -29.5 12.5t-12.5 29.5t12.5 29.5t29.5 12.5t29.5 -12.5
t12.5 -29.5t-12.5 -29.5t-29.5 -12.5z" />
    <glyph glyph-name="Agrave" unicode="&#xc0;" horiz-adv-x="692" 
d="M318 825h56l324 -825h-65l-106 277h-362l-106 -277h-65zM185 330h322l-161 417zM203 986l35 48l131 -103l-23 -32z" />
    <glyph glyph-name="Aacute" unicode="&#xc1;" horiz-adv-x="692" 
d="M318 825h56l324 -825h-65l-106 277h-362l-106 -277h-65zM185 330h322l-161 417zM454 1035l35 -48l-143 -87l-23 32z" />
    <glyph glyph-name="Acircumflex" unicode="&#xc2;" horiz-adv-x="692" 
d="M318 825h56l324 -825h-65l-106 277h-362l-106 -277h-65zM185 330h322l-161 417zM168 934l178 131l178 -131l-26 -35l-152 112l-153 -112z" />
    <glyph glyph-name="Atilde" unicode="&#xc3;" horiz-adv-x="692" 
d="M318 825h56l324 -825h-65l-106 277h-362l-106 -277h-65zM185 330h322l-161 417zM99 1006q21 36 58.5 66t86.5 30q58 0 116 -45q45 -36 92 -36q62 0 108 78l33 -30q-21 -36 -58.5 -66t-86.5 -30q-58 0 -116 45q-45 36 -92 36q-62 0 -108 -78z" />
    <glyph glyph-name="Adieresis" unicode="&#xc4;" horiz-adv-x="692" 
d="M318 825h56l324 -825h-65l-106 277h-362l-106 -277h-65zM185 330h322l-161 417zM229 1049q16 0 27 -11t11 -27t-11 -27t-27 -11t-27 11t-11 27t11 27t27 11zM463 1049q16 0 27 -11t11 -27t-11 -27t-27 -11t-27 11t-11 27t11 27t27 11z" />
    <glyph glyph-name="Aring" unicode="&#xc5;" horiz-adv-x="692" 
d="M318 825h56l324 -825h-65l-106 277h-362l-106 -277h-65zM185 330h322l-161 417zM236 1044q0 44 30.5 70.5t79.5 26.5t79.5 -26.5t30.5 -70.5t-30.5 -70.5t-79.5 -26.5t-79.5 26.5t-30.5 70.5zM277 1044q0 -27 19.5 -44t49.5 -17t49.5 17t19.5 44t-19.5 44t-49.5 17
t-49.5 -17t-19.5 -44z" />
    <glyph glyph-name="AE" unicode="&#xc6;" horiz-adv-x="823" 
d="M-6 0l324 825h436v-53h-348v-332h336v-53h-336v-334h348v-53h-408v277h-181l-106 -277h-65zM185 330h161v417z" />
    <glyph glyph-name="Ccedilla" unicode="&#xc7;" horiz-adv-x="811" 
d="M411 -127l37 114q-168 16 -276 136.5t-108 288.5q0 181 123.5 304.5t308.5 123.5q154 0 267 -86l-30 -50q-95 77 -232 77q-164 0 -268 -107t-104 -262t104 -262t268 -107q137 0 232 77l30 -50q-113 -86 -267 -86l-11 1l-22 -67q24 4 39 4q45 -2 74.5 -31t29.5 -75
q0 -48 -35 -79t-92 -31q-47 0 -82.5 22t-51.5 53l32 20q13 -24 40 -40t62 -16t60.5 18.5t25.5 52.5q0 33 -21.5 53.5t-54.5 20.5q-43 0 -74 -20z" />
    <glyph glyph-name="Egrave" unicode="&#xc8;" horiz-adv-x="582" 
d="M105 825h408v-53h-348v-332h336v-53h-336v-334h348v-53h-408v825zM196 986l35 48l131 -103l-23 -32z" />
    <glyph glyph-name="Eacute" unicode="&#xc9;" horiz-adv-x="582" 
d="M105 825h408v-53h-348v-332h336v-53h-336v-334h348v-53h-408v825zM387 1035l35 -48l-143 -87l-23 32z" />
    <glyph glyph-name="Ecircumflex" unicode="&#xca;" horiz-adv-x="582" 
d="M105 825h408v-53h-348v-332h336v-53h-336v-334h348v-53h-408v825zM130 934l178 131l178 -131l-26 -35l-152 112l-153 -112z" />
    <glyph glyph-name="Edieresis" unicode="&#xcb;" horiz-adv-x="582" 
d="M105 825h408v-53h-348v-332h336v-53h-336v-334h348v-53h-408v825zM192 1049q16 0 27 -11t11 -27t-11 -27t-27 -11t-27 11t-11 27t11 27t27 11zM426 1049q16 0 27 -11t11 -27t-11 -27t-27 -11t-27 11t-11 27t11 27t27 11z" />
    <glyph glyph-name="Igrave" unicode="&#xcc;" horiz-adv-x="270" 
d="M105 825h60v-825h-60v825zM-8 986l35 48l131 -103l-23 -32z" />
    <glyph glyph-name="Iacute" unicode="&#xcd;" horiz-adv-x="270" 
d="M105 825h60v-825h-60v825zM243 1035l35 -48l-143 -87l-23 32z" />
    <glyph glyph-name="Icircumflex" unicode="&#xce;" horiz-adv-x="270" 
d="M105 825h60v-825h-60v825zM-43 934l178 131l178 -131l-26 -35l-152 112l-153 -112z" />
    <glyph glyph-name="Idieresis" unicode="&#xcf;" horiz-adv-x="270" 
d="M105 825h60v-825h-60v825zM18 1049q16 0 27 -11t11 -27t-11 -27t-27 -11t-27 11t-11 27t11 27t27 11zM252 1049q16 0 27 -11t11 -27t-11 -27t-27 -11t-27 11t-11 27t11 27t27 11z" />
    <glyph glyph-name="Eth" unicode="&#xd0;" horiz-adv-x="763" 
d="M105 825h178q172 0 294 -117.5t122 -294.5q0 -178 -121.5 -295.5t-294.5 -117.5h-178v388h-81v49h81v388zM165 771v-334h238v-49h-238v-334h114q149 0 253.5 102.5t104.5 256.5q0 153 -105 255.5t-253 102.5h-114z" />
    <glyph glyph-name="Ntilde" unicode="&#xd1;" horiz-adv-x="790" 
d="M105 825h60l460 -722v722h60v-825h-60l-460 721v-721h-60v825zM148 1007q21 36 58.5 66t86.5 30q58 0 116 -45q45 -36 92 -36q62 0 108 78l33 -30q-21 -36 -58.5 -66t-86.5 -30q-58 0 -116 45q-45 36 -92 36q-62 0 -108 -78z" />
    <glyph glyph-name="Ograve" unicode="&#xd2;" horiz-adv-x="960" 
d="M64 412q0 180 122 304t294 124t294 -124t122 -304t-122 -304t-294 -124t-294 124t-122 304zM128 412q0 -154 102.5 -262t249.5 -108t249.5 108t102.5 262t-102.5 262t-249.5 108t-249.5 -108t-102.5 -262zM367 986l35 48l131 -103l-23 -32z" />
    <glyph glyph-name="Oacute" unicode="&#xd3;" horiz-adv-x="960" 
d="M64 412q0 180 122 304t294 124t294 -124t122 -304t-122 -304t-294 -124t-294 124t-122 304zM128 412q0 -154 102.5 -262t249.5 -108t249.5 108t102.5 262t-102.5 262t-249.5 108t-249.5 -108t-102.5 -262zM558 1034l35 -48l-143 -87l-23 32z" />
    <glyph glyph-name="Ocircumflex" unicode="&#xd4;" horiz-adv-x="960" 
d="M64 412q0 180 122 304t294 124t294 -124t122 -304t-122 -304t-294 -124t-294 124t-122 304zM128 412q0 -154 102.5 -262t249.5 -108t249.5 108t102.5 262t-102.5 262t-249.5 108t-249.5 -108t-102.5 -262zM302 934l178 131l178 -131l-26 -35l-152 112l-153 -112z" />
    <glyph glyph-name="Otilde" unicode="&#xd5;" horiz-adv-x="960" 
d="M64 412q0 180 122 304t294 124t294 -124t122 -304t-122 -304t-294 -124t-294 124t-122 304zM128 412q0 -154 102.5 -262t249.5 -108t249.5 108t102.5 262t-102.5 262t-249.5 108t-249.5 -108t-102.5 -262zM233 1004q21 36 58.5 66t86.5 30q58 0 116 -45q45 -36 92 -36
q62 0 108 78l33 -30q-21 -36 -58.5 -66t-86.5 -30q-58 0 -116 45q-45 36 -92 36q-62 0 -108 -78z" />
    <glyph glyph-name="Odieresis" unicode="&#xd6;" horiz-adv-x="960" 
d="M64 412q0 180 122 304t294 124t294 -124t122 -304t-122 -304t-294 -124t-294 124t-122 304zM128 412q0 -154 102.5 -262t249.5 -108t249.5 108t102.5 262t-102.5 262t-249.5 108t-249.5 -108t-102.5 -262zM363 1049q16 0 27 -11t11 -27t-11 -27t-27 -11t-27 11t-11 27
t11 27t27 11zM597 1049q16 0 27 -11t11 -27t-11 -27t-27 -11t-27 11t-11 27t11 27t27 11z" />
    <glyph glyph-name="multiply" unicode="&#xd7;" horiz-adv-x="560" 
d="M56 604l35 34l189 -189l189 189l35 -34l-190 -190l190 -190l-35 -34l-189 189l-189 -189l-35 34l190 190z" />
    <glyph glyph-name="Oslash" unicode="&#xd8;" horiz-adv-x="959" 
d="M63 412q0 180 122 304t294 124q132 0 241 -79l52 67l41 -31l-54 -69q64 -59 100 -141t36 -175q0 -180 -122 -304t-294 -124q-131 0 -241 78l-50 -64l-40 31l51 65q-136 128 -136 318zM127 412q0 -161 109 -270l447 572q-90 68 -204 68q-147 0 -249.5 -108t-102.5 -262z
M831 412q0 159 -109 268l-447 -571q91 -67 204 -67q147 0 249.5 108t102.5 262z" />
    <glyph glyph-name="Ugrave" unicode="&#xd9;" horiz-adv-x="754" 
d="M96 825h60v-518q0 -264 221 -264t221 264v518h60v-529q0 -153 -72.5 -232.5t-208.5 -79.5t-208.5 79.5t-72.5 232.5v529zM264 986l35 48l131 -103l-23 -32z" />
    <glyph glyph-name="Uacute" unicode="&#xda;" horiz-adv-x="754" 
d="M96 825h60v-518q0 -264 221 -264t221 264v518h60v-529q0 -153 -72.5 -232.5t-208.5 -79.5t-208.5 79.5t-72.5 232.5v529zM455 1035l35 -48l-143 -87l-23 32z" />
    <glyph glyph-name="Ucircumflex" unicode="&#xdb;" horiz-adv-x="754" 
d="M96 825h60v-518q0 -264 221 -264t221 264v518h60v-529q0 -153 -72.5 -232.5t-208.5 -79.5t-208.5 79.5t-72.5 232.5v529zM199 934l178 131l178 -131l-26 -35l-152 112l-153 -112z" />
    <glyph glyph-name="Udieresis" unicode="&#xdc;" horiz-adv-x="754" 
d="M96 825h60v-518q0 -264 221 -264t221 264v518h60v-529q0 -153 -72.5 -232.5t-208.5 -79.5t-208.5 79.5t-72.5 232.5v529zM260 1049q16 0 27 -11t11 -27t-11 -27t-27 -11t-27 11t-11 27t11 27t27 11zM494 1049q16 0 27 -11t11 -27t-11 -27t-27 -11t-27 11t-11 27t11 27
t27 11z" />
    <glyph glyph-name="Yacute" unicode="&#xdd;" horiz-adv-x="610" 
d="M543 825h73l-281 -469v-356h-60v356l-281 469h73l238 -404zM373 1035l35 -48l-143 -87l-23 32z" />
    <glyph glyph-name="Thorn" unicode="&#xde;" horiz-adv-x="915" 
d="M105 825h60v-182h142q121 0 190.5 -61.5t69.5 -168.5t-70.5 -173t-189.5 -66h-142v-174h-60v825zM165 594v-369h130q97 0 154 51t57 136t-56.5 133.5t-154.5 48.5h-130z" />
    <glyph glyph-name="germandbls" unicode="&#xdf;" horiz-adv-x="639" 
d="M111 652q0 94 65 158.5t157 64.5q94 0 159 -64.5t65 -156.5q0 -66 -35.5 -118t-93.5 -76q71 -26 115 -87t44 -140q0 -107 -75 -178t-179 -71h-90v55h87q79 0 138 56t59 140q0 85 -59 142t-148 57h-77v49h78q76 0 128 48.5t52 122.5q0 71 -49 120t-119 49t-117 -51.5
t-47 -127.5v-644h-58v367h-66v51h66v234z" />
    <glyph glyph-name="agrave" unicode="&#xe0;" 
d="M66 256q0 118 72.5 195t182.5 77q71 0 128.5 -35t88.5 -96v115h58v-512h-58v116q-31 -61 -88.5 -96.5t-128.5 -35.5q-110 0 -182.5 77t-72.5 195zM125 256q0 -97 58.5 -159t149.5 -62t149.5 62t58.5 159t-59 159t-149 62t-149 -62t-59 -159zM228 674l35 48l131 -103
l-23 -32z" />
    <glyph glyph-name="aacute" unicode="&#xe1;" 
d="M66 256q0 118 72.5 195t182.5 77q71 0 128.5 -35t88.5 -96v115h58v-512h-58v116q-31 -61 -88.5 -96.5t-128.5 -35.5q-110 0 -182.5 77t-72.5 195zM125 256q0 -97 58.5 -159t149.5 -62t149.5 62t58.5 159t-59 159t-149 62t-149 -62t-59 -159zM399 722l35 -48l-143 -87
l-23 32z" />
    <glyph glyph-name="acircumflex" unicode="&#xe2;" 
d="M66 256q0 118 72.5 195t182.5 77q71 0 128.5 -35t88.5 -96v115h58v-512h-58v116q-31 -61 -88.5 -96.5t-128.5 -35.5q-110 0 -182.5 77t-72.5 195zM125 256q0 -97 58.5 -159t149.5 -62t149.5 62t58.5 159t-59 159t-149 62t-149 -62t-59 -159zM153 622l178 131l178 -131
l-26 -35l-152 112l-153 -112z" />
    <glyph glyph-name="atilde" unicode="&#xe3;" 
d="M66 256q0 118 72.5 195t182.5 77q71 0 128.5 -35t88.5 -96v115h58v-512h-58v116q-31 -61 -88.5 -96.5t-128.5 -35.5q-110 0 -182.5 77t-72.5 195zM125 256q0 -97 58.5 -159t149.5 -62t149.5 62t58.5 159t-59 159t-149 62t-149 -62t-59 -159zM84 646q21 36 58.5 66
t86.5 30q58 0 116 -45q45 -36 92 -36q62 0 108 78l33 -30q-21 -36 -58.5 -66t-86.5 -30q-58 0 -116 45q-45 36 -92 36q-62 0 -108 -78z" />
    <glyph glyph-name="adieresis" unicode="&#xe4;" 
d="M66 256q0 118 72.5 195t182.5 77q71 0 128.5 -35t88.5 -96v115h58v-512h-58v116q-31 -61 -88.5 -96.5t-128.5 -35.5q-110 0 -182.5 77t-72.5 195zM125 256q0 -97 58.5 -159t149.5 -62t149.5 62t58.5 159t-59 159t-149 62t-149 -62t-59 -159zM214 737q16 0 27 -11t11 -27
t-11 -27t-27 -11t-27 11t-11 27t11 27t27 11zM448 737q16 0 27 -11t11 -27t-11 -27t-27 -11t-27 11t-11 27t11 27t27 11z" />
    <glyph glyph-name="aring" unicode="&#xe5;" 
d="M66 256q0 118 72.5 195t182.5 77q71 0 128.5 -35t88.5 -96v115h58v-512h-58v116q-31 -61 -88.5 -96.5t-128.5 -35.5q-110 0 -182.5 77t-72.5 195zM125 256q0 -97 58.5 -159t149.5 -62t149.5 62t58.5 159t-59 159t-149 62t-149 -62t-59 -159zM221 732q0 44 30.5 70.5
t79.5 26.5t79.5 -26.5t30.5 -70.5t-30.5 -70.5t-79.5 -26.5t-79.5 26.5t-30.5 70.5zM262 732q0 -27 19.5 -44t49.5 -17t49.5 17t19.5 44t-19.5 44t-49.5 17t-49.5 -17t-19.5 -44z" />
    <glyph glyph-name="ae" unicode="&#xe6;" horiz-adv-x="1027" 
d="M66 147q0 73 56.5 120t143.5 47q116 0 171 -70v65q0 81 -44 126t-121 45q-93 0 -147 -65l-27 37q65 76 174 76q79 0 133.5 -34t76.5 -95q34 59 92 94t128 35q111 0 188 -77.5t77 -193.5v-6h-475q0 -96 63 -156t157 -60q128 0 193 97l43 -24q-37 -60 -99 -92t-139 -32
q-81 0 -134.5 30t-96.5 89q-24 -58 -83.5 -88.5t-128.5 -30.5q-86 0 -143.5 45.5t-57.5 117.5zM122 151q0 -55 46.5 -90t113.5 -35t113 35t46 90q0 54 -46 88.5t-113 34.5q-68 0 -114 -34t-46 -89zM494 291h416q-8 82 -66.5 134t-140.5 52q-84 0 -143 -52.5t-66 -133.5z" />
    <glyph glyph-name="ccedilla" unicode="&#xe7;" horiz-adv-x="574" 
d="M243 -127l38 116q-97 18 -159 91t-62 176q0 117 79.5 194.5t195.5 77.5q107 0 176 -58l-28 -41q-56 49 -143 49q-96 0 -159 -63t-63 -159t63 -159t159 -63q87 0 143 49l28 -41q-69 -58 -176 -58q-12 0 -18 1l-22 -67q24 4 39 4q45 -2 74.5 -31t29.5 -75q0 -48 -35 -79
t-92 -31q-47 0 -82.5 22t-51.5 53l32 20q13 -24 40 -40t62 -16t60.5 18.5t25.5 52.5q0 33 -21.5 53.5t-54.5 20.5q-43 0 -74 -20z" />
    <glyph glyph-name="egrave" unicode="&#xe8;" horiz-adv-x="652" 
d="M60 256q0 113 78.5 192.5t188.5 79.5q111 0 188 -77.5t77 -193.5v-6h-475q0 -96 63 -156t157 -60q128 0 193 97l43 -24q-37 -60 -99 -92t-139 -32q-117 0 -196 77t-79 195zM119 291h416q-8 82 -66.5 134t-140.5 52q-84 0 -143 -52.5t-66 -133.5zM223 674l35 48l131 -103
l-23 -32z" />
    <glyph glyph-name="eacute" unicode="&#xe9;" horiz-adv-x="652" 
d="M60 256q0 113 78.5 192.5t188.5 79.5q111 0 188 -77.5t77 -193.5v-6h-475q0 -96 63 -156t157 -60q128 0 193 97l43 -24q-37 -60 -99 -92t-139 -32q-117 0 -196 77t-79 195zM119 291h416q-8 82 -66.5 134t-140.5 52q-84 0 -143 -52.5t-66 -133.5zM394 722l35 -48l-143 -87
l-23 32z" />
    <glyph glyph-name="ecircumflex" unicode="&#xea;" horiz-adv-x="652" 
d="M60 256q0 113 78.5 192.5t188.5 79.5q111 0 188 -77.5t77 -193.5v-6h-475q0 -96 63 -156t157 -60q128 0 193 97l43 -24q-37 -60 -99 -92t-139 -32q-117 0 -196 77t-79 195zM119 291h416q-8 82 -66.5 134t-140.5 52q-84 0 -143 -52.5t-66 -133.5zM148 622l178 131
l178 -131l-26 -35l-152 112l-153 -112z" />
    <glyph glyph-name="edieresis" unicode="&#xeb;" horiz-adv-x="652" 
d="M60 256q0 113 78.5 192.5t188.5 79.5q111 0 188 -77.5t77 -193.5v-6h-475q0 -96 63 -156t157 -60q128 0 193 97l43 -24q-37 -60 -99 -92t-139 -32q-117 0 -196 77t-79 195zM119 291h416q-8 82 -66.5 134t-140.5 52q-84 0 -143 -52.5t-66 -133.5zM209 683q16 0 27 -11
t11 -27t-11 -27t-27 -11t-27 11t-11 27t11 27t27 11zM443 683q16 0 27 -11t11 -27t-11 -27t-27 -11t-27 11t-11 27t11 27t27 11z" />
    <glyph glyph-name="igrave" unicode="&#xec;" horiz-adv-x="267" 
d="M108 512h58v-512h-58v512zM-6 674l35 48l131 -103l-23 -32z" />
    <glyph glyph-name="iacute" unicode="&#xed;" horiz-adv-x="267" 
d="M108 512h58v-512h-58v512zM245 722l35 -48l-143 -87l-23 32z" />
    <glyph glyph-name="icircumflex" unicode="&#xee;" horiz-adv-x="267" 
d="M108 512h58v-512h-58v512zM-41 622l178 131l178 -131l-26 -35l-152 112l-153 -112z" />
    <glyph glyph-name="idieresis" unicode="&#xef;" horiz-adv-x="267" 
d="M108 512h58v-512h-58v512zM20 688q16 0 27 -11t11 -27t-11 -27t-27 -11t-27 11t-11 27t11 27t27 11zM254 688q16 0 27 -11t11 -27t-11 -27t-27 -11t-27 11t-11 27t11 27t27 11z" />
    <glyph glyph-name="eth" unicode="&#xf0;" horiz-adv-x="695" 
d="M63 256q0 119 79.5 195.5t191.5 76.5q64 0 119.5 -28t88.5 -78q-39 202 -178 312l-78 -78l-32 32l72 71q-60 40 -130 65l16 51q88 -33 154 -76l76 76l31 -32l-70 -69q222 -179 222 -518q0 -119 -80 -195.5t-201 -76.5q-122 0 -201.5 76.5t-79.5 195.5zM122 256
q0 -96 62.5 -158.5t159.5 -62.5q96 0 159 62.5t63 158.5t-63 158.5t-159 62.5t-159 -62.5t-63 -158.5z" />
    <glyph glyph-name="ntilde" unicode="&#xf1;" horiz-adv-x="614" 
d="M101 512h58v-72q21 43 67.5 65.5t93.5 22.5q98 0 149.5 -54.5t51.5 -149.5v-324h-57v307q0 83 -38.5 128t-114.5 45q-67 0 -109.5 -43.5t-42.5 -97.5v-339h-58v512zM66 645q21 36 58.5 66t86.5 30q58 0 116 -45q45 -36 92 -36q62 0 108 78l33 -30q-21 -36 -58.5 -66
t-86.5 -30q-58 0 -116 45q-45 36 -92 36q-62 0 -108 -78z" />
    <glyph glyph-name="ograve" unicode="&#xf2;" horiz-adv-x="681" 
d="M60 256q0 119 80 195.5t200 76.5t200.5 -76.5t80.5 -195.5t-80 -195.5t-201 -76.5t-200.5 76.5t-79.5 195.5zM118 256q0 -96 62.5 -158.5t159.5 -62.5q96 0 159.5 62.5t63.5 158.5t-63.5 158.5t-159.5 62.5t-159 -62.5t-63 -158.5zM237 674l35 48l131 -103l-23 -32z" />
    <glyph glyph-name="oacute" unicode="&#xf3;" horiz-adv-x="681" 
d="M60 256q0 119 80 195.5t200 76.5t200.5 -76.5t80.5 -195.5t-80 -195.5t-201 -76.5t-200.5 76.5t-79.5 195.5zM118 256q0 -96 62.5 -158.5t159.5 -62.5q96 0 159.5 62.5t63.5 158.5t-63.5 158.5t-159.5 62.5t-159 -62.5t-63 -158.5zM408 722l35 -48l-143 -87l-23 32z" />
    <glyph glyph-name="ocircumflex" unicode="&#xf4;" horiz-adv-x="681" 
d="M60 256q0 119 80 195.5t200 76.5t200.5 -76.5t80.5 -195.5t-80 -195.5t-201 -76.5t-200.5 76.5t-79.5 195.5zM118 256q0 -96 62.5 -158.5t159.5 -62.5q96 0 159.5 62.5t63.5 158.5t-63.5 158.5t-159.5 62.5t-159 -62.5t-63 -158.5zM162 622l178 131l178 -131l-26 -35
l-152 112l-153 -112z" />
    <glyph glyph-name="otilde" unicode="&#xf5;" horiz-adv-x="681" 
d="M60 256q0 119 80 195.5t200 76.5t200.5 -76.5t80.5 -195.5t-80 -195.5t-201 -76.5t-200.5 76.5t-79.5 195.5zM118 256q0 -96 62.5 -158.5t159.5 -62.5q96 0 159.5 62.5t63.5 158.5t-63.5 158.5t-159.5 62.5t-159 -62.5t-63 -158.5zM93 640q21 36 58.5 66t86.5 30
q58 0 116 -45q45 -36 92 -36q62 0 108 78l33 -30q-21 -36 -58.5 -66t-86.5 -30q-58 0 -116 45q-45 36 -92 36q-62 0 -108 -78z" />
    <glyph glyph-name="odieresis" unicode="&#xf6;" horiz-adv-x="681" 
d="M60 256q0 119 80 195.5t200 76.5t200.5 -76.5t80.5 -195.5t-80 -195.5t-201 -76.5t-200.5 76.5t-79.5 195.5zM118 256q0 -96 62.5 -158.5t159.5 -62.5q96 0 159.5 62.5t63.5 158.5t-63.5 158.5t-159.5 62.5t-159 -62.5t-63 -158.5zM223 737q16 0 27 -11t11 -27t-11 -27
t-27 -11t-27 11t-11 27t11 27t27 11zM457 737q16 0 27 -11t11 -27t-11 -27t-27 -11t-27 11t-11 27t11 27t27 11z" />
    <glyph glyph-name="divide" unicode="&#xf7;" horiz-adv-x="660" 
d="M330 697q15 0 25.5 -10.5t10.5 -25.5t-10.5 -25.5t-25.5 -10.5t-25.5 10.5t-10.5 25.5t10.5 25.5t25.5 10.5zM74 440h512v-50h-512v50zM330 205q15 0 25.5 -10.5t10.5 -25.5t-10.5 -25.5t-25.5 -10.5t-25.5 10.5t-10.5 25.5t10.5 25.5t25.5 10.5z" />
    <glyph glyph-name="oslash" unicode="&#xf8;" horiz-adv-x="681" 
d="M621 256q0 -119 -80 -195.5t-200 -76.5q-126 0 -205 81l-98 -79l-24 28l98 79q-51 70 -51 163q0 119 80 195.5t200 76.5q125 0 206 -83l99 81l23 -28l-99 -80q51 -70 51 -162zM119 256q0 -73 37 -127l348 282q-64 66 -163 66q-96 0 -159 -62.5t-63 -158.5zM563 256
q0 72 -37 126l-347 -282q62 -65 162 -65q96 0 159 62.5t63 158.5z" />
    <glyph glyph-name="ugrave" unicode="&#xf9;" horiz-adv-x="602" 
d="M93 512h58v-293q0 -107 37 -146t113 -39t113 39t37 146v293h58v-302q0 -123 -50.5 -174.5t-157.5 -51.5t-157.5 51.5t-50.5 174.5v302zM198 674l35 48l131 -103l-23 -32z" />
    <glyph glyph-name="uacute" unicode="&#xfa;" horiz-adv-x="602" 
d="M93 512h58v-293q0 -107 37 -146t113 -39t113 39t37 146v293h58v-302q0 -123 -50.5 -174.5t-157.5 -51.5t-157.5 51.5t-50.5 174.5v302zM369 722l35 -48l-143 -87l-23 32z" />
    <glyph glyph-name="ucircumflex" unicode="&#xfb;" horiz-adv-x="602" 
d="M93 512h58v-293q0 -107 37 -146t113 -39t113 39t37 146v293h58v-302q0 -123 -50.5 -174.5t-157.5 -51.5t-157.5 51.5t-50.5 174.5v302zM123 622l178 131l178 -131l-26 -35l-152 112l-153 -112z" />
    <glyph glyph-name="udieresis" unicode="&#xfc;" horiz-adv-x="602" 
d="M93 512h58v-293q0 -107 37 -146t113 -39t113 39t37 146v293h58v-302q0 -123 -50.5 -174.5t-157.5 -51.5t-157.5 51.5t-50.5 174.5v302zM184 683q16 0 27 -11t11 -27t-11 -27t-27 -11t-27 11t-11 27t11 27t27 11zM418 683q16 0 27 -11t11 -27t-11 -27t-27 -11t-27 11
t-11 27t11 27t27 11z" />
    <glyph glyph-name="yacute" unicode="&#xfd;" horiz-adv-x="535" 
d="M0 512h66l211 -448l192 448h66l-345 -772h-65l119 263zM335 722l35 -48l-143 -87l-23 32z" />
    <glyph glyph-name="thorn" unicode="&#xfe;" horiz-adv-x="692" 
d="M630 256q0 -118 -72.5 -195t-182.5 -77q-71 0 -128.5 35.5t-88.5 96.5v-376h-58v1120h58v-463q31 61 88.5 96t128.5 35q110 0 182.5 -77t72.5 -195zM571 256q0 97 -59 159t-149 62t-149 -62t-59 -159t58.5 -159t149.5 -62t149.5 62t58.5 159z" />
    <glyph glyph-name="ydieresis" unicode="&#xff;" horiz-adv-x="535" 
d="M0 512h66l211 -448l192 448h66l-345 -772h-65l119 263zM160 683q16 0 27 -11t11 -27t-11 -27t-27 -11t-27 11t-11 27t11 27t27 11zM394 683q16 0 27 -11t11 -27t-11 -27t-27 -11t-27 11t-11 27t11 27t27 11z" />
    <glyph glyph-name="Amacron" unicode="&#x100;" horiz-adv-x="692" 
d="M318 825h56l324 -825h-65l-106 277h-362l-106 -277h-65zM185 330h322l-161 417zM142 989h408v-43h-408v43z" />
    <glyph glyph-name="amacron" unicode="&#x101;" 
d="M66 256q0 118 72.5 195t182.5 77q71 0 128.5 -35t88.5 -96v115h58v-512h-58v116q-31 -61 -88.5 -96.5t-128.5 -35.5q-110 0 -182.5 77t-72.5 195zM125 256q0 -97 58.5 -159t149.5 -62t149.5 62t58.5 159t-59 159t-149 62t-149 -62t-59 -159zM127 677h408v-43h-408v43z
" />
    <glyph glyph-name="Abreve" unicode="&#x102;" horiz-adv-x="692" 
d="M318 825h56l324 -825h-65l-106 277h-362l-106 -277h-65zM185 330h322l-161 417zM503 1109l45 -11q-14 -71 -69.5 -114.5t-132.5 -43.5t-132.5 43.5t-69.5 114.5l45 11q11 -52 53 -89t104 -37t104 37t53 89z" />
    <glyph glyph-name="abreve" unicode="&#x103;" 
d="M66 256q0 118 72.5 195t182.5 77q71 0 128.5 -35t88.5 -96v115h58v-512h-58v116q-31 -61 -88.5 -96.5t-128.5 -35.5q-110 0 -182.5 77t-72.5 195zM125 256q0 -97 58.5 -159t149.5 -62t149.5 62t58.5 159t-59 159t-149 62t-149 -62t-59 -159zM488 764l45 -11
q-14 -71 -69.5 -114.5t-132.5 -43.5t-132.5 43.5t-69.5 114.5l45 11q11 -52 53 -89t104 -37t104 37t53 89z" />
    <glyph glyph-name="Aogonek" unicode="&#x104;" horiz-adv-x="692" 
d="M559 -158q0 62 80 158h-6l-106 277h-362l-106 -277h-65l324 825h56l324 -825h-22q-76 -92 -76 -154q0 -38 24.5 -59.5t63.5 -21.5q58 0 106 52l28 -20q-2 -3 -5.5 -8t-16 -17t-27.5 -21.5t-38.5 -17.5t-49.5 -8q-57 0 -91.5 33.5t-34.5 83.5zM185 330h322l-161 417z" />
    <glyph glyph-name="aogonek" unicode="&#x105;" 
d="M458 -158q0 62 80 158v116q-31 -61 -88.5 -96.5t-128.5 -35.5q-110 0 -182.5 77t-72.5 195t72.5 195t182.5 77q71 0 128.5 -35t88.5 -96v115h58v-512h-21q-76 -92 -76 -154q0 -38 24.5 -59.5t63.5 -21.5q58 0 106 52l28 -20q-2 -3 -5.5 -8t-16 -17t-27.5 -21.5
t-38.5 -17.5t-49.5 -8q-57 0 -91.5 33.5t-34.5 83.5zM125 256q0 -97 58.5 -159t149.5 -62t149.5 62t58.5 159t-59 159t-149 62t-149 -62t-59 -159z" />
    <glyph glyph-name="Cacute" unicode="&#x106;" horiz-adv-x="811" 
d="M64 412q0 181 123.5 304.5t308.5 123.5q154 0 267 -86l-30 -50q-95 77 -232 77q-164 0 -268 -107t-104 -262t104 -262t268 -107q137 0 232 77l30 -50q-113 -86 -267 -86q-185 0 -308.5 123.5t-123.5 304.5zM491 1035l35 -48l-143 -87l-23 32z" />
    <glyph glyph-name="cacute" unicode="&#x107;" horiz-adv-x="574" 
d="M60 256q0 117 79.5 194.5t195.5 77.5q107 0 176 -58l-28 -41q-56 49 -143 49q-96 0 -159 -63t-63 -159t63 -159t159 -63q87 0 143 49l28 -41q-69 -58 -176 -58q-116 0 -195.5 77.5t-79.5 194.5zM353 722l35 -48l-143 -87l-23 32z" />
    <glyph glyph-name="Ccaron" unicode="&#x10c;" horiz-adv-x="811" 
d="M64 412q0 181 123.5 304.5t308.5 123.5q154 0 267 -86l-30 -50q-95 77 -232 77q-164 0 -268 -107t-104 -262t104 -262t268 -107q137 0 232 77l30 -50q-113 -86 -267 -86q-185 0 -308.5 123.5t-123.5 304.5zM288 1030l25 35l153 -112l152 112l26 -35l-178 -131z" />
    <glyph glyph-name="ccaron" unicode="&#x10d;" horiz-adv-x="574" 
d="M60 256q0 117 79.5 194.5t195.5 77.5q107 0 176 -58l-28 -41q-56 49 -143 49q-96 0 -159 -63t-63 -159t63 -159t159 -63q87 0 143 49l28 -41q-69 -58 -176 -58q-116 0 -195.5 77.5t-79.5 194.5zM127 718l25 35l153 -112l152 112l26 -35l-178 -131z" />
    <glyph glyph-name="Dcaron" unicode="&#x10e;" horiz-adv-x="763" 
d="M105 825h178q172 0 294 -117.5t122 -294.5q0 -178 -121.5 -295.5t-294.5 -117.5h-178v825zM165 771v-717h114q149 0 253.5 102.5t104.5 256.5q0 153 -105 255.5t-253 102.5h-114zM177 1030l25 35l153 -112l152 112l26 -35l-178 -131z" />
    <glyph glyph-name="dcaron" unicode="&#x10f;" 
d="M66 256q0 118 72.5 195t182.5 77q71 0 128.5 -35t88.5 -96v463h58v-860h-58v116q-31 -61 -88.5 -96.5t-128.5 -35.5q-110 0 -182.5 77t-72.5 195zM125 256q0 -97 58.5 -159t149.5 -62t149.5 62t58.5 159t-59 159t-149 62t-149 -62t-59 -159zM710 825q16 0 27 -11t11 -26
q0 -78 -56 -125l-12 10q24 33 26 80q-14 1 -23 11t-9 24q0 15 10.5 26t25.5 11z" />
    <glyph glyph-name="Dcroat" unicode="&#x110;" horiz-adv-x="763" 
d="M23 388v49h82v388h178q172 0 294 -117.5t122 -294.5q0 -178 -121.5 -295.5t-294.5 -117.5h-178v388h-82zM165 771v-334h237v-49h-237v-334h114q149 0 253.5 102.5t104.5 256.5q0 153 -105 255.5t-253 102.5h-114z" />
    <glyph glyph-name="dcroat" unicode="&#x111;" 
d="M326 665v41h212v154h58v-154h92v-41h-92v-665h-58v116q-31 -61 -88.5 -96.5t-128.5 -35.5q-110 0 -182.5 77t-72.5 195t72.5 195t182.5 77q71 0 128.5 -35t88.5 -96v268h-212zM125 256q0 -97 58.5 -159t149.5 -62t149.5 62t58.5 159t-59 159t-149 62t-149 -62t-59 -159z
" />
    <glyph glyph-name="Emacron" unicode="&#x112;" horiz-adv-x="582" 
d="M105 825h408v-53h-348v-332h336v-53h-336v-334h348v-53h-408v825zM105 988h408v-43h-408v43z" />
    <glyph glyph-name="emacron" unicode="&#x113;" horiz-adv-x="652" 
d="M60 256q0 113 78.5 192.5t188.5 79.5q111 0 188 -77.5t77 -193.5v-6h-475q0 -96 63 -156t157 -60q128 0 193 97l43 -24q-37 -60 -99 -92t-139 -32q-117 0 -196 77t-79 195zM119 291h416q-8 82 -66.5 134t-140.5 52q-84 0 -143 -52.5t-66 -133.5zM122 677h408v-43h-408v43
z" />
    <glyph glyph-name="Edotaccent" unicode="&#x116;" horiz-adv-x="582" 
d="M105 825h408v-53h-348v-332h336v-53h-336v-334h348v-53h-408v825zM309 995q15 0 26 -11t11 -27t-11 -27t-26 -11t-26 11t-11 27t11 27t26 11z" />
    <glyph glyph-name="edotaccent" unicode="&#x117;" horiz-adv-x="652" 
d="M60 256q0 113 78.5 192.5t188.5 79.5q111 0 188 -77.5t77 -193.5v-6h-475q0 -96 63 -156t157 -60q128 0 193 97l43 -24q-37 -60 -99 -92t-139 -32q-117 0 -196 77t-79 195zM119 291h416q-8 82 -66.5 134t-140.5 52q-84 0 -143 -52.5t-66 -133.5zM326 683q15 0 26 -11
t11 -27t-11 -27t-26 -11t-26 11t-11 27t11 27t26 11z" />
    <glyph glyph-name="Eogonek" unicode="&#x118;" horiz-adv-x="582" 
d="M276 -158q0 62 80 158h-251v825h408v-53h-348v-332h336v-53h-336v-334h348v-53h-120q-76 -92 -76 -154q0 -38 24.5 -59.5t63.5 -21.5q58 0 106 52l28 -20q-2 -3 -5.5 -8t-16 -17t-27.5 -21.5t-38.5 -17.5t-49.5 -8q-57 0 -91.5 33.5t-34.5 83.5z" />
    <glyph glyph-name="eogonek" unicode="&#x119;" horiz-adv-x="652" 
d="M278 -158q0 57 67 142h-10q-117 0 -196 77t-79 195q0 113 78.5 192.5t188.5 79.5q111 0 188 -77.5t77 -193.5v-6h-475q0 -96 63 -156t157 -60q128 0 193 97l43 -24q-64 -101 -188 -120q-66 -84 -66 -142q0 -38 24.5 -59.5t63.5 -21.5q58 0 106 52l28 -20q-2 -3 -5.5 -8
t-16 -17t-27.5 -21.5t-38.5 -17.5t-49.5 -8q-57 0 -91.5 33.5t-34.5 83.5zM119 291h416q-8 82 -66.5 134t-140.5 52q-84 0 -143 -52.5t-66 -133.5z" />
    <glyph glyph-name="Ecaron" unicode="&#x11a;" horiz-adv-x="582" 
d="M105 825h408v-53h-348v-332h336v-53h-336v-334h348v-53h-408v825zM131 1030l25 35l153 -112l152 112l26 -35l-178 -131z" />
    <glyph glyph-name="ecaron" unicode="&#x11b;" horiz-adv-x="652" 
d="M60 256q0 113 78.5 192.5t188.5 79.5q111 0 188 -77.5t77 -193.5v-6h-475q0 -96 63 -156t157 -60q128 0 193 97l43 -24q-37 -60 -99 -92t-139 -32q-117 0 -196 77t-79 195zM119 291h416q-8 82 -66.5 134t-140.5 52q-84 0 -143 -52.5t-66 -133.5zM148 718l25 35l153 -112
l152 112l26 -35l-178 -131z" />
    <glyph glyph-name="Gcommaaccent" unicode="&#x122;" horiz-adv-x="907" 
d="M466 -40q16 0 27 -11t11 -26q0 -78 -56 -125l-12 10q24 33 26 80q-14 1 -23 11t-9 24q0 15 10.5 26t25.5 11zM64 411q0 180 115 304.5t287 124.5q202 0 319 -141l-40 -43q-102 130 -277 130q-146 0 -246 -109t-100 -266q0 -153 102.5 -262.5t243.5 -109.5q128 0 223 79
t95 203v31h-320v50h382v-63q0 -160 -111 -257.5t-271 -97.5q-167 0 -284.5 125t-117.5 302z" />
    <glyph glyph-name="gcommaaccent" unicode="&#x123;" horiz-adv-x="702" 
d="M71 256q0 118 72.5 195t182.5 77q71 0 128.5 -35t88.5 -96v115h58v-526q0 -124 -71.5 -192.5t-203.5 -68.5q-192 0 -260 149l50 22q24 -53 79.5 -87.5t130.5 -34.5q100 0 158.5 57t58.5 150v135q-31 -61 -88.5 -96.5t-128.5 -35.5q-110 0 -182.5 77t-72.5 195zM130 256
q0 -97 58.5 -159t149.5 -62t149.5 62t58.5 159t-59 159t-149 62t-149 -62t-59 -159zM337 607q-16 0 -27 11t-11 26q0 78 56 125l12 -10q-24 -33 -26 -80q14 -1 23 -11t9 -24q0 -15 -10.5 -26t-25.5 -11z" />
    <glyph glyph-name="Imacron" unicode="&#x12a;" horiz-adv-x="270" 
d="M105 825h60v-825h-60v825zM-69 989h408v-43h-408v43z" />
    <glyph glyph-name="imacron" unicode="&#x12b;" horiz-adv-x="267" 
d="M108 512h58v-512h-58v512zM-67 677h408v-43h-408v43z" />
    <glyph glyph-name="Iogonek" unicode="&#x12e;" horiz-adv-x="270" 
d="M35 -158q0 62 80 158h-10v825h60v-825h-13q-76 -92 -76 -154q0 -38 24.5 -59.5t63.5 -21.5q58 0 106 52l28 -20q-2 -3 -5.5 -8t-16 -17t-27.5 -21.5t-38.5 -17.5t-49.5 -8q-57 0 -91.5 33.5t-34.5 83.5z" />
    <glyph glyph-name="iogonek" unicode="&#x12f;" horiz-adv-x="267" 
d="M39 -158q0 62 80 158h-11v512h58v-512h-10q-76 -92 -76 -154q0 -38 24.5 -59.5t63.5 -21.5q58 0 106 52l28 -20q-2 -3 -5.5 -8t-16 -17t-27.5 -21.5t-38.5 -17.5t-49.5 -8q-57 0 -91.5 33.5t-34.5 83.5zM137 697q17 0 29.5 -12.5t12.5 -29.5t-12.5 -29.5t-29.5 -12.5
t-29.5 12.5t-12.5 29.5t12.5 29.5t29.5 12.5z" />
    <glyph glyph-name="dotlessi" unicode="&#x131;" horiz-adv-x="267" 
d="M108 512h58v-512h-58v512z" />
    <glyph glyph-name="Kcommaaccent" unicode="&#x136;" horiz-adv-x="658" 
d="M340 -40q16 0 27 -11t11 -26q0 -78 -56 -125l-12 10q24 33 26 80q-14 1 -23 11t-9 24q0 15 10.5 26t25.5 11zM105 825h60v-401l387 401h73l-384 -398l422 -427h-83l-380 384l-35 -36v-348h-60v825z" />
    <glyph glyph-name="kcommaaccent" unicode="&#x137;" horiz-adv-x="467" 
d="M283 -40q16 0 27 -11t11 -26q0 -78 -56 -125l-12 10q24 33 26 80q-14 1 -23 11t-9 24q0 15 10.5 26t25.5 11zM101 860h58v-554l176 206h73l-168 -194l248 -318h-72l-213 275l-44 -50v-225h-58v860z" />
    <glyph glyph-name="Lacute" unicode="&#x139;" horiz-adv-x="552" 
d="M105 825h60v-772h354v-53h-414v825zM243 1035l35 -48l-143 -87l-23 32z" />
    <glyph glyph-name="lacute" unicode="&#x13a;" horiz-adv-x="260" 
d="M101 860h58v-860h-58v860zM238 1053l35 -48l-143 -87l-23 32z" />
    <glyph glyph-name="Lcommaaccent" unicode="&#x13b;" horiz-adv-x="552" 
d="M105 825h60v-772h354v-53h-414v825zM308 -40q16 0 27 -11t11 -26q0 -78 -56 -125l-12 10q24 33 26 80q-14 1 -23 11t-9 24q0 15 10.5 26t25.5 11z" />
    <glyph glyph-name="lcommaaccent" unicode="&#x13c;" horiz-adv-x="260" 
d="M101 860h58v-860h-58v860zM129 -40q16 0 27 -11t11 -26q0 -78 -56 -125l-12 10q24 33 26 80q-14 1 -23 11t-9 24q0 15 10.5 26t25.5 11z" />
    <glyph glyph-name="Lcaron" unicode="&#x13d;" horiz-adv-x="552" 
d="M105 825h60v-772h354v-53h-414v825zM432 825q16 0 27 -11t11 -26q0 -78 -56 -125l-12 10q24 33 26 80q-14 1 -23 11t-9 24q0 15 10.5 26t25.5 11z" />
    <glyph glyph-name="lcaron" unicode="&#x13e;" horiz-adv-x="260" 
d="M101 860h58v-860h-58v860zM264 825q16 0 27 -11t11 -26q0 -78 -56 -125l-12 10q24 33 26 80q-14 1 -23 11t-9 24q0 15 10.5 26t25.5 11z" />
    <glyph glyph-name="Lslash" unicode="&#x141;" horiz-adv-x="552" 
d="M105 825h60v-371l107 85v-49l-107 -85v-352h354v-53h-414v358l-82 -64v49l82 64v418z" />
    <glyph glyph-name="lslash" unicode="&#x142;" horiz-adv-x="260" 
d="M101 860h58v-351l92 73v-49l-92 -73v-460h-58v415l-92 -72v49l92 72v396z" />
    <glyph glyph-name="Nacute" unicode="&#x143;" horiz-adv-x="790" 
d="M105 825h60l460 -722v722h60v-825h-60l-460 721v-721h-60v825zM443 1035l35 -48l-143 -87l-23 32z" />
    <glyph glyph-name="nacute" unicode="&#x144;" horiz-adv-x="614" 
d="M101 512h58v-72q21 43 67.5 65.5t93.5 22.5q98 0 149.5 -54.5t51.5 -149.5v-324h-57v307q0 83 -38.5 128t-114.5 45q-67 0 -109.5 -43.5t-42.5 -97.5v-339h-58v512zM368 722l35 -48l-143 -87l-23 32z" />
    <glyph glyph-name="Ncommaaccent" unicode="&#x145;" horiz-adv-x="790" 
d="M105 825h60l460 -722v722h60v-825h-60l-460 721v-721h-60v825zM394 -40q16 0 27 -11t11 -26q0 -78 -56 -125l-12 10q24 33 26 80q-14 1 -23 11t-9 24q0 15 10.5 26t25.5 11z" />
    <glyph glyph-name="ncommaaccent" unicode="&#x146;" horiz-adv-x="614" 
d="M101 512h58v-72q21 43 67.5 65.5t93.5 22.5q98 0 149.5 -54.5t51.5 -149.5v-324h-57v307q0 83 -38.5 128t-114.5 45q-67 0 -109.5 -43.5t-42.5 -97.5v-339h-58v512zM310 -40q16 0 27 -11t11 -26q0 -78 -56 -125l-12 10q24 33 26 80q-14 1 -23 11t-9 24q0 15 10.5 26
t25.5 11z" />
    <glyph glyph-name="Ncaron" unicode="&#x147;" horiz-adv-x="790" 
d="M105 825h60l460 -722v722h60v-825h-60l-460 721v-721h-60v825zM217 1030l25 35l153 -112l152 112l26 -35l-178 -131z" />
    <glyph glyph-name="ncaron" unicode="&#x148;" horiz-adv-x="614" 
d="M101 512h58v-72q21 43 67.5 65.5t93.5 22.5q98 0 149.5 -54.5t51.5 -149.5v-324h-57v307q0 83 -38.5 128t-114.5 45q-67 0 -109.5 -43.5t-42.5 -97.5v-339h-58v512zM133 718l25 35l153 -112l152 112l26 -35l-178 -131z" />
    <glyph glyph-name="Omacron" unicode="&#x14c;" horiz-adv-x="960" 
d="M64 412q0 180 122 304t294 124t294 -124t122 -304t-122 -304t-294 -124t-294 124t-122 304zM128 412q0 -154 102.5 -262t249.5 -108t249.5 108t102.5 262t-102.5 262t-249.5 108t-249.5 -108t-102.5 -262zM276 989h408v-43h-408v43z" />
    <glyph glyph-name="omacron" unicode="&#x14d;" horiz-adv-x="681" 
d="M60 256q0 119 80 195.5t200 76.5t200.5 -76.5t80.5 -195.5t-80 -195.5t-201 -76.5t-200.5 76.5t-79.5 195.5zM118 256q0 -96 62.5 -158.5t159.5 -62.5q96 0 159.5 62.5t63.5 158.5t-63.5 158.5t-159.5 62.5t-159 -62.5t-63 -158.5zM136 677h408v-43h-408v43z" />
    <glyph glyph-name="Ohungarumlaut" unicode="&#x150;" horiz-adv-x="960" 
d="M64 412q0 180 122 304t294 124t294 -124t122 -304t-122 -304t-294 -124t-294 124t-122 304zM128 412q0 -154 102.5 -262t249.5 -108t249.5 108t102.5 262t-102.5 262t-249.5 108t-249.5 -108t-102.5 -262zM477 1038l35 -48l-143 -87l-23 32zM639 1038l35 -48l-143 -87
l-23 32z" />
    <glyph glyph-name="ohungarumlaut" unicode="&#x151;" horiz-adv-x="681" 
d="M60 256q0 119 80 195.5t200 76.5t200.5 -76.5t80.5 -195.5t-80 -195.5t-201 -76.5t-200.5 76.5t-79.5 195.5zM118 256q0 -96 62.5 -158.5t159.5 -62.5q96 0 159.5 62.5t63.5 158.5t-63.5 158.5t-159.5 62.5t-159 -62.5t-63 -158.5zM327 722l35 -48l-143 -87l-23 32z
M489 722l35 -48l-143 -87l-23 32z" />
    <glyph glyph-name="OE" unicode="&#x152;" horiz-adv-x="954" 
d="M61 412q0 173 122 293t294 120h408v-53h-348v-332h336v-53h-336v-334h348v-53h-408q-172 0 -294 119.5t-122 292.5zM477 56v713q-147 0 -249.5 -104t-102.5 -253t102 -252.5t250 -103.5z" />
    <glyph glyph-name="oe" unicode="&#x153;" horiz-adv-x="1150" 
d="M60 256q0 119 80 195.5t200 76.5q82 0 148.5 -38.5t101.5 -104.5q34 65 97 104t138 39q111 0 188 -77.5t77 -193.5v-6h-475q0 -96 63 -156t157 -60q128 0 193 97l43 -24q-37 -60 -99 -92t-139 -32q-80 0 -145 38t-99 103q-35 -66 -100.5 -103.5t-148.5 -37.5
q-121 0 -200.5 76.5t-79.5 195.5zM118 256q0 -96 62.5 -158.5t159.5 -62.5q96 0 159.5 62.5t63.5 158.5t-63.5 158.5t-159.5 62.5t-159 -62.5t-63 -158.5zM617 291h416q-8 82 -66.5 134t-140.5 52q-84 0 -143 -52.5t-66 -133.5z" />
    <glyph glyph-name="Racute" unicode="&#x154;" horiz-adv-x="639" 
d="M354 1024l35 -48l-143 -87l-23 32zM105 825h202q121 0 190.5 -61.5t69.5 -168.5q0 -99 -61 -163.5t-168 -72.5l275 -359h-76l-269 356h-103v-356h-60v825zM165 776v-369h130q97 0 154.5 51.5t57.5 135.5t-57 133t-155 49h-130z" />
    <glyph glyph-name="racute" unicode="&#x155;" horiz-adv-x="391" 
d="M101 512h58v-76q19 42 59 67t88 25q55 0 87 -16l-24 -49q-26 14 -73 14q-63 0 -100 -45t-37 -84v-348h-58v512zM295 722l35 -48l-143 -87l-23 32z" />
    <glyph glyph-name="Rcommaaccent" unicode="&#x156;" horiz-adv-x="639" 
d="M346 -40q16 0 27 -11t11 -26q0 -78 -56 -125l-12 10q24 33 26 80q-14 1 -23 11t-9 24q0 15 10.5 26t25.5 11zM105 825h202q121 0 190.5 -61.5t69.5 -168.5q0 -99 -61 -163.5t-168 -72.5l275 -359h-76l-269 356h-103v-356h-60v825zM165 776v-369h130q97 0 154.5 51.5
t57.5 135.5t-57 133t-155 49h-130z" />
    <glyph glyph-name="rcommaaccent" unicode="&#x157;" horiz-adv-x="391" 
d="M101 512h58v-76q19 42 59 67t88 25q55 0 87 -16l-24 -49q-26 14 -73 14q-63 0 -100 -45t-37 -84v-348h-58v512zM129 -40q16 0 27 -11t11 -26q0 -78 -56 -125l-12 10q24 33 26 80q-14 1 -23 11t-9 24q0 15 10.5 26t25.5 11z" />
    <glyph glyph-name="Rcaron" unicode="&#x158;" horiz-adv-x="639" 
d="M121 1030l25 35l153 -112l152 112l26 -35l-178 -131zM105 825h202q121 0 190.5 -61.5t69.5 -168.5q0 -99 -61 -163.5t-168 -72.5l275 -359h-76l-269 356h-103v-356h-60v825zM165 776v-369h130q97 0 154.5 51.5t57.5 135.5t-57 133t-155 49h-130z" />
    <glyph glyph-name="rcaron" unicode="&#x159;" horiz-adv-x="391" 
d="M101 512h58v-76q19 42 59 67t88 25q55 0 87 -16l-24 -49q-26 14 -73 14q-63 0 -100 -45t-37 -84v-348h-58v512zM69 718l25 35l153 -112l152 112l26 -35l-178 -131z" />
    <glyph glyph-name="Sacute" unicode="&#x15a;" horiz-adv-x="647" 
d="M112 621q0 95 65 157t158 62q88 0 144 -39t75 -93l-46 -20q-13 41 -58 69t-112 28q-78 0 -123.5 -49.5t-45.5 -113.5q0 -60 44.5 -96t124.5 -62q121 -40 180.5 -98.5t59.5 -151.5q0 -108 -68.5 -169t-180.5 -61q-58 0 -105 16.5t-77 43.5t-48.5 55t-28.5 59l51 22
q15 -52 69 -96t136 -44q84 0 137 44t53 128q0 71 -51 116.5t-166 83.5q-187 63 -187 209zM403 1035l35 -48l-143 -87l-23 32z" />
    <glyph glyph-name="sacute" unicode="&#x15b;" horiz-adv-x="474" 
d="M256 528q49 0 88 -27.5t51 -60.5l-44 -19q-13 26 -38 42.5t-57 16.5q-53 0 -80.5 -25t-27.5 -57q0 -34 27.5 -56t86.5 -41q158 -47 158 -160q0 -76 -52.5 -116.5t-130.5 -40.5q-68 0 -118 34.5t-69 88.5l46 28q18 -45 55.5 -71.5t85.5 -26.5q60 0 94.5 28.5t34.5 74.5
q0 80 -139 121q-132 39 -132 135q0 57 43 94.5t118 37.5zM314 722l35 -48l-143 -87l-23 32z" />
    <glyph glyph-name="Scedilla" unicode="&#x15e;" horiz-adv-x="647" 
d="M259 -127l36 113q-49 4 -89.5 21.5t-66.5 43.5t-43 52.5t-26 54.5l51 22q15 -52 69 -96t136 -44q84 0 137 44t53 128q0 71 -51 116.5t-166 83.5q-187 63 -187 209q0 95 65 157t158 62q88 0 144 -39t75 -93l-46 -20q-13 41 -58 69t-112 28q-78 0 -123.5 -49.5
t-45.5 -113.5q0 -60 44.5 -96t124.5 -62q121 -40 180.5 -98.5t59.5 -151.5q0 -107 -67 -167.5t-178 -62.5l-22 -66q24 4 39 4q45 -2 74.5 -31t29.5 -75q0 -48 -35 -79t-92 -31q-47 0 -82.5 22t-51.5 53l32 20q13 -24 40 -40t62 -16t60.5 18.5t25.5 52.5q0 33 -21.5 53.5
t-54.5 20.5q-43 0 -74 -20z" />
    <glyph glyph-name="scedilla" unicode="&#x15f;" horiz-adv-x="474" 
d="M173 -127l37 113q-58 7 -100.5 40t-59.5 81l46 28q18 -45 55.5 -71.5t85.5 -26.5q60 0 94.5 28.5t34.5 74.5q0 80 -139 121q-132 39 -132 135q0 57 43 94.5t118 37.5q49 0 88 -27.5t51 -60.5l-44 -19q-13 26 -38 42.5t-57 16.5q-53 0 -80.5 -25t-27.5 -57q0 -34 27.5 -56
t86.5 -41q158 -47 158 -160q0 -74 -49 -114t-124 -43l-22 -66q24 4 39 4q45 -2 74.5 -31t29.5 -75q0 -48 -35 -79t-92 -31q-47 0 -82.5 22t-51.5 53l32 20q13 -24 40 -40t62 -16t60.5 18.5t25.5 52.5q0 33 -21.5 53.5t-54.5 20.5q-43 0 -74 -20z" />
    <glyph glyph-name="Scaron" unicode="&#x160;" horiz-adv-x="647" 
d="M112 621q0 95 65 157t158 62q88 0 144 -39t75 -93l-46 -20q-13 41 -58 69t-112 28q-78 0 -123.5 -49.5t-45.5 -113.5q0 -60 44.5 -96t124.5 -62q121 -40 180.5 -98.5t59.5 -151.5q0 -108 -68.5 -169t-180.5 -61q-58 0 -105 16.5t-77 43.5t-48.5 55t-28.5 59l51 22
q15 -52 69 -96t136 -44q84 0 137 44t53 128q0 71 -51 116.5t-166 83.5q-187 63 -187 209zM157 1030l25 35l153 -112l152 112l26 -35l-178 -131z" />
    <glyph glyph-name="scaron" unicode="&#x161;" horiz-adv-x="474" 
d="M256 528q49 0 88 -27.5t51 -60.5l-44 -19q-13 26 -38 42.5t-57 16.5q-53 0 -80.5 -25t-27.5 -57q0 -34 27.5 -56t86.5 -41q158 -47 158 -160q0 -76 -52.5 -116.5t-130.5 -40.5q-68 0 -118 34.5t-69 88.5l46 28q18 -45 55.5 -71.5t85.5 -26.5q60 0 94.5 28.5t34.5 74.5
q0 80 -139 121q-132 39 -132 135q0 57 43 94.5t118 37.5zM78 718l25 35l153 -112l152 112l26 -35l-178 -131z" />
    <glyph glyph-name="Tcommaaccent" unicode="&#x162;" horiz-adv-x="582" 
d="M1 825h580v-53h-260v-772h-60v772h-260v53zM290 -46q16 0 27 -11t11 -26q0 -78 -56 -125l-12 10q24 33 26 80q-14 1 -23 11t-9 24q0 15 10.5 26t25.5 11z" />
    <glyph glyph-name="tcommaaccent" unicode="&#x163;" horiz-adv-x="315" 
d="M58 512h50v191h58v-191h130v-44h-130v-336q0 -50 13 -71.5t49 -21.5q14 0 28.5 4.5t21.5 9.5l7 5l15 -52q-28 -22 -80 -22q-65 0 -88.5 39t-23.5 102v343h-50v44zM201 -40q16 0 27 -11t11 -26q0 -78 -56 -125l-12 10q24 33 26 80q-14 1 -23 11t-9 24q0 15 10.5 26
t25.5 11z" />
    <glyph glyph-name="Tcaron" unicode="&#x164;" horiz-adv-x="582" 
d="M1 825h580v-53h-260v-772h-60v772h-260v53zM113 1030l25 35l153 -112l152 112l26 -35l-178 -131z" />
    <glyph glyph-name="tcaron" unicode="&#x165;" horiz-adv-x="315" 
d="M58 512h50v191h58v-191h130v-44h-130v-336q0 -50 13 -71.5t49 -21.5q14 0 28.5 4.5t21.5 9.5l7 5l15 -52q-28 -22 -80 -22q-65 0 -88.5 39t-23.5 102v343h-50v44zM293 825q16 0 27 -11t11 -26q0 -78 -56 -125l-12 10q24 33 26 80q-14 1 -23 11t-9 24q0 15 10.5 26
t25.5 11z" />
    <glyph glyph-name="Umacron" unicode="&#x16a;" horiz-adv-x="754" 
d="M96 825h60v-518q0 -264 221 -264t221 264v518h60v-529q0 -153 -72.5 -232.5t-208.5 -79.5t-208.5 79.5t-72.5 232.5v529zM173 989h408v-43h-408v43z" />
    <glyph glyph-name="umacron" unicode="&#x16b;" horiz-adv-x="602" 
d="M93 512h58v-293q0 -107 37 -146t113 -39t113 39t37 146v293h58v-302q0 -123 -50.5 -174.5t-157.5 -51.5t-157.5 51.5t-50.5 174.5v302zM97 677h408v-43h-408v43z" />
    <glyph glyph-name="Uring" unicode="&#x16e;" horiz-adv-x="754" 
d="M96 825h60v-518q0 -264 221 -264t221 264v518h60v-529q0 -153 -72.5 -232.5t-208.5 -79.5t-208.5 79.5t-72.5 232.5v529zM267 999q0 44 30.5 70.5t79.5 26.5t79.5 -26.5t30.5 -70.5t-30.5 -70.5t-79.5 -26.5t-79.5 26.5t-30.5 70.5zM308 999q0 -27 19.5 -44t49.5 -17
t49.5 17t19.5 44t-19.5 44t-49.5 17t-49.5 -17t-19.5 -44z" />
    <glyph glyph-name="uring" unicode="&#x16f;" horiz-adv-x="602" 
d="M93 512h58v-293q0 -107 37 -146t113 -39t113 39t37 146v293h58v-302q0 -123 -50.5 -174.5t-157.5 -51.5t-157.5 51.5t-50.5 174.5v302zM191 729q0 44 30.5 70.5t79.5 26.5t79.5 -26.5t30.5 -70.5t-30.5 -70.5t-79.5 -26.5t-79.5 26.5t-30.5 70.5zM232 729q0 -27 19.5 -44
t49.5 -17t49.5 17t19.5 44t-19.5 44t-49.5 17t-49.5 -17t-19.5 -44z" />
    <glyph glyph-name="Uhungarumlaut" unicode="&#x170;" horiz-adv-x="754" 
d="M96 825h60v-518q0 -264 221 -264t221 264v518h60v-529q0 -153 -72.5 -232.5t-208.5 -79.5t-208.5 79.5t-72.5 232.5v529zM374 1038l35 -48l-143 -87l-23 32zM536 1038l35 -48l-143 -87l-23 32z" />
    <glyph glyph-name="uhungarumlaut" unicode="&#x171;" horiz-adv-x="602" 
d="M93 512h58v-293q0 -107 37 -146t113 -39t113 39t37 146v293h58v-302q0 -123 -50.5 -174.5t-157.5 -51.5t-157.5 51.5t-50.5 174.5v302zM288 722l35 -48l-143 -87l-23 32zM450 722l35 -48l-143 -87l-23 32z" />
    <glyph glyph-name="Uogonek" unicode="&#x172;" horiz-adv-x="754" 
d="M270 -158q0 57 69 144q-118 11 -180.5 89.5t-62.5 220.5v529h60v-518q0 -264 221 -264t221 264v518h60v-529q0 -153 -72.5 -232.5t-208.5 -79.5h-3q-63 -83 -63 -138q0 -38 24.5 -59.5t63.5 -21.5q58 0 106 52l28 -20q-2 -3 -5.5 -8t-16 -17t-27.5 -21.5t-38.5 -17.5
t-49.5 -8q-57 0 -91.5 33.5t-34.5 83.5z" />
    <glyph glyph-name="uogonek" unicode="&#x173;" horiz-adv-x="602" 
d="M194 -158q0 57 69 144q-87 8 -128.5 60.5t-41.5 163.5v302h58v-293q0 -107 37 -146t113 -39t113 39t37 146v293h58v-302q0 -123 -50.5 -174.5t-157.5 -51.5h-3q-63 -83 -63 -138q0 -38 24.5 -59.5t63.5 -21.5q58 0 106 52l28 -20q-2 -3 -5.5 -8t-16 -17t-27.5 -21.5
t-38.5 -17.5t-49.5 -8q-57 0 -91.5 33.5t-34.5 83.5z" />
    <glyph glyph-name="Ydieresis" unicode="&#x178;" horiz-adv-x="610" 
d="M543 825h73l-281 -469v-356h-60v356l-281 469h73l238 -404zM188 1049q16 0 27 -11t11 -27t-11 -27t-27 -11t-27 11t-11 27t11 27t27 11zM422 1049q16 0 27 -11t11 -27t-11 -27t-27 -11t-27 11t-11 27t11 27t27 11z" />
    <glyph glyph-name="Zacute" unicode="&#x179;" horiz-adv-x="755" 
d="M100 825h611l-557 -770h530v-55h-641l558 770h-501v55zM483 1034l35 -48l-143 -87l-23 32z" />
    <glyph glyph-name="zacute" unicode="&#x17a;" horiz-adv-x="564" 
d="M67 512h468l-397 -463h387v-49h-496l396 463h-358v49zM369 722l35 -48l-143 -87l-23 32z" />
    <glyph glyph-name="Zdotaccent" unicode="&#x17b;" horiz-adv-x="755" 
d="M100 825h611l-557 -770h530v-55h-641l558 770h-501v55zM405 995q15 0 26 -11t11 -27t-11 -27t-26 -11t-26 11t-11 27t11 27t26 11z" />
    <glyph glyph-name="zdotaccent" unicode="&#x17c;" horiz-adv-x="564" 
d="M67 512h468l-397 -463h387v-49h-496l396 463h-358v49zM301 737q15 0 26 -11t11 -27t-11 -27t-26 -11t-26 11t-11 27t11 27t26 11z" />
    <glyph glyph-name="Zcaron" unicode="&#x17d;" horiz-adv-x="755" 
d="M100 825h611l-557 -770h530v-55h-641l558 770h-501v55zM228 1030l25 35l153 -112l152 112l26 -35l-178 -131z" />
    <glyph glyph-name="zcaron" unicode="&#x17e;" horiz-adv-x="564" 
d="M67 512h468l-397 -463h387v-49h-496l396 463h-358v49zM123 718l25 35l153 -112l152 112l26 -35l-178 -131z" />
    <glyph glyph-name="Scommaaccent" unicode="&#x218;" horiz-adv-x="647" 
d="M112 621q0 95 65 157t158 62q88 0 144 -39t75 -93l-46 -20q-13 41 -58 69t-112 28q-78 0 -123.5 -49.5t-45.5 -113.5q0 -60 44.5 -96t124.5 -62q121 -40 180.5 -98.5t59.5 -151.5q0 -108 -68.5 -169t-180.5 -61q-58 0 -105 16.5t-77 43.5t-48.5 55t-28.5 59l51 22
q15 -52 69 -96t136 -44q84 0 137 44t53 128q0 71 -51 116.5t-166 83.5q-187 63 -187 209zM329 -40q16 0 27 -11t11 -26q0 -78 -56 -125l-12 10q24 33 26 80q-14 1 -23 11t-9 24q0 15 10.5 26t25.5 11z" />
    <glyph glyph-name="scommaaccent" unicode="&#x219;" horiz-adv-x="474" 
d="M256 528q49 0 88 -27.5t51 -60.5l-44 -19q-13 26 -38 42.5t-57 16.5q-53 0 -80.5 -25t-27.5 -57q0 -34 27.5 -56t86.5 -41q158 -47 158 -160q0 -76 -52.5 -116.5t-130.5 -40.5q-68 0 -118 34.5t-69 88.5l46 28q18 -45 55.5 -71.5t85.5 -26.5q60 0 94.5 28.5t34.5 74.5
q0 80 -139 121q-132 39 -132 135q0 57 43 94.5t118 37.5zM237 -40q16 0 27 -11t11 -26q0 -78 -56 -125l-12 10q24 33 26 80q-14 1 -23 11t-9 24q0 15 10.5 26t25.5 11z" />
    <glyph glyph-name="circumflex" unicode="&#x2c6;" horiz-adv-x="515" 
d="M79 709l178 131l178 -131l-26 -35l-152 112l-153 -112z" />
    <glyph glyph-name="caron" unicode="&#x2c7;" horiz-adv-x="443" 
d="M43 805l25 35l153 -112l152 112l26 -35l-178 -131z" />
    <glyph glyph-name="breve" unicode="&#x2d8;" horiz-adv-x="551" 
d="M432 840l45 -11q-14 -71 -69.5 -114.5t-132.5 -43.5t-132.5 43.5t-69.5 114.5l45 11q11 -52 53 -89t104 -37t104 37t53 89z" />
    <glyph glyph-name="dotaccent" unicode="&#x2d9;" horiz-adv-x="193" 
d="M96 737q15 0 26 -11t11 -27t-11 -27t-26 -11t-26 11t-11 27t11 27t26 11z" />
    <glyph glyph-name="ring" unicode="&#x2da;" horiz-adv-x="366" 
d="M73 733q0 44 30.5 70.5t79.5 26.5t79.5 -26.5t30.5 -70.5t-30.5 -70.5t-79.5 -26.5t-79.5 26.5t-30.5 70.5zM114 733q0 -27 19.5 -44t49.5 -17t49.5 17t19.5 44t-19.5 44t-49.5 17t-49.5 -17t-19.5 -44z" />
    <glyph glyph-name="ogonek" unicode="&#x2db;" horiz-adv-x="364" 
d="M87 -158q0 35 26 81t52 75l26 28l26 -12q-30 -32 -59.5 -80t-29.5 -88q0 -38 24.5 -59.5t63.5 -21.5q58 0 106 52l28 -20q-2 -3 -5.5 -8t-16 -17t-27.5 -21.5t-38.5 -17.5t-49.5 -8q-57 0 -91.5 33.5t-34.5 83.5z" />
    <glyph glyph-name="tilde" unicode="&#x2dc;" horiz-adv-x="572" 
d="M269 685q-45 36 -92 36q-62 0 -108 -78l-33 30q21 36 58.5 66t86.5 30q58 0 116 -45q45 -36 92 -36q62 0 108 78l33 -30q-21 -36 -58.5 -66t-86.5 -30q-58 0 -116 45z" />
    <glyph glyph-name="hungarumlaut" unicode="&#x2dd;" horiz-adv-x="461" 
d="M197 840l35 -48l-143 -87l-23 32zM359 840l35 -48l-143 -87l-23 32z" />
    <glyph glyph-name="endash" unicode="&#x2013;" horiz-adv-x="590" 
d="M89 314h418v-49h-418v49z" />
    <glyph glyph-name="emdash" unicode="&#x2014;" horiz-adv-x="988" 
d="M89 314h817v-49h-817v49z" />
    <glyph glyph-name="quoteleft" unicode="&#x2018;" horiz-adv-x="175" 
d="M89 660q-17 0 -29.5 12.5t-12.5 29.5q0 83 63 138l14 -12q-26 -43 -29 -86q15 -2 25.5 -13t10.5 -27q0 -17 -12.5 -29.5t-29.5 -12.5z" />
    <glyph glyph-name="quoteright" unicode="&#x2019;" horiz-adv-x="175" 
d="M86 840q17 0 29.5 -12.5t12.5 -29.5q0 -83 -63 -138l-14 12q26 43 29 86q-15 2 -25.5 13t-10.5 27q0 17 12.5 29.5t29.5 12.5z" />
    <glyph glyph-name="quotesinglbase" unicode="&#x201a;" horiz-adv-x="186" 
d="M99 68q17 0 29.5 -12.5t12.5 -29.5q0 -83 -63 -138l-14 12q26 43 29 86q-15 2 -25.5 13t-10.5 27q0 17 12.5 29.5t29.5 12.5z" />
    <glyph glyph-name="quotedblleft" unicode="&#x201c;" horiz-adv-x="293" 
d="M89 660q-17 0 -29.5 12.5t-12.5 29.5q0 83 63 138l14 -12q-26 -43 -29 -86q15 -2 25.5 -13t10.5 -27q0 -17 -12.5 -29.5t-29.5 -12.5zM207 660q-17 0 -29.5 12.5t-12.5 29.5q0 83 63 138l14 -12q-26 -43 -29 -86q15 -2 25.5 -13t10.5 -27q0 -17 -12.5 -29.5t-29.5 -12.5z
" />
    <glyph glyph-name="quotedblright" unicode="&#x201d;" horiz-adv-x="293" 
d="M204 840q17 0 29.5 -12.5t12.5 -29.5q0 -83 -63 -138l-14 12q26 43 29 86q-15 2 -25.5 13t-10.5 27q0 17 12.5 29.5t29.5 12.5zM86 840q17 0 29.5 -12.5t12.5 -29.5q0 -83 -63 -138l-14 12q26 43 29 86q-15 2 -25.5 13t-10.5 27q0 17 12.5 29.5t29.5 12.5z" />
    <glyph glyph-name="quotedblbase" unicode="&#x201e;" horiz-adv-x="288" 
d="M204 66q17 0 29.5 -12.5t12.5 -29.5q0 -83 -63 -138l-14 12q26 43 29 86q-15 2 -25.5 13t-10.5 27q0 17 12.5 29.5t29.5 12.5zM86 66q17 0 29.5 -12.5t12.5 -29.5q0 -83 -63 -138l-14 12q26 43 29 86q-15 2 -25.5 13t-10.5 27q0 17 12.5 29.5t29.5 12.5z" />
    <glyph glyph-name="dagger" unicode="&#x2020;" horiz-adv-x="392" 
d="M-5 607h174v253h53v-253h175v-50h-175v-557h-53v557h-174v50z" />
    <glyph glyph-name="daggerdbl" unicode="&#x2021;" horiz-adv-x="392" 
d="M-5 603h174v257h53v-257h175v-50h-175v-230h175v-50h-175v-273h-53v273h-174v50h174v230h-174v50z" />
    <glyph glyph-name="bullet" unicode="&#x2022;" horiz-adv-x="280" 
d="M140 419q26 0 44.5 -18t18.5 -44t-18.5 -44t-44.5 -18t-44.5 18t-18.5 44t18.5 44t44.5 18z" />
    <glyph glyph-name="ellipsis" unicode="&#x2026;" horiz-adv-x="503" 
d="M99 68q17 0 29.5 -12.5t12.5 -29.5t-12.5 -29.5t-29.5 -12.5t-29.5 12.5t-12.5 29.5t12.5 29.5t29.5 12.5zM251 68q17 0 29.5 -12.5t12.5 -29.5t-12.5 -29.5t-29.5 -12.5t-29.5 12.5t-12.5 29.5t12.5 29.5t29.5 12.5zM403 68q17 0 29.5 -12.5t12.5 -29.5t-12.5 -29.5
t-29.5 -12.5t-29.5 12.5t-12.5 29.5t12.5 29.5t29.5 12.5z" />
    <glyph glyph-name="perthousand" unicode="&#x2030;" horiz-adv-x="1487" 
d="M242 0l480 825h43l-480 -825h-43zM51 643q0 86 58 141.5t145 55.5t145 -55.5t58 -141.5q0 -87 -57.5 -142t-145.5 -55t-145.5 55t-57.5 142zM92 643q0 -71 45.5 -114t116.5 -43t116.5 43t45.5 114t-45.5 114t-116.5 43t-116.5 -43t-45.5 -114zM550 181q0 86 58 141.5
t145 55.5t145 -55.5t58 -141.5q0 -87 -57.5 -142t-145.5 -55t-145.5 55t-57.5 142zM591 181q0 -71 45.5 -114t116.5 -43t116.5 43t45.5 114t-45.5 114t-116.5 43t-116.5 -43t-45.5 -114zM1030 181q0 86 58 141.5t145 55.5t145 -55.5t58 -141.5q0 -87 -57.5 -142t-145.5 -55
t-145.5 55t-57.5 142zM1071 181q0 -71 45.5 -114t116.5 -43t116.5 43t45.5 114t-45.5 114t-116.5 43t-116.5 -43t-45.5 -114z" />
    <glyph glyph-name="guilsinglleft" unicode="&#x2039;" horiz-adv-x="275" 
d="M15 278l195 250l37 -29l-173 -221l173 -221l-37 -29z" />
    <glyph glyph-name="guilsinglright" unicode="&#x203a;" horiz-adv-x="275" 
d="M28 499l37 29l195 -250l-195 -250l-37 29l173 221z" />
    <glyph glyph-name="fraction" unicode="&#x2044;" horiz-adv-x="263" 
d="M-130 0l480 825h43l-480 -825h-43z" />
    <glyph glyph-name="Euro" unicode="&#x20ac;" horiz-adv-x="826" 
d="M6 516h84q35 142 152.5 233t266.5 91q164 0 265 -87l-30 -51q-87 79 -229 79q-127 0 -224.5 -74t-129.5 -191h468v-40h-481q-6 -32 -6 -63q0 -33 6 -66h481v-40h-469q31 -117 126.5 -190t228.5 -73q142 0 230 77l30 -50q-98 -86 -266 -86q-155 0 -270 90t-149 232h-84v40
h76q-5 37 -5 66q0 28 5 63h-76v40z" />
    <glyph glyph-name="trademark" unicode="&#x2122;" horiz-adv-x="503" 
d="M17 825h182v-17h-81v-241h-19v241h-82v17zM237 825h20l79 -210l78 210h20l35 -258h-19l-31 222l-76 -205h-15l-76 205l-31 -222h-19z" />
    <glyph glyph-name="minus" unicode="&#x2212;" horiz-adv-x="612" 
d="M50 440h512v-50h-512v50z" />
    <glyph glyph-name="notequal" unicode="&#x2260;" horiz-adv-x="614" 
d="M51 537h278l88 151h43l-88 -151h191v-50h-221l-84 -145h305v-50h-333l-90 -155h-43l90 155h-136v50h164l84 145h-248v50z" />
    <glyph glyph-name="lessequal" unicode="&#x2264;" horiz-adv-x="613" 
d="M16 128h547v-50h-547v50zM16 517l547 262v-47l-488 -235l488 -234v-46l-547 262v38z" />
    <glyph glyph-name="greaterequal" unicode="&#x2265;" horiz-adv-x="613" 
d="M50 128h547v-50h-547v50zM597 517v-38l-547 -262v46l489 234l-489 235v47z" />
    <glyph glyph-name="M.1" horiz-adv-x="902" 
d="M105 825h67l279 -670l279 670h67v-825h-60v686l-263 -631h-46l-263 631v-686h-60v825z" />
    <glyph glyph-name="Q.1" horiz-adv-x="962" 
d="M65 413q0 180 122 303.5t294 123.5t294 -123.5t122 -303.5q0 -148 -83 -260t-216 -152q14 -2 40 -8t48 -10t42 -4q38 0 69 13.5t43 27.5l12 13l19 -40q-2 -3 -5 -8t-15 -17t-27 -21.5t-41 -17.5t-56 -8q-51 0 -125 20.5t-150 20.5q-32 0 -62.5 -9t-50.5 -22t-35.5 -26.5
t-23.5 -22.5l-7 -9l-14 21q6 9 17.5 22.5t47 40.5t71.5 36q-144 31 -237 147.5t-93 272.5zM129 413q0 -152 102.5 -261.5t249.5 -109.5t249.5 109.5t102.5 261.5q0 154 -102 261.5t-250 107.5t-250 -107.5t-102 -261.5z" />
    <glyph glyph-name="R.1" horiz-adv-x="691" 
d="M105 825h202q121 0 190.5 -61.5t69.5 -168.5q0 -99 -61 -163.5t-168 -72.5l218 -287q31 -31 48 -31q13 0 23.5 3.5t14.5 7.5l5 3l18 -46q-23 -24 -68 -24q-24 0 -44.5 11t-28.5 22l-9 11l-247 327h-103v-356h-60v825zM165 776v-369h130q97 0 154.5 51.5t57.5 135.5
t-57 133t-155 49h-130z" />
    <glyph glyph-name="a.1" horiz-adv-x="590" 
d="M66 147q0 73 56.5 120t143.5 47q116 0 171 -70v65q0 81 -44 126t-121 45q-93 0 -147 -65l-27 37q65 76 174 76q105 0 164.5 -57t59.5 -156v-315h-59v54q-57 -70 -170 -70q-86 0 -143.5 45.5t-57.5 117.5zM122 151q0 -55 46.5 -90t113.5 -35t113 35t46 90q0 54 -46 88.5
t-113 34.5q-68 0 -114 -34t-46 -89z" />
    <glyph glyph-name="j.1" horiz-adv-x="260" 
d="M101 512h58v-772h-58v772zM130 697q17 0 29.5 -12.5t12.5 -29.5t-12.5 -29.5t-29.5 -12.5t-29.5 12.5t-12.5 29.5t12.5 29.5t29.5 12.5z" />
    <glyph glyph-name="t.1" horiz-adv-x="295" 
d="M102 703h57v-191h115v-44h-115v-468h-57v468h-66v44h66v191z" />
    <glyph glyph-name="u.1" horiz-adv-x="614" 
d="M513 0h-58v72q-21 -43 -67.5 -65.5t-93.5 -22.5q-98 0 -149.5 54.5t-51.5 149.5v324h57v-307q0 -83 38.5 -128t114.5 -45q67 0 109.5 43.5t42.5 97.5v339h58v-512z" />
    </font>
</defs>
</svg>
