<?xml version="1.0" standalone="no"?>
<!DOCTYPE svg PUBLIC "-//W3C//DTD SVG 1.1//EN" "http://www.w3.org/Graphics/SVG/1.1/DTD/svg11.dtd" >
<svg xmlns="http://www.w3.org/2000/svg" xmlns:xlink="http://www.w3.org/1999/xlink" version="1.1">
<metadata>
Created by FontForge 20170731 at Sat Nov 18 18:13:13 2017
 By Aleksey,,,
Copyright (c) 2017 by Matt Bailey. All rights reserved.
</metadata>
<defs>
<font id="SpartanMB-ExtraBold" horiz-adv-x="683" >
  <font-face 
    font-family="Spartan MB"
    font-weight="800"
    font-stretch="normal"
    units-per-em="1000"
    panose-1="0 0 5 3 8 0 0 2 0 3"
    ascent="800"
    descent="-200"
    x-height="512"
    cap-height="825"
    bbox="-167 -380 1446 1187"
    underline-thickness="50"
    underline-position="-200"
    unicode-range="U+000D-FB04"
  />
<missing-glyph horiz-adv-x="342" 
 />
    <glyph glyph-name="ff" unicode="ff" horiz-adv-x="750" 
d="M36 512h74v110q1 115 54 184t147 69q40 0 76.5 -11.5t52.5 -23.5l17 -11l-62 -125q-24 14 -53 14q-33 0 -44 -22.5t-11 -78.5v-105h178v110q1 115 54 184t147 69q40 0 76.5 -11.5t53.5 -23.5l16 -11l-62 -125q-24 14 -53 14q-33 0 -44 -22.5t-11 -78.5v-105h118v-135
h-118v-377h-177v377h-178v-377h-177v377h-74v135z" />
    <glyph glyph-name="fi" unicode="fi" horiz-adv-x="672" 
d="M16 512h74v110q1 116 55 184.5t156 68.5q39 0 77 -8.5t64.5 -21t47.5 -24.5t32 -21l10 -8l-62 -125q-64 52 -117 52q-51 0 -68.5 -23t-17.5 -79v-105h345v-512h-177v377h-168v-377h-177v377h-74v135z" />
    <glyph glyph-name="fl" unicode="fl" horiz-adv-x="672" 
d="M16 512h74v110q1 115 54 184t147 69q70 0 125 -32l-41 -139q-24 14 -53 14q-33 0 -44 -22.5t-11 -78.5v-105h118v-135h-118v-377h-177v377h-74v135zM435 860h177v-860h-177v860z" />
    <glyph glyph-name="ffi" unicode="ffi" horiz-adv-x="1047" 
d="M36 512h74v110q1 115 54 184t147 69q40 0 76.5 -11.5t52.5 -23.5l17 -11l-62 -125q-24 14 -53 14q-33 0 -44 -22.5t-11 -78.5v-105h178v110q1 116 55 184.5t156 68.5q39 0 77 -8.5t64.5 -21t47.5 -24.5t31 -21l11 -8l-62 -125q-64 52 -117 52q-51 0 -68.5 -23t-17.5 -79
v-105h345v-512h-177v377h-168v-377h-177v377h-178v-377h-177v377h-74v135z" />
    <glyph glyph-name="ffl" unicode="ffl" horiz-adv-x="1047" 
d="M36 512h74v110q1 115 54 184t147 69q40 0 76.5 -11.5t52.5 -23.5l17 -11l-62 -125q-24 14 -53 14q-33 0 -44 -22.5t-11 -78.5v-105h178v110q1 115 54 184t147 69q70 0 125 -32l-41 -139q-24 14 -53 14q-33 0 -44 -22.5t-11 -78.5v-105h118v-135h-118v-377h-177v377h-178
v-377h-177v377h-74v135zM810 860h177v-860h-177v860z" />
    <glyph glyph-name="ft" unicode="ft" horiz-adv-x="740" 
d="M16 512h74v110q1 115 54 184t147 69q40 0 76.5 -11.5t52.5 -23.5l17 -11l-62 -125q-24 14 -53 14q-33 0 -44 -22.5t-11 -78.5v-105h168v192h177v-192h108v-135h-108v-162q0 -71 40 -71q10 0 21 4t17 8l6 4l44 -143q-57 -32 -130 -32q-50 0 -86 17.5t-54.5 47t-26.5 62
t-8 69.5v196h-168v-377h-177v377h-74v135z" />
    <glyph glyph-name="fj" unicode="fj" horiz-adv-x="672" 
d="M16 512h74v110q1 116 55 184.5t156 68.5q39 0 77 -8.5t64.5 -21t47.5 -24.5t32 -21l10 -8l-62 -125q-64 52 -117 52q-51 0 -68.5 -23t-17.5 -79v-105h345v-591q0 -37 -9.5 -69.5t-29.5 -62t-58 -47t-88 -17.5q-20 0 -38 2t-30 4t-25 6t-18.5 6.5l-16.5 7.5t-13 6l55 143
q23 -15 45 -15q49 0 49 70v422h-168v-377h-177v377h-74v135z" />
    <glyph glyph-name="fft" unicode="fft" horiz-adv-x="1115" 
d="M36 512h74v110q1 115 54 184t147 69q40 0 76.5 -11.5t52.5 -23.5l17 -11l-62 -125q-24 14 -53 14q-33 0 -44 -22.5t-11 -78.5v-105h178v110q1 115 54 184t147 69q40 0 76.5 -11.5t53.5 -23.5l16 -11l-62 -125q-24 14 -53 14q-33 0 -44 -22.5t-11 -78.5v-105h168v192h177
v-192h108v-135h-108v-162q0 -71 40 -71q10 0 21 4t17 8l6 4l44 -143q-57 -32 -130 -32q-50 0 -86 17.5t-54.5 47t-26.5 62t-8 69.5v196h-168v-377h-177v377h-178v-377h-177v377h-74v135z" />
    <glyph glyph-name="ffj" unicode="ffj" horiz-adv-x="1047" 
d="M36 512h74v110q1 115 54 184t147 69q40 0 76.5 -11.5t52.5 -23.5l17 -11l-62 -125q-24 14 -53 14q-33 0 -44 -22.5t-11 -78.5v-105h178v110q1 116 55 184.5t156 68.5q39 0 77 -8.5t64.5 -21t47.5 -24.5t31 -21l11 -8l-62 -125q-64 52 -117 52q-51 0 -68.5 -23t-17.5 -79
v-105h345v-591q0 -37 -9.5 -69.5t-29.5 -62t-58 -47t-88 -17.5q-20 0 -38 2t-30 4t-25 6t-18.5 6.5l-16.5 7.5t-13 6l55 143q23 -15 45 -15q49 0 49 70v422h-168v-377h-177v377h-178v-377h-177v377h-74v135z" />
    <glyph glyph-name=".notdef" horiz-adv-x="342" 
 />
    <glyph glyph-name=".null" horiz-adv-x="0" 
 />
    <glyph glyph-name="nonmarkingreturn" horiz-adv-x="333" 
 />
    <glyph glyph-name="NULL" horiz-adv-x="0" 
 />
    <glyph glyph-name="NULL" horiz-adv-x="0" 
 />
    <glyph glyph-name="CR" unicode="&#xd;" horiz-adv-x="273" 
 />
    <glyph glyph-name="space" unicode=" " horiz-adv-x="273" 
 />
    <glyph glyph-name="exclam" unicode="!" horiz-adv-x="349" 
d="M86 860h177l-24 -590h-129zM174 213q48 0 81.5 -33.5t33.5 -81.5q0 -47 -33.5 -80.5t-81.5 -33.5q-47 0 -80.5 33.5t-33.5 80.5q0 48 33.5 81.5t80.5 33.5z" />
    <glyph glyph-name="quotedbl" unicode="&#x22;" horiz-adv-x="513" 
d="M60 840h170l-32 -366h-106zM283 840h170l-32 -366h-106z" />
    <glyph glyph-name="numbersign" unicode="#" horiz-adv-x="833" 
d="M68 607h147l27 218h121l-27 -218h171l27 218h121l-27 -218h102v-121h-116l-18 -146h134v-121h-149l-26 -219h-121l26 219h-171l-26 -219h-121l26 219h-100v121h115l18 146h-133v121zM322 486l-18 -146h171l18 146h-171z" />
    <glyph glyph-name="dollar" unicode="$" horiz-adv-x="672" 
d="M23 94l94 158q12 -10 33 -25.5t74.5 -41.5t94.5 -26q119 0 119 81q0 17 -8.5 31.5t-30 29t-38 23t-54 26t-55.5 26.5q-75 37 -116 92.5t-41 119.5q0 95 61.5 161.5t150.5 85.5v128h108v-125q54 -7 105.5 -26t75.5 -34l24 -16l-76 -150q-9 6 -25 16t-60 26t-82 16
q-47 0 -72.5 -20.5t-25.5 -54.5q0 -17 12 -31.5t41 -31t51 -26.5t68 -30q80 -34 136.5 -92.5t56.5 -132.5q0 -115 -63 -179t-166 -80v-130h-108v124q-50 3 -97.5 15t-80 27t-57.5 30t-37 26z" />
    <glyph glyph-name="percent" unicode="%" horiz-adv-x="981" 
d="M23 643q0 86 64 141.5t159 55.5q93 0 156 -55.5t63 -141.5t-61.5 -141.5t-157.5 -55.5q-100 0 -161.5 55.5t-61.5 141.5zM193 0l480 825h118l-480 -825h-118zM152 643q0 -40 25.5 -65.5t66.5 -25.5q39 0 64.5 25.5t25.5 65.5t-26 66.5t-64 26.5q-39 0 -65.5 -26.5
t-26.5 -66.5zM516 182q0 86 61.5 141.5t161.5 55.5q96 0 157.5 -55.5t61.5 -141.5t-63 -141.5t-156 -55.5q-95 0 -159 55.5t-64 141.5zM645 182q0 -40 26.5 -66.5t65.5 -26.5q38 0 64 26.5t26 66.5t-25.5 65.5t-64.5 25.5q-41 0 -66.5 -25.5t-25.5 -65.5z" />
    <glyph glyph-name="ampersand" unicode="&#x26;" horiz-adv-x="833" 
d="M29 217q0 37 17 71t48 62t63 49t73 43q-83 104 -83 183q0 98 68.5 156.5t194.5 58.5q116 0 180.5 -65t64.5 -150q0 -35 -17 -68.5t-40.5 -57t-47.5 -41.5t-41 -27l-17 -9l110 -114q36 16 121 104l116 -114q-56 -64 -117 -113l178 -185h-237l-82 85q-51 -36 -75.5 -51.5
t-77.5 -32.5t-112 -17q-50 0 -97 11.5t-91.5 36t-71.5 72.5t-27 113zM338 625q0 -21 15 -46.5t30 -40.5l15 -14q92 50 92 101q0 82 -80 82q-36 0 -54 -23t-18 -59zM242 232q0 -33 28 -51t65 -18q30 0 61 11.5t47 23.5l16 12l-131 129q-3 -1 -9 -3.5t-21 -12t-26 -21
t-20.5 -30.5t-9.5 -40z" />
    <glyph glyph-name="quotesingle" unicode="'" horiz-adv-x="290" 
d="M60 840h170l-32 -365h-106z" />
    <glyph glyph-name="parenleft" unicode="(" horiz-adv-x="403" 
d="M55 307q0 98 18 193t43.5 159.5t51.5 115.5t44 75l18 25l115 -49q-5 -7 -13.5 -20.5t-30.5 -62t-39 -103.5t-30.5 -145.5t-13.5 -187.5t13 -186.5t32 -147t37.5 -101.5t31.5 -64l13 -19l-115 -49q-7 9 -19 25.5t-42 73t-53 117.5t-42 157t-19 194z" />
    <glyph glyph-name="parenright" unicode=")" horiz-adv-x="403" 
d="M348 307q0 -98 -18 -192.5t-44 -159.5t-51.5 -115.5t-43.5 -75.5l-18 -24l-115 49q5 7 13.5 20.5t30.5 61.5t39 103t30.5 145.5t13.5 187.5t-13 186.5t-32 147.5t-37.5 102t-31.5 63l-13 20l115 49q7 -9 19 -25.5t42 -73t53 -118t42 -157.5t19 -194z" />
    <glyph glyph-name="asterisk" unicode="*" horiz-adv-x="488" 
d="M200 860h88v-117l114 35l26 -80l-114 -41l66 -99l-66 -45l-70 91l-70 -91l-66 45l66 99l-114 41l26 80l114 -35v117z" />
    <glyph glyph-name="plus" unicode="+" horiz-adv-x="632" 
d="M240 671h152v-180h180v-152h-180v-180h-152v180h-180v152h180v180z" />
    <glyph glyph-name="comma" unicode="," horiz-adv-x="349" 
d="M174 214q48 0 81.5 -33.5t33.5 -81.5q0 -148 -168 -287l-51 42q7 6 17.5 18t31 48.5t27.5 73.5q-38 9 -62 37.5t-24 67.5q0 48 33.5 81.5t80.5 33.5z" />
    <glyph glyph-name="hyphen" unicode="-" horiz-adv-x="442" 
d="M60 366h322v-153h-322v153z" />
    <glyph glyph-name="period" unicode="." horiz-adv-x="349" 
d="M174 213q48 0 81.5 -33.5t33.5 -81.5q0 -47 -33.5 -80.5t-81.5 -33.5q-47 0 -80.5 33.5t-33.5 80.5q0 48 33.5 81.5t80.5 33.5z" />
    <glyph glyph-name="slash" unicode="/" horiz-adv-x="611" 
d="M23 -120l412 980h153l-412 -980h-153z" />
    <glyph glyph-name="zero" unicode="0" horiz-adv-x="726" 
d="M698 412q0 -204 -96.5 -316t-238.5 -112t-238.5 112t-96.5 316t96.5 316t238.5 112t238.5 -112t96.5 -316zM508 412q0 124 -38.5 193.5t-106.5 69.5t-106.5 -69.5t-38.5 -193.5t38.5 -193.5t106.5 -69.5t106.5 69.5t38.5 193.5z" />
    <glyph glyph-name="one" unicode="1" horiz-adv-x="383" 
d="M-1 825h324v-825h-188v640h-136v185z" />
    <glyph glyph-name="two" unicode="2" horiz-adv-x="753" 
d="M59 600q3 10 10 26t33 57.5t57.5 73.5t86 58t117.5 26q81 0 141.5 -21t93.5 -51t53.5 -72t26 -76t5.5 -71q0 -54 -30 -113.5t-72.5 -106t-85.5 -85t-73 -59.5l-30 -21h306v-165h-643v107q17 12 46 32.5t102 79t129 111t102 115t46 105.5q0 63 -30 97.5t-87 34.5
q-40 0 -76.5 -39.5t-53.5 -78.5l-17 -40z" />
    <glyph glyph-name="three" unicode="3" horiz-adv-x="665" 
d="M57 659q2 7 6 19.5t24 44t47 55.5t79 43.5t117 19.5q118 0 194.5 -68t76.5 -173q0 -98 -73 -155q105 -64 105 -189q0 -118 -86.5 -194.5t-219.5 -76.5q-71 0 -129 21t-90.5 50.5t-54 59.5t-29.5 51l-7 21l174 85q0 -5 1.5 -13.5t10.5 -30.5t22 -38.5t39.5 -30t61.5 -13.5
q53 0 86 29t33 80q0 53 -34.5 87t-84.5 34l-36 -6v123h41q39 0 69 30t30 74q0 39 -30.5 65.5t-71.5 26.5q-29 0 -52.5 -10.5t-36 -26t-21 -30.5t-10.5 -25l-3 -11z" />
    <glyph glyph-name="four" unicode="4" horiz-adv-x="666" 
d="M-25 174v56l396 595h186v-486h96v-165h-96v-174h-176v174h-406zM232 339h149v235z" />
    <glyph glyph-name="five" unicode="5" horiz-adv-x="641" 
d="M144 825h421v-165h-260l-18 -115q3 0 11 0.5t12 0.5q63 0 114.5 -14t97 -45t71 -90t25.5 -141q0 -118 -86.5 -195t-219.5 -77q-121 0 -194 52.5t-100 126.5l149 72q28 -94 145 -94q51 0 84.5 34.5t33.5 86.5t-32.5 85.5t-78 46.5t-103.5 13q-82 0 -141 -26z" />
    <glyph glyph-name="six" unicode="6" horiz-adv-x="689" 
d="M27 264q0 100 28 164.5t102 164.5l194 232h232l-243 -284q21 12 59 12q44 0 89 -18.5t84.5 -53t64.5 -91.5t25 -126q0 -70 -26.5 -125.5t-71 -88t-97.5 -49.5t-111 -17q-139 0 -234 81t-95 199zM222 264q0 -54 35 -89.5t90 -35.5t91 35.5t36 89.5q0 55 -36.5 91.5
t-90.5 36.5q-52 0 -88.5 -36.5t-36.5 -91.5z" />
    <glyph glyph-name="seven" unicode="7" horiz-adv-x="688" 
d="M80 825h633v-55l-436 -770h-222l380 660h-355v165z" />
    <glyph glyph-name="eight" unicode="8" horiz-adv-x="686" 
d="M343 -16q-124 0 -216 68t-92 170q0 157 144 223q-109 62 -109 187q0 88 83.5 148t189.5 60t189.5 -60t83.5 -148q0 -125 -109 -187q144 -66 144 -223q0 -102 -92 -170t-216 -68zM343 146q46 0 75 30t29 76t-29.5 75.5t-74.5 29.5t-74.5 -29.5t-29.5 -75.5t29 -76t75 -30z
M250 605q0 -40 27 -66t66 -26t66 26t27 66t-26.5 66.5t-66.5 26.5t-66.5 -26.5t-26.5 -66.5z" />
    <glyph glyph-name="nine" unicode="9" horiz-adv-x="689" 
d="M27 560q0 70 26.5 125.5t71 88.5t97.5 50t111 17q139 0 234 -81t95 -200q0 -100 -28 -164.5t-102 -164.5l-194 -231h-232l243 283q-21 -12 -59 -12q-44 0 -89 18.5t-84.5 53t-64.5 91.5t-25 126zM215 560q0 -55 36.5 -91.5t90.5 -36.5q52 0 88.5 36.5t36.5 91.5
q0 54 -35 89.5t-90 35.5t-91 -35.5t-36 -89.5z" />
    <glyph glyph-name="colon" unicode=":" horiz-adv-x="349" 
d="M174 554q48 0 81.5 -33.5t33.5 -81.5q0 -47 -33.5 -80.5t-81.5 -33.5q-47 0 -80.5 33.5t-33.5 80.5q0 48 33.5 81.5t80.5 33.5zM174 213q48 0 81.5 -33.5t33.5 -81.5q0 -47 -33.5 -80.5t-81.5 -33.5q-47 0 -80.5 33.5t-33.5 80.5q0 48 33.5 81.5t80.5 33.5z" />
    <glyph glyph-name="semicolon" unicode=";" horiz-adv-x="349" 
d="M174 554q48 0 81.5 -33.5t33.5 -81.5q0 -47 -33.5 -80.5t-81.5 -33.5q-47 0 -80.5 33.5t-33.5 80.5q0 48 33.5 81.5t80.5 33.5zM174 214q48 0 81.5 -33.5t33.5 -81.5q0 -148 -168 -287l-51 42q7 6 17.5 18t31 48.5t27.5 73.5q-38 9 -62 37.5t-24 67.5q0 48 33.5 81.5
t80.5 33.5z" />
    <glyph glyph-name="less" unicode="&#x3c;" horiz-adv-x="662" 
d="M60 475l547 222v-142l-358 -139l358 -139v-142l-547 222v118z" />
    <glyph glyph-name="equal" unicode="=" horiz-adv-x="632" 
d="M60 611h512v-153h-512v153zM60 371h512v-153h-512v153z" />
    <glyph glyph-name="greater" unicode="&#x3e;" horiz-adv-x="662" 
d="M55 697l547 -222v-118l-547 -222v142l358 139l-358 139v142z" />
    <glyph glyph-name="question" unicode="?" horiz-adv-x="596" 
d="M291 213q48 0 81.5 -33.5t33.5 -81.5q0 -47 -33.5 -80.5t-81.5 -33.5q-47 0 -80.5 33.5t-33.5 80.5q0 48 33.5 81.5t80.5 33.5zM23 632q16 83 84 145.5t188 62.5q71 0 127 -25t87 -64t46.5 -80.5t15.5 -80.5q0 -73 -50 -145t-147 -95v-80h-165v236q33 -8 86 -8
q58 0 83.5 30t25.5 62t-25.5 62.5t-83.5 30.5q-100 0 -126 -83z" />
    <glyph glyph-name="at" unicode="@" horiz-adv-x="921" 
d="M23 413q0 124 61.5 222.5t164 151.5t224.5 53q179 0 302.5 -112t123.5 -286q0 -109 -60 -164t-143 -55q-85 0 -139 46l-9 -13q-49 -54 -126 -54q-82 0 -135.5 58t-53.5 143q0 86 53.5 144.5t135.5 58.5q76 0 126 -48v37h119v-209q0 -5 2 -12t15 -18.5t34 -11.5
q33 0 47.5 22t14.5 76q0 117 -87.5 192t-219.5 75q-127 0 -215.5 -86.5t-88.5 -209.5q0 -121 89 -204t215 -83q59 0 105.5 17t63.5 34l18 17l116 -77q-4 -5 -11 -14t-33.5 -32t-58.5 -40.5t-86 -32t-114 -14.5q-122 0 -224.5 53.5t-164 152.5t-61.5 223zM388 405
q0 -35 22.5 -57.5t58.5 -22.5q34 0 56.5 23t22.5 57q0 35 -23 58.5t-56 23.5q-34 0 -57.5 -23.5t-23.5 -58.5z" />
    <glyph glyph-name="A" unicode="A" horiz-adv-x="784" 
d="M305 825h174l333 -825h-202l-61 165h-314l-61 -165h-202zM392 570l-93 -240h186z" />
    <glyph glyph-name="B" unicode="B" horiz-adv-x="666" 
d="M60 825h256q116 0 185 -49.5t69 -160.5q0 -124 -103 -177q176 -31 176 -208q0 -104 -72 -167t-198 -63h-313v825zM248 680v-178h15q63 0 94 22t31 72q0 84 -125 84h-15zM248 340v-195h59q138 0 138 92q0 55 -34.5 79t-103.5 24h-59z" />
    <glyph glyph-name="C" unicode="C" horiz-adv-x="753" 
d="M23 412q0 116 62.5 215t165.5 156t219 57q80 0 147.5 -19t95.5 -38l28 -19l-80 -160q-7 6 -21 14.5t-56 22.5t-85 14q-68 0 -122 -22t-85.5 -58.5t-48 -78t-16.5 -84.5q0 -94 70.5 -168.5t201.5 -74.5q43 0 83.5 12.5t59.5 25.5l19 13l80 -160q-4 -3 -11 -8t-32.5 -18.5
t-54.5 -23.5t-76 -18t-97 -8q-115 0 -218 57t-166 156.5t-63 214.5z" />
    <glyph glyph-name="D" unicode="D" horiz-adv-x="738" 
d="M60 825h239q172 0 294 -118t122 -295q0 -178 -121.5 -295t-294.5 -117h-239v825zM248 657v-489h29q103 0 168.5 69.5t66.5 174.5q0 105 -65.5 175t-169.5 70h-29z" />
    <glyph glyph-name="E" unicode="E" horiz-adv-x="580" 
d="M60 825h472v-165h-284v-164h272v-165h-272v-166h284v-165h-472v825z" />
    <glyph glyph-name="F" unicode="F" horiz-adv-x="585" 
d="M60 825h477v-165h-289v-164h267v-165h-267v-331h-188v825z" />
    <glyph glyph-name="G" unicode="G" horiz-adv-x="829" 
d="M23 412q0 180 115 304t287 124q201 0 318 -141l-123 -135q-66 106 -184 106q-87 0 -148.5 -75.5t-61.5 -182.5q0 -105 61.5 -180t148.5 -75q70 0 124.5 42t54.5 113v4h-190v145h381v-145q0 -58 -26.5 -116t-73 -106.5t-120.5 -79t-161 -30.5q-166 0 -284 125.5
t-118 302.5z" />
    <glyph glyph-name="H" unicode="H" horiz-adv-x="762" 
d="M60 825h188v-329h266v329h188v-825h-188v331h-266v-331h-188v825z" />
    <glyph glyph-name="I" unicode="I" horiz-adv-x="308" 
d="M60 825h188v-825h-188v825z" />
    <glyph glyph-name="J" unicode="J" horiz-adv-x="469" 
d="M231 825h188v-593q0 -121 -66.5 -184.5t-190.5 -63.5q-52 0 -100.5 20t-70.5 40l-22 19l60 157q59 -56 107 -56q43 0 69 28.5t26 87.5v545z" />
    <glyph glyph-name="K" unicode="K" horiz-adv-x="787" 
d="M60 825h188v-337l283 337h228l-332 -391l384 -434h-259l-304 350v-350h-188v825z" />
    <glyph glyph-name="L" unicode="L" horiz-adv-x="565" 
d="M60 825h188v-660h284v-165h-472v825z" />
    <glyph glyph-name="M" unicode="M" horiz-adv-x="946" 
d="M90 825h200l183 -476l183 476h200l74 -825h-188l-39 489l-174 -484h-112l-174 484l-39 -489h-188z" />
    <glyph glyph-name="N" unicode="N" horiz-adv-x="826" 
d="M60 825h188l330 -512v512h188v-825h-188l-330 512v-512h-188v825z" />
    <glyph glyph-name="O" unicode="O" horiz-adv-x="878" 
d="M23 412q0 180 122 304t294 124t294 -124t122 -304t-122 -304t-294 -124t-294 124t-122 304zM226 412q0 -101 55.5 -174t157.5 -73t157.5 73t55.5 174t-55.5 174t-157.5 73t-157.5 -73t-55.5 -174z" />
    <glyph glyph-name="P" unicode="P" horiz-adv-x="666" 
d="M60 825h301q126 0 204 -65t78 -189t-79 -194.5t-203 -70.5h-113v-306h-188v825zM248 675v-219h53q63 0 103.5 25.5t40.5 83.5q0 59 -40.5 84.5t-103.5 25.5h-53z" />
    <glyph glyph-name="Q" unicode="Q" horiz-adv-x="867" 
d="M23 412q0 180 120 304t291 124q172 0 291 -124t119 -304q0 -128 -61 -231q46 -22 113 -40l-83 -168q-83 31 -151 79q-99 -68 -228 -68q-181 0 -296 122.5t-115 305.5zM226 412q0 -48 11 -89.5t34.5 -75.5t65 -53.5t97.5 -19.5q34 0 59 7q-54 50 -102 112l80 100
q56 -62 140 -119q30 57 30 138q0 101 -52 170t-155 69q-102 0 -155 -69t-53 -170z" />
    <glyph glyph-name="R" unicode="R" horiz-adv-x="716" 
d="M60 825h301q126 0 204 -65t78 -189q0 -94 -46.5 -158.5t-126.5 -90.5l269 -322h-239l-237 306h-15v-306h-188v825zM248 675v-219h53q63 0 103.5 25.5t40.5 83.5q0 59 -40.5 84.5t-103.5 25.5h-53z" />
    <glyph glyph-name="S" unicode="S" horiz-adv-x="672" 
d="M95 587q0 111 82 182t187 71q67 0 131 -20t95 -40l30 -19l-76 -150q-9 6 -25 16t-60 26t-82 16q-47 0 -72.5 -20.5t-25.5 -54.5q0 -17 12 -31.5t41 -31t51 -26.5t68 -30q80 -34 136.5 -92.5t56.5 -132.5q0 -71 -25.5 -124t-70 -83t-98.5 -44.5t-117 -14.5q-54 0 -106 11
t-87 27t-63 32.5t-41 27.5l-13 11l94 158q12 -10 33 -25.5t74.5 -41.5t94.5 -26q119 0 119 81q0 17 -8.5 31.5t-30 29t-38 23t-54 26t-55.5 26.5q-75 37 -116 92.5t-41 119.5z" />
    <glyph glyph-name="T" unicode="T" horiz-adv-x="596" 
d="M8 825h580v-165h-196v-660h-188v660h-196v165z" />
    <glyph glyph-name="U" unicode="U" horiz-adv-x="744" 
d="M50 825h188v-478q0 -100 31.5 -139t102.5 -39t102.5 39t31.5 139v478h188v-533q0 -152 -82 -230t-240 -78t-240 78t-82 230v533z" />
    <glyph glyph-name="V" unicode="V" horiz-adv-x="784" 
d="M-28 825h212l208 -542l208 542h212l-346 -825h-148z" />
    <glyph glyph-name="W" unicode="W" horiz-adv-x="1096" 
d="M915 825h209l-235 -825h-209l-132 463l-132 -463h-209l-235 825h209l141 -566l155 566h142l155 -566z" />
    <glyph glyph-name="X" unicode="X" horiz-adv-x="800" 
d="M552 825h224l-260 -381l312 -444h-233l-195 281l-195 -281h-233l312 444l-260 381h224l152 -225z" />
    <glyph glyph-name="Y" unicode="Y" horiz-adv-x="740" 
d="M-28 825h226l172 -264l172 264h226l-304 -455v-370h-188v370z" />
    <glyph glyph-name="Z" unicode="Z" horiz-adv-x="769" 
d="M74 825h679l-409 -660h382v-165h-710l408 660h-350v165z" />
    <glyph glyph-name="bracketleft" unicode="[" horiz-adv-x="442" 
d="M60 860h322v-117h-169v-886h169v-117h-322v1120z" />
    <glyph glyph-name="backslash" unicode="\" horiz-adv-x="611" 
d="M23 860h153l412 -860h-153z" />
    <glyph glyph-name="bracketright" unicode="]" horiz-adv-x="442" 
d="M60 860h322v-1120h-322v117h169v886h-169v117z" />
    <glyph glyph-name="asciicircum" unicode="^" horiz-adv-x="496" 
d="M-5 605l207 236h92l207 -236h-161l-92 109l-92 -109h-161z" />
    <glyph glyph-name="underscore" unicode="_" horiz-adv-x="513" 
d="M0 -16h513v-85h-513v85z" />
    <glyph glyph-name="grave" unicode="`" horiz-adv-x="388" 
d="M47 725l91 115l203 -176l-56 -77z" />
    <glyph glyph-name="a" unicode="a" 
d="M24 256q0 114 71.5 193t182.5 79q101 0 168 -65v49h180v-512h-180v55q-69 -71 -168 -71q-111 0 -182.5 79t-71.5 193zM212 256q0 -53 33 -87t86 -34q52 0 85.5 34t33.5 87t-34.5 87t-84.5 34q-51 0 -85 -34t-34 -87z" />
    <glyph glyph-name="b" unicode="b" 
d="M57 860h180v-397q67 65 168 65q111 0 182.5 -79t71.5 -193t-71.5 -193t-182.5 -79q-99 0 -168 71v-55h-180v860zM233 256q0 -53 33.5 -87t85.5 -34q53 0 86 34t33 87t-34 87t-85 34q-50 0 -84.5 -34t-34.5 -87z" />
    <glyph glyph-name="c" unicode="c" horiz-adv-x="491" 
d="M23 256q0 112 85.5 192t198.5 80q51 0 94 -12t61 -24l17 -12l-60 -121q-33 24 -86 24q-50 0 -86 -37.5t-36 -89.5q0 -53 36 -90t86 -37q24 0 45.5 6t31.5 12l9 6l60 -123q-7 -5 -19.5 -12.5t-57 -20.5t-95.5 -13q-112 0 -198 80.5t-86 191.5z" />
    <glyph glyph-name="d" unicode="d" 
d="M24 256q0 114 71.5 193t182.5 79q101 0 168 -65v397h180v-860h-180v55q-69 -71 -168 -71q-111 0 -182.5 79t-71.5 193zM212 256q0 -53 33 -87t86 -34q52 0 85.5 34t33.5 87t-34.5 87t-84.5 34q-51 0 -85 -34t-34 -87z" />
    <glyph glyph-name="e" unicode="e" horiz-adv-x="603" 
d="M23 257q0 112 83 191.5t199 79.5q122 0 198.5 -70.5t76.5 -201.5q0 -18 -1 -24h-372q0 -54 35 -80.5t76 -26.5q43 0 68 11.5t57 45.5l128 -64q-80 -134 -266 -134q-116 0 -199 80.5t-83 192.5zM212 330h195q-6 40 -31.5 61.5t-65.5 21.5q-44 0 -70 -23t-28 -60z" />
    <glyph glyph-name="f" unicode="f" horiz-adv-x="375" 
d="M16 512h74v110q1 115 54 184t147 69q40 0 76.5 -11.5t52.5 -23.5l17 -11l-62 -125q-24 14 -53 14q-33 0 -44 -22.5t-11 -78.5v-105h118v-135h-118v-377h-177v377h-74v135z" />
    <glyph glyph-name="g" unicode="g" 
d="M212 256q0 -53 33 -87t86 -34q52 0 85.5 34t33.5 87t-34.5 87t-84.5 34q-51 0 -85 -34t-34 -87zM446 -1v56q-69 -71 -168 -71q-111 0 -182.5 79t-71.5 193t71.5 193t182.5 79q101 0 168 -65v49h180v-526q0 -125 -83.5 -193t-219.5 -68q-220 0 -284 149l145 71
q40 -66 139 -66q45 0 84 29.5t39 90.5z" />
    <glyph glyph-name="h" unicode="h" horiz-adv-x="661" 
d="M60 860h177v-401q72 69 149 69q38 0 75.5 -10t72 -31t56 -59.5t21.5 -89.5v-338h-177v290q0 40 -25.5 70t-66.5 30q-40 0 -72.5 -31t-32.5 -69v-290h-177v860z" />
    <glyph glyph-name="i" unicode="i" horiz-adv-x="296" 
d="M148 830q44 0 74.5 -31t30.5 -74t-30.5 -74t-74.5 -31t-74.5 31t-30.5 74t30.5 74t74.5 31zM60 512h176v-512h-176v512z" />
    <glyph glyph-name="j" unicode="j" horiz-adv-x="297" 
d="M151 830q43 0 74 -31t31 -74t-31 -74t-74 -31t-74 31t-31 74t31 74t74 31zM60 512h177v-591q0 -37 -9.5 -69.5t-29.5 -62t-58 -47t-88 -17.5q-20 0 -38 2t-30 4t-25 6t-18.5 6.5l-16.5 7.5t-13 6l55 143q23 -15 45 -15q49 0 49 70v557z" />
    <glyph glyph-name="k" unicode="k" horiz-adv-x="646" 
d="M60 860h177v-527l179 179h230l-244 -245l268 -267h-228l-205 204v-204h-177v860z" />
    <glyph glyph-name="l" unicode="l" horiz-adv-x="298" 
d="M60 860h178v-860h-178v860z" />
    <glyph glyph-name="m" unicode="m" horiz-adv-x="985" 
d="M60 512h177v-53q72 69 149 69q56 0 105 -23t74 -71q78 94 170 94q82 0 141 -46t59 -144v-338h-177v290q0 41 -22.5 68.5t-67.5 27.5q-39 0 -60.5 -24t-21.5 -56v-306h-177v290q0 41 -22.5 68.5t-67.5 27.5q-41 0 -61.5 -25.5t-20.5 -60.5v-300h-177v512z" />
    <glyph glyph-name="n" unicode="n" horiz-adv-x="661" 
d="M60 512h177v-53q72 69 149 69q38 0 75.5 -10t72 -31t56 -59.5t21.5 -89.5v-338h-177v290q0 40 -25.5 70t-66.5 30q-40 0 -72.5 -31t-32.5 -69v-290h-177v512z" />
    <glyph glyph-name="o" unicode="o" horiz-adv-x="658" 
d="M23 256q0 119 87.5 195.5t218.5 76.5t218.5 -76.5t87.5 -195.5t-87.5 -195.5t-218.5 -76.5t-218.5 76.5t-87.5 195.5zM209 256q0 -53 34.5 -87t85.5 -34t85.5 34t34.5 87t-34.5 87t-85.5 34t-85.5 -34t-34.5 -87z" />
    <glyph glyph-name="p" unicode="p" 
d="M659 256q0 -114 -71.5 -193t-182.5 -79q-99 0 -168 71v-315h-180v772h180v-49q67 65 168 65q111 0 182.5 -79t71.5 -193zM471 256q0 53 -34 87t-85 34q-50 0 -84.5 -34t-34.5 -87t33.5 -87t85.5 -34q53 0 86 34t33 87z" />
    <glyph glyph-name="q" unicode="q" 
d="M24 256q0 114 71.5 193t182.5 79q101 0 168 -65v49h180v-772h-180v315q-69 -71 -168 -71q-111 0 -182.5 79t-71.5 193zM212 256q0 -53 33 -87t86 -34q52 0 85.5 34t33.5 87t-34.5 87t-84.5 34q-51 0 -85 -34t-34 -87z" />
    <glyph glyph-name="r" unicode="r" horiz-adv-x="498" 
d="M61 512h176v-73q2 4 6.5 10t20 21t33 27t44.5 21.5t55 9.5q29 0 57 -8t41 -16l14 -8l-74 -150q-33 28 -92 28q-32 0 -55 -14t-32.5 -34t-13.5 -34t-4 -22v-270h-176v512z" />
    <glyph glyph-name="s" unicode="s" horiz-adv-x="492" 
d="M283 528q44 0 87 -10t64 -20l21 -10l-58 -116q-60 32 -114 32q-30 0 -42.5 -6.5t-12.5 -24.5q0 -9 4.5 -15.5t18 -13t23.5 -10t34 -10.5q30 -9 53.5 -20.5t49 -30t39.5 -48t14 -66.5q0 -175 -243 -175q-55 0 -104.5 17t-71.5 35l-22 17l72 121q8 -7 21 -16.5t47 -26
t59 -16.5q55 0 55 37q0 13 -10.5 22.5t-24 15t-38 15t-41.5 18.5q-48 25 -76 56.5t-28 83.5q0 78 60.5 121.5t163.5 43.5z" />
    <glyph glyph-name="t" unicode="t" horiz-adv-x="395" 
d="M16 512h74v192h177v-192h108v-135h-108v-163q0 -71 40 -71q10 0 21 4t17 8l6 4l44 -143q-57 -32 -130 -32q-50 0 -86 17.5t-54.5 47t-26.5 62t-8 69.5v197h-74v135z" />
    <glyph glyph-name="u" unicode="u" horiz-adv-x="656" 
d="M50 512h177v-245q0 -76 23 -107.5t78 -31.5t78 31.5t23 107.5v245h177v-288q0 -128 -66.5 -184t-211.5 -56t-211.5 56t-66.5 184v288z" />
    <glyph glyph-name="v" unicode="v" horiz-adv-x="630" 
d="M-20 512h210l125 -279l125 279h210l-275 -512h-120z" />
    <glyph glyph-name="w" unicode="w" horiz-adv-x="986" 
d="M-20 512h204l125 -277l123 277h122l123 -277l125 277h204l-275 -512h-120l-118 264l-118 -264h-120z" />
    <glyph glyph-name="x" unicode="x" horiz-adv-x="634" 
d="M21 512h207l89 -119l89 119h207l-188 -243l219 -269h-214l-113 145l-113 -145h-214l219 269z" />
    <glyph glyph-name="y" unicode="y" horiz-adv-x="633" 
d="M-20 512h204l143 -262l122 262h204l-403 -772h-204l177 340z" />
    <glyph glyph-name="z" unicode="z" horiz-adv-x="561" 
d="M47 512h509l-254 -377h234v-135h-531l254 377h-212v135z" />
    <glyph glyph-name="braceleft" unicode="{" horiz-adv-x="446" 
d="M60 347q70 0 70 65v267q0 34 7 63.5t24 57.5t49.5 44t78.5 16h97v-128h-40q-27 0 -45 -19t-18 -49v-257q0 -75 -61 -107q61 -32 61 -107v-257q0 -30 18 -49t45 -19h40v-128h-97q-46 0 -78.5 16t-49.5 44t-24 57.5t-7 63.5v267q0 65 -70 65v94z" />
    <glyph glyph-name="bar" unicode="|" horiz-adv-x="273" 
d="M60 860h153v-860h-153v860z" />
    <glyph glyph-name="braceright" unicode="}" horiz-adv-x="446" 
d="M60 860h97q46 0 78.5 -16t49.5 -44t24 -57.5t7 -63.5v-267q0 -65 70 -65v-94q-70 0 -70 -65v-267q0 -34 -7 -63.5t-24 -57.5t-49.5 -44t-78.5 -16h-97v128h40q27 0 45 19t18 49v257q0 75 61 107q-61 32 -61 107v257q0 30 -18 49t-45 19h-40v128z" />
    <glyph glyph-name="asciitilde" unicode="~" horiz-adv-x="694" 
d="M60 391q3 6 8 15t22 32.5t36 41.5t49.5 33t61.5 15q30 0 58.5 -9t45 -18t45.5 -27q46 -31 71 -31q26 0 47 19.5t29 39.5l8 19l93 -82q-3 -6 -8 -15t-22 -32.5t-36 -41.5t-49.5 -33t-61.5 -15q-67 0 -147 53q-48 32 -73 32q-26 0 -47 -19.5t-29 -39.5l-8 -19z" />
    <glyph glyph-name="exclamdown" unicode="&#xa1;" horiz-adv-x="349" 
d="M263 -260h-177l24 590h129zM174 387q-47 0 -80.5 33.5t-33.5 81.5q0 47 33.5 80.5t80.5 33.5q48 0 81.5 -33.5t33.5 -80.5q0 -48 -33.5 -81.5t-81.5 -33.5z" />
    <glyph glyph-name="cent" unicode="&#xa2;" horiz-adv-x="491" 
d="M218 636h108v-108q45 -2 83 -14t54 -23l16 -11l-60 -121q-33 24 -86 24q-50 0 -86 -37t-36 -89q0 -53 36 -90t86 -37q24 0 45.5 6t31.5 12l9 6l60 -123q-43 -32 -123 -43v-117h-108v121q-95 20 -160 94t-65 169q0 88 55.5 159t139.5 99v123z" />
    <glyph glyph-name="sterling" unicode="&#xa3;" horiz-adv-x="749" 
d="M55 387h102q-52 82 -52 171q0 123 73.5 203t207.5 80q66 0 118 -19.5t80 -47.5t46.5 -56t23.5 -48l6 -19l-158 -77l-2.5 12.5t-10.5 27.5t-20.5 35t-33.5 27.5t-49 12.5q-45 0 -70 -36t-25 -95q0 -24 2.5 -43.5t9 -39t10 -29t14 -32t12.5 -27.5h173v-98h-137q3 -21 3 -46
q0 -21 -7 -41t-14 -30l-7 -10q1 0 57 -16.5t100 -16.5q25 0 42 18t21 36l4 18l137 -68q-1 -6 -3.5 -16t-15 -35.5t-30.5 -45t-53.5 -35.5t-80.5 -16q-66 0 -167 29t-144 29q-18 0 -30 -10.5t-15 -21.5l-2 -11h-115q0 30 17 70t52 74t77 34q16 23 16 58q0 24 -12 53h-150v98z
" />
    <glyph glyph-name="yen" unicode="&#xa5;" horiz-adv-x="764" 
d="M-16 825h226l172 -264l172 264h226l-260 -389h168v-133h-212v-60h212v-133h-212v-110h-188v110h-213v133h213v60h-213v133h169z" />
    <glyph glyph-name="brokenbar" unicode="&#xa6;" horiz-adv-x="273" 
d="M60 860h153v-332h-153v332zM60 332h153v-332h-153v332z" />
    <glyph glyph-name="section" unicode="&#xa7;" horiz-adv-x="640" 
d="M23 276q3 57 38 105t96 75q-46 33 -67.5 74t-21.5 101q0 88 65.5 148.5t192.5 60.5q43 0 80 -10t61 -25.5t43 -35t29.5 -38.5t17 -34.5t8.5 -25.5l2 -10l-160 -34q0 3 -1 7t-6 15.5t-12.5 20t-24 15.5t-37.5 7q-30 0 -46.5 -15.5t-16.5 -39.5q0 -27 35.5 -50t116.5 -60
q98 -46 147.5 -101.5t49.5 -136.5q-3 -57 -38 -105t-96 -75q46 -34 67.5 -75t21.5 -100q0 -36 -13.5 -69.5t-43 -66.5t-87 -53t-135.5 -20q-65 0 -116.5 19.5t-78 48t-44 56.5t-21.5 47l-5 20l160 34q1 -3 3 -8.5t10.5 -18.5t19 -23t30 -18.5t42.5 -8.5q82 0 82 55
q0 15 -9.5 28t-34.5 28t-44.5 25t-61.5 29q-98 46 -147.5 101.5t-49.5 136.5zM187 305q1 -23 24 -45t45.5 -34t62.5 -31q2 -1 8 -3.5t9 -4.5l23 -11q85 22 89 84q-1 23 -24 45t-45.5 34t-62.5 31q-2 1 -8 3.5t-9 4.5l-24 11q-84 -24 -88 -84z" />
    <glyph glyph-name="dieresis" unicode="&#xa8;" horiz-adv-x="562" 
d="M162 791q38 0 65 -27t27 -65t-27 -65t-65 -27t-65 27t-27 65t27 65t65 27zM400 791q38 0 65 -27t27 -65t-27 -65t-65 -27t-65 27t-27 65t27 65t65 27z" />
    <glyph glyph-name="copyright" unicode="&#xa9;" horiz-adv-x="901" 
d="M23 412q0 177 125.5 302.5t301.5 125.5q177 0 302.5 -125.5t125.5 -302.5q0 -176 -125.5 -301.5t-302.5 -125.5q-176 0 -301.5 125.5t-125.5 301.5zM137 412q0 -129 92 -221t221 -92q130 0 222 92t92 221q0 130 -92 222t-222 92q-129 0 -221 -92t-92 -222zM251 413
q0 86 66 148.5t152 62.5q38 0 70.5 -8.5t44.5 -15.5t16 -11l-43 -89q-34 16 -67 16q-41 0 -69.5 -29.5t-28.5 -71.5q0 -43 28.5 -72.5t69.5 -29.5q39 0 66 16q7 -16 22 -45t22 -45q-54 -33 -131 -33q-86 0 -152 61t-66 146z" />
    <glyph glyph-name="ordfeminine" unicode="&#xaa;" horiz-adv-x="512" 
d="M70 672q0 71 44.5 119.5t113.5 48.5q62 0 104 -40v30h111v-316h-111v34q-44 -44 -104 -44q-69 0 -113.5 48.5t-44.5 119.5zM187 672q0 -33 20.5 -54t53.5 -21q31 0 52 21.5t21 53.5q0 33 -21 54t-52 21q-32 0 -53 -21t-21 -54z" />
    <glyph glyph-name="guillemotleft" unicode="&#xab;" horiz-adv-x="625" 
d="M228 528l93 -73l-138 -177l138 -177l-93 -73l-195 250zM478 528l93 -73l-138 -177l138 -177l-93 -73l-195 250z" />
    <glyph glyph-name="registered" unicode="&#xae;" horiz-adv-x="494" 
d="M23 615q0 93 65.5 159t157.5 66q94 0 159.5 -66t65.5 -159q0 -92 -65.5 -157.5t-159.5 -65.5q-92 0 -157.5 65.5t-65.5 157.5zM83 615q0 -67 48 -115t115 -48q69 0 117 47.5t48 115.5t-48 116.5t-117 48.5q-67 0 -115 -48.5t-48 -116.5zM178 722h77q32 0 52 -16.5
t20 -48.5q0 -48 -44 -63l68 -82h-61l-60 78h-4v-78h-48v210zM226 684v-56h14q36 0 36 28t-36 28h-14z" />
    <glyph glyph-name="macron" unicode="&#xaf;" horiz-adv-x="548" 
d="M70 754h408v-120h-408v120z" />
    <glyph glyph-name="degree" unicode="&#xb0;" horiz-adv-x="372" 
d="M70 772q0 45 33.5 74t82.5 29t82.5 -29t33.5 -74t-32.5 -74t-83.5 -29t-83.5 29t-32.5 74zM143 772q0 -19 12 -32.5t31 -13.5t31.5 13.5t12.5 32.5t-12.5 32t-31.5 13q-18 0 -30.5 -13t-12.5 -32z" />
    <glyph glyph-name="plusminus" unicode="&#xb1;" horiz-adv-x="632" 
d="M240 670h152v-155h180v-152h-180v-155h-152v155h-180v152h180v155zM60 153h512v-153h-512v153z" />
    <glyph glyph-name="twosuperior" unicode="&#xb2;" horiz-adv-x="267" 
d="M34 747q1 4 3.5 10t13 22.5t22.5 29t33.5 22.5t46.5 10q39 0 65.5 -11.5t38.5 -30.5t16.5 -36t4.5 -35q0 -34 -28.5 -71.5t-57.5 -58.5l-28 -21h119v-64h-251v42q19 13 46.5 33t73.5 66.5t46 73.5q0 51 -45 51q-16 0 -30.5 -15.5t-20.5 -31.5l-7 -15z" />
    <glyph glyph-name="threesuperior" unicode="&#xb3;" horiz-adv-x="253" 
d="M25 771l2.5 7.5t9 16.5t18 21t30 16.5t44.5 7.5q46 0 75 -26t29 -66q0 -39 -28 -59q41 -25 41 -72q0 -46 -33.5 -75t-84.5 -29q-27 0 -49 8t-34.5 19.5t-21 23t-11.5 19.5l-2 8l66 32q0 -5 2 -13t15.5 -21.5t34.5 -13.5q20 0 32.5 11t12.5 31t-13 33t-32 13l-14 -2v47h16
q15 0 26.5 11.5t11.5 27.5q0 15 -12 25.5t-27 10.5q-18 0 -29.5 -10t-14.5 -20l-3 -10z" />
    <glyph glyph-name="acute" unicode="&#xb4;" horiz-adv-x="566" 
d="M136 664l203 176l91 -115l-238 -138z" />
    <glyph glyph-name="mu" unicode="&#xb5;" horiz-adv-x="691" 
d="M80 512h177v-290q0 -40 25.5 -70t66.5 -30q40 0 72.5 31t32.5 69v290h177v-512h-177v53q-72 -69 -149 -69q-16 0 -48 4v-148h-207q0 50 15 164t15 205v303z" />
    <glyph glyph-name="paragraph" unicode="&#xb6;" horiz-adv-x="708" 
d="M23 571q0 108 72 181t190 73h363v-825h-103v721h-61v-721h-103v306h-96q-117 0 -189.5 78t-72.5 187z" />
    <glyph glyph-name="periodcentered" unicode="&#xb7;" horiz-adv-x="349" 
d="M174 384q48 0 81.5 -33.5t33.5 -81.5q0 -47 -33.5 -80.5t-81.5 -33.5q-47 0 -80.5 33.5t-33.5 80.5q0 48 33.5 81.5t80.5 33.5z" />
    <glyph glyph-name="cedilla" unicode="&#xb8;" horiz-adv-x="446" 
d="M199 26l70 -22l-22 -67q47 0 88 -27t41 -75q0 -53 -37.5 -91t-114.5 -38q-40 0 -78.5 21t-57.5 41l-18 21l72 54q4 -5 11.5 -13t29 -21t41.5 -13q26 0 38 11.5t12 27.5q0 22 -19 33.5t-43 11.5q-16 0 -29 -2t-17 -4l-5 -3l-10 8z" />
    <glyph glyph-name="onesuperior" unicode="&#xb9;" horiz-adv-x="140" 
d="M9 825h122v-312h-71v241h-51v71z" />
    <glyph glyph-name="ordmasculine" unicode="&#xba;" horiz-adv-x="521" 
d="M73 671q0 74 54 121.5t135 47.5q80 0 134.5 -48t54.5 -121t-53.5 -121t-135.5 -48q-85 0 -137 47.5t-52 121.5zM190 671q0 -33 19.5 -54t52.5 -21q32 0 53 21.5t21 53.5q0 33 -21.5 54t-52.5 21t-51.5 -21t-20.5 -54z" />
    <glyph glyph-name="guillemotright" unicode="&#xbb;" horiz-adv-x="625" 
d="M54 455l93 73l195 -250l-195 -250l-93 73l138 177zM304 455l93 73l195 -250l-195 -250l-93 73l138 177z" />
    <glyph glyph-name="onequarter" unicode="&#xbc;" horiz-adv-x="876" 
d="M101 0l480 825h118l-480 -825h-118zM60 825h188v-480h-109v372h-79v108zM447 101v33l231 346h109v-283h55v-96h-55v-101h-103v101h-237zM597 197h87v137z" />
    <glyph glyph-name="onehalf" unicode="&#xbd;" horiz-adv-x="945" 
d="M101 0l480 825h118l-480 -825h-118zM60 825h188v-480h-109v372h-79v108zM537 344q2 6 6 15t18.5 33t32.5 42t49.5 33t67.5 15q57 0 96.5 -17t56.5 -45t23.5 -52.5t6.5 -52.5q0 -31 -17 -65t-41.5 -60.5t-49.5 -48.5t-42 -34l-17 -12h175v-95h-368v61q10 7 26.5 18.5
t58.5 45t74 64t58.5 66.5t26.5 60q0 10 -2 20t-7.5 24t-20.5 23t-37 9q-23 0 -44 -22.5t-31 -45.5l-9 -23z" />
    <glyph glyph-name="threequarters" unicode="&#xbe;" horiz-adv-x="977" 
d="M202 0l480 825h118l-480 -825h-118zM548 101v33l231 346h109v-283h55v-96h-55v-101h-103v101h-237zM698 197h87v137zM49 725q1 4 3.5 11t13.5 25t26.5 31.5t45 24.5t66.5 11q67 0 110.5 -38.5t43.5 -97.5q0 -56 -42 -88q60 -37 60 -108q0 -67 -49 -110.5t-125 -43.5
q-40 0 -73 12t-51 29t-30.5 34t-16.5 29l-4 12l98 48q0 -3 1 -8t6 -17t12.5 -21.5t22.5 -17.5t35 -8q30 0 48.5 16.5t18.5 45.5q0 30 -19.5 49.5t-47.5 19.5l-21 -3v69h24q22 0 39 17.5t17 42.5q0 22 -17.5 37t-40.5 15q-26 0 -43.5 -14.5t-21.5 -29.5l-5 -15z" />
    <glyph glyph-name="questiondown" unicode="&#xbf;" horiz-adv-x="596" 
d="M571 -67q-16 -83 -84 -145.5t-188 -62.5q-71 0 -127 25t-87 64t-46.5 80.5t-15.5 80.5q0 73 50 145t147 95v80h165v-236q-33 8 -86 8q-58 0 -83.5 -30t-25.5 -62t25.5 -62.5t83.5 -30.5q100 0 126 83zM303 581q48 0 81.5 -33.5t33.5 -81.5q0 -47 -33.5 -80.5t-81.5 -33.5
q-47 0 -80.5 33.5t-33.5 80.5q0 48 33.5 81.5t80.5 33.5z" />
    <glyph glyph-name="Agrave" unicode="&#xc0;" horiz-adv-x="784" 
d="M305 825h174l333 -825h-202l-61 165h-314l-61 -165h-202zM392 570l-93 -240h186zM154 1037l91 115l203 -176l-56 -77z" />
    <glyph glyph-name="Aacute" unicode="&#xc1;" horiz-adv-x="784" 
d="M305 825h174l333 -825h-202l-61 165h-314l-61 -165h-202zM392 570l-93 -240h186zM336 976l203 176l91 -115l-238 -138z" />
    <glyph glyph-name="Acircumflex" unicode="&#xc2;" horiz-adv-x="784" 
d="M305 825h174l333 -825h-202l-61 165h-314l-61 -165h-202zM392 570l-93 -240h186zM171 990l221 162l221 -162l-68 -91l-153 112l-153 -112z" />
    <glyph glyph-name="Atilde" unicode="&#xc3;" horiz-adv-x="784" 
d="M305 825h174l333 -825h-202l-61 165h-314l-61 -165h-202zM392 570l-93 -240h186zM105 1003q3 6 8 15t22 32.5t36 41.5t49.5 33t61.5 15q30 0 58.5 -9t45 -18t45.5 -27q46 -31 71 -31q26 0 47 19.5t29 39.5l8 19l93 -82q-3 -6 -8 -15t-22 -32.5t-36 -41.5t-49.5 -33
t-61.5 -15q-67 0 -147 53q-48 32 -73 32q-26 0 -47 -19.5t-29 -39.5l-8 -19z" />
    <glyph glyph-name="Adieresis" unicode="&#xc4;" horiz-adv-x="784" 
d="M305 825h174l333 -825h-202l-61 165h-314l-61 -165h-202zM392 570l-93 -240h186zM273 1103q38 0 65 -27t27 -65t-27 -65t-65 -27t-65 27t-27 65t27 65t65 27zM511 1103q38 0 65 -27t27 -65t-27 -65t-65 -27t-65 27t-27 65t27 65t65 27z" />
    <glyph glyph-name="Aring" unicode="&#xc5;" horiz-adv-x="784" 
d="M305 825h174l333 -825h-202l-61 165h-314l-61 -165h-202zM392 570l-93 -240h186zM231 1045q0 62 46.5 102t114.5 40q69 0 115 -40t46 -102q0 -63 -45 -103t-116 -40q-72 0 -116.5 40t-44.5 103zM331 1045q0 -27 17 -45.5t44 -18.5q26 0 43.5 18.5t17.5 45.5q0 26 -18 44
t-43 18t-43 -18.5t-18 -43.5z" />
    <glyph glyph-name="AE" unicode="&#xc6;" horiz-adv-x="953" 
d="M345 825h560v-165h-284v-164h272v-165h-272v-166h284v-165h-472v165h-193l-70 -165h-202zM306 330h127v302z" />
    <glyph glyph-name="Ccedilla" unicode="&#xc7;" horiz-adv-x="754" 
d="M24 412q0 116 62.5 215t165.5 156t219 57q80 0 147.5 -19t95.5 -38l28 -19l-80 -160q-7 6 -21 14.5t-56 22.5t-85 14q-68 0 -122 -22t-85.5 -58.5t-48 -78t-16.5 -84.5q0 -94 70.5 -168.5t201.5 -74.5q43 0 83.5 12.5t59.5 25.5l19 13l80 -160q-4 -3 -11 -8t-32.5 -18.5
t-54.5 -23.5t-76 -18t-97 -8q-33 0 -60 4l-17 -51q47 0 88 -27t41 -75q0 -53 -37.5 -91t-114.5 -38q-40 0 -78.5 21t-56.5 41l-19 21l72 54q4 -5 11.5 -13t29 -21t41.5 -13q26 0 38 11.5t12 27.5q0 22 -19 33.5t-43 11.5q-16 0 -28.5 -2t-17.5 -4l-5 -3l-10 8l41 126
q-135 42 -225 155t-90 252z" />
    <glyph glyph-name="Egrave" unicode="&#xc8;" horiz-adv-x="580" 
d="M60 825h472v-165h-284v-164h272v-165h-272v-166h284v-165h-472v825zM119 1037l91 115l203 -176l-56 -77z" />
    <glyph glyph-name="Eacute" unicode="&#xc9;" horiz-adv-x="580" 
d="M60 825h472v-165h-284v-164h272v-165h-272v-166h284v-165h-472v825zM179 976l203 176l91 -115l-238 -138z" />
    <glyph glyph-name="Ecircumflex" unicode="&#xca;" horiz-adv-x="580" 
d="M60 825h472v-165h-284v-164h272v-165h-272v-166h284v-165h-472v825zM75 990l221 162l221 -162l-68 -91l-153 112l-153 -112z" />
    <glyph glyph-name="Edieresis" unicode="&#xcb;" horiz-adv-x="580" 
d="M60 825h472v-165h-284v-164h272v-165h-272v-166h284v-165h-472v825zM179 1103q38 0 65 -27t27 -65t-27 -65t-65 -27t-65 27t-27 65t27 65t65 27zM417 1103q38 0 65 -27t27 -65t-27 -65t-65 -27t-65 27t-27 65t27 65t65 27z" />
    <glyph glyph-name="Igrave" unicode="&#xcc;" horiz-adv-x="308" 
d="M60 825h188v-825h-188v825zM-84 1037l91 115l203 -176l-56 -77z" />
    <glyph glyph-name="Iacute" unicode="&#xcd;" horiz-adv-x="308" 
d="M60 825h188v-825h-188v825zM98 976l203 176l91 -115l-238 -138z" />
    <glyph glyph-name="Icircumflex" unicode="&#xce;" horiz-adv-x="308" 
d="M60 825h188v-825h-188v825zM-67 990l221 162l221 -162l-68 -91l-153 112l-153 -112z" />
    <glyph glyph-name="Idieresis" unicode="&#xcf;" horiz-adv-x="308" 
d="M60 825h188v-825h-188v825zM35 1103q38 0 65 -27t27 -65t-27 -65t-65 -27t-65 27t-27 65t27 65t65 27zM273 1103q38 0 65 -27t27 -65t-27 -65t-65 -27t-65 27t-27 65t27 65t65 27z" />
    <glyph glyph-name="Eth" unicode="&#xd0;" horiz-adv-x="738" 
d="M16 336v153h44v336h239q172 0 294 -118t122 -295q0 -178 -121.5 -295t-294.5 -117h-239v336h-44zM248 657v-168h147v-153h-147v-168h29q103 0 168.5 69.5t66.5 174.5q0 105 -65.5 175t-169.5 70h-29z" />
    <glyph glyph-name="Ntilde" unicode="&#xd1;" horiz-adv-x="826" 
d="M60 825h188l330 -512v512h188v-825h-188l-330 512v-512h-188v825zM126 1007q3 6 8 15t22 32.5t36 41.5t49.5 33t61.5 15q30 0 58.5 -9t45 -18t45.5 -27q46 -31 71 -31q26 0 47 19.5t29 39.5l8 19l93 -82q-3 -6 -8 -15t-22 -32.5t-36 -41.5t-49.5 -33t-61.5 -15
q-67 0 -147 53q-48 32 -73 32q-26 0 -47 -19.5t-29 -39.5l-8 -19z" />
    <glyph glyph-name="Ograve" unicode="&#xd2;" horiz-adv-x="878" 
d="M262 1037l91 115l203 -176l-56 -77zM23 412q0 180 122 304t294 124t294 -124t122 -304t-122 -304t-294 -124t-294 124t-122 304zM226 412q0 -101 55.5 -174t157.5 -73t157.5 73t55.5 174t-55.5 174t-157.5 73t-157.5 -73t-55.5 -174z" />
    <glyph glyph-name="Oacute" unicode="&#xd3;" horiz-adv-x="878" 
d="M322 976l203 176l91 -115l-238 -138zM23 412q0 180 122 304t294 124t294 -124t122 -304t-122 -304t-294 -124t-294 124t-122 304zM226 412q0 -101 55.5 -174t157.5 -73t157.5 73t55.5 174t-55.5 174t-157.5 73t-157.5 -73t-55.5 -174z" />
    <glyph glyph-name="Ocircumflex" unicode="&#xd4;" horiz-adv-x="878" 
d="M218 990l221 162l221 -162l-68 -91l-153 112l-153 -112zM23 412q0 180 122 304t294 124t294 -124t122 -304t-122 -304t-294 -124t-294 124t-122 304zM226 412q0 -101 55.5 -174t157.5 -73t157.5 73t55.5 174t-55.5 174t-157.5 73t-157.5 -73t-55.5 -174z" />
    <glyph glyph-name="Otilde" unicode="&#xd5;" horiz-adv-x="878" 
d="M152 992q3 6 8 15t22 32.5t36 41.5t49.5 33t61.5 15q30 0 58.5 -9t45 -18t45.5 -27q46 -31 71 -31q26 0 47 19.5t29 38.5l8 20l93 -82q-3 -6 -8 -15t-22 -32.5t-36 -41.5t-49.5 -33t-61.5 -15q-67 0 -147 53q-48 32 -73 32q-26 0 -47 -19.5t-29 -38.5l-8 -20zM23 412
q0 180 122 304t294 124t294 -124t122 -304t-122 -304t-294 -124t-294 124t-122 304zM226 412q0 -101 55.5 -174t157.5 -73t157.5 73t55.5 174t-55.5 174t-157.5 73t-157.5 -73t-55.5 -174z" />
    <glyph glyph-name="Odieresis" unicode="&#xd6;" horiz-adv-x="878" 
d="M320 1103q38 0 65 -27t27 -65t-27 -65t-65 -27t-65 27t-27 65t27 65t65 27zM558 1103q38 0 65 -27t27 -65t-27 -65t-65 -27t-65 27t-27 65t27 65t65 27zM23 412q0 180 122 304t294 124t294 -124t122 -304t-122 -304t-294 -124t-294 124t-122 304zM226 412
q0 -101 55.5 -174t157.5 -73t157.5 73t55.5 174t-55.5 174t-157.5 73t-157.5 -73t-55.5 -174z" />
    <glyph glyph-name="multiply" unicode="&#xd7;" horiz-adv-x="632" 
d="M468 675l108 -107l-152 -153l152 -152l-108 -109l-152 153l-152 -153l-108 109l152 152l-152 153l108 107l152 -152z" />
    <glyph glyph-name="Oslash" unicode="&#xd8;" horiz-adv-x="966" 
d="M111 412q0 180 122 304t294 124q109 0 205 -55l54 68l112 -86l-58 -73q103 -119 103 -282q0 -180 -122 -304t-294 -124q-112 0 -207 56l-53 -67l-112 86l57 72q-101 119 -101 281zM740 412q0 66 -26 124l-279 -351q40 -20 92 -20q102 0 157.5 73t55.5 174zM314 412
q0 -66 24 -122l278 350q-40 19 -89 19q-102 0 -157.5 -73t-55.5 -174z" />
    <glyph glyph-name="Ugrave" unicode="&#xd9;" horiz-adv-x="744" 
d="M50 825h188v-478q0 -100 31.5 -139t102.5 -39t102.5 39t31.5 139v478h188v-533q0 -152 -82 -230t-240 -78t-240 78t-82 230v533zM195 1037l91 115l203 -176l-56 -77z" />
    <glyph glyph-name="Uacute" unicode="&#xda;" horiz-adv-x="744" 
d="M50 825h188v-478q0 -100 31.5 -139t102.5 -39t102.5 39t31.5 139v478h188v-533q0 -152 -82 -230t-240 -78t-240 78t-82 230v533zM255 976l203 176l91 -115l-238 -138z" />
    <glyph glyph-name="Ucircumflex" unicode="&#xdb;" horiz-adv-x="744" 
d="M50 825h188v-478q0 -100 31.5 -139t102.5 -39t102.5 39t31.5 139v478h188v-533q0 -152 -82 -230t-240 -78t-240 78t-82 230v533zM151 990l221 162l221 -162l-68 -91l-153 112l-153 -112z" />
    <glyph glyph-name="Udieresis" unicode="&#xdc;" horiz-adv-x="744" 
d="M50 825h188v-478q0 -100 31.5 -139t102.5 -39t102.5 39t31.5 139v478h188v-533q0 -152 -82 -230t-240 -78t-240 78t-82 230v533zM253 1103q38 0 65 -27t27 -65t-27 -65t-65 -27t-65 27t-27 65t27 65t65 27zM491 1103q38 0 65 -27t27 -65t-27 -65t-65 -27t-65 27t-27 65
t27 65t65 27z" />
    <glyph glyph-name="Yacute" unicode="&#xdd;" horiz-adv-x="740" 
d="M-28 825h226l172 -264l172 264h226l-304 -455v-370h-188v370zM243 976l203 176l91 -115l-238 -138z" />
    <glyph glyph-name="Thorn" unicode="&#xde;" horiz-adv-x="666" 
d="M60 825h188v-153h113q126 0 204 -65t78 -189t-79 -194.5t-203 -70.5h-113v-153h-188v825zM248 522v-219h53q139 0 139 109q0 110 -139 110h-53z" />
    <glyph glyph-name="germandbls" unicode="&#xdf;" horiz-adv-x="656" 
d="M90 622q0 110 75 181.5t178 71.5q114 0 186 -70t72 -175q0 -114 -100 -170q132 -61 132 -205q0 -118 -86.5 -194.5t-220.5 -76.5v162q52 0 85.5 33t33.5 85q0 57 -31.5 91t-87.5 34v135q45 0 76.5 30t31.5 76q0 45 -24 70.5t-67 25.5q-28 0 -52 -24.5t-24 -65.5v-636
h-177v325h-66v135h66v162z" />
    <glyph glyph-name="agrave" unicode="&#xe0;" 
d="M24 256q0 114 71.5 193t182.5 79q101 0 168 -65v49h180v-512h-180v55q-69 -71 -168 -71q-111 0 -182.5 79t-71.5 193zM212 256q0 -53 33 -87t86 -34q52 0 85.5 34t33.5 87t-34.5 87t-84.5 34q-51 0 -85 -34t-34 -87zM158 725l91 115l203 -176l-56 -77z" />
    <glyph glyph-name="aacute" unicode="&#xe1;" 
d="M24 256q0 114 71.5 193t182.5 79q101 0 168 -65v49h180v-512h-180v55q-69 -71 -168 -71q-111 0 -182.5 79t-71.5 193zM212 256q0 -53 33 -87t86 -34q52 0 85.5 34t33.5 87t-34.5 87t-84.5 34q-51 0 -85 -34t-34 -87zM198 664l203 176l91 -115l-238 -138z" />
    <glyph glyph-name="acircumflex" unicode="&#xe2;" 
d="M24 256q0 114 71.5 193t182.5 79q101 0 168 -65v49h180v-512h-180v55q-69 -71 -168 -71q-111 0 -182.5 79t-71.5 193zM212 256q0 -53 33 -87t86 -34q52 0 85.5 34t33.5 87t-34.5 87t-84.5 34q-51 0 -85 -34t-34 -87zM104 678l221 162l221 -162l-68 -91l-153 112
l-153 -112z" />
    <glyph glyph-name="atilde" unicode="&#xe3;" 
d="M24 256q0 114 71.5 193t182.5 79q101 0 168 -65v49h180v-512h-180v55q-69 -71 -168 -71q-111 0 -182.5 79t-71.5 193zM212 256q0 -53 33 -87t86 -34q52 0 85.5 34t33.5 87t-34.5 87t-84.5 34q-51 0 -85 -34t-34 -87zM38 695q3 6 8 15t22 32.5t36 41.5t49.5 33t61.5 15
q30 0 58.5 -9t45 -18t45.5 -27q46 -31 71 -31q26 0 47 19.5t29 39.5l8 19l93 -82q-3 -6 -8 -15t-22 -32.5t-36 -41.5t-49.5 -33t-61.5 -15q-67 0 -147 53q-48 32 -73 32q-26 0 -47 -19.5t-29 -39.5l-8 -19z" />
    <glyph glyph-name="adieresis" unicode="&#xe4;" 
d="M24 256q0 114 71.5 193t182.5 79q101 0 168 -65v49h180v-512h-180v55q-69 -71 -168 -71q-111 0 -182.5 79t-71.5 193zM212 256q0 -53 33 -87t86 -34q52 0 85.5 34t33.5 87t-34.5 87t-84.5 34q-51 0 -85 -34t-34 -87zM206 791q38 0 65 -27t27 -65t-27 -65t-65 -27t-65 27
t-27 65t27 65t65 27zM444 791q38 0 65 -27t27 -65t-27 -65t-65 -27t-65 27t-27 65t27 65t65 27z" />
    <glyph glyph-name="aring" unicode="&#xe5;" 
d="M24 256q0 114 71.5 193t182.5 79q101 0 168 -65v49h180v-512h-180v55q-69 -71 -168 -71q-111 0 -182.5 79t-71.5 193zM212 256q0 -53 33 -87t86 -34q52 0 85.5 34t33.5 87t-34.5 87t-84.5 34q-51 0 -85 -34t-34 -87zM164 733q0 62 46.5 102t114.5 40q69 0 115 -40
t46 -102q0 -63 -45 -103t-116 -40q-72 0 -116.5 40t-44.5 103zM264 733q0 -27 17 -45.5t44 -18.5q26 0 43.5 18.5t17.5 45.5q0 26 -18 44t-43 18t-43 -18.5t-18 -43.5z" />
    <glyph glyph-name="ae" unicode="&#xe6;" horiz-adv-x="966" 
d="M50 136q0 71 49 118t134 47q101 0 157 -39v37q0 39 -35 63.5t-77 24.5q-41 0 -75.5 -7.5t-48.5 -15.5l-15 -7l-56 121q7 6 21.5 14t65 22t108.5 14q127 0 210 -63q79 63 180 63q122 0 198.5 -70.5t76.5 -201.5q0 -18 -1 -24h-372q0 -54 35 -80.5t76 -26.5q43 0 68 11.5
t57 45.5l128 -64q-80 -134 -266 -134q-114 0 -196 77q-131 -77 -232 -77q-82 0 -136 42t-54 110zM226 151q0 -27 24.5 -43.5t60.5 -16.5q35 0 60 18.5t25 41.5t-25 39.5t-60 16.5q-37 0 -61 -15t-24 -41zM575 330h195q-6 40 -31.5 61.5t-65.5 21.5q-44 0 -70 -23t-28 -60z
" />
    <glyph glyph-name="ccedilla" unicode="&#xe7;" horiz-adv-x="490" 
d="M22 256q0 112 85.5 192t198.5 80q51 0 94 -12t60 -24l18 -12l-60 -121q-33 24 -86 24q-50 0 -86 -37.5t-36 -89.5q0 -53 36 -90t86 -37q24 0 45.5 6t30.5 12l10 6l60 -123q-7 -5 -19.5 -12.5t-57 -20.5t-95.5 -13q-13 0 -19 1l-15 -48q47 0 88 -27t41 -75
q0 -53 -37.5 -91t-114.5 -38q-40 0 -78.5 21t-56.5 41l-19 21l72 54q4 -5 11.5 -13t29 -21t41.5 -13q26 0 38 11.5t12 27.5q0 22 -19 33.5t-43 11.5q-16 0 -28.5 -2t-17.5 -4l-5 -3l-10 8l39 121q-83 28 -138 98.5t-55 157.5z" />
    <glyph glyph-name="egrave" unicode="&#xe8;" horiz-adv-x="603" 
d="M23 257q0 112 83 191.5t199 79.5q122 0 198.5 -70.5t76.5 -201.5q0 -18 -1 -24h-372q0 -54 35 -80.5t76 -26.5q43 0 68 11.5t57 45.5l128 -64q-80 -134 -266 -134q-116 0 -199 80.5t-83 192.5zM212 330h195q-6 40 -31.5 61.5t-65.5 21.5q-44 0 -70 -23t-28 -60zM138 725
l91 115l203 -176l-56 -77z" />
    <glyph glyph-name="eacute" unicode="&#xe9;" horiz-adv-x="603" 
d="M23 257q0 112 83 191.5t199 79.5q122 0 198.5 -70.5t76.5 -201.5q0 -18 -1 -24h-372q0 -54 35 -80.5t76 -26.5q43 0 68 11.5t57 45.5l128 -64q-80 -134 -266 -134q-116 0 -199 80.5t-83 192.5zM212 330h195q-6 40 -31.5 61.5t-65.5 21.5q-44 0 -70 -23t-28 -60zM178 664
l203 176l91 -115l-238 -138z" />
    <glyph glyph-name="ecircumflex" unicode="&#xea;" horiz-adv-x="603" 
d="M23 257q0 112 83 191.5t199 79.5q122 0 198.5 -70.5t76.5 -201.5q0 -18 -1 -24h-372q0 -54 35 -80.5t76 -26.5q43 0 68 11.5t57 45.5l128 -64q-80 -134 -266 -134q-116 0 -199 80.5t-83 192.5zM212 330h195q-6 40 -31.5 61.5t-65.5 21.5q-44 0 -70 -23t-28 -60zM84 678
l221 162l221 -162l-68 -91l-153 112l-153 -112z" />
    <glyph glyph-name="edieresis" unicode="&#xeb;" horiz-adv-x="603" 
d="M23 257q0 112 83 191.5t199 79.5q122 0 198.5 -70.5t76.5 -201.5q0 -18 -1 -24h-372q0 -54 35 -80.5t76 -26.5q43 0 68 11.5t57 45.5l128 -64q-80 -134 -266 -134q-116 0 -199 80.5t-83 192.5zM212 330h195q-6 40 -31.5 61.5t-65.5 21.5q-44 0 -70 -23t-28 -60zM186 791
q38 0 65 -27t27 -65t-27 -65t-65 -27t-65 27t-27 65t27 65t65 27zM424 791q38 0 65 -27t27 -65t-27 -65t-65 -27t-65 27t-27 65t27 65t65 27z" />
    <glyph glyph-name="igrave" unicode="&#xec;" horiz-adv-x="296" 
d="M60 512h176v-512h-176v512zM-90 725l91 115l203 -176l-56 -77z" />
    <glyph glyph-name="iacute" unicode="&#xed;" horiz-adv-x="296" 
d="M60 512h176v-512h-176v512zM92 664l203 176l91 -115l-238 -138z" />
    <glyph glyph-name="icircumflex" unicode="&#xee;" horiz-adv-x="296" 
d="M60 512h176v-512h-176v512zM-73 678l221 162l221 -162l-68 -91l-153 112l-153 -112z" />
    <glyph glyph-name="idieresis" unicode="&#xef;" horiz-adv-x="296" 
d="M60 512h176v-512h-176v512zM29 791q38 0 65 -27t27 -65t-27 -65t-65 -27t-65 27t-27 65t27 65t65 27zM267 791q38 0 65 -27t27 -65t-27 -65t-65 -27t-65 27t-27 65t27 65t65 27z" />
    <glyph glyph-name="eth" unicode="&#xf0;" horiz-adv-x="684" 
d="M41 256q0 79 42 143.5t100.5 96.5t115.5 32q61 0 90 -16q-44 63 -117 115l-83 -82l-77 77l62 62q-28 13 -56 23.5t-42 14.5l-13 3l42 150q85 -19 188 -72l73 72l76 -78l-52 -52q266 -187 266 -489q0 -118 -86.5 -195t-219.5 -77q-138 0 -223.5 76.5t-85.5 195.5zM229 256
q0 -53 33 -86.5t87 -33.5q52 0 85.5 34t33.5 86v5q-2 51 -36.5 83.5t-82.5 32.5q-51 0 -85.5 -34t-34.5 -87z" />
    <glyph glyph-name="ntilde" unicode="&#xf1;" horiz-adv-x="661" 
d="M60 512h177v-53q72 69 149 69q38 0 75.5 -10t72 -31t56 -59.5t21.5 -89.5v-338h-177v290q0 40 -25.5 70t-66.5 30q-40 0 -72.5 -31t-32.5 -69v-290h-177v512zM48 687q3 6 8 15t22 32.5t36 41.5t49.5 33t61.5 15q30 0 58.5 -9t45 -18t45.5 -27q46 -31 71 -31q26 0 47 19.5
t29 39.5l8 19l93 -82q-3 -6 -8 -15t-22 -32.5t-36 -41.5t-49.5 -33t-61.5 -15q-67 0 -147 53q-48 32 -73 32q-26 0 -47 -19.5t-29 -39.5l-8 -19z" />
    <glyph glyph-name="ograve" unicode="&#xf2;" horiz-adv-x="658" 
d="M162 725l91 115l203 -176l-56 -77zM23 256q0 119 87.5 195.5t218.5 76.5t218.5 -76.5t87.5 -195.5t-87.5 -195.5t-218.5 -76.5t-218.5 76.5t-87.5 195.5zM209 256q0 -53 34.5 -87t85.5 -34t85.5 34t34.5 87t-34.5 87t-85.5 34t-85.5 -34t-34.5 -87z" />
    <glyph glyph-name="oacute" unicode="&#xf3;" horiz-adv-x="658" 
d="M202 664l203 176l91 -115l-238 -138zM23 256q0 119 87.5 195.5t218.5 76.5t218.5 -76.5t87.5 -195.5t-87.5 -195.5t-218.5 -76.5t-218.5 76.5t-87.5 195.5zM209 256q0 -53 34.5 -87t85.5 -34t85.5 34t34.5 87t-34.5 87t-85.5 34t-85.5 -34t-34.5 -87z" />
    <glyph glyph-name="ocircumflex" unicode="&#xf4;" horiz-adv-x="658" 
d="M108 678l221 162l221 -162l-68 -91l-153 112l-153 -112zM23 256q0 119 87.5 195.5t218.5 76.5t218.5 -76.5t87.5 -195.5t-87.5 -195.5t-218.5 -76.5t-218.5 76.5t-87.5 195.5zM209 256q0 -53 34.5 -87t85.5 -34t85.5 34t34.5 87t-34.5 87t-85.5 34t-85.5 -34t-34.5 -87z
" />
    <glyph glyph-name="otilde" unicode="&#xf5;" horiz-adv-x="661" 
d="M26 256q0 119 87.5 195.5t218.5 76.5q129 0 217.5 -77t88.5 -195t-86.5 -195t-219.5 -77q-137 0 -221.5 76t-84.5 196zM212 256q0 -53 33 -87t87 -34q52 0 86 34.5t34 86.5t-35 86.5t-85 34.5q-51 0 -85.5 -34t-34.5 -87zM45 662q3 6 8 15t22 32.5t36 41.5t49.5 33
t61.5 15q30 0 58.5 -9t45 -18t45.5 -27q46 -31 71 -31q26 0 47 19.5t29 38.5l8 20l93 -82q-3 -6 -8 -15t-22 -32.5t-36 -41.5t-49.5 -33t-61.5 -15q-67 0 -147 53q-48 32 -73 32q-26 0 -47 -19.5t-29 -38.5l-8 -20z" />
    <glyph glyph-name="odieresis" unicode="&#xf6;" horiz-adv-x="661" 
d="M26 256q0 119 87.5 195.5t218.5 76.5q129 0 217.5 -77t88.5 -195t-86.5 -195t-219.5 -77q-137 0 -221.5 76t-84.5 196zM212 256q0 -53 33 -87t87 -34q52 0 86 34.5t34 86.5t-35 86.5t-85 34.5q-51 0 -85.5 -34t-34.5 -87zM213 791q38 0 65 -27t27 -65t-27 -65t-65 -27
t-65 27t-27 65t27 65t65 27zM451 791q38 0 65 -27t27 -65t-27 -65t-65 -27t-65 27t-27 65t27 65t65 27z" />
    <glyph glyph-name="divide" unicode="&#xf7;" horiz-adv-x="632" 
d="M315 720q34 0 58 -24t24 -58t-24 -57t-58 -23t-57 23t-23 57t23 58t57 24zM60 491h512v-153h-512v153zM315 271q34 0 58 -24t24 -58t-24 -57t-58 -23t-57 23t-23 57t23 58t57 24z" />
    <glyph glyph-name="oslash" unicode="&#xf8;" horiz-adv-x="659" 
d="M24 256q0 119 87.5 195.5t218.5 76.5q118 0 201 -63l90 73l45 -54l-84 -68q54 -70 54 -160q0 -119 -87.5 -195.5t-218.5 -76.5q-120 0 -203 63l-91 -73l-45 54l85 69q-52 69 -52 159zM450 256q0 25 -9 46l-181 -146q30 -21 70 -21q51 0 85.5 34t34.5 87zM210 256
q0 -25 7 -45l180 146q-29 20 -67 20q-51 0 -85.5 -34t-34.5 -87z" />
    <glyph glyph-name="ugrave" unicode="&#xf9;" horiz-adv-x="656" 
d="M50 512h177v-245q0 -76 23 -107.5t78 -31.5t78 31.5t23 107.5v245h177v-288q0 -128 -66.5 -184t-211.5 -56t-211.5 56t-66.5 184v288zM161 725l91 115l203 -176l-56 -77z" />
    <glyph glyph-name="uacute" unicode="&#xfa;" horiz-adv-x="656" 
d="M50 512h177v-245q0 -76 23 -107.5t78 -31.5t78 31.5t23 107.5v245h177v-288q0 -128 -66.5 -184t-211.5 -56t-211.5 56t-66.5 184v288zM201 664l203 176l91 -115l-238 -138z" />
    <glyph glyph-name="ucircumflex" unicode="&#xfb;" horiz-adv-x="656" 
d="M50 512h177v-245q0 -76 23 -107.5t78 -31.5t78 31.5t23 107.5v245h177v-288q0 -128 -66.5 -184t-211.5 -56t-211.5 56t-66.5 184v288zM107 678l221 162l221 -162l-68 -91l-153 112l-153 -112z" />
    <glyph glyph-name="udieresis" unicode="&#xfc;" horiz-adv-x="656" 
d="M50 512h177v-245q0 -76 23 -107.5t78 -31.5t78 31.5t23 107.5v245h177v-288q0 -128 -66.5 -184t-211.5 -56t-211.5 56t-66.5 184v288zM209 791q38 0 65 -27t27 -65t-27 -65t-65 -27t-65 27t-27 65t27 65t65 27zM447 791q38 0 65 -27t27 -65t-27 -65t-65 -27t-65 27
t-27 65t27 65t65 27z" />
    <glyph glyph-name="yacute" unicode="&#xfd;" horiz-adv-x="633" 
d="M-20 512h204l143 -262l122 262h204l-403 -772h-204l177 340zM190 664l203 176l91 -115l-238 -138z" />
    <glyph glyph-name="thorn" unicode="&#xfe;" 
d="M57 860h180v-397q67 65 168 65q111 0 182.5 -79t71.5 -193t-71.5 -193t-182.5 -79q-99 0 -168 71v-315h-180v1120zM233 256q0 -53 33.5 -87t85.5 -34q53 0 86 34t33 87t-34 87t-85 34q-50 0 -84.5 -34t-34.5 -87z" />
    <glyph glyph-name="ydieresis" unicode="&#xff;" horiz-adv-x="633" 
d="M-20 513h204l143 -263l122 263h204l-403 -773h-204l177 340zM208 791q38 0 65 -27t27 -65t-27 -65t-65 -27t-65 27t-27 65t27 65t65 27zM446 791q38 0 65 -27t27 -65t-27 -65t-65 -27t-65 27t-27 65t27 65t65 27z" />
    <glyph glyph-name="Amacron" unicode="&#x100;" horiz-adv-x="784" 
d="M305 825h174l333 -825h-202l-61 165h-314l-61 -165h-202zM392 570l-93 -240h186zM188 1066h408v-120h-408v120z" />
    <glyph glyph-name="amacron" unicode="&#x101;" 
d="M24 256q0 114 71.5 193t182.5 79q101 0 168 -65v49h180v-512h-180v55q-69 -71 -168 -71q-111 0 -182.5 79t-71.5 193zM212 256q0 -53 33 -87t86 -34q52 0 85.5 34t33.5 87t-34.5 87t-84.5 34q-51 0 -85 -34t-34 -87zM121 754h408v-120h-408v120z" />
    <glyph glyph-name="Abreve" unicode="&#x102;" horiz-adv-x="784" 
d="M305 825h174l333 -825h-202l-61 165h-314l-61 -165h-202zM392 570l-93 -240h186zM161 1121l126 31q0 -4 1.5 -11t8.5 -25t17.5 -31.5t31 -24.5t46.5 -11t46.5 10.5t31 25.5t17.5 30.5t9 26.5l1 10l126 -31q-9 -81 -72 -131t-159 -50t-159 50t-72 131z" />
    <glyph glyph-name="abreve" unicode="&#x103;" 
d="M24 256q0 114 71.5 193t182.5 79q101 0 168 -65v49h180v-512h-180v55q-69 -71 -168 -71q-111 0 -182.5 79t-71.5 193zM212 256q0 -53 33 -87t86 -34q52 0 85.5 34t33.5 87t-34.5 87t-84.5 34q-51 0 -85 -34t-34 -87zM94 809l126 31q0 -4 1.5 -11t8.5 -25t17.5 -31.5
t31 -24.5t46.5 -11t46.5 10.5t31 25.5t17.5 30.5t8 26.5l2 10l126 -31q-9 -81 -72 -131t-159 -50t-159 50t-72 131z" />
    <glyph glyph-name="Aogonek" unicode="&#x104;" horiz-adv-x="784" 
d="M549 -158q0 62 80 158h-19l-61 165h-314l-61 -165h-202l333 825h174l333 -825h-101q-7 -8 -16.5 -21.5t-26 -50.5t-16.5 -68q0 -18 11.5 -28.5t25.5 -10.5t26.5 7.5t18.5 15.5l6 7l72 -54q-2 -3 -5.5 -8t-16 -17t-27.5 -21.5t-38.5 -17.5t-49.5 -8q-47 0 -86.5 29
t-39.5 88zM392 570l-93 -240h186z" />
    <glyph glyph-name="aogonek" unicode="&#x105;" 
d="M368 -158q0 62 80 158h-2v55q-69 -71 -168 -71q-111 0 -182.5 79t-71.5 193t71.5 193t182.5 79q101 0 168 -65v49h180v-512h-96q-7 -8 -16.5 -21.5t-26 -50.5t-16.5 -68q0 -18 11.5 -28.5t25.5 -10.5t26.5 7.5t18.5 15.5l6 7l72 -54q-2 -3 -5.5 -8t-16 -17t-27.5 -21.5
t-38.5 -17.5t-49.5 -8q-47 0 -86.5 29t-39.5 88zM212 256q0 -53 33 -87t86 -34q52 0 85.5 34t33.5 87t-34.5 87t-84.5 34q-51 0 -85 -34t-34 -87z" />
    <glyph glyph-name="Cacute" unicode="&#x106;" horiz-adv-x="753" 
d="M23 412q0 116 62.5 215t165.5 156t219 57q80 0 147.5 -19t95.5 -38l28 -19l-80 -160q-7 6 -21 14.5t-56 22.5t-85 14q-68 0 -122 -22t-85.5 -58.5t-48 -78t-16.5 -84.5q0 -94 70.5 -168.5t201.5 -74.5q43 0 83.5 12.5t59.5 25.5l19 13l80 -160q-4 -3 -11 -8t-32.5 -18.5
t-54.5 -23.5t-76 -18t-97 -8q-115 0 -218 57t-166 156.5t-63 214.5zM265 976l203 176l91 -115l-238 -138z" />
    <glyph glyph-name="cacute" unicode="&#x107;" horiz-adv-x="491" 
d="M23 256q0 112 85.5 192t198.5 80q51 0 94 -12t61 -24l17 -12l-60 -121q-33 24 -86 24q-50 0 -86 -37.5t-36 -89.5q0 -53 36 -90t86 -37q24 0 45.5 6t31.5 12l9 6l60 -123q-7 -5 -19.5 -12.5t-57 -20.5t-95.5 -13q-112 0 -198 80.5t-86 191.5zM124 664l203 176l91 -115
l-238 -138z" />
    <glyph glyph-name="Ccaron" unicode="&#x10c;" horiz-adv-x="753" 
d="M23 412q0 116 62.5 215t165.5 156t219 57q80 0 147.5 -19t95.5 -38l28 -19l-80 -160q-7 6 -21 14.5t-56 22.5t-85 14q-68 0 -122 -22t-85.5 -58.5t-48 -78t-16.5 -84.5q0 -94 70.5 -168.5t201.5 -74.5q43 0 83.5 12.5t59.5 25.5l19 13l80 -160q-4 -3 -11 -8t-32.5 -18.5
t-54.5 -23.5t-76 -18t-97 -8q-115 0 -218 57t-166 156.5t-63 214.5zM219 1061l68 91l153 -112l153 112l68 -91l-221 -162z" />
    <glyph glyph-name="ccaron" unicode="&#x10d;" horiz-adv-x="491" 
d="M23 256q0 112 85.5 192t198.5 80q51 0 94 -12t61 -24l17 -12l-60 -121q-33 24 -86 24q-50 0 -86 -37.5t-36 -89.5q0 -53 36 -90t86 -37q24 0 45.5 6t31.5 12l9 6l60 -123q-7 -5 -19.5 -12.5t-57 -20.5t-95.5 -13q-112 0 -198 80.5t-86 191.5zM56 749l68 91l153 -112
l153 112l68 -91l-221 -162z" />
    <glyph glyph-name="Dcaron" unicode="&#x10e;" horiz-adv-x="738" 
d="M60 825h239q172 0 294 -118t122 -295q0 -178 -121.5 -295t-294.5 -117h-239v825zM248 657v-489h29q103 0 168.5 69.5t66.5 174.5q0 105 -65.5 175t-169.5 70h-29zM139 1061l68 91l153 -112l153 112l68 -91l-221 -162z" />
    <glyph glyph-name="dcaron" unicode="&#x10f;" 
d="M24 256q0 114 71.5 193t182.5 79q101 0 168 -65v397h180v-860h-180v55q-69 -71 -168 -71q-111 0 -182.5 79t-71.5 193zM212 256q0 -53 33 -87t86 -34q52 0 85.5 34t33.5 87t-34.5 87t-84.5 34q-51 0 -85 -34t-34 -87zM756 824q38 0 64 -26t26 -64q0 -114 -130 -221
l-40 31q47 45 59 110q-29 7 -48 29t-19 51q0 37 26 63.5t62 26.5z" />
    <glyph glyph-name="Dcroat" unicode="&#x110;" horiz-adv-x="738" 
d="M-22 336v153h82v336h239q172 0 294 -118t122 -295q0 -178 -121.5 -295t-294.5 -117h-239v336h-82zM248 657v-168h109v-153h-109v-168h29q103 0 168.5 69.5t66.5 174.5q0 105 -65.5 175t-169.5 70h-29z" />
    <glyph glyph-name="dcroat" unicode="&#x111;" 
d="M24 256q0 114 71.5 193t182.5 79q101 0 168 -65v165h-125v114h125v118h180v-118h57v-114h-57v-628h-180v55q-69 -71 -168 -71q-111 0 -182.5 79t-71.5 193zM212 256q0 -53 33 -87t86 -34q52 0 85.5 34t33.5 87t-34.5 87t-84.5 34q-51 0 -85 -34t-34 -87z" />
    <glyph glyph-name="Emacron" unicode="&#x112;" horiz-adv-x="580" 
d="M60 825h472v-165h-284v-164h272v-165h-272v-166h284v-165h-472v825zM92 1066h408v-120h-408v120z" />
    <glyph glyph-name="emacron" unicode="&#x113;" horiz-adv-x="603" 
d="M23 257q0 112 83 191.5t199 79.5q122 0 198.5 -70.5t76.5 -201.5q0 -18 -1 -24h-372q0 -54 35 -80.5t76 -26.5q43 0 68 11.5t57 45.5l128 -64q-80 -134 -266 -134q-116 0 -199 80.5t-83 192.5zM212 330h195q-6 40 -31.5 61.5t-65.5 21.5q-44 0 -70 -23t-28 -60zM101 754
h408v-120h-408v120z" />
    <glyph glyph-name="Edotaccent" unicode="&#x116;" horiz-adv-x="580" 
d="M60 825h472v-165h-284v-164h272v-165h-272v-166h284v-165h-472v825zM296 1103q38 0 65 -27t27 -65t-27 -65t-65 -27t-65 27t-27 65t27 65t65 27z" />
    <glyph glyph-name="edotaccent" unicode="&#x117;" horiz-adv-x="603" 
d="M23 257q0 112 83 191.5t199 79.5q122 0 198.5 -70.5t76.5 -201.5q0 -18 -1 -24h-372q0 -54 35 -80.5t76 -26.5q43 0 68 11.5t57 45.5l128 -64q-80 -134 -266 -134q-116 0 -199 80.5t-83 192.5zM212 330h195q-6 40 -31.5 61.5t-65.5 21.5q-44 0 -70 -23t-28 -60zM305 791
q38 0 65 -27t27 -65t-27 -65t-65 -27t-65 27t-27 65t27 65t65 27z" />
    <glyph glyph-name="Eogonek" unicode="&#x118;" horiz-adv-x="580" 
d="M273 -158q0 62 80 158h-293v825h472v-165h-284v-164h272v-165h-272v-166h284v-165h-97q-7 -8 -16.5 -21.5t-26 -50.5t-16.5 -68q0 -18 11.5 -28.5t25.5 -10.5t26.5 7.5t18.5 15.5l6 7l72 -54q-2 -3 -5.5 -8t-16 -17t-27.5 -21.5t-38.5 -17.5t-49.5 -8q-47 0 -86.5 29
t-39.5 88z" />
    <glyph glyph-name="eogonek" unicode="&#x119;" horiz-adv-x="603" 
d="M256 -158q0 58 67 143q-9 -1 -18 -1q-116 0 -199 80.5t-83 192.5t83 191.5t199 79.5q122 0 198.5 -70.5t76.5 -201.5q0 -18 -1 -24h-372q0 -54 35 -80.5t76 -26.5q43 0 68 11.5t57 45.5l128 -64q-55 -91 -155 -119q-57 -73 -57 -139q0 -18 11.5 -28.5t25.5 -10.5
t26.5 7.5t18.5 15.5l6 7l72 -54q-2 -3 -5.5 -8t-16 -17t-27.5 -21.5t-38.5 -17.5t-49.5 -8q-47 0 -86.5 29t-39.5 88zM212 330h195q-6 40 -31.5 61.5t-65.5 21.5q-44 0 -70 -23t-28 -60z" />
    <glyph glyph-name="Ecaron" unicode="&#x11a;" horiz-adv-x="580" 
d="M60 825h472v-165h-284v-164h272v-165h-272v-166h284v-165h-472v825zM75 1061l68 91l153 -112l153 112l68 -91l-221 -162z" />
    <glyph glyph-name="ecaron" unicode="&#x11b;" horiz-adv-x="603" 
d="M23 257q0 112 83 191.5t199 79.5q122 0 198.5 -70.5t76.5 -201.5q0 -18 -1 -24h-372q0 -54 35 -80.5t76 -26.5q43 0 68 11.5t57 45.5l128 -64q-80 -134 -266 -134q-116 0 -199 80.5t-83 192.5zM212 330h195q-6 40 -31.5 61.5t-65.5 21.5q-44 0 -70 -23t-28 -60zM84 749
l68 91l153 -112l153 112l68 -91l-221 -162z" />
    <glyph glyph-name="Gcommaaccent" unicode="&#x122;" horiz-adv-x="829" 
d="M23 412q0 180 115 304t287 124q201 0 318 -141l-123 -135q-66 106 -184 106q-87 0 -148.5 -75.5t-61.5 -182.5q0 -105 61.5 -180t148.5 -75q70 0 124.5 42t54.5 113v4h-190v145h381v-145q0 -58 -26.5 -116t-73 -106.5t-120.5 -79t-161 -30.5q-166 0 -284 125.5
t-118 302.5zM425 -40q37 0 63.5 -26t26.5 -64q0 -114 -130 -221l-40 31q47 45 59 110q-29 7 -48 29t-19 51q0 37 26 63.5t62 26.5z" />
    <glyph glyph-name="gcommaaccent" unicode="&#x123;" 
d="M212 256q0 -53 33 -87t86 -34q52 0 85.5 34t33.5 87t-34.5 87t-84.5 34q-51 0 -85 -34t-34 -87zM446 -1v56q-69 -71 -168 -71q-111 0 -182.5 79t-71.5 193t71.5 193t182.5 79q101 0 168 -65v49h180v-526q0 -125 -83.5 -193t-219.5 -68q-220 0 -284 149l145 71
q40 -66 139 -66q45 0 84 29.5t39 90.5zM326 607q-38 0 -64 26.5t-26 63.5q0 114 130 221l40 -31q-47 -45 -59 -110q29 -7 48 -29t19 -51q0 -37 -26 -63.5t-62 -26.5z" />
    <glyph glyph-name="Imacron" unicode="&#x12a;" horiz-adv-x="308" 
d="M60 825h188v-825h-188v825zM-50 1066h408v-120h-408v120z" />
    <glyph glyph-name="imacron" unicode="&#x12b;" horiz-adv-x="296" 
d="M60 512h176v-512h-176v512zM-56 754h408v-120h-408v120z" />
    <glyph glyph-name="Iogonek" unicode="&#x12e;" horiz-adv-x="308" 
d="M33 -158q0 62 80 158h-53v825h188v-825h-53q-7 -8 -16.5 -21.5t-26 -50.5t-16.5 -68q0 -18 11.5 -28.5t25.5 -10.5t26.5 7.5t18.5 15.5l6 7l72 -54q-2 -3 -5.5 -8t-16 -17t-27.5 -21.5t-38.5 -17.5t-49.5 -8q-47 0 -86.5 29t-39.5 88z" />
    <glyph glyph-name="iogonek" unicode="&#x12f;" horiz-adv-x="296" 
d="M29 -158q0 62 80 158h-49v512h176v-512h-45q-7 -8 -16.5 -21.5t-26 -50.5t-16.5 -68q0 -18 11.5 -28.5t25.5 -10.5t26.5 7.5t18.5 15.5l6 7l72 -54q-2 -3 -5.5 -8t-16 -17t-27.5 -21.5t-38.5 -17.5t-49.5 -8q-47 0 -86.5 29t-39.5 88zM148 830q44 0 74.5 -31t30.5 -74
t-30.5 -74t-74.5 -31t-74.5 31t-30.5 74t30.5 74t74.5 31z" />
    <glyph glyph-name="dotlessi" unicode="&#x131;" horiz-adv-x="296" 
d="M60 512h176v-512h-176v512z" />
    <glyph glyph-name="Kcommaaccent" unicode="&#x136;" horiz-adv-x="787" 
d="M60 825h188v-337l283 337h228l-332 -391l384 -434h-259l-304 350v-350h-188v825zM392 -40q38 0 64 -26t26 -64q0 -114 -130 -221l-40 31q47 45 59 110q-29 7 -48 29t-19 51q0 37 26 63.5t62 26.5z" />
    <glyph glyph-name="kcommaaccent" unicode="&#x137;" horiz-adv-x="646" 
d="M60 860h177v-527l179 179h230l-244 -245l268 -267h-228l-205 204v-204h-177v860zM322 -40q38 0 64 -26t26 -64q0 -114 -130 -221l-40 31q47 45 59 110q-29 7 -48 29t-19 51q0 37 26 63.5t62 26.5z" />
    <glyph glyph-name="Lacute" unicode="&#x139;" horiz-adv-x="565" 
d="M60 825h188v-660h284v-165h-472v825zM98 976l203 176l91 -115l-238 -138z" />
    <glyph glyph-name="lacute" unicode="&#x13a;" horiz-adv-x="298" 
d="M60 860h178v-860h-178v860zM93 1011l203 176l91 -115l-238 -138z" />
    <glyph glyph-name="Lcommaaccent" unicode="&#x13b;" horiz-adv-x="565" 
d="M60 825h188v-660h284v-165h-472v825zM281 -40q37 0 63.5 -26t26.5 -64q0 -114 -130 -221l-40 31q47 45 59 110q-29 7 -48 29t-19 51q0 37 26 63.5t62 26.5z" />
    <glyph glyph-name="lcommaaccent" unicode="&#x13c;" horiz-adv-x="298" 
d="M60 860h178v-860h-178v860zM148 -40q38 0 64 -26t26 -64q0 -114 -130 -221l-40 31q47 45 59 110q-29 7 -48 29t-19 51q0 37 26 63.5t62 26.5z" />
    <glyph glyph-name="Lcaron" unicode="&#x13d;" horiz-adv-x="565" 
d="M60 825h188v-660h284v-165h-472v825zM417 825q37 0 63.5 -26.5t26.5 -63.5q0 -114 -130 -221l-40 31q47 45 59 110q-29 7 -48 29t-19 51q0 37 26 63.5t62 26.5z" />
    <glyph glyph-name="lcaron" unicode="&#x13e;" horiz-adv-x="298" 
d="M60 860h178v-860h-178v860zM370 824q38 0 64 -26t26 -64q0 -114 -130 -221l-40 31q47 45 59 110q-29 7 -48 29t-19 51q0 37 26 63.5t62 26.5z" />
    <glyph glyph-name="Lslash" unicode="&#x141;" horiz-adv-x="565" 
d="M60 825h188v-215l105 83v-153l-105 -83v-292h284v-165h-472v309l-76 -59v153l76 59v363z" />
    <glyph glyph-name="lslash" unicode="&#x142;" horiz-adv-x="298" 
d="M60 860h178v-258l76 60v-153l-76 -60v-449h-178v309l-76 -59v153l76 59v398z" />
    <glyph glyph-name="Nacute" unicode="&#x143;" horiz-adv-x="826" 
d="M60 825h188l330 -512v512h188v-825h-188l-330 512v-512h-188v825zM266 976l203 176l91 -115l-238 -138z" />
    <glyph glyph-name="nacute" unicode="&#x144;" horiz-adv-x="661" 
d="M60 512h177v-53q72 69 149 69q38 0 75.5 -10t72 -31t56 -59.5t21.5 -89.5v-338h-177v290q0 40 -25.5 70t-66.5 30q-40 0 -72.5 -31t-32.5 -69v-290h-177v512zM239 664l203 176l91 -115l-238 -138z" />
    <glyph glyph-name="Ncommaaccent" unicode="&#x145;" horiz-adv-x="826" 
d="M412 -40q38 0 64 -26t26 -64q0 -114 -130 -221l-40 31q47 45 59 110q-29 7 -48 29t-19 51q0 37 26 63.5t62 26.5zM60 825h188l330 -512v512h188v-825h-188l-330 512v-512h-188v825z" />
    <glyph glyph-name="ncommaaccent" unicode="&#x146;" horiz-adv-x="661" 
d="M334 -40q38 0 64 -26t26 -64q0 -114 -130 -221l-40 31q47 45 59 110q-29 7 -48 29t-19 51q0 37 26 63.5t62 26.5zM60 512h177v-53q72 69 149 69q38 0 75.5 -10t72 -31t56 -59.5t21.5 -89.5v-338h-177v290q0 40 -25.5 70t-66.5 30q-40 0 -72.5 -31t-32.5 -69v-290h-177
v512z" />
    <glyph glyph-name="Ncaron" unicode="&#x147;" horiz-adv-x="826" 
d="M60 825h188l330 -512v512h188v-825h-188l-330 512v-512h-188v825zM192 1061l68 91l153 -112l153 112l68 -91l-221 -162z" />
    <glyph glyph-name="ncaron" unicode="&#x148;" horiz-adv-x="661" 
d="M60 512h177v-53q72 69 149 69q38 0 75.5 -10t72 -31t56 -59.5t21.5 -89.5v-338h-177v290q0 40 -25.5 70t-66.5 30q-40 0 -72.5 -31t-32.5 -69v-290h-177v512zM114 749l68 91l153 -112l153 112l68 -91l-221 -162z" />
    <glyph glyph-name="Omacron" unicode="&#x14c;" horiz-adv-x="889" 
d="M30 412q0 179 122 303.5t294 124.5q173 0 294.5 -124t121.5 -304q0 -181 -119.5 -304.5t-296.5 -123.5q-181 0 -298.5 122.5t-117.5 305.5zM233 412q0 -65 20 -118.5t70 -90.5t123 -37q105 0 159 72t54 174q0 101 -55 174t-158 73q-102 0 -157.5 -73t-55.5 -174z
M242 1066h408v-120h-408v120z" />
    <glyph glyph-name="omacron" unicode="&#x14d;" horiz-adv-x="661" 
d="M26 256q0 119 87.5 195.5t218.5 76.5q129 0 217.5 -77t88.5 -195t-86.5 -195t-219.5 -77q-137 0 -221.5 76t-84.5 196zM212 256q0 -53 33 -87t87 -34q52 0 86 34.5t34 86.5t-35 86.5t-85 34.5q-51 0 -85.5 -34t-34.5 -87zM128 754h408v-120h-408v120z" />
    <glyph glyph-name="Ohungarumlaut" unicode="&#x150;" horiz-adv-x="889" 
d="M30 412q0 179 122 303.5t294 124.5q173 0 294.5 -124t121.5 -304q0 -181 -119.5 -304.5t-296.5 -123.5q-181 0 -298.5 122.5t-117.5 305.5zM233 412q0 -65 20 -118.5t70 -90.5t123 -37q105 0 159 72t54 174q0 101 -55 174t-158 73q-102 0 -157.5 -73t-55.5 -174zM192 996
l203 176l91 -115l-238 -138zM466 996l203 176l91 -115l-238 -138z" />
    <glyph glyph-name="ohungarumlaut" unicode="&#x151;" horiz-adv-x="661" 
d="M26 256q0 119 87.5 195.5t218.5 76.5q129 0 217.5 -77t88.5 -195t-86.5 -195t-219.5 -77q-137 0 -221.5 76t-84.5 196zM212 256q0 -53 33 -87t87 -34q52 0 86 34.5t34 86.5t-35 86.5t-85 34.5q-51 0 -85.5 -34t-34.5 -87zM68 664l203 176l91 -115l-238 -138zM342 664
l203 176l91 -115l-238 -138z" />
    <glyph glyph-name="OE" unicode="&#x152;" horiz-adv-x="996" 
d="M9 412q0 178 121.5 295.5t294.5 117.5h523v-165h-284v-164h272v-165h-272v-166h284v-165h-523q-173 0 -294.5 117t-121.5 295zM212 412q0 -105 65.5 -174.5t169.5 -69.5h29v489h-29q-104 0 -169.5 -70.5t-65.5 -174.5z" />
    <glyph glyph-name="oe" unicode="&#x153;" horiz-adv-x="1025" 
d="M27 256q0 119 86 195.5t217 76.5q34 0 67 -8.5t55 -20.5t39 -24t25 -21l8 -8q3 3 9 8.5t25.5 20t41.5 25t56.5 19.5t70.5 9q122 0 198.5 -70.5t76.5 -201.5q0 -18 -1 -24h-372q0 -54 35 -80.5t76 -26.5q43 0 68 11.5t57 45.5l128 -64q-80 -134 -266 -134
q-53 0 -103.5 20.5t-74.5 41.5l-24 20q-3 -3 -8 -8.5t-24 -20t-39.5 -25t-54 -19.5t-69.5 -9q-137 0 -220 76t-83 196zM634 330h195q-6 40 -31.5 61.5t-65.5 21.5q-44 0 -70 -23t-28 -60zM212 256q0 -53 33 -87t87 -34q52 0 85.5 34t33.5 87t-34.5 87t-84.5 34
q-51 0 -85.5 -34t-34.5 -87z" />
    <glyph glyph-name="Racute" unicode="&#x154;" horiz-adv-x="716" 
d="M60 825h301q126 0 204 -65t78 -189q0 -94 -46.5 -158.5t-126.5 -90.5l269 -322h-239l-237 306h-15v-306h-188v825zM248 675v-219h53q63 0 103.5 25.5t40.5 83.5q0 59 -40.5 84.5t-103.5 25.5h-53zM211 976l203 176l91 -115l-238 -138z" />
    <glyph glyph-name="racute" unicode="&#x155;" horiz-adv-x="499" 
d="M61 512h177v-73q2 4 6.5 10t20 21t33 27t44.5 21.5t55 9.5q29 0 57 -8t42 -16l13 -8l-74 -150q-33 28 -92 28q-32 0 -55 -14t-32.5 -34t-13.5 -34t-4 -22v-270h-177v512zM138 664l203 176l91 -115l-238 -138z" />
    <glyph glyph-name="Rcommaaccent" unicode="&#x156;" horiz-adv-x="716" 
d="M60 825h301q126 0 204 -65t78 -189q0 -94 -46.5 -158.5t-126.5 -90.5l269 -322h-239l-237 306h-15v-306h-188v825zM248 675v-219h53q63 0 103.5 25.5t40.5 83.5q0 59 -40.5 84.5t-103.5 25.5h-53zM357 -40q37 0 63.5 -26t26.5 -64q0 -114 -130 -221l-40 31q47 45 59 110
q-29 7 -48 29t-19 51q0 37 26 63.5t62 26.5z" />
    <glyph glyph-name="rcommaaccent" unicode="&#x157;" horiz-adv-x="498" 
d="M61 512h176v-73q2 4 6.5 10t20 21t33 27t44.5 21.5t55 9.5q29 0 57 -8t41 -16l14 -8l-74 -150q-33 28 -92 28q-32 0 -55 -14t-32.5 -34t-13.5 -34t-4 -22v-270h-176v512zM148 -40q38 0 64 -26t26 -64q0 -114 -130 -221l-40 31q47 45 59 110q-29 7 -48 29t-19 51
q0 37 26 63.5t62 26.5z" />
    <glyph glyph-name="Rcaron" unicode="&#x158;" horiz-adv-x="716" 
d="M60 825h301q126 0 204 -65t78 -189q0 -94 -46.5 -158.5t-126.5 -90.5l269 -322h-239l-237 306h-15v-306h-188v825zM248 675v-219h53q63 0 103.5 25.5t40.5 83.5q0 59 -40.5 84.5t-103.5 25.5h-53zM103 1061l68 91l153 -112l153 112l68 -91l-221 -162z" />
    <glyph glyph-name="rcaron" unicode="&#x159;" horiz-adv-x="499" 
d="M61 512h177v-73q2 4 6.5 10t20 21t33 27t44.5 21.5t55 9.5q29 0 57 -8t42 -16l13 -8l-74 -150q-33 28 -92 28q-32 0 -55 -14t-32.5 -34t-13.5 -34t-4 -22v-270h-177v512zM64 749l68 91l153 -112l153 112l68 -91l-221 -162z" />
    <glyph glyph-name="Sacute" unicode="&#x15a;" horiz-adv-x="672" 
d="M95 587q0 111 82 182t187 71q67 0 131 -20t95 -40l30 -19l-76 -150q-9 6 -25 16t-60 26t-82 16q-47 0 -72.5 -20.5t-25.5 -54.5q0 -17 12 -31.5t41 -31t51 -26.5t68 -30q80 -34 136.5 -92.5t56.5 -132.5q0 -71 -25.5 -124t-70 -83t-98.5 -44.5t-117 -14.5q-54 0 -106 11
t-87 27t-63 32.5t-41 27.5l-13 11l94 158q12 -10 33 -25.5t74.5 -41.5t94.5 -26q119 0 119 81q0 17 -8.5 31.5t-30 29t-38 23t-54 26t-55.5 26.5q-75 37 -116 92.5t-41 119.5zM237 976l203 176l91 -115l-238 -138z" />
    <glyph glyph-name="sacute" unicode="&#x15b;" horiz-adv-x="492" 
d="M283 528q44 0 87 -10t64 -20l21 -10l-58 -116q-60 32 -114 32q-30 0 -42.5 -6.5t-12.5 -24.5q0 -9 4.5 -15.5t18 -13t23.5 -10t34 -10.5q30 -9 53.5 -20.5t49 -30t39.5 -48t14 -66.5q0 -175 -243 -175q-55 0 -104.5 17t-71.5 35l-22 17l72 121q8 -7 21 -16.5t47 -26
t59 -16.5q55 0 55 37q0 13 -10.5 22.5t-24 15t-38 15t-41.5 18.5q-48 25 -76 56.5t-28 83.5q0 78 60.5 121.5t163.5 43.5zM146 664l203 176l91 -115l-238 -138z" />
    <glyph glyph-name="Scedilla" unicode="&#x15e;" horiz-adv-x="673" 
d="M95 587q0 111 82 182t187 71q67 0 131 -20t95 -40l30 -19l-76 -150q-9 6 -25 16t-60 26t-82 16q-47 0 -72.5 -20.5t-25.5 -54.5q0 -17 12 -31.5t41 -31t51 -26.5t68 -30q80 -34 136.5 -92.5t56.5 -132.5q0 -86 -38 -145.5t-96 -86t-134 -32.5l-16 -49q47 0 88 -27t41 -75
q0 -53 -37.5 -91t-114.5 -38q-40 0 -78.5 21t-56.5 41l-19 21l72 54q4 -5 11.5 -13t29 -21t41.5 -13q26 0 38 11.5t12 27.5q0 22 -19 33.5t-43 11.5q-16 0 -28.5 -2t-17.5 -4l-5 -3l-10 8l34 106q-48 3 -94 15.5t-77.5 28t-56 30t-36.5 24.5l-11 10l94 158q12 -10 33 -25.5
t74.5 -41.5t94.5 -26q119 0 119 81q0 17 -8.5 31.5t-30 29t-38 23t-54 26t-55.5 26.5q-75 37 -116 92.5t-41 119.5z" />
    <glyph glyph-name="scedilla" unicode="&#x15f;" horiz-adv-x="491" 
d="M283 528q44 0 87 -10t64 -20l21 -10l-58 -116q-60 32 -114 32q-30 0 -42.5 -6.5t-12.5 -24.5q0 -9 4.5 -15.5t18 -13t23.5 -10t34 -10.5q30 -9 53.5 -20.5t49 -30t39.5 -48t14 -66.5q0 -149 -178 -171l-16 -51q47 0 88 -27t41 -75q0 -53 -37.5 -91t-114.5 -38
q-40 0 -78.5 21t-56.5 41l-19 21l72 54q4 -5 11.5 -13t29 -21t41.5 -13q26 0 38 11.5t12 27.5q0 22 -19 33.5t-43 11.5q-16 0 -28.5 -2t-17.5 -4l-5 -3l-10 8l34 105q-52 2 -98 19.5t-66 33.5l-21 16l72 121q8 -7 21 -16.5t47 -26t59 -16.5q55 0 55 37q0 13 -10.5 22.5
t-24 15t-38 15t-41.5 18.5q-48 25 -76 56.5t-28 83.5q0 78 60.5 121.5t163.5 43.5z" />
    <glyph glyph-name="Scaron" unicode="&#x160;" horiz-adv-x="672" 
d="M95 587q0 111 82 182t187 71q67 0 131 -20t95 -40l30 -19l-76 -150q-9 6 -25 16t-60 26t-82 16q-47 0 -72.5 -20.5t-25.5 -54.5q0 -17 12 -31.5t41 -31t51 -26.5t68 -30q80 -34 136.5 -92.5t56.5 -132.5q0 -71 -25.5 -124t-70 -83t-98.5 -44.5t-117 -14.5q-54 0 -106 11
t-87 27t-63 32.5t-41 27.5l-13 11l94 158q12 -10 33 -25.5t74.5 -41.5t94.5 -26q119 0 119 81q0 17 -8.5 31.5t-30 29t-38 23t-54 26t-55.5 26.5q-75 37 -116 92.5t-41 119.5zM143 1061l68 91l153 -112l153 112l68 -91l-221 -162z" />
    <glyph glyph-name="scaron" unicode="&#x161;" horiz-adv-x="492" 
d="M283 528q44 0 87 -10t64 -20l21 -10l-58 -116q-60 32 -114 32q-30 0 -42.5 -6.5t-12.5 -24.5q0 -9 4.5 -15.5t18 -13t23.5 -10t34 -10.5q30 -9 53.5 -20.5t49 -30t39.5 -48t14 -66.5q0 -175 -243 -175q-55 0 -104.5 17t-71.5 35l-22 17l72 121q8 -7 21 -16.5t47 -26
t59 -16.5q55 0 55 37q0 13 -10.5 22.5t-24 15t-38 15t-41.5 18.5q-48 25 -76 56.5t-28 83.5q0 78 60.5 121.5t163.5 43.5zM62 749l68 91l153 -112l153 112l68 -91l-221 -162z" />
    <glyph glyph-name="Tcommaaccent" unicode="&#x162;" horiz-adv-x="596" 
d="M8 825h580v-165h-196v-660h-188v660h-196v165zM297 -69q37 0 63.5 -26.5t26.5 -63.5q0 -114 -130 -221l-40 31q47 45 59 110q-29 7 -48 29t-19 51q0 37 26 63.5t62 26.5z" />
    <glyph glyph-name="tcommaaccent" unicode="&#x163;" horiz-adv-x="395" 
d="M16 512h74v192h177v-192h108v-135h-108v-163q0 -71 40 -71q10 0 21 4t17 8l6 4l44 -143q-57 -32 -130 -32q-50 0 -86 17.5t-54.5 47t-26.5 62t-8 69.5v197h-74v135zM232 -40q38 0 64 -26t26 -64q0 -114 -130 -221l-40 31q47 45 59 110q-29 7 -48 29t-19 51q0 37 26 63.5
t62 26.5z" />
    <glyph glyph-name="Tcaron" unicode="&#x164;" horiz-adv-x="596" 
d="M8 825h580v-165h-196v-660h-188v660h-196v165zM77 1061l68 91l153 -112l153 112l68 -91l-221 -162z" />
    <glyph glyph-name="tcaron" unicode="&#x165;" horiz-adv-x="395" 
d="M16 512h74v192h177v-192h108v-135h-108v-163q0 -71 40 -71q10 0 21 4t17 8l6 4l44 -143q-57 -32 -130 -32q-50 0 -86 17.5t-54.5 47t-26.5 62t-8 69.5v197h-74v135zM476 824q38 0 64 -26t26 -64q0 -114 -130 -221l-40 31q47 45 59 110q-29 7 -48 29t-19 51q0 37 26 63.5
t62 26.5z" />
    <glyph glyph-name="Umacron" unicode="&#x16a;" horiz-adv-x="744" 
d="M50 825h188v-478q0 -100 31.5 -139t102.5 -39t102.5 39t31.5 139v478h188v-533q0 -152 -82 -230t-240 -78t-240 78t-82 230v533zM168 1066h408v-120h-408v120z" />
    <glyph glyph-name="umacron" unicode="&#x16b;" horiz-adv-x="656" 
d="M50 512h177v-245q0 -76 23 -107.5t78 -31.5t78 31.5t23 107.5v245h177v-288q0 -128 -66.5 -184t-211.5 -56t-211.5 56t-66.5 184v288zM124 754h408v-120h-408v120z" />
    <glyph glyph-name="Uring" unicode="&#x16e;" horiz-adv-x="744" 
d="M50 825h188v-478q0 -100 31.5 -139t102.5 -39t102.5 39t31.5 139v478h188v-533q0 -152 -82 -230t-240 -78t-240 78t-82 230v533zM211 1045q0 62 46.5 102t114.5 40q69 0 115 -40t46 -102q0 -63 -45 -103t-116 -40q-72 0 -116.5 40t-44.5 103zM311 1045q0 -27 17 -45.5
t44 -18.5q26 0 43.5 18.5t17.5 45.5q0 26 -18 44t-43 18t-43 -18.5t-18 -43.5z" />
    <glyph glyph-name="uring" unicode="&#x16f;" horiz-adv-x="656" 
d="M50 512h177v-245q0 -76 23 -107.5t78 -31.5t78 31.5t23 107.5v245h177v-288q0 -128 -66.5 -184t-211.5 -56t-211.5 56t-66.5 184v288zM167 733q0 62 46.5 102t114.5 40q69 0 115 -40t46 -102q0 -63 -45 -103t-116 -40q-72 0 -116.5 40t-44.5 103zM267 733q0 -27 17 -45.5
t44 -18.5q26 0 43.5 18.5t17.5 45.5q0 26 -18 44t-43 18t-43 -18.5t-18 -43.5z" />
    <glyph glyph-name="Uhungarumlaut" unicode="&#x170;" horiz-adv-x="744" 
d="M50 825h188v-478q0 -100 31.5 -139t102.5 -39t102.5 39t31.5 139v478h188v-533q0 -152 -82 -230t-240 -78t-240 78t-82 230v533zM118 996l203 176l91 -115l-238 -138zM392 996l203 176l91 -115l-238 -138z" />
    <glyph glyph-name="uhungarumlaut" unicode="&#x171;" horiz-adv-x="656" 
d="M50 512h177v-245q0 -76 23 -107.5t78 -31.5t78 31.5t23 107.5v245h177v-288q0 -128 -66.5 -184t-211.5 -56t-211.5 56t-66.5 184v288zM64 664l203 176l91 -115l-238 -138zM338 664l203 176l91 -115l-238 -138z" />
    <glyph glyph-name="Uogonek" unicode="&#x172;" horiz-adv-x="744" 
d="M265 -158q0 58 68 144q-139 9 -211 86t-72 220v533h188v-478q0 -100 31.5 -139t102.5 -39t102.5 39t31.5 139v478h188v-533q0 -141 -71 -218t-207 -88q-48 -69 -48 -126q0 -18 11.5 -28.5t25.5 -10.5t26.5 7.5t18.5 15.5l6 7l72 -54q-2 -3 -5.5 -8t-16 -17t-27.5 -21.5
t-38.5 -17.5t-49.5 -8q-47 0 -86.5 29t-39.5 88z" />
    <glyph glyph-name="uogonek" unicode="&#x173;" horiz-adv-x="656" 
d="M221 -158q0 57 68 143q-125 7 -182 63.5t-57 175.5v288h177v-245q0 -76 23 -107.5t78 -31.5t78 31.5t23 107.5v245h177v-288q0 -118 -56 -174.5t-178 -64.5q-48 -65 -48 -125q0 -18 11.5 -28.5t25.5 -10.5t26.5 7.5t18.5 15.5l6 7l72 -54q-2 -3 -5.5 -8t-16 -17
t-27.5 -21.5t-38.5 -17.5t-49.5 -8q-47 0 -86.5 29t-39.5 88z" />
    <glyph glyph-name="Ydieresis" unicode="&#x178;" horiz-adv-x="740" 
d="M-28 825h226l172 -264l172 264h226l-304 -455v-370h-188v370zM251 1103q38 0 65 -27t27 -65t-27 -65t-65 -27t-65 27t-27 65t27 65t65 27zM489 1103q38 0 65 -27t27 -65t-27 -65t-65 -27t-65 27t-27 65t27 65t65 27z" />
    <glyph glyph-name="Zacute" unicode="&#x179;" horiz-adv-x="769" 
d="M74 825h679l-409 -660h382v-165h-710l408 660h-350v165zM297 976l203 176l91 -115l-238 -138z" />
    <glyph glyph-name="zacute" unicode="&#x17a;" horiz-adv-x="840" 
d="M165 512h509l-254 -377h234v-135h-531l254 377h-212v135zM293 664l203 176l91 -115l-238 -138z" />
    <glyph glyph-name="Zdotaccent" unicode="&#x17b;" horiz-adv-x="769" 
d="M74 825h679l-409 -660h382v-165h-710l408 660h-350v165zM413 1103q38 0 65 -27t27 -65t-27 -65t-65 -27t-65 27t-27 65t27 65t65 27z" />
    <glyph glyph-name="zdotaccent" unicode="&#x17c;" horiz-adv-x="840" 
d="M165 512h509l-254 -377h234v-135h-531l254 377h-212v135zM419 791q38 0 65 -27t27 -65t-27 -65t-65 -27t-65 27t-27 65t27 65t65 27z" />
    <glyph glyph-name="Zcaron" unicode="&#x17d;" horiz-adv-x="769" 
d="M74 825h679l-409 -660h382v-165h-710l408 660h-350v165zM192 1061l68 91l153 -112l153 112l68 -91l-221 -162z" />
    <glyph glyph-name="zcaron" unicode="&#x17e;" horiz-adv-x="840" 
d="M165 512h509l-254 -377h234v-135h-531l254 377h-212v135zM198 749l68 91l153 -112l153 112l68 -91l-221 -162z" />
    <glyph glyph-name="Scommaaccent" unicode="&#x218;" horiz-adv-x="672" 
d="M95 587q0 111 82 182t187 71q67 0 131 -20t95 -40l30 -19l-76 -150q-9 6 -25 16t-60 26t-82 16q-47 0 -72.5 -20.5t-25.5 -54.5q0 -17 12 -31.5t41 -31t51 -26.5t68 -30q80 -34 136.5 -92.5t56.5 -132.5q0 -71 -25.5 -124t-70 -83t-98.5 -44.5t-117 -14.5q-54 0 -106 11
t-87 27t-63 32.5t-41 27.5l-13 11l94 158q12 -10 33 -25.5t74.5 -41.5t94.5 -26q119 0 119 81q0 17 -8.5 31.5t-30 29t-38 23t-54 26t-55.5 26.5q-75 37 -116 92.5t-41 119.5zM333 -40q37 0 63.5 -26t26.5 -64q0 -114 -130 -221l-40 31q47 45 59 110q-29 7 -48 29t-19 51
q0 37 26 63.5t62 26.5z" />
    <glyph glyph-name="scommaaccent" unicode="&#x219;" horiz-adv-x="492" 
d="M283 528q44 0 87 -10t64 -20l21 -10l-58 -116q-60 32 -114 32q-30 0 -42.5 -6.5t-12.5 -24.5q0 -9 4.5 -15.5t18 -13t23.5 -10t34 -10.5q30 -9 53.5 -20.5t49 -30t39.5 -48t14 -66.5q0 -175 -243 -175q-55 0 -104.5 17t-71.5 35l-22 17l72 121q8 -7 21 -16.5t47 -26
t59 -16.5q55 0 55 37q0 13 -10.5 22.5t-24 15t-38 15t-41.5 18.5q-48 25 -76 56.5t-28 83.5q0 78 60.5 121.5t163.5 43.5zM221 -40q37 0 63.5 -26t26.5 -64q0 -114 -130 -221l-40 31q47 45 59 110q-29 7 -48 29t-19 51q0 37 26 63.5t62 26.5z" />
    <glyph glyph-name="circumflex" unicode="&#x2c6;" horiz-adv-x="582" 
d="M70 678l221 162l221 -162l-68 -91l-153 112l-153 -112z" />
    <glyph glyph-name="caron" unicode="&#x2c7;" horiz-adv-x="582" 
d="M70 749l68 91l153 -112l153 112l68 -91l-221 -162z" />
    <glyph glyph-name="breve" unicode="&#x2d8;" horiz-adv-x="602" 
d="M70 809l126 31q0 -4 1.5 -11t8.5 -25t17.5 -31.5t31 -24.5t46.5 -11t46.5 10.5t31 25.5t17.5 30.5t8 26.5l2 10l126 -31q-9 -81 -72 -131t-159 -50t-159 50t-72 131z" />
    <glyph glyph-name="dotaccent" unicode="&#x2d9;" horiz-adv-x="324" 
d="M162 791q38 0 65 -27t27 -65t-27 -65t-65 -27t-65 27t-27 65t27 65t65 27z" />
    <glyph glyph-name="ring" unicode="&#x2da;" horiz-adv-x="462" 
d="M70 733q0 62 46.5 102t114.5 40q69 0 115 -40t46 -102q0 -63 -45 -103t-116 -40q-72 0 -116.5 40t-44.5 103zM170 733q0 -27 17 -45.5t44 -18.5q26 0 43.5 18.5t17.5 45.5q0 26 -18 44t-43 18t-43 -18.5t-18 -43.5z" />
    <glyph glyph-name="ogonek" unicode="&#x2db;" horiz-adv-x="403" 
d="M70 -158q0 35 26 81t52 75l26 28l58 -26q-7 -8 -16.5 -21.5t-26 -50.5t-16.5 -68q0 -18 11.5 -28.5t25.5 -10.5t26.5 7.5t18.5 15.5l6 7l72 -54q-2 -3 -5.5 -8t-16 -17t-27.5 -21.5t-38.5 -17.5t-49.5 -8q-47 0 -86.5 29t-39.5 88z" />
    <glyph glyph-name="tilde" unicode="&#x2dc;" horiz-adv-x="602" 
d="M14 688q3 6 8 15t22 32.5t36 41.5t49.5 33t61.5 15q30 0 58.5 -9t45 -18t45.5 -27q46 -31 71 -31q26 0 47 19.5t29 38.5l8 20l93 -82q-3 -6 -8 -15t-22 -32.5t-36 -41.5t-49.5 -33t-61.5 -15q-67 0 -147 53q-48 32 -73 32q-26 0 -47 -19.5t-29 -38.5l-8 -20z" />
    <glyph glyph-name="hungarumlaut" unicode="&#x2dd;" horiz-adv-x="767" 
d="M99 664l203 176l91 -115l-238 -138zM373 664l203 176l91 -115l-238 -138z" />
    <glyph glyph-name="endash" unicode="&#x2013;" horiz-adv-x="540" 
d="M0 366h540v-153h-540v153z" />
    <glyph glyph-name="emdash" unicode="&#x2014;" horiz-adv-x="1080" 
d="M0 366h1080v-153h-1080v153z" />
    <glyph glyph-name="quoteleft" unicode="&#x2018;" horiz-adv-x="291" 
d="M23 581q0 132 152 259l47 -37q-6 -6 -15.5 -16.5t-28.5 -44t-25 -67.5q34 -8 56 -34t22 -60q0 -44 -30 -74.5t-73 -30.5q-44 0 -74.5 31t-30.5 74z" />
    <glyph glyph-name="quoteright" unicode="&#x2019;" horiz-adv-x="291" 
d="M163 840q43 0 74 -31t31 -74q0 -132 -152 -259l-47 37q6 6 15.5 16.5t28.5 44t25 67.5q-34 8 -56 34t-22 60q0 44 30 74.5t73 30.5z" />
    <glyph glyph-name="quotesinglbase" unicode="&#x201a;" horiz-adv-x="291" 
d="M163 204q43 0 74 -31t31 -74q0 -132 -152 -259l-47 37q6 6 15.5 16.5t28.5 44t25 67.5q-34 8 -56 34t-22 60q0 44 30 74.5t73 30.5z" />
    <glyph glyph-name="quotedblleft" unicode="&#x201c;" horiz-adv-x="545" 
d="M23 581q0 132 152 259l47 -37q-6 -6 -15.5 -16.5t-28.5 -44t-25 -67.5q34 -8 56 -34t22 -60q0 -44 -30 -74.5t-73 -30.5q-44 0 -74.5 31t-30.5 74zM278 581q0 135 151 259l47 -37q-6 -6 -15.5 -16.5t-28.5 -44t-26 -67.5q35 -8 57 -34t22 -60q0 -43 -30.5 -74t-73.5 -31
t-73 30.5t-30 74.5z" />
    <glyph glyph-name="quotedblright" unicode="&#x201d;" horiz-adv-x="545" 
d="M164 840q43 0 73 -30.5t30 -74.5q0 -135 -151 -259l-47 37q6 6 15.5 16.5t28.5 44t26 67.5q-35 8 -57 34t-22 60q0 43 30.5 74t73.5 31zM417 840q43 0 74 -31t31 -74q0 -132 -152 -259l-47 37q6 6 15.5 16.5t28.5 44t25 67.5q-34 8 -56 34t-22 60q0 44 30 74.5t73 30.5z
" />
    <glyph glyph-name="quotedblbase" unicode="&#x201e;" horiz-adv-x="545" 
d="M164 204q43 0 73 -30.5t30 -74.5q0 -135 -151 -259l-47 37q6 6 15.5 16.5t28.5 44t26 67.5q-35 8 -57 34t-22 60q0 43 30.5 74t73.5 31zM417 204q43 0 74 -31t31 -74q0 -132 -152 -259l-47 37q6 6 15.5 16.5t28.5 44t25 67.5q-34 8 -56 34t-22 60q0 44 30 74.5t73 30.5z
" />
    <glyph glyph-name="dagger" unicode="&#x2020;" horiz-adv-x="542" 
d="M70 650h124v210h153v-210h125v-136h-125v-514h-153v514h-124v136z" />
    <glyph glyph-name="daggerdbl" unicode="&#x2021;" horiz-adv-x="542" 
d="M70 630h124v230h153v-230h125v-136h-125v-128h125v-136h-125v-230h-153v230h-124v136h124v128h-124v136z" />
    <glyph glyph-name="bullet" unicode="&#x2022;" horiz-adv-x="716" 
d="M357 553q82 0 139.5 -57.5t57.5 -139.5q0 -81 -57.5 -138t-139.5 -57q-81 0 -138 57t-57 138q0 82 57 139.5t138 57.5z" />
    <glyph glyph-name="ellipsis" unicode="&#x2026;" horiz-adv-x="1047" 
d="M174 213q48 0 81.5 -33.5t33.5 -81.5q0 -47 -33.5 -80.5t-81.5 -33.5q-47 0 -80.5 33.5t-33.5 80.5q0 48 33.5 81.5t80.5 33.5zM523 213q48 0 81.5 -33.5t33.5 -81.5q0 -47 -33.5 -80.5t-81.5 -33.5q-47 0 -80.5 33.5t-33.5 80.5q0 48 33.5 81.5t80.5 33.5zM872 213
q48 0 81.5 -33.5t33.5 -81.5q0 -47 -33.5 -80.5t-81.5 -33.5q-47 0 -80.5 33.5t-33.5 80.5q0 48 33.5 81.5t80.5 33.5z" />
    <glyph glyph-name="perthousand" unicode="&#x2030;" horiz-adv-x="1469" 
d="M23 643q0 86 64 141.5t159 55.5q93 0 156 -55.5t63 -141.5t-61.5 -141.5t-157.5 -55.5q-100 0 -161.5 55.5t-61.5 141.5zM193 0l480 825h118l-480 -825h-118zM153 643q0 -40 26 -65.5t67 -25.5q39 0 64 25.5t25 65.5t-25.5 66.5t-63.5 26.5q-39 0 -66 -26.5t-27 -66.5z
M516 181q0 86 61.5 141.5t161.5 55.5q96 0 157.5 -55.5t61.5 -141.5t-63 -141.5t-156 -55.5q-95 0 -159 55.5t-64 141.5zM1004 181q0 86 61.5 141.5t161.5 55.5q96 0 157.5 -55.5t61.5 -141.5t-63 -141.5t-156 -55.5q-95 0 -159 55.5t-64 141.5zM646 181q0 -40 27 -66.5
t66 -26.5q38 0 63.5 26.5t25.5 66.5t-25 65.5t-64 25.5q-41 0 -67 -25.5t-26 -65.5zM1134 181q0 -40 27 -66.5t66 -26.5q38 0 63.5 26.5t25.5 66.5t-25 65.5t-64 25.5q-41 0 -67 -25.5t-26 -65.5z" />
    <glyph glyph-name="guilsinglleft" unicode="&#x2039;" horiz-adv-x="375" 
d="M33 279l195 250l93 -73l-138 -177l138 -177l-93 -73z" />
    <glyph glyph-name="guilsinglright" unicode="&#x203a;" horiz-adv-x="375" 
d="M54 456l93 73l195 -250l-195 -250l-93 73l138 177z" />
    <glyph glyph-name="fraction" unicode="&#x2044;" horiz-adv-x="264" 
d="M-167 0l480 825h118l-480 -825h-118z" />
    <glyph glyph-name="Euro" unicode="&#x20ac;" horiz-adv-x="831" 
d="M23 550h96q47 127 164.5 208.5t257.5 81.5q80 0 147.5 -19t95.5 -38l28 -19l-80 -160q-7 6 -21 14.5t-56 22.5t-85 14q-152 0 -227 -105h303v-108h-346q-3 -15 -3 -30q0 -16 3 -31h346v-108h-303q74 -104 227 -104q43 0 83.5 12.5t59.5 25.5l19 13l80 -160q-4 -3 -11 -8
t-32.5 -18.5t-54.5 -23.5t-76 -18t-97 -8q-138 0 -256 81t-166 208h-96v108h72q-3 15 -3 31q0 15 3 30h-72v108z" />
    <glyph glyph-name="trademark" unicode="&#x2122;" horiz-adv-x="514" 
d="M17 825h183v-52h-61v-206h-61v206h-61v52zM232 825h63l57 -148l57 148h63l24 -258h-60l-12 153l-54 -151h-35l-54 151l-13 -153h-59z" />
    <glyph glyph-name="minus" unicode="&#x2212;" horiz-adv-x="632" 
d="M60 491h512v-153h-512v153z" />
    <glyph glyph-name="notequal" unicode="&#x2260;" horiz-adv-x="633" 
d="M60 611h289l84 144h118l-84 -144h105v-153h-194l-50 -87h244v-153h-333l-86 -148h-118l86 148h-61v153h150l50 87h-200v153z" />
    <glyph glyph-name="lessequal" unicode="&#x2264;" horiz-adv-x="667" 
d="M60 153h547v-153h-547v153zM60 603l547 222v-142l-358 -139l358 -139v-142l-547 222v118z" />
    <glyph glyph-name="greaterequal" unicode="&#x2265;" horiz-adv-x="667" 
d="M60 153h547v-153h-547v153zM60 825l547 -222v-118l-547 -222v142l358 139l-358 139v142z" />
    <glyph glyph-name="M.1" horiz-adv-x="956" 
d="M60 825h215l203 -476l203 476h215v-825h-188v429l-174 -424h-112l-174 424v-429h-188v825z" />
    <glyph glyph-name="Q.1" horiz-adv-x="867" 
d="M23 412q0 180 120 304t291 124q172 0 291 -124t119 -304q0 -147 -79 -259.5t-208 -154.5q6 0 53 -9t75 -9q38 0 69 13.5t43 26.5l12 14l59 -127q-2 -5 -6.5 -12.5t-20.5 -26.5t-35.5 -34t-52 -27t-69.5 -12q-61 0 -149 39t-152 39q-35 0 -65.5 -11.5t-43.5 -23.5l-13 -11
l-45 68q8 10 21.5 25.5t48.5 41.5t62 26q-147 31 -236 148t-89 276zM226 412q0 -48 11 -89.5t34.5 -75.5t65 -53.5t97.5 -19.5q105 0 156 68t51 170q0 101 -52 170t-155 69q-102 0 -155 -69t-53 -170z" />
    <glyph glyph-name="R.1" horiz-adv-x="720" 
d="M60 825h301q126 0 204 -65t78 -189q0 -94 -46.5 -158.5t-126.5 -90.5l108 -130q32 -39 65 -39q12 0 23.5 3.5t17.5 7.5l5 4l54 -136q-5 -5 -15 -13t-45.5 -21.5t-75.5 -13.5q-29 0 -57 9t-46 22t-32.5 26t-21.5 22l-6 9l-181 234h-15v-306h-188v825zM248 675v-219h53
q63 0 103.5 25.5t40.5 83.5q0 59 -40.5 84.5t-103.5 25.5h-53z" />
    <glyph glyph-name="a.1" horiz-adv-x="630" 
d="M226 151q0 -27 24.5 -43.5t60.5 -16.5q35 0 60 18.5t25 41.5t-25 39.5t-60 16.5q-37 0 -61 -15t-24 -41zM50 136q0 71 49 118t134 47q101 0 157 -39v37q0 39 -35 63.5t-77 24.5q-41 0 -75.5 -7.5t-48.5 -15.5l-15 -7l-56 121q7 6 21.5 14t65 22t108.5 14q40 0 79.5 -7
t78.5 -24.5t68.5 -43.5t47.5 -67t18 -92v-294h-180v21q-66 -37 -150 -37q-82 0 -136 42t-54 110z" />
    <glyph glyph-name="j.1" horiz-adv-x="297" 
d="M151 830q43 0 74 -31t31 -74t-31 -74t-74 -31t-74 31t-31 74t31 74t74 31zM60 512h177v-772h-177v772z" />
    <glyph glyph-name="t.1" horiz-adv-x="297" 
d="M60 704h177v-192h108v-135h-108v-377h-177v377h-74v135h74v192z" />
    <glyph glyph-name="u.1" horiz-adv-x="661" 
d="M50 512h177v-290q0 -40 25.5 -70t66.5 -30q40 0 72.5 31t32.5 69v290h177v-512h-177v53q-72 -69 -149 -69q-38 0 -75.5 10t-72 31t-56 59.5t-21.5 89.5v338z" />
    </font>
</defs>
</svg>
